<?xml version="1.0" encoding="UTF-8" standalone="no"?><svg xmlns="http://www.w3.org/2000/svg" xmlns:xlink="http://www.w3.org/1999/xlink" contentScriptType="application/ecmascript" contentStyleType="text/css" height="630px" preserveAspectRatio="none" style="width:565px;height:630px;" version="1.1" viewBox="0 0 565 630" width="565px" zoomAndPan="magnify"><defs><filter height="300%" id="fe452ujy2a50r" width="300%" x="-1" y="-1"><feGaussianBlur result="blurOut" stdDeviation="2.0"/><feColorMatrix in="blurOut" result="blurOut2" type="matrix" values="0 0 0 0 0 0 0 0 0 0 0 0 0 0 0 0 0 0 .4 0"/><feOffset dx="4.0" dy="4.0" in="blurOut2" result="blurOut3"/><feBlend in="SourceGraphic" in2="blurOut3" mode="normal"/></filter></defs><g><polygon fill="#DDDDDD" filter="url(#fe452ujy2a50r)" points="252.5,6,356.5,6,363.5,28.2969,370.5,28.2969,370.5,58.5938,252.5,58.5938,252.5,6" style="stroke: #000000; stroke-width: 1.5;"/><line style="stroke: #000000; stroke-width: 1.5;" x1="252.5" x2="363.5" y1="28.2969" y2="28.2969"/><text fill="#000000" font-family="sans-serif" font-size="14" font-weight="bold" lengthAdjust="spacingAndGlyphs" textLength="98" x="256.5" y="20.9951">mastermind</text><polygon fill="#DDDDDD" filter="url(#fe452ujy2a50r)" points="226.5,232,316.5,232,323.5,254.2969,330.5,254.2969,330.5,284.5938,226.5,284.5938,226.5,232" style="stroke: #000000; stroke-width: 1.5;"/><line style="stroke: #000000; stroke-width: 1.5;" x1="226.5" x2="323.5" y1="254.2969" y2="254.2969"/><text fill="#000000" font-family="sans-serif" font-size="14" font-weight="bold" lengthAdjust="spacingAndGlyphs" textLength="84" x="230.5" y="246.9951">com.views</text><polygon fill="#FFFFFF" filter="url(#fe452ujy2a50r)" points="405.5,6,445.5,6,452.5,28.2969,459.5,28.2969,459.5,58.5938,405.5,58.5938,405.5,6" style="stroke: #000000; stroke-width: 1.5;"/><line style="stroke: #000000; stroke-width: 1.5;" x1="405.5" x2="452.5" y1="28.2969" y2="28.2969"/><text fill="#000000" font-family="sans-serif" font-size="14" font-weight="bold" lengthAdjust="spacingAndGlyphs" textLength="34" x="409.5" y="20.9951">com</text><polygon fill="#DDDDDD" filter="url(#fe452ujy2a50r)" points="256.5,345,390.5,345,397.5,367.2969,404.5,367.2969,404.5,397.5938,256.5,397.5938,256.5,345" style="stroke: #000000; stroke-width: 1.5;"/><line style="stroke: #000000; stroke-width: 1.5;" x1="256.5" x2="397.5" y1="367.2969" y2="367.2969"/><text fill="#000000" font-family="sans-serif" font-size="14" font-weight="bold" lengthAdjust="spacingAndGlyphs" textLength="128" x="260.5" y="359.9951">com.controllers</text><polygon fill="#FFFFFF" filter="url(#fe452ujy2a50r)" points="494.5,6,534.5,6,541.5,28.2969,548.5,28.2969,548.5,58.5938,494.5,58.5938,494.5,6" style="stroke: #000000; stroke-width: 1.5;"/><line style="stroke: #000000; stroke-width: 1.5;" x1="494.5" x2="541.5" y1="28.2969" y2="28.2969"/><text fill="#000000" font-family="sans-serif" font-size="14" font-weight="bold" lengthAdjust="spacingAndGlyphs" textLength="34" x="498.5" y="20.9951">java</text><polygon fill="#DDDDDD" filter="url(#fe452ujy2a50r)" points="216,458,319,458,326,480.2969,333,480.2969,333,510.5938,216,510.5938,216,458" style="stroke: #000000; stroke-width: 1.5;"/><line style="stroke: #000000; stroke-width: 1.5;" x1="216" x2="326" y1="480.2969" y2="480.2969"/><text fill="#000000" font-family="sans-serif" font-size="14" font-weight="bold" lengthAdjust="spacingAndGlyphs" textLength="97" x="220" y="472.9951">com.models</text><polygon fill="#FFFFFF" filter="url(#fe452ujy2a50r)" points="287,571,360,571,367,593.2969,374,593.2969,374,623.5938,287,623.5938,287,571" style="stroke: #000000; stroke-width: 1.5;"/><line style="stroke: #000000; stroke-width: 1.5;" x1="287" x2="367" y1="593.2969" y2="593.2969"/><text fill="#000000" font-family="sans-serif" font-size="14" font-weight="bold" lengthAdjust="spacingAndGlyphs" textLength="67" x="291" y="585.9951">java.util</text><polygon fill="#DDDDDD" filter="url(#fe452ujy2a50r)" points="63,232,106,232,113,254.2969,120,254.2969,120,284.5938,63,284.5938,63,232" style="stroke: #000000; stroke-width: 1.5;"/><line style="stroke: #000000; stroke-width: 1.5;" x1="63" x2="113" y1="254.2969" y2="254.2969"/><text fill="#000000" font-family="sans-serif" font-size="14" font-weight="bold" lengthAdjust="spacingAndGlyphs" textLength="37" x="67" y="246.9951">utils</text><polygon fill="#FFFFFF" filter="url(#fe452ujy2a50r)" points="54.5,345,114.5,345,121.5,367.2969,128.5,367.2969,128.5,397.5938,54.5,397.5938,54.5,345" style="stroke: #000000; stroke-width: 1.5;"/><line style="stroke: #000000; stroke-width: 1.5;" x1="54.5" x2="121.5" y1="367.2969" y2="367.2969"/><text fill="#000000" font-family="sans-serif" font-size="14" font-weight="bold" lengthAdjust="spacingAndGlyphs" textLength="54" x="58.5" y="359.9951">java.io</text><polygon fill="#DDDDDD" filter="url(#fe452ujy2a50r)" points="16,119,173,119,180,141.2969,187,141.2969,187,171.5938,16,171.5938,16,119" style="stroke: #000000; stroke-width: 1.5;"/><line style="stroke: #000000; stroke-width: 1.5;" x1="16" x2="180" y1="141.2969" y2="141.2969"/><text fill="#000000" font-family="sans-serif" font-size="14" font-weight="bold" lengthAdjust="spacingAndGlyphs" textLength="151" x="20" y="133.9951">com.views.console</text><polygon fill="#DDDDDD" filter="url(#fe452ujy2a50r)" points="294,119,459,119,466,141.2969,473,141.2969,473,171.5938,294,171.5938,294,119" style="stroke: #000000; stroke-width: 1.5;"/><line style="stroke: #000000; stroke-width: 1.5;" x1="294" x2="466" y1="141.2969" y2="141.2969"/><text fill="#000000" font-family="sans-serif" font-size="14" font-weight="bold" lengthAdjust="spacingAndGlyphs" textLength="159" x="298" y="133.9951">com.views.graphics</text><!--MD5=[dd26780f7ade90258cba90f8a3fc350d]
link mastermind to com.views.graphics--><path codeLine="2" d="M328.199,59.245 C338.922,75.776 352.889,97.308 364.103,114.597 " fill="none" id="mastermind-to-com.views.graphics" style="stroke: #A80036; stroke-width: 1.0; stroke-dasharray: 7.0,7.0;"/><polygon fill="#A80036" points="366.891,118.895,365.3493,109.1676,364.1701,114.7001,358.6375,113.521,366.891,118.895" style="stroke: #A80036; stroke-width: 1.0;"/><!--MD5=[0f21d0f3f51b6066a88cc49931dc9871]
link mastermind to com.views.console--><path codeLine="3" d="M263.058,59.105 C230.599,76.262 187.862,98.851 154.497,116.487 " fill="none" id="mastermind-to-com.views.console" style="stroke: #A80036; stroke-width: 1.0; stroke-dasharray: 7.0,7.0;"/><polygon fill="#A80036" points="150.062,118.832,159.888,118.1611,154.4821,116.4948,156.1485,111.0889,150.062,118.832" style="stroke: #A80036; stroke-width: 1.0;"/><!--MD5=[1764400e9cf00baa634ab1739b50665d]
link mastermind to com.controllers--><path codeLine="4" d="M370.602,53.925 C417.242,71.382 476.677,97.079 490.5,119 C541.548,199.956 435.337,295.199 372.44,341.836 " fill="none" id="mastermind-to-com.controllers" style="stroke: #A80036; stroke-width: 1.0; stroke-dasharray: 7.0,7.0;"/><polygon fill="#A80036" points="368.362,344.837,377.9818,342.7254,372.3894,341.8739,373.2409,336.2815,368.362,344.837" style="stroke: #A80036; stroke-width: 1.0;"/><!--MD5=[93494a95faca67e6090b966ee0f4404b]
link mastermind to com.views--><path d="M297.877,59.251 C289.904,75.809 280.618,98.069 276.5,119 C269.311,155.54 271.551,198.554 274.444,226.838 " fill="none" id="mastermind-to-com.views" style="stroke: #A80036; stroke-width: 1.0; stroke-dasharray: 7.0,7.0;"/><polygon fill="#A80036" points="274.989,231.943,278.0097,222.5688,274.4575,226.9713,270.055,223.4191,274.989,231.943" style="stroke: #A80036; stroke-width: 1.0;"/><!--MD5=[d31b0c90aba53d3b6dae5a627eaf9828]
link com.controllers to com.models--><path codeLine="7" d="M317.512,398.245 C309.242,414.636 298.493,435.943 289.809,453.156 " fill="none" id="com.controllers-to-com.models" style="stroke: #A80036; stroke-width: 1.0; stroke-dasharray: 7.0,7.0;"/><polygon fill="#A80036" points="287.418,457.895,295.043,451.6613,289.6701,453.4309,287.9004,448.058,287.418,457.895" style="stroke: #A80036; stroke-width: 1.0;"/><!--MD5=[7957993d05f968a82708f7c5d9a1d510]
link com.controllers to java.util--><path codeLine="8" d="M338.099,398.045 C342.708,414.897 348.141,437.556 350.5,458 C353.2,481.4 353.2,487.6 350.5,511 C348.362,529.5277 343.7,549.874 339.414,566.0692 " fill="none" id="com.controllers-to-java.util" style="stroke: #A80036; stroke-width: 1.0; stroke-dasharray: 7.0,7.0;"/><polygon fill="#A80036" points="338.099,570.9554,344.3005,563.3042,339.3984,566.1272,336.5754,561.2251,338.099,570.9554" style="stroke: #A80036; stroke-width: 1.0;"/><!--MD5=[12ab6cc8228a55063dbbd85836216b74]
link com.models to java.util--><path d="M287.488,511.245 C295.758,527.6359 306.507,548.9433 315.191,566.1562 " fill="none" id="com.models-to-java.util" style="stroke: #A80036; stroke-width: 1.0; stroke-dasharray: 7.0,7.0;"/><polygon fill="#A80036" points="317.582,570.895,317.0981,561.058,315.3293,566.4312,309.9561,564.6624,317.582,570.895" style="stroke: #A80036; stroke-width: 1.0;"/><!--MD5=[e79504c030c2940e8dd8427e90ad9823]
link utils to java.io--><path d="M91.5,285.245 C91.5,301.496 91.5,322.579 91.5,339.714 " fill="none" id="utils-to-java.io" style="stroke: #A80036; stroke-width: 1.0; stroke-dasharray: 7.0,7.0;"/><polygon fill="#A80036" points="91.5,344.895,95.5,335.895,91.5,339.895,87.5,335.895,91.5,344.895" style="stroke: #A80036; stroke-width: 1.0;"/><!--MD5=[a29463312be9d7ed2b05522add28b9be]
link com.views to com.controllers--><path d="M290.561,285.245 C298.239,301.636 308.221,322.943 316.285,340.156 " fill="none" id="com.views-to-com.controllers" style="stroke: #A80036; stroke-width: 1.0; stroke-dasharray: 7.0,7.0;"/><polygon fill="#A80036" points="318.505,344.895,318.3081,335.0481,316.3834,340.3674,311.064,338.4427,318.505,344.895" style="stroke: #A80036; stroke-width: 1.0;"/><!--MD5=[6ceb3e0cd7526be7a87a5b75582821b8]
link com.views.console to com.views--><path d="M142.552,172.245 C169.695,189.266 205.292,211.59 233.251,229.124 " fill="none" id="com.views.console-to-com.views" style="stroke: #A80036; stroke-width: 1.0; stroke-dasharray: 7.0,7.0;"/><polygon fill="#A80036" points="237.67,231.895,232.1696,223.7252,233.4338,229.239,227.92,230.5031,237.67,231.895" style="stroke: #A80036; stroke-width: 1.0;"/><!--MD5=[faeb869ffd30b4a25c8b0c63900fc7f9]
link com.views.console to com.controllers--><path d="M117.822,172.113 C137.239,201.41 171.685,249.858 208.5,285 C231.044,306.519 259.396,326.724 283.093,342.083 " fill="none" id="com.views.console-to-com.controllers" style="stroke: #A80036; stroke-width: 1.0; stroke-dasharray: 7.0,7.0;"/><polygon fill="#A80036" points="287.461,344.894,282.0575,336.6598,283.2565,342.1881,277.7281,343.387,287.461,344.894" style="stroke: #A80036; stroke-width: 1.0;"/><!--MD5=[a794cce7d860cab5f0e999d9e4a7f3e9]
link com.views.console to utils--><path d="M99.1807,172.245 C97.7166,188.496 95.8172,209.579 94.2735,226.714 " fill="none" id="com.views.console-to-utils" style="stroke: #A80036; stroke-width: 1.0; stroke-dasharray: 7.0,7.0;"/><polygon fill="#A80036" points="93.8068,231.895,98.5981,223.2901,94.2554,226.9152,90.6304,222.5724,93.8068,231.895" style="stroke: #A80036; stroke-width: 1.0;"/><!--MD5=[7e73c3dad3b2ed4b65532e910d3e1ac2]
link com.views.graphics to com.views--><path d="M359.147,172.245 C343.377,188.916 322.796,210.673 306.372,228.035 " fill="none" id="com.views.graphics-to-com.views" style="stroke: #A80036; stroke-width: 1.0; stroke-dasharray: 7.0,7.0;"/><polygon fill="#A80036" points="302.721,231.895,311.812,228.1063,306.1573,228.2629,306.0007,222.6083,302.721,231.895" style="stroke: #A80036; stroke-width: 1.0;"/><!--MD5=[a149141504a3bbf89e2f1528b57f0300]
link com.views.graphics to com.controllers--><path d="M377.42,172.196 C367.602,213.69 348.296,295.287 337.767,339.785 " fill="none" id="com.views.graphics-to-com.controllers" style="stroke: #A80036; stroke-width: 1.0; stroke-dasharray: 7.0,7.0;"/><polygon fill="#A80036" points="336.59,344.76,342.555,336.923,337.7414,339.8944,334.77,335.0808,336.59,344.76" style="stroke: #A80036; stroke-width: 1.0;"/><!--MD5=[58a3a984e8cd9ea4457a68d9f7d3a277]
@startuml
package mastermind #DDDDDD { }
mastermind .down.> com.views.graphics
mastermind .down.> com.views.console
mastermind .down.> com.controllers
mastermind .down.> com.views
package com.controllers #DDDDDD { }
com.controllers .down.> com.models
com.controllers .down.> java.util
package com.models #DDDDDD { }
package java.util{ }
com.models .down.> java.util
package utils #DDDDDD { }
package java.io{ }
utils .down.> java.io
package com.views #DDDDDD { }
com.views .down.> com.controllers
package com.views.console #DDDDDD { }
com.views.console .down.> com.views
com.views.console .down.> com.controllers
com.views.console .down.> utils
package com.views.graphics #DDDDDD { }
com.views.graphics .down.> com.views
com.views.graphics .down.> com.controllers
@enduml

PlantUML version 1.2020.20beta2(Unknown compile time)
(GPL source distribution)
Java Runtime: Java(TM) SE Runtime Environment
JVM: Java HotSpot(TM) 64-Bit Server VM
Default Encoding: UTF-8
Language: en
Country: US
--></g></svg>