<?xml version="1.0" encoding="UTF-8" standalone="no"?><svg xmlns="http://www.w3.org/2000/svg" xmlns:xlink="http://www.w3.org/1999/xlink" contentScriptType="application/ecmascript" contentStyleType="text/css" height="404px" preserveAspectRatio="none" style="width:409px;height:404px;" version="1.1" viewBox="0 0 409 404" width="409px" zoomAndPan="magnify"><defs><filter height="300%" id="fmsjq33jbsp36" width="300%" x="-1" y="-1"><feGaussianBlur result="blurOut" stdDeviation="2.0"/><feColorMatrix in="blurOut" result="blurOut2" type="matrix" values="0 0 0 0 0 0 0 0 0 0 0 0 0 0 0 0 0 0 .4 0"/><feOffset dx="4.0" dy="4.0" in="blurOut2" result="blurOut3"/><feBlend in="SourceGraphic" in2="blurOut3" mode="normal"/></filter></defs><g><polygon fill="#DDDDDD" filter="url(#fmsjq33jbsp36)" points="115.5,6,219.5,6,226.5,28.2969,233.5,28.2969,233.5,58.5938,115.5,58.5938,115.5,6" style="stroke: #000000; stroke-width: 1.5;"/><line style="stroke: #000000; stroke-width: 1.5;" x1="115.5" x2="226.5" y1="28.2969" y2="28.2969"/><text fill="#000000" font-family="sans-serif" font-size="14" font-weight="bold" lengthAdjust="spacingAndGlyphs" textLength="98" x="119.5" y="20.9951">mastermind</text><polygon fill="#DDDDDD" filter="url(#fmsjq33jbsp36)" points="16,232,183,232,190,254.2969,197,254.2969,197,284.5938,16,284.5938,16,232" style="stroke: #000000; stroke-width: 1.5;"/><line style="stroke: #000000; stroke-width: 1.5;" x1="16" x2="190" y1="254.2969" y2="254.2969"/><text fill="#000000" font-family="sans-serif" font-size="14" font-weight="bold" lengthAdjust="spacingAndGlyphs" textLength="161" x="20" y="246.9951">mastermind.models</text><polygon fill="#FFFFFF" filter="url(#fmsjq33jbsp36)" points="63,345,136,345,143,367.2969,150,367.2969,150,397.5938,63,397.5938,63,345" style="stroke: #000000; stroke-width: 1.5;"/><line style="stroke: #000000; stroke-width: 1.5;" x1="63" x2="143" y1="367.2969" y2="367.2969"/><text fill="#000000" font-family="sans-serif" font-size="14" font-weight="bold" lengthAdjust="spacingAndGlyphs" textLength="67" x="67" y="359.9951">java.util</text><polygon fill="#DDDDDD" filter="url(#fmsjq33jbsp36)" points="232.5,232,378.5,232,385.5,254.2969,392.5,254.2969,392.5,284.5938,232.5,284.5938,232.5,232" style="stroke: #000000; stroke-width: 1.5;"/><line style="stroke: #000000; stroke-width: 1.5;" x1="232.5" x2="385.5" y1="254.2969" y2="254.2969"/><text fill="#000000" font-family="sans-serif" font-size="14" font-weight="bold" lengthAdjust="spacingAndGlyphs" textLength="140" x="236.5" y="246.9951">mastermind.utils</text><polygon fill="#FFFFFF" filter="url(#fmsjq33jbsp36)" points="275.5,345,335.5,345,342.5,367.2969,349.5,367.2969,349.5,397.5938,275.5,397.5938,275.5,345" style="stroke: #000000; stroke-width: 1.5;"/><line style="stroke: #000000; stroke-width: 1.5;" x1="275.5" x2="342.5" y1="367.2969" y2="367.2969"/><text fill="#000000" font-family="sans-serif" font-size="14" font-weight="bold" lengthAdjust="spacingAndGlyphs" textLength="54" x="279.5" y="359.9951">java.io</text><polygon fill="#DDDDDD" filter="url(#fmsjq33jbsp36)" points="159.5,119,313.5,119,320.5,141.2969,327.5,141.2969,327.5,171.5938,159.5,171.5938,159.5,119" style="stroke: #000000; stroke-width: 1.5;"/><line style="stroke: #000000; stroke-width: 1.5;" x1="159.5" x2="320.5" y1="141.2969" y2="141.2969"/><text fill="#000000" font-family="sans-serif" font-size="14" font-weight="bold" lengthAdjust="spacingAndGlyphs" textLength="148" x="163.5" y="133.9951">mastermind.views</text><!--MD5=[e35537eb96f5ac075f1f91433273a808]
link mastermind to mastermind.views--><path codeLine="2" d="M190.503,59.245 C200.78,75.776 214.164,97.308 224.911,114.597 " fill="none" id="mastermind-to-mastermind.views" style="stroke: #A80036; stroke-width: 1.0; stroke-dasharray: 7.0,7.0;"/><polygon fill="#A80036" points="227.583,118.895,226.2313,109.1393,224.9444,114.6479,219.4359,113.361,227.583,118.895" style="stroke: #A80036; stroke-width: 1.0;"/><!--MD5=[3f67d8a440fed401fe3b5323e86f87b4]
link mastermind to mastermind.models--><path codeLine="3" d="M163.716,59.028 C156.831,75.873 148.01,98.531 141.5,119 C129.859,155.601 119.494,198.602 113.1213,226.867 " fill="none" id="mastermind-to-mastermind.models" style="stroke: #A80036; stroke-width: 1.0; stroke-dasharray: 7.0,7.0;"/><polygon fill="#A80036" points="111.9784,231.968,117.8511,224.0616,113.0726,227.0892,110.045,222.3108,111.9784,231.968" style="stroke: #A80036; stroke-width: 1.0;"/><!--MD5=[bf16e85c09ac2493f319629dda43fa4f]
link mastermind.models to java.util--><path d="M106.5,285.245 C106.5,301.4958 106.5,322.5795 106.5,339.7139 " fill="none" id="mastermind.models-to-java.util" style="stroke: #A80036; stroke-width: 1.0; stroke-dasharray: 7.0,7.0;"/><polygon fill="#A80036" points="106.5,344.895,110.5,335.895,106.5,339.895,102.5,335.895,106.5,344.895" style="stroke: #A80036; stroke-width: 1.0;"/><!--MD5=[dfc658cc50cf405c058d94c2b8d082b1]
link mastermind.utils to java.io--><path d="M312.5,285.245 C312.5,301.4958 312.5,322.5795 312.5,339.7139 " fill="none" id="mastermind.utils-to-java.io" style="stroke: #A80036; stroke-width: 1.0; stroke-dasharray: 7.0,7.0;"/><polygon fill="#A80036" points="312.5,344.895,316.5,335.895,312.5,339.895,308.5,335.895,312.5,344.895" style="stroke: #A80036; stroke-width: 1.0;"/><!--MD5=[9452f5a6b240960a46d89fd31eee6232]
link mastermind.views to mastermind.models--><path d="M211.725,172.245 C190.889,189.126 163.617,211.223 142.059,228.69 " fill="none" id="mastermind.views-to-mastermind.models" style="stroke: #A80036; stroke-width: 1.0; stroke-dasharray: 7.0,7.0;"/><polygon fill="#A80036" points="138.103,231.895,147.6139,229.3372,141.9879,228.7474,142.5777,223.1213,138.103,231.895" style="stroke: #A80036; stroke-width: 1.0;"/><!--MD5=[a91b4b87195036e56c0bb1a5864ad7ab]
link mastermind.views to mastermind.utils--><path d="M259.503,172.245 C269.78,188.776 283.164,210.308 293.911,227.597 " fill="none" id="mastermind.views-to-mastermind.utils" style="stroke: #A80036; stroke-width: 1.0; stroke-dasharray: 7.0,7.0;"/><polygon fill="#A80036" points="296.583,231.895,295.2313,222.1393,293.9444,227.6479,288.4359,226.361,296.583,231.895" style="stroke: #A80036; stroke-width: 1.0;"/><!--MD5=[197f2fcae2d22f2ea1f5a94bae876406]
@startuml
package mastermind #DDDDDD { }
mastermind .down.> mastermind.views
mastermind .down.> mastermind.models

package mastermind.models #DDDDDD { }
package java.util{ }
mastermind.models .down.> java.util

package mastermind.utils #DDDDDD { }
package java.io{ }
mastermind.utils .down.> java.io

package mastermind.views #DDDDDD { }
mastermind.views .down.> mastermind.models
mastermind.views .down.> mastermind.utils
@enduml

PlantUML version 1.2020.19beta4(Unknown compile time)
(GPL source distribution)
Java Runtime: Java(TM) SE Runtime Environment
JVM: Java HotSpot(TM) 64-Bit Server VM
Default Encoding: UTF-8
Language: en
Country: US
--></g></svg>