<?xml version="1.0" encoding="UTF-8" standalone="no"?><svg xmlns="http://www.w3.org/2000/svg" xmlns:xlink="http://www.w3.org/1999/xlink" contentScriptType="application/ecmascript" contentStyleType="text/css" height="1050px" preserveAspectRatio="none" style="width:1150px;height:1050px;" version="1.1" viewBox="0 0 1150 1050" width="1150px" zoomAndPan="magnify"><defs><filter height="300%" id="fh4h3it3iq9lk" width="300%" x="-1" y="-1"><feGaussianBlur result="blurOut" stdDeviation="2.0"/><feColorMatrix in="blurOut" result="blurOut2" type="matrix" values="0 0 0 0 0 0 0 0 0 0 0 0 0 0 0 0 0 0 .4 0"/><feOffset dx="4.0" dy="4.0" in="blurOut2" result="blurOut3"/><feBlend in="SourceGraphic" in2="blurOut3" mode="normal"/></filter></defs><g><!--MD5=[57ab11106b6017d1c059bb8de6501622]
cluster mastermind.views--><polygon fill="#FFFFFF" filter="url(#fh4h3it3iq9lk)" points="217,6,371,6,378,28.2969,991,28.2969,991,920,217,920,217,6" style="stroke: #000000; stroke-width: 1.5;"/><line style="stroke: #000000; stroke-width: 1.5;" x1="217" x2="378" y1="28.2969" y2="28.2969"/><text fill="#000000" font-family="sans-serif" font-size="14" font-weight="bold" lengthAdjust="spacingAndGlyphs" textLength="148" x="221" y="20.9951">mastermind.views</text><!--MD5=[8e0b9655f0966c29230933410523611d]
cluster mastermind.models--><polygon fill="#FFFFFF" filter="url(#fh4h3it3iq9lk)" points="16,515,183,515,190,537.2969,193,537.2969,193,614,16,614,16,515" style="stroke: #000000; stroke-width: 1.5;"/><line style="stroke: #000000; stroke-width: 1.5;" x1="16" x2="190" y1="537.2969" y2="537.2969"/><text fill="#000000" font-family="sans-serif" font-size="14" font-weight="bold" lengthAdjust="spacingAndGlyphs" textLength="161" x="20" y="529.9951">mastermind.models</text><!--MD5=[f2bedc297083edee028363469990e0f1]
cluster mastermind.utils--><polygon fill="#FFFFFF" filter="url(#fh4h3it3iq9lk)" points="465,944,611,944,618,966.2969,722,966.2969,722,1043,465,1043,465,944" style="stroke: #000000; stroke-width: 1.5;"/><line style="stroke: #000000; stroke-width: 1.5;" x1="465" x2="618" y1="966.2969" y2="966.2969"/><text fill="#000000" font-family="sans-serif" font-size="14" font-weight="bold" lengthAdjust="spacingAndGlyphs" textLength="140" x="469" y="958.9951">mastermind.utils</text><!--MD5=[daba0edef7c2b2303027ed075b2f09fd]
class mastermind.views.ColorView--><rect codeLine="1" fill="#FEFECE" filter="url(#fh4h3it3iq9lk)" height="99.2188" id="mastermind.views.ColorView" style="stroke: #A80036; stroke-width: 1.5;" width="129" x="371.5" y="741"/><ellipse cx="402.7" cy="757" fill="#ADD1B2" rx="11" ry="11" style="stroke: #A80036; stroke-width: 1.0;"/><path d="M405.0438,752.6719 C404.1063,752.2344 403.5125,752.0938 402.6375,752.0938 C400.0125,752.0938 398.0125,754.1719 398.0125,756.8906 L398.0125,758.0156 C398.0125,760.5938 400.1219,762.4844 403.0125,762.4844 C404.2313,762.4844 405.3875,762.1875 406.1375,761.6406 C406.7156,761.2344 407.0438,760.7813 407.0438,760.3906 C407.0438,759.9375 406.6531,759.5469 406.1844,759.5469 C405.9656,759.5469 405.7625,759.625 405.575,759.8125 C405.1219,760.2969 405.1219,760.2969 404.9344,760.3906 C404.5125,760.6563 403.825,760.7813 403.0594,760.7813 C401.0125,760.7813 399.7156,759.6875 399.7156,757.9844 L399.7156,756.8906 C399.7156,755.1094 400.9656,753.7969 402.7,753.7969 C403.2781,753.7969 403.8875,753.9531 404.3563,754.2031 C404.8406,754.4844 405.0125,754.7031 405.1063,755.1094 C405.1688,755.5156 405.2,755.6406 405.3406,755.7656 C405.4813,755.9063 405.7156,756.0156 405.9344,756.0156 C406.2,756.0156 406.4656,755.875 406.6375,755.6563 C406.7469,755.5 406.7781,755.3125 406.7781,754.8906 L406.7781,753.4688 C406.7781,753.0313 406.7625,752.9063 406.6688,752.75 C406.5125,752.4844 406.2313,752.3438 405.9344,752.3438 C405.6375,752.3438 405.4344,752.4375 405.2156,752.75 L405.0438,752.6719 Z "/><text fill="#000000" font-family="sans-serif" font-size="12" lengthAdjust="spacingAndGlyphs" textLength="61" x="420.3" y="761.1543">ColorView</text><line style="stroke: #A80036; stroke-width: 1.5;" x1="372.5" x2="499.5" y1="773" y2="773"/><rect fill="none" height="6" style="stroke: #C82930; stroke-width: 1.0;" width="6" x="379.5" y="781"/><text fill="#000000" font-family="sans-serif" font-size="11" lengthAdjust="spacingAndGlyphs" textLength="63" x="391.5" y="787.2104">color: Color</text><line style="stroke: #A80036; stroke-width: 1.5;" x1="372.5" x2="499.5" y1="793.8047" y2="793.8047"/><polygon fill="#4177AF" points="382.5,800.8047,378.5,806.8047,386.5,806.8047" style="stroke: #1963A0; stroke-width: 1.0;"/><text fill="#000000" font-family="sans-serif" font-size="11" lengthAdjust="spacingAndGlyphs" textLength="94" x="391.5" y="808.0151">ColorView(Color)</text><ellipse cx="382.5" cy="817.6094" fill="#84BE84" rx="3" ry="3" style="stroke: #038048; stroke-width: 1.0;"/><text fill="#000000" font-family="sans-serif" font-size="11" lengthAdjust="spacingAndGlyphs" textLength="67" x="391.5" y="820.8198">write(): void</text><ellipse cx="382.5" cy="830.4141" fill="#84BE84" rx="3" ry="3" style="stroke: #038048; stroke-width: 1.0;"/><text fill="#000000" font-family="sans-serif" font-size="11" lengthAdjust="spacingAndGlyphs" textLength="103" x="391.5" y="833.6245">writeInitials(): void</text><!--MD5=[ee236011c866e79872d7eb09821c7fe9]
class mastermind.views.ErrorView--><rect codeLine="8" fill="#FEFECE" filter="url(#fh4h3it3iq9lk)" height="99.2188" id="mastermind.views.ErrorView" style="stroke: #A80036; stroke-width: 1.5;" width="145" x="535.5" y="741"/><ellipse cx="574.8" cy="757" fill="#ADD1B2" rx="11" ry="11" style="stroke: #A80036; stroke-width: 1.0;"/><path d="M577.1438,752.6719 C576.2063,752.2344 575.6125,752.0938 574.7375,752.0938 C572.1125,752.0938 570.1125,754.1719 570.1125,756.8906 L570.1125,758.0156 C570.1125,760.5938 572.2219,762.4844 575.1125,762.4844 C576.3313,762.4844 577.4875,762.1875 578.2375,761.6406 C578.8156,761.2344 579.1438,760.7813 579.1438,760.3906 C579.1438,759.9375 578.7531,759.5469 578.2844,759.5469 C578.0656,759.5469 577.8625,759.625 577.675,759.8125 C577.2219,760.2969 577.2219,760.2969 577.0344,760.3906 C576.6125,760.6563 575.925,760.7813 575.1594,760.7813 C573.1125,760.7813 571.8156,759.6875 571.8156,757.9844 L571.8156,756.8906 C571.8156,755.1094 573.0656,753.7969 574.8,753.7969 C575.3781,753.7969 575.9875,753.9531 576.4563,754.2031 C576.9406,754.4844 577.1125,754.7031 577.2063,755.1094 C577.2688,755.5156 577.3,755.6406 577.4406,755.7656 C577.5813,755.9063 577.8156,756.0156 578.0344,756.0156 C578.3,756.0156 578.5656,755.875 578.7375,755.6563 C578.8469,755.5 578.8781,755.3125 578.8781,754.8906 L578.8781,753.4688 C578.8781,753.0313 578.8625,752.9063 578.7688,752.75 C578.6125,752.4844 578.3313,752.3438 578.0344,752.3438 C577.7375,752.3438 577.5344,752.4375 577.3156,752.75 L577.1438,752.6719 Z "/><text fill="#000000" font-family="sans-serif" font-size="12" lengthAdjust="spacingAndGlyphs" textLength="59" x="594.2" y="761.1543">ErrorView</text><line style="stroke: #A80036; stroke-width: 1.5;" x1="536.5" x2="679.5" y1="773" y2="773"/><rect fill="none" height="6" style="stroke: #C82930; stroke-width: 1.0;" width="6" x="543.5" y="781"/><text fill="#000000" font-family="sans-serif" font-size="11" lengthAdjust="spacingAndGlyphs" textLength="60" x="555.5" y="787.2104">error: Error</text><rect fill="none" height="6" style="stroke: #C82930; stroke-width: 1.0;" width="6" x="543.5" y="793.8047"/><text fill="#000000" font-family="sans-serif" font-size="11" lengthAdjust="spacingAndGlyphs" text-decoration="underline" textLength="112" x="555.5" y="800.0151">MESSAGES: String[]</text><line style="stroke: #A80036; stroke-width: 1.5;" x1="536.5" x2="679.5" y1="806.6094" y2="806.6094"/><polygon fill="#4177AF" points="546.5,813.6094,542.5,819.6094,550.5,819.6094" style="stroke: #1963A0; stroke-width: 1.0;"/><text fill="#000000" font-family="sans-serif" font-size="11" lengthAdjust="spacingAndGlyphs" textLength="88" x="555.5" y="820.8198">ErrorView(Error)</text><ellipse cx="546.5" cy="830.4141" fill="#84BE84" rx="3" ry="3" style="stroke: #038048; stroke-width: 1.0;"/><text fill="#000000" font-family="sans-serif" font-size="11" lengthAdjust="spacingAndGlyphs" text-decoration="underline" textLength="119" x="555.5" y="833.6245">valueOf(String): Error</text><!--MD5=[716d7df7e3500a9f49a27aeed588132e]
class mastermind.views.MessageView--><rect codeLine="16" fill="#FEFECE" filter="url(#fh4h3it3iq9lk)" height="227.2656" id="mastermind.views.MessageView" style="stroke: #A80036; stroke-width: 1.5;" width="259" x="715.5" y="677"/><ellipse cx="798.75" cy="693" fill="#ADD1B2" rx="11" ry="11" style="stroke: #A80036; stroke-width: 1.0;"/><path d="M801.0938,688.6719 C800.1563,688.2344 799.5625,688.0938 798.6875,688.0938 C796.0625,688.0938 794.0625,690.1719 794.0625,692.8906 L794.0625,694.0156 C794.0625,696.5938 796.1719,698.4844 799.0625,698.4844 C800.2813,698.4844 801.4375,698.1875 802.1875,697.6406 C802.7656,697.2344 803.0938,696.7813 803.0938,696.3906 C803.0938,695.9375 802.7031,695.5469 802.2344,695.5469 C802.0156,695.5469 801.8125,695.625 801.625,695.8125 C801.1719,696.2969 801.1719,696.2969 800.9844,696.3906 C800.5625,696.6563 799.875,696.7813 799.1094,696.7813 C797.0625,696.7813 795.7656,695.6875 795.7656,693.9844 L795.7656,692.8906 C795.7656,691.1094 797.0156,689.7969 798.75,689.7969 C799.3281,689.7969 799.9375,689.9531 800.4063,690.2031 C800.8906,690.4844 801.0625,690.7031 801.1563,691.1094 C801.2188,691.5156 801.25,691.6406 801.3906,691.7656 C801.5313,691.9063 801.7656,692.0156 801.9844,692.0156 C802.25,692.0156 802.5156,691.875 802.6875,691.6563 C802.7969,691.5 802.8281,691.3125 802.8281,690.8906 L802.8281,689.4688 C802.8281,689.0313 802.8125,688.9063 802.7188,688.75 C802.5625,688.4844 802.2813,688.3438 801.9844,688.3438 C801.6875,688.3438 801.4844,688.4375 801.2656,688.75 L801.0938,688.6719 Z "/><text fill="#000000" font-family="sans-serif" font-size="12" lengthAdjust="spacingAndGlyphs" textLength="84" x="819.25" y="697.1543">MessageView</text><line style="stroke: #A80036; stroke-width: 1.5;" x1="716.5" x2="973.5" y1="709" y2="709"/><ellipse cx="726.5" cy="720" fill="none" rx="3" ry="3" style="stroke: #038048; stroke-width: 1.0;"/><text fill="#000000" font-family="sans-serif" font-size="11" lengthAdjust="spacingAndGlyphs" text-decoration="underline" textLength="145" x="735.5" y="723.2104">ATTEMPTS: MessageView</text><ellipse cx="726.5" cy="732.8047" fill="none" rx="3" ry="3" style="stroke: #038048; stroke-width: 1.0;"/><text fill="#000000" font-family="sans-serif" font-size="11" lengthAdjust="spacingAndGlyphs" text-decoration="underline" textLength="130" x="735.5" y="736.0151">SECRET: MessageView</text><ellipse cx="726.5" cy="745.6094" fill="none" rx="3" ry="3" style="stroke: #038048; stroke-width: 1.0;"/><text fill="#000000" font-family="sans-serif" font-size="11" lengthAdjust="spacingAndGlyphs" text-decoration="underline" textLength="132" x="735.5" y="748.8198">RESUME: MessageView</text><ellipse cx="726.5" cy="758.4141" fill="none" rx="3" ry="3" style="stroke: #038048; stroke-width: 1.0;"/><text fill="#000000" font-family="sans-serif" font-size="11" lengthAdjust="spacingAndGlyphs" text-decoration="underline" textLength="129" x="735.5" y="761.6245">RESULT: MessageView</text><ellipse cx="726.5" cy="771.2188" fill="none" rx="3" ry="3" style="stroke: #038048; stroke-width: 1.0;"/><text fill="#000000" font-family="sans-serif" font-size="11" lengthAdjust="spacingAndGlyphs" text-decoration="underline" textLength="233" x="735.5" y="774.4292">PROPOSED_COMBINATION: MessageView</text><ellipse cx="726.5" cy="784.0234" fill="none" rx="3" ry="3" style="stroke: #038048; stroke-width: 1.0;"/><text fill="#000000" font-family="sans-serif" font-size="11" lengthAdjust="spacingAndGlyphs" text-decoration="underline" textLength="116" x="735.5" y="787.2339">TITLE: MessageView</text><ellipse cx="726.5" cy="796.8281" fill="none" rx="3" ry="3" style="stroke: #038048; stroke-width: 1.0;"/><text fill="#000000" font-family="sans-serif" font-size="11" lengthAdjust="spacingAndGlyphs" text-decoration="underline" textLength="130" x="735.5" y="800.0386">WINNER: MessageView</text><ellipse cx="726.5" cy="809.6328" fill="none" rx="3" ry="3" style="stroke: #038048; stroke-width: 1.0;"/><text fill="#000000" font-family="sans-serif" font-size="11" lengthAdjust="spacingAndGlyphs" text-decoration="underline" textLength="132" x="735.5" y="812.8433">LOOSER: MessageView</text><rect fill="none" height="6" style="stroke: #C82930; stroke-width: 1.0;" width="6" x="723.5" y="819.4375"/><text fill="#000000" font-family="sans-serif" font-size="11" lengthAdjust="spacingAndGlyphs" textLength="119" x="735.5" y="825.6479">MessageView: String</text><line style="stroke: #A80036; stroke-width: 1.5;" x1="716.5" x2="973.5" y1="832.2422" y2="832.2422"/><rect fill="#F24D5C" height="6" style="stroke: #C82930; stroke-width: 1.0;" width="6" x="723.5" y="840.2422"/><text fill="#000000" font-family="sans-serif" font-size="11" lengthAdjust="spacingAndGlyphs" textLength="120" x="735.5" y="846.4526">MessageView(String)</text><ellipse cx="726.5" cy="856.0469" fill="#84BE84" rx="3" ry="3" style="stroke: #038048; stroke-width: 1.0;"/><text fill="#000000" font-family="sans-serif" font-size="11" lengthAdjust="spacingAndGlyphs" textLength="67" x="735.5" y="859.2573">write(): void</text><ellipse cx="726.5" cy="868.8516" fill="#84BE84" rx="3" ry="3" style="stroke: #038048; stroke-width: 1.0;"/><text fill="#000000" font-family="sans-serif" font-size="11" lengthAdjust="spacingAndGlyphs" textLength="77" x="735.5" y="872.062">writeln(): void</text><ellipse cx="726.5" cy="881.6563" fill="#84BE84" rx="3" ry="3" style="stroke: #038048; stroke-width: 1.0;"/><text fill="#000000" font-family="sans-serif" font-size="11" lengthAdjust="spacingAndGlyphs" textLength="91" x="735.5" y="884.8667">writeln(int): void</text><ellipse cx="726.5" cy="894.4609" fill="#84BE84" rx="3" ry="3" style="stroke: #038048; stroke-width: 1.0;"/><text fill="#000000" font-family="sans-serif" font-size="11" lengthAdjust="spacingAndGlyphs" textLength="108" x="735.5" y="897.6714">writeln(int,int): void</text><!--MD5=[3712ebd8f50b9bd9aac3d21701a79400]
class mastermind.views.PlayView--><rect codeLine="33" fill="#FEFECE" filter="url(#fh4h3it3iq9lk)" height="99.2188" id="mastermind.views.PlayView" style="stroke: #A80036; stroke-width: 1.5;" width="122" x="465" y="226"/><ellipse cx="497.1" cy="242" fill="#ADD1B2" rx="11" ry="11" style="stroke: #A80036; stroke-width: 1.0;"/><path d="M499.4438,237.6719 C498.5063,237.2344 497.9125,237.0938 497.0375,237.0938 C494.4125,237.0938 492.4125,239.1719 492.4125,241.8906 L492.4125,243.0156 C492.4125,245.5938 494.5219,247.4844 497.4125,247.4844 C498.6313,247.4844 499.7875,247.1875 500.5375,246.6406 C501.1156,246.2344 501.4438,245.7813 501.4438,245.3906 C501.4438,244.9375 501.0531,244.5469 500.5844,244.5469 C500.3656,244.5469 500.1625,244.625 499.975,244.8125 C499.5219,245.2969 499.5219,245.2969 499.3344,245.3906 C498.9125,245.6563 498.225,245.7813 497.4594,245.7813 C495.4125,245.7813 494.1156,244.6875 494.1156,242.9844 L494.1156,241.8906 C494.1156,240.1094 495.3656,238.7969 497.1,238.7969 C497.6781,238.7969 498.2875,238.9531 498.7563,239.2031 C499.2406,239.4844 499.4125,239.7031 499.5063,240.1094 C499.5688,240.5156 499.6,240.6406 499.7406,240.7656 C499.8813,240.9063 500.1156,241.0156 500.3344,241.0156 C500.6,241.0156 500.8656,240.875 501.0375,240.6563 C501.1469,240.5 501.1781,240.3125 501.1781,239.8906 L501.1781,238.4688 C501.1781,238.0313 501.1625,237.9063 501.0688,237.75 C500.9125,237.4844 500.6313,237.3438 500.3344,237.3438 C500.0375,237.3438 499.8344,237.4375 499.6156,237.75 L499.4438,237.6719 Z "/><text fill="#000000" font-family="sans-serif" font-size="12" lengthAdjust="spacingAndGlyphs" textLength="52" x="514.9" y="246.1543">PlayView</text><line style="stroke: #A80036; stroke-width: 1.5;" x1="466" x2="586" y1="258" y2="258"/><rect fill="none" height="6" style="stroke: #C82930; stroke-width: 1.0;" width="6" x="473" y="266"/><text fill="#000000" font-family="sans-serif" font-size="11" lengthAdjust="spacingAndGlyphs" textLength="76" x="485" y="272.2104">board : Board</text><line style="stroke: #A80036; stroke-width: 1.5;" x1="466" x2="586" y1="278.8047" y2="278.8047"/><polygon fill="#4177AF" points="476,285.8047,472,291.8047,480,291.8047" style="stroke: #1963A0; stroke-width: 1.0;"/><text fill="#000000" font-family="sans-serif" font-size="11" lengthAdjust="spacingAndGlyphs" textLength="92" x="485" y="293.0151">PlayView(Board)</text><rect fill="#F24D5C" height="6" style="stroke: #C82930; stroke-width: 1.0;" width="6" x="473" y="299.6094"/><text fill="#000000" font-family="sans-serif" font-size="11" lengthAdjust="spacingAndGlyphs" textLength="96" x="485" y="305.8198">playBoard(): void</text><ellipse cx="476" cy="315.4141" fill="#84BE84" rx="3" ry="3" style="stroke: #038048; stroke-width: 1.0;"/><text fill="#000000" font-family="sans-serif" font-size="11" lengthAdjust="spacingAndGlyphs" textLength="82" x="485" y="318.6245">interact(): void</text><!--MD5=[9edec9453329e27d8d6c00703a20e44b]
class mastermind.views.BoardView--><rect codeLine="40" fill="#FEFECE" filter="url(#fh4h3it3iq9lk)" height="86.4141" id="mastermind.views.BoardView" style="stroke: #A80036; stroke-width: 1.5;" width="128" x="562" y="385"/><ellipse cx="590.95" cy="401" fill="#ADD1B2" rx="11" ry="11" style="stroke: #A80036; stroke-width: 1.0;"/><path d="M593.2938,396.6719 C592.3563,396.2344 591.7625,396.0938 590.8875,396.0938 C588.2625,396.0938 586.2625,398.1719 586.2625,400.8906 L586.2625,402.0156 C586.2625,404.5938 588.3719,406.4844 591.2625,406.4844 C592.4813,406.4844 593.6375,406.1875 594.3875,405.6406 C594.9656,405.2344 595.2938,404.7813 595.2938,404.3906 C595.2938,403.9375 594.9031,403.5469 594.4344,403.5469 C594.2156,403.5469 594.0125,403.625 593.825,403.8125 C593.3719,404.2969 593.3719,404.2969 593.1844,404.3906 C592.7625,404.6563 592.075,404.7813 591.3094,404.7813 C589.2625,404.7813 587.9656,403.6875 587.9656,401.9844 L587.9656,400.8906 C587.9656,399.1094 589.2156,397.7969 590.95,397.7969 C591.5281,397.7969 592.1375,397.9531 592.6063,398.2031 C593.0906,398.4844 593.2625,398.7031 593.3563,399.1094 C593.4188,399.5156 593.45,399.6406 593.5906,399.7656 C593.7313,399.9063 593.9656,400.0156 594.1844,400.0156 C594.45,400.0156 594.7156,399.875 594.8875,399.6563 C594.9969,399.5 595.0281,399.3125 595.0281,398.8906 L595.0281,397.4688 C595.0281,397.0313 595.0125,396.9063 594.9188,396.75 C594.7625,396.4844 594.4813,396.3438 594.1844,396.3438 C593.8875,396.3438 593.6844,396.4375 593.4656,396.75 L593.2938,396.6719 Z "/><text fill="#000000" font-family="sans-serif" font-size="12" lengthAdjust="spacingAndGlyphs" textLength="65" x="608.05" y="405.1543">BoardView</text><line style="stroke: #A80036; stroke-width: 1.5;" x1="563" x2="689" y1="417" y2="417"/><rect fill="none" height="6" style="stroke: #C82930; stroke-width: 1.0;" width="6" x="570" y="425"/><text fill="#000000" font-family="sans-serif" font-size="11" lengthAdjust="spacingAndGlyphs" textLength="76" x="582" y="431.2104">board : Board</text><line style="stroke: #A80036; stroke-width: 1.5;" x1="563" x2="689" y1="437.8047" y2="437.8047"/><polygon fill="#4177AF" points="573,444.8047,569,450.8047,577,450.8047" style="stroke: #1963A0; stroke-width: 1.0;"/><text fill="#000000" font-family="sans-serif" font-size="11" lengthAdjust="spacingAndGlyphs" textLength="102" x="582" y="452.0151">BoardView(Board)</text><ellipse cx="573" cy="461.6094" fill="#84BE84" rx="3" ry="3" style="stroke: #038048; stroke-width: 1.0;"/><text fill="#000000" font-family="sans-serif" font-size="11" lengthAdjust="spacingAndGlyphs" textLength="67" x="582" y="464.8198">write(): void</text><!--MD5=[4ed27cd8fcf5b6ebdc6bc1a8178e2b74]
class mastermind.views.ProposedCombinationView--><rect codeLine="47" fill="#FEFECE" filter="url(#fh4h3it3iq9lk)" height="73.6094" id="mastermind.views.ProposedCombinationView" style="stroke: #A80036; stroke-width: 1.5;" width="216" x="518" y="537"/><ellipse cx="543.35" cy="553" fill="#ADD1B2" rx="11" ry="11" style="stroke: #A80036; stroke-width: 1.0;"/><path d="M545.6938,548.6719 C544.7563,548.2344 544.1625,548.0938 543.2875,548.0938 C540.6625,548.0938 538.6625,550.1719 538.6625,552.8906 L538.6625,554.0156 C538.6625,556.5938 540.7719,558.4844 543.6625,558.4844 C544.8813,558.4844 546.0375,558.1875 546.7875,557.6406 C547.3656,557.2344 547.6938,556.7813 547.6938,556.3906 C547.6938,555.9375 547.3031,555.5469 546.8344,555.5469 C546.6156,555.5469 546.4125,555.625 546.225,555.8125 C545.7719,556.2969 545.7719,556.2969 545.5844,556.3906 C545.1625,556.6563 544.475,556.7813 543.7094,556.7813 C541.6625,556.7813 540.3656,555.6875 540.3656,553.9844 L540.3656,552.8906 C540.3656,551.1094 541.6156,549.7969 543.35,549.7969 C543.9281,549.7969 544.5375,549.9531 545.0063,550.2031 C545.4906,550.4844 545.6625,550.7031 545.7563,551.1094 C545.8188,551.5156 545.85,551.6406 545.9906,551.7656 C546.1313,551.9063 546.3656,552.0156 546.5844,552.0156 C546.85,552.0156 547.1156,551.875 547.2875,551.6563 C547.3969,551.5 547.4281,551.3125 547.4281,550.8906 L547.4281,549.4688 C547.4281,549.0313 547.4125,548.9063 547.3188,548.75 C547.1625,548.4844 546.8813,548.3438 546.5844,548.3438 C546.2875,548.3438 546.0844,548.4375 545.8656,548.75 L545.6938,548.6719 Z "/><text fill="#000000" font-family="sans-serif" font-size="12" lengthAdjust="spacingAndGlyphs" textLength="161" x="559.65" y="557.1543">ProposedCombinationView</text><line style="stroke: #A80036; stroke-width: 1.5;" x1="519" x2="733" y1="569" y2="569"/><line style="stroke: #A80036; stroke-width: 1.5;" x1="519" x2="733" y1="577" y2="577"/><ellipse cx="529" cy="588" fill="#84BE84" rx="3" ry="3" style="stroke: #038048; stroke-width: 1.0;"/><text fill="#000000" font-family="sans-serif" font-size="11" lengthAdjust="spacingAndGlyphs" textLength="190" x="538" y="591.2104">write(ProposedCombination): void</text><ellipse cx="529" cy="600.8047" fill="#84BE84" rx="3" ry="3" style="stroke: #038048; stroke-width: 1.0;"/><text fill="#000000" font-family="sans-serif" font-size="11" lengthAdjust="spacingAndGlyphs" textLength="164" x="538" y="604.0151">read(): ProposedCombination</text><!--MD5=[56aa617717da0844c5255d733a5f8dfa]
class mastermind.views.ResultView--><rect codeLine="53" fill="#FEFECE" filter="url(#fh4h3it3iq9lk)" height="86.4141" id="mastermind.views.ResultView" style="stroke: #A80036; stroke-width: 1.5;" width="132" x="769" y="531"/><ellipse cx="799.75" cy="547" fill="#ADD1B2" rx="11" ry="11" style="stroke: #A80036; stroke-width: 1.0;"/><path d="M802.0938,542.6719 C801.1563,542.2344 800.5625,542.0938 799.6875,542.0938 C797.0625,542.0938 795.0625,544.1719 795.0625,546.8906 L795.0625,548.0156 C795.0625,550.5938 797.1719,552.4844 800.0625,552.4844 C801.2813,552.4844 802.4375,552.1875 803.1875,551.6406 C803.7656,551.2344 804.0938,550.7813 804.0938,550.3906 C804.0938,549.9375 803.7031,549.5469 803.2344,549.5469 C803.0156,549.5469 802.8125,549.625 802.625,549.8125 C802.1719,550.2969 802.1719,550.2969 801.9844,550.3906 C801.5625,550.6563 800.875,550.7813 800.1094,550.7813 C798.0625,550.7813 796.7656,549.6875 796.7656,547.9844 L796.7656,546.8906 C796.7656,545.1094 798.0156,543.7969 799.75,543.7969 C800.3281,543.7969 800.9375,543.9531 801.4063,544.2031 C801.8906,544.4844 802.0625,544.7031 802.1563,545.1094 C802.2188,545.5156 802.25,545.6406 802.3906,545.7656 C802.5313,545.9063 802.7656,546.0156 802.9844,546.0156 C803.25,546.0156 803.5156,545.875 803.6875,545.6563 C803.7969,545.5 803.8281,545.3125 803.8281,544.8906 L803.8281,543.4688 C803.8281,543.0313 803.8125,542.9063 803.7188,542.75 C803.5625,542.4844 803.2813,542.3438 802.9844,542.3438 C802.6875,542.3438 802.4844,542.4375 802.2656,542.75 L802.0938,542.6719 Z "/><text fill="#000000" font-family="sans-serif" font-size="12" lengthAdjust="spacingAndGlyphs" textLength="65" x="817.25" y="551.1543">ResultView</text><line style="stroke: #A80036; stroke-width: 1.5;" x1="770" x2="900" y1="563" y2="563"/><rect fill="none" height="6" style="stroke: #C82930; stroke-width: 1.0;" width="6" x="777" y="571"/><text fill="#000000" font-family="sans-serif" font-size="11" lengthAdjust="spacingAndGlyphs" textLength="74" x="789" y="577.2104">result: Result</text><line style="stroke: #A80036; stroke-width: 1.5;" x1="770" x2="900" y1="583.8047" y2="583.8047"/><polygon fill="#4177AF" points="780,590.8047,776,596.8047,784,596.8047" style="stroke: #1963A0; stroke-width: 1.0;"/><text fill="#000000" font-family="sans-serif" font-size="11" lengthAdjust="spacingAndGlyphs" textLength="106" x="789" y="598.0151">ResultView(Result)</text><ellipse cx="780" cy="607.6094" fill="#84BE84" rx="3" ry="3" style="stroke: #038048; stroke-width: 1.0;"/><text fill="#000000" font-family="sans-serif" font-size="11" lengthAdjust="spacingAndGlyphs" textLength="77" x="789" y="610.8198">writeln(): void</text><!--MD5=[ec4aad91981170f30f8e0579b5e2d84f]
class mastermind.views.ResumeView--><rect codeLine="59" fill="#FEFECE" filter="url(#fh4h3it3iq9lk)" height="60.8047" id="mastermind.views.ResumeView" style="stroke: #A80036; stroke-width: 1.5;" width="130" x="822" y="245"/><ellipse cx="846.45" cy="261" fill="#ADD1B2" rx="11" ry="11" style="stroke: #A80036; stroke-width: 1.0;"/><path d="M848.7938,256.6719 C847.8563,256.2344 847.2625,256.0938 846.3875,256.0938 C843.7625,256.0938 841.7625,258.1719 841.7625,260.8906 L841.7625,262.0156 C841.7625,264.5938 843.8719,266.4844 846.7625,266.4844 C847.9813,266.4844 849.1375,266.1875 849.8875,265.6406 C850.4656,265.2344 850.7938,264.7813 850.7938,264.3906 C850.7938,263.9375 850.4031,263.5469 849.9344,263.5469 C849.7156,263.5469 849.5125,263.625 849.325,263.8125 C848.8719,264.2969 848.8719,264.2969 848.6844,264.3906 C848.2625,264.6563 847.575,264.7813 846.8094,264.7813 C844.7625,264.7813 843.4656,263.6875 843.4656,261.9844 L843.4656,260.8906 C843.4656,259.1094 844.7156,257.7969 846.45,257.7969 C847.0281,257.7969 847.6375,257.9531 848.1063,258.2031 C848.5906,258.4844 848.7625,258.7031 848.8563,259.1094 C848.9188,259.5156 848.95,259.6406 849.0906,259.7656 C849.2313,259.9063 849.4656,260.0156 849.6844,260.0156 C849.95,260.0156 850.2156,259.875 850.3875,259.6563 C850.4969,259.5 850.5281,259.3125 850.5281,258.8906 L850.5281,257.4688 C850.5281,257.0313 850.5125,256.9063 850.4188,256.75 C850.2625,256.4844 849.9813,256.3438 849.6844,256.3438 C849.3875,256.3438 849.1844,256.4375 848.9656,256.75 L848.7938,256.6719 Z "/><text fill="#000000" font-family="sans-serif" font-size="12" lengthAdjust="spacingAndGlyphs" textLength="77" x="862.55" y="265.1543">ResumeView</text><line style="stroke: #A80036; stroke-width: 1.5;" x1="823" x2="951" y1="277" y2="277"/><line style="stroke: #A80036; stroke-width: 1.5;" x1="823" x2="951" y1="285" y2="285"/><ellipse cx="833" cy="296" fill="#84BE84" rx="3" ry="3" style="stroke: #038048; stroke-width: 1.0;"/><text fill="#000000" font-family="sans-serif" font-size="11" lengthAdjust="spacingAndGlyphs" textLength="104" x="842" y="299.2104">interact(): boolean</text><!--MD5=[86bd8337fa6b6b0346fe8333f5c8070e]
class mastermind.views.SecretCombinationView--><rect codeLine="63" fill="#FEFECE" filter="url(#fh4h3it3iq9lk)" height="86.4141" id="mastermind.views.SecretCombinationView" style="stroke: #A80036; stroke-width: 1.5;" width="249" x="233.5" y="531"/><ellipse cx="282.25" cy="547" fill="#ADD1B2" rx="11" ry="11" style="stroke: #A80036; stroke-width: 1.0;"/><path d="M284.5938,542.6719 C283.6563,542.2344 283.0625,542.0938 282.1875,542.0938 C279.5625,542.0938 277.5625,544.1719 277.5625,546.8906 L277.5625,548.0156 C277.5625,550.5938 279.6719,552.4844 282.5625,552.4844 C283.7813,552.4844 284.9375,552.1875 285.6875,551.6406 C286.2656,551.2344 286.5938,550.7813 286.5938,550.3906 C286.5938,549.9375 286.2031,549.5469 285.7344,549.5469 C285.5156,549.5469 285.3125,549.625 285.125,549.8125 C284.6719,550.2969 284.6719,550.2969 284.4844,550.3906 C284.0625,550.6563 283.375,550.7813 282.6094,550.7813 C280.5625,550.7813 279.2656,549.6875 279.2656,547.9844 L279.2656,546.8906 C279.2656,545.1094 280.5156,543.7969 282.25,543.7969 C282.8281,543.7969 283.4375,543.9531 283.9063,544.2031 C284.3906,544.4844 284.5625,544.7031 284.6563,545.1094 C284.7188,545.5156 284.75,545.6406 284.8906,545.7656 C285.0313,545.9063 285.2656,546.0156 285.4844,546.0156 C285.75,546.0156 286.0156,545.875 286.1875,545.6563 C286.2969,545.5 286.3281,545.3125 286.3281,544.8906 L286.3281,543.4688 C286.3281,543.0313 286.3125,542.9063 286.2188,542.75 C286.0625,542.4844 285.7813,542.3438 285.4844,542.3438 C285.1875,542.3438 284.9844,542.4375 284.7656,542.75 L284.5938,542.6719 Z "/><text fill="#000000" font-family="sans-serif" font-size="12" lengthAdjust="spacingAndGlyphs" textLength="143" x="302.75" y="551.1543">SecretCombinationView</text><line style="stroke: #A80036; stroke-width: 1.5;" x1="234.5" x2="481.5" y1="563" y2="563"/><rect fill="none" height="6" style="stroke: #C82930; stroke-width: 1.0;" width="6" x="241.5" y="571"/><text fill="#000000" font-family="sans-serif" font-size="11" lengthAdjust="spacingAndGlyphs" textLength="223" x="253.5" y="577.2104">secretCombination: SecretCombination</text><line style="stroke: #A80036; stroke-width: 1.5;" x1="234.5" x2="481.5" y1="583.8047" y2="583.8047"/><polygon fill="#4177AF" points="244.5,590.8047,240.5,596.8047,248.5,596.8047" style="stroke: #1963A0; stroke-width: 1.0;"/><text fill="#000000" font-family="sans-serif" font-size="11" lengthAdjust="spacingAndGlyphs" textLength="145" x="253.5" y="598.0151">SecretCombinationView()</text><ellipse cx="244.5" cy="607.6094" fill="#84BE84" rx="3" ry="3" style="stroke: #038048; stroke-width: 1.0;"/><text fill="#000000" font-family="sans-serif" font-size="11" lengthAdjust="spacingAndGlyphs" textLength="77" x="253.5" y="610.8198">writeln(): void</text><!--MD5=[159b299c59daed45f31e591a5c9e649b]
class mastermind.views.StartView--><rect codeLine="69" fill="#FEFECE" filter="url(#fh4h3it3iq9lk)" height="86.4141" id="mastermind.views.StartView" style="stroke: #A80036; stroke-width: 1.5;" width="141" x="622.5" y="232.5"/><ellipse cx="660.9" cy="248.5" fill="#ADD1B2" rx="11" ry="11" style="stroke: #A80036; stroke-width: 1.0;"/><path d="M663.2438,244.1719 C662.3063,243.7344 661.7125,243.5938 660.8375,243.5938 C658.2125,243.5938 656.2125,245.6719 656.2125,248.3906 L656.2125,249.5156 C656.2125,252.0938 658.3219,253.9844 661.2125,253.9844 C662.4313,253.9844 663.5875,253.6875 664.3375,253.1406 C664.9156,252.7344 665.2438,252.2813 665.2438,251.8906 C665.2438,251.4375 664.8531,251.0469 664.3844,251.0469 C664.1656,251.0469 663.9625,251.125 663.775,251.3125 C663.3219,251.7969 663.3219,251.7969 663.1344,251.8906 C662.7125,252.1563 662.025,252.2813 661.2594,252.2813 C659.2125,252.2813 657.9156,251.1875 657.9156,249.4844 L657.9156,248.3906 C657.9156,246.6094 659.1656,245.2969 660.9,245.2969 C661.4781,245.2969 662.0875,245.4531 662.5563,245.7031 C663.0406,245.9844 663.2125,246.2031 663.3063,246.6094 C663.3688,247.0156 663.4,247.1406 663.5406,247.2656 C663.6813,247.4063 663.9156,247.5156 664.1344,247.5156 C664.4,247.5156 664.6656,247.375 664.8375,247.1563 C664.9469,247 664.9781,246.8125 664.9781,246.3906 L664.9781,244.9688 C664.9781,244.5313 664.9625,244.4063 664.8688,244.25 C664.7125,243.9844 664.4313,243.8438 664.1344,243.8438 C663.8375,243.8438 663.6344,243.9375 663.4156,244.25 L663.2438,244.1719 Z "/><text fill="#000000" font-family="sans-serif" font-size="12" lengthAdjust="spacingAndGlyphs" textLength="57" x="680.1" y="252.6543">StartView</text><line style="stroke: #A80036; stroke-width: 1.5;" x1="623.5" x2="762.5" y1="264.5" y2="264.5"/><rect fill="none" height="6" style="stroke: #C82930; stroke-width: 1.0;" width="6" x="630.5" y="272.5"/><text fill="#000000" font-family="sans-serif" font-size="11" lengthAdjust="spacingAndGlyphs" textLength="72" x="642.5" y="278.7104">board: Board</text><line style="stroke: #A80036; stroke-width: 1.5;" x1="623.5" x2="762.5" y1="285.3047" y2="285.3047"/><polygon fill="#4177AF" points="633.5,292.3047,629.5,298.3047,637.5,298.3047" style="stroke: #1963A0; stroke-width: 1.0;"/><text fill="#000000" font-family="sans-serif" font-size="11" lengthAdjust="spacingAndGlyphs" textLength="96" x="642.5" y="299.5151">StartView(Board)</text><ellipse cx="633.5" cy="309.1094" fill="#84BE84" rx="3" ry="3" style="stroke: #038048; stroke-width: 1.0;"/><text fill="#000000" font-family="sans-serif" font-size="11" lengthAdjust="spacingAndGlyphs" textLength="115" x="642.5" y="312.3198">interact(Board): void</text><!--MD5=[904c44326bfc30ddc4fe4077c1b9164d]
class mastermind.views.View--><rect codeLine="75" fill="#FEFECE" filter="url(#fh4h3it3iq9lk)" height="124.8281" id="mastermind.views.View" style="stroke: #A80036; stroke-width: 1.5;" width="180" x="519" y="41"/><ellipse cx="590.25" cy="57" fill="#ADD1B2" rx="11" ry="11" style="stroke: #A80036; stroke-width: 1.0;"/><path d="M592.5938,52.6719 C591.6563,52.2344 591.0625,52.0938 590.1875,52.0938 C587.5625,52.0938 585.5625,54.1719 585.5625,56.8906 L585.5625,58.0156 C585.5625,60.5938 587.6719,62.4844 590.5625,62.4844 C591.7813,62.4844 592.9375,62.1875 593.6875,61.6406 C594.2656,61.2344 594.5938,60.7813 594.5938,60.3906 C594.5938,59.9375 594.2031,59.5469 593.7344,59.5469 C593.5156,59.5469 593.3125,59.625 593.125,59.8125 C592.6719,60.2969 592.6719,60.2969 592.4844,60.3906 C592.0625,60.6563 591.375,60.7813 590.6094,60.7813 C588.5625,60.7813 587.2656,59.6875 587.2656,57.9844 L587.2656,56.8906 C587.2656,55.1094 588.5156,53.7969 590.25,53.7969 C590.8281,53.7969 591.4375,53.9531 591.9063,54.2031 C592.3906,54.4844 592.5625,54.7031 592.6563,55.1094 C592.7188,55.5156 592.75,55.6406 592.8906,55.7656 C593.0313,55.9063 593.2656,56.0156 593.4844,56.0156 C593.75,56.0156 594.0156,55.875 594.1875,55.6563 C594.2969,55.5 594.3281,55.3125 594.3281,54.8906 L594.3281,53.4688 C594.3281,53.0313 594.3125,52.9063 594.2188,52.75 C594.0625,52.4844 593.7813,52.3438 593.4844,52.3438 C593.1875,52.3438 592.9844,52.4375 592.7656,52.75 L592.5938,52.6719 Z "/><text fill="#000000" font-family="sans-serif" font-size="12" lengthAdjust="spacingAndGlyphs" textLength="29" x="610.75" y="61.1543">View</text><line style="stroke: #A80036; stroke-width: 1.5;" x1="520" x2="698" y1="73" y2="73"/><rect fill="none" height="6" style="stroke: #C82930; stroke-width: 1.0;" width="6" x="527" y="81"/><text fill="#000000" font-family="sans-serif" font-size="11" lengthAdjust="spacingAndGlyphs" textLength="72" x="539" y="87.2104">board: Board</text><rect fill="none" height="6" style="stroke: #C82930; stroke-width: 1.0;" width="6" x="527" y="93.8047"/><text fill="#000000" font-family="sans-serif" font-size="11" lengthAdjust="spacingAndGlyphs" textLength="115" x="539" y="100.0151">startView: StartView</text><rect fill="none" height="6" style="stroke: #C82930; stroke-width: 1.0;" width="6" x="527" y="106.6094"/><text fill="#000000" font-family="sans-serif" font-size="11" lengthAdjust="spacingAndGlyphs" textLength="110" x="539" y="112.8198">playView: PlayView</text><rect fill="none" height="6" style="stroke: #C82930; stroke-width: 1.0;" width="6" x="527" y="119.4141"/><text fill="#000000" font-family="sans-serif" font-size="11" lengthAdjust="spacingAndGlyphs" textLength="154" x="539" y="125.6245">resumeView: ResumeView</text><line style="stroke: #A80036; stroke-width: 1.5;" x1="520" x2="698" y1="132.2188" y2="132.2188"/><ellipse cx="530" cy="143.2188" fill="#84BE84" rx="3" ry="3" style="stroke: #038048; stroke-width: 1.0;"/><text fill="#000000" font-family="sans-serif" font-size="11" lengthAdjust="spacingAndGlyphs" textLength="69" x="539" y="146.4292">View(Board)</text><ellipse cx="530" cy="156.0234" fill="#84BE84" rx="3" ry="3" style="stroke: #038048; stroke-width: 1.0;"/><text fill="#000000" font-family="sans-serif" font-size="11" lengthAdjust="spacingAndGlyphs" textLength="82" x="539" y="159.2339">interact(): void</text><!--MD5=[dd8a3418c3f40ff738f8309f67b0c279]
class mastermind.models.Board--><rect fill="#FEFECE" filter="url(#fh4h3it3iq9lk)" height="48" id="mastermind.models.Board" style="stroke: #A80036; stroke-width: 1.5;" width="68" x="109" y="550"/><ellipse cx="124" cy="566" fill="#ADD1B2" rx="11" ry="11" style="stroke: #A80036; stroke-width: 1.0;"/><path d="M126.3438,561.6719 C125.4063,561.2344 124.8125,561.0938 123.9375,561.0938 C121.3125,561.0938 119.3125,563.1719 119.3125,565.8906 L119.3125,567.0156 C119.3125,569.5938 121.4219,571.4844 124.3125,571.4844 C125.5313,571.4844 126.6875,571.1875 127.4375,570.6406 C128.0156,570.2344 128.3438,569.7813 128.3438,569.3906 C128.3438,568.9375 127.9531,568.5469 127.4844,568.5469 C127.2656,568.5469 127.0625,568.625 126.875,568.8125 C126.4219,569.2969 126.4219,569.2969 126.2344,569.3906 C125.8125,569.6563 125.125,569.7813 124.3594,569.7813 C122.3125,569.7813 121.0156,568.6875 121.0156,566.9844 L121.0156,565.8906 C121.0156,564.1094 122.2656,562.7969 124,562.7969 C124.5781,562.7969 125.1875,562.9531 125.6563,563.2031 C126.1406,563.4844 126.3125,563.7031 126.4063,564.1094 C126.4688,564.5156 126.5,564.6406 126.6406,564.7656 C126.7813,564.9063 127.0156,565.0156 127.2344,565.0156 C127.5,565.0156 127.7656,564.875 127.9375,564.6563 C128.0469,564.5 128.0781,564.3125 128.0781,563.8906 L128.0781,562.4688 C128.0781,562.0313 128.0625,561.9063 127.9688,561.75 C127.8125,561.4844 127.5313,561.3438 127.2344,561.3438 C126.9375,561.3438 126.7344,561.4375 126.5156,561.75 L126.3438,561.6719 Z "/><text fill="#000000" font-family="sans-serif" font-size="12" lengthAdjust="spacingAndGlyphs" textLength="36" x="138" y="570.1543">Board</text><line style="stroke: #A80036; stroke-width: 1.5;" x1="110" x2="176" y1="582" y2="582"/><line style="stroke: #A80036; stroke-width: 1.5;" x1="110" x2="176" y1="590" y2="590"/><!--MD5=[8fefce232ba7ae99aa926d324ff560e5]
class mastermind.utils.YesNoDialog--><rect fill="#FEFECE" filter="url(#fh4h3it3iq9lk)" height="48" id="mastermind.utils.YesNoDialog" style="stroke: #A80036; stroke-width: 1.5;" width="108" x="598" y="979"/><ellipse cx="613" cy="995" fill="#ADD1B2" rx="11" ry="11" style="stroke: #A80036; stroke-width: 1.0;"/><path d="M615.3438,990.6719 C614.4063,990.2344 613.8125,990.0938 612.9375,990.0938 C610.3125,990.0938 608.3125,992.1719 608.3125,994.8906 L608.3125,996.0156 C608.3125,998.5938 610.4219,1000.4844 613.3125,1000.4844 C614.5313,1000.4844 615.6875,1000.1875 616.4375,999.6406 C617.0156,999.2344 617.3438,998.7813 617.3438,998.3906 C617.3438,997.9375 616.9531,997.5469 616.4844,997.5469 C616.2656,997.5469 616.0625,997.625 615.875,997.8125 C615.4219,998.2969 615.4219,998.2969 615.2344,998.3906 C614.8125,998.6563 614.125,998.7813 613.3594,998.7813 C611.3125,998.7813 610.0156,997.6875 610.0156,995.9844 L610.0156,994.8906 C610.0156,993.1094 611.2656,991.7969 613,991.7969 C613.5781,991.7969 614.1875,991.9531 614.6563,992.2031 C615.1406,992.4844 615.3125,992.7031 615.4063,993.1094 C615.4688,993.5156 615.5,993.6406 615.6406,993.7656 C615.7813,993.9063 616.0156,994.0156 616.2344,994.0156 C616.5,994.0156 616.7656,993.875 616.9375,993.6563 C617.0469,993.5 617.0781,993.3125 617.0781,992.8906 L617.0781,991.4688 C617.0781,991.0313 617.0625,990.9063 616.9688,990.75 C616.8125,990.4844 616.5313,990.3438 616.2344,990.3438 C615.9375,990.3438 615.7344,990.4375 615.5156,990.75 L615.3438,990.6719 Z "/><text fill="#000000" font-family="sans-serif" font-size="12" lengthAdjust="spacingAndGlyphs" textLength="76" x="627" y="999.1543">YesNoDialog</text><line style="stroke: #A80036; stroke-width: 1.5;" x1="599" x2="705" y1="1011" y2="1011"/><line style="stroke: #A80036; stroke-width: 1.5;" x1="599" x2="705" y1="1019" y2="1019"/><!--MD5=[ff88fef78a03b99ee0a0b34d5c9e19a9]
class mastermind.utils.Console--><rect fill="#FEFECE" filter="url(#fh4h3it3iq9lk)" height="48" id="mastermind.utils.Console" style="stroke: #A80036; stroke-width: 1.5;" width="81" x="481.5" y="979"/><ellipse cx="496.5" cy="995" fill="#ADD1B2" rx="11" ry="11" style="stroke: #A80036; stroke-width: 1.0;"/><path d="M498.8438,990.6719 C497.9063,990.2344 497.3125,990.0938 496.4375,990.0938 C493.8125,990.0938 491.8125,992.1719 491.8125,994.8906 L491.8125,996.0156 C491.8125,998.5938 493.9219,1000.4844 496.8125,1000.4844 C498.0313,1000.4844 499.1875,1000.1875 499.9375,999.6406 C500.5156,999.2344 500.8438,998.7813 500.8438,998.3906 C500.8438,997.9375 500.4531,997.5469 499.9844,997.5469 C499.7656,997.5469 499.5625,997.625 499.375,997.8125 C498.9219,998.2969 498.9219,998.2969 498.7344,998.3906 C498.3125,998.6563 497.625,998.7813 496.8594,998.7813 C494.8125,998.7813 493.5156,997.6875 493.5156,995.9844 L493.5156,994.8906 C493.5156,993.1094 494.7656,991.7969 496.5,991.7969 C497.0781,991.7969 497.6875,991.9531 498.1563,992.2031 C498.6406,992.4844 498.8125,992.7031 498.9063,993.1094 C498.9688,993.5156 499,993.6406 499.1406,993.7656 C499.2813,993.9063 499.5156,994.0156 499.7344,994.0156 C500,994.0156 500.2656,993.875 500.4375,993.6563 C500.5469,993.5 500.5781,993.3125 500.5781,992.8906 L500.5781,991.4688 C500.5781,991.0313 500.5625,990.9063 500.4688,990.75 C500.3125,990.4844 500.0313,990.3438 499.7344,990.3438 C499.4375,990.3438 499.2344,990.4375 499.0156,990.75 L498.8438,990.6719 Z "/><text fill="#000000" font-family="sans-serif" font-size="12" lengthAdjust="spacingAndGlyphs" textLength="49" x="510.5" y="999.1543">Console</text><line style="stroke: #A80036; stroke-width: 1.5;" x1="482.5" x2="561.5" y1="1011" y2="1011"/><line style="stroke: #A80036; stroke-width: 1.5;" x1="482.5" x2="561.5" y1="1019" y2="1019"/><!--MD5=[d032149e30a47a089b3889bb4f632b3e]
link mastermind.views.View to mastermind.models.Board--><path codeLine="84" d="M508.7561,169.7267 C508.7561,169.7267 331.879,300.349 259,385 C217.252,433.492 180.649,498.63 160.218,538.119 " fill="none" id="mastermind.views.View-mastermind.models.Board" style="stroke: #A80036; stroke-width: 1.0;"/><polygon fill="#A80036" points="154.288,549.745,161.9408,543.5455,156.56,545.291,154.8145,539.9102,154.288,549.745" style="stroke: #A80036; stroke-width: 1.0;"/><line style="stroke: #A80036; stroke-width: 1.0;" x1="156.56" x2="160.195" y1="545.291" y2="538.1645"/><polygon fill="#A80036" points="518.625,162.9,511.415,163.0237,508.7561,169.7267,515.9661,169.603,518.625,162.9" style="stroke: #A80036; stroke-width: 1.0;"/><!--MD5=[4e676df5b8491719dcd03de98ee0a76e]
link mastermind.views.View to mastermind.views.PlayView--><path codeLine="85" d="M573.5355,177.1385 C573.5355,177.1385 561.151,202.505 555.528,214.021 " fill="none" id="mastermind.views.View-mastermind.views.PlayView" style="stroke: #A80036; stroke-width: 1.0;"/><polygon fill="#A80036" points="549.804,225.744,557.3466,219.4108,551.9973,221.2507,550.1574,215.9015,549.804,225.744" style="stroke: #A80036; stroke-width: 1.0;"/><line style="stroke: #A80036; stroke-width: 1.0;" x1="551.9973" x2="555.508" y1="221.2507" y2="214.062"/><polygon fill="#A80036" points="578.8,166.355,572.5732,169.9919,573.5355,177.1385,579.7623,173.5016,578.8,166.355" style="stroke: #A80036; stroke-width: 1.0;"/><!--MD5=[bf97da5fe657ae69f287f34e8a237ad2]
link mastermind.views.View to mastermind.views.StartView--><path codeLine="86" d="M644.8793,177.1136 C644.8793,177.1136 659.616,206.936 666.26,220.382 " fill="none" id="mastermind.views.View-mastermind.views.StartView" style="stroke: #A80036; stroke-width: 1.0;"/><polygon fill="#A80036" points="672.172,232.349,671.7717,222.5083,669.9573,227.8663,664.5993,226.0518,672.172,232.349" style="stroke: #A80036; stroke-width: 1.0;"/><line style="stroke: #A80036; stroke-width: 1.0;" x1="669.9573" x2="666.4135" y1="227.8663" y2="220.6935"/><polygon fill="#A80036" points="639.564,166.355,638.6355,173.5061,644.8793,177.1136,645.8079,169.9625,639.564,166.355" style="stroke: #A80036; stroke-width: 1.0;"/><!--MD5=[d9d92d6dc97b208b24aa04d98e384545]
link mastermind.views.View to mastermind.views.ResumeView--><path codeLine="87" d="M709.4967,165.9542 C709.4967,165.9542 793.281,217.19 827.292,237.988 " fill="none" id="mastermind.views.View-mastermind.views.ResumeView" style="stroke: #A80036; stroke-width: 1.0;"/><polygon fill="#A80036" points="838.442,244.806,832.85,236.6986,834.1762,242.1978,828.6769,243.5239,838.442,244.806" style="stroke: #A80036; stroke-width: 1.0;"/><line style="stroke: #A80036; stroke-width: 1.0;" x1="834.1762" x2="827.3515" y1="242.1978" y2="238.024"/><polygon fill="#A80036" points="699.259,159.694,702.2911,166.2367,709.4967,165.9542,706.4646,159.4116,699.259,159.694" style="stroke: #A80036; stroke-width: 1.0;"/><!--MD5=[6bbd5b58cd4cd7ddd6b2fd6b96951379]
link mastermind.views.PlayView to mastermind.views.BoardView--><path codeLine="89" d="M558.467,325.363 C570.244,343.087 583.506,363.047 595.14,380.556 " fill="none" id="mastermind.views.PlayView-to-mastermind.views.BoardView" style="stroke: #A80036; stroke-width: 1.0; stroke-dasharray: 7.0,7.0;"/><polygon fill="#A80036" points="598.061,384.952,596.4115,375.2423,595.2938,380.7876,589.7484,379.6698,598.061,384.952" style="stroke: #A80036; stroke-width: 1.0;"/><!--MD5=[878f1994b0b0d3ebf106a80d670b27e6]
link mastermind.views.PlayView to mastermind.views.ProposedCombinationView--><path codeLine="90" d="M522.875,325.079 C522.031,365.569 524.974,424.008 544,471 C553.196,493.712 569.196,515.39 584.636,532.875 " fill="none" id="mastermind.views.PlayView-to-mastermind.views.ProposedCombinationView" style="stroke: #A80036; stroke-width: 1.0; stroke-dasharray: 7.0,7.0;"/><polygon fill="#A80036" points="588.126,536.768,585.099,527.3959,584.7893,533.0442,579.1409,532.7346,588.126,536.768" style="stroke: #A80036; stroke-width: 1.0;"/><!--MD5=[958109ad1f0e55e775ceec9d2a1bd0bb]
link mastermind.views.PlayView to mastermind.models.Board--><path codeLine="91" d="M464.997,319.597 C401.794,364.802 300.732,438.648 217,507 C201.641,519.538 185.124,534.153 171.6,546.438 " fill="none" id="mastermind.views.PlayView-to-mastermind.models.Board" style="stroke: #A80036; stroke-width: 1.0; stroke-dasharray: 7.0,7.0;"/><polygon fill="#A80036" points="167.868,549.838,177.2148,546.7335,171.564,546.4706,171.8269,540.8198,167.868,549.838" style="stroke: #A80036; stroke-width: 1.0;"/><!--MD5=[44014b48f40f6c6fcd97907eb4916d43]
link mastermind.views.PlayView to mastermind.views.MessageView--><path codeLine="92" d="M587.15,314.252 C593.169,317.904 599.195,321.537 605,325 C743.521,407.648 838.467,367.239 919,507 C947.994,557.317 936.227,619.163 914.371,672.147 " fill="none" id="mastermind.views.PlayView-to-mastermind.views.MessageView" style="stroke: #A80036; stroke-width: 1.0; stroke-dasharray: 7.0,7.0;"/><polygon fill="#A80036" points="912.366,676.92,919.5409,670.1731,914.3035,672.3106,912.166,667.0732,912.366,676.92" style="stroke: #A80036; stroke-width: 1.0;"/><!--MD5=[c82761a93402408cb6272f421be0fe29]
link mastermind.views.BoardView to mastermind.views.SecretCombinationView--><path codeLine="95" d="M561.807,463.492 C525.648,482.921 480.079,507.405 441.204,528.293 " fill="none" id="mastermind.views.BoardView-to-mastermind.views.SecretCombinationView" style="stroke: #A80036; stroke-width: 1.0; stroke-dasharray: 7.0,7.0;"/><polygon fill="#A80036" points="436.498,530.822,446.3192,530.0846,440.9022,528.4549,442.5319,523.0379,436.498,530.822" style="stroke: #A80036; stroke-width: 1.0;"/><!--MD5=[cd5d8e57ccf89de5314fefa54945b98e]
link mastermind.views.BoardView to mastermind.views.ProposedCombinationView--><path codeLine="96" d="M626,471.038 C626,490.008 626,512.356 626,531.287 " fill="none" id="mastermind.views.BoardView-to-mastermind.views.ProposedCombinationView" style="stroke: #A80036; stroke-width: 1.0; stroke-dasharray: 7.0,7.0;"/><polygon fill="#A80036" points="626,536.53,630,527.53,626,531.53,622,527.53,626,536.53" style="stroke: #A80036; stroke-width: 1.0;"/><!--MD5=[70c8dcf1f01eb8fd12bb5207fc31a1f1]
link mastermind.views.BoardView to mastermind.views.ResultView--><path codeLine="97" d="M690.134,467.176 C709.941,479.455 731.632,493.408 751,507 C760.298,513.525 769.956,520.707 779.268,527.856 " fill="none" id="mastermind.views.BoardView-to-mastermind.views.ResultView" style="stroke: #A80036; stroke-width: 1.0; stroke-dasharray: 7.0,7.0;"/><polygon fill="#A80036" points="783.236,530.916,778.5539,522.2512,779.2773,527.8617,773.6669,528.5851,783.236,530.916" style="stroke: #A80036; stroke-width: 1.0;"/><!--MD5=[3cc927b30c5100d10a05fd81306a1d27]
link mastermind.views.BoardView to mastermind.models.Board--><path codeLine="98" d="M561.735,448.757 C534.822,456.508 503.087,464.971 474,471 C361.063,494.409 321.657,458.527 217,507 C197.439,516.06 179.308,532.049 165.889,546.02 " fill="none" id="mastermind.views.BoardView-to-mastermind.models.Board" style="stroke: #A80036; stroke-width: 1.0; stroke-dasharray: 7.0,7.0;"/><polygon fill="#A80036" points="162.232,549.9,171.3161,546.0949,165.6617,546.2617,165.4949,540.6073,162.232,549.9" style="stroke: #A80036; stroke-width: 1.0;"/><!--MD5=[b92cf31bd7276eb1574469655caf4f45]
link mastermind.views.StartView to mastermind.models.Board--><path codeLine="100" d="M627.851,318.678 C559.216,361.664 446.88,427.964 343,471 C289.194,493.291 268.019,478.909 217,507 C198.529,517.17 180.794,532.717 167.318,546.167 " fill="none" id="mastermind.views.StartView-to-mastermind.models.Board" style="stroke: #A80036; stroke-width: 1.0; stroke-dasharray: 7.0,7.0;"/><polygon fill="#A80036" points="163.633,549.899,172.8023,546.3041,167.1456,546.3407,167.109,540.6839,163.633,549.899" style="stroke: #A80036; stroke-width: 1.0;"/><!--MD5=[db061c34674d61c574fa429272c8ff9e]
link mastermind.views.StartView to mastermind.views.MessageView--><path codeLine="101" d="M763.705,307.547 C777.076,313.375 790.958,319.396 804,325 C866.948,352.05 908.138,327.899 946,385 C1004.21,472.788 974.228,520.52 946,622 C941.3,638.896 934.386,655.791 926.343,671.999 " fill="none" id="mastermind.views.StartView-to-mastermind.views.MessageView" style="stroke: #A80036; stroke-width: 1.0; stroke-dasharray: 7.0,7.0;"/><polygon fill="#A80036" points="924.045,676.552,931.6716,670.3202,926.2982,672.0885,924.5299,666.7151,924.045,676.552" style="stroke: #A80036; stroke-width: 1.0;"/><!--MD5=[5d37f339bce184ebb724f91603203eee]
link mastermind.views.StartView to mastermind.views.BoardView--><path codeLine="102" d="M674.158,318.823 C665.666,337.899 655.609,360.491 646.887,380.082 " fill="none" id="mastermind.views.StartView-to-mastermind.views.BoardView" style="stroke: #A80036; stroke-width: 1.0; stroke-dasharray: 7.0,7.0;"/><polygon fill="#A80036" points="644.7,384.995,652.0141,378.3993,646.7332,380.4271,644.7054,375.1461,644.7,384.995" style="stroke: #A80036; stroke-width: 1.0;"/><!--MD5=[e928fb1616fdb969e51b3f6fad489197]
link mastermind.views.ResumeView to mastermind.utils.YesNoDialog--><path codeLine="104" d="M917.858,306.172 C936.78,326.432 959.511,354.962 971,385 C1057.28,610.578 1143.53,739.939 992,928 C957.392,970.9499 799.153,990.279 711.272,997.8316 " fill="none" id="mastermind.views.ResumeView-to-mastermind.utils.YesNoDialog" style="stroke: #A80036; stroke-width: 1.0; stroke-dasharray: 7.0,7.0;"/><polygon fill="#A80036" points="706.105,998.269,715.4101,1001.4962,711.0872,997.8476,714.7358,993.5247,706.105,998.269" style="stroke: #A80036; stroke-width: 1.0;"/><!--MD5=[62a8f057d5c4cd25e610b57addce22db]
link mastermind.views.ProposedCombinationView to mastermind.views.MessageView--><path codeLine="106" d="M663.15,611.387 C680.873,628.746 703.174,650.588 726.028,672.973 " fill="none" id="mastermind.views.ProposedCombinationView-to-mastermind.views.MessageView" style="stroke: #A80036; stroke-width: 1.0; stroke-dasharray: 7.0,7.0;"/><polygon fill="#A80036" points="729.7,676.57,726.0699,667.4145,726.1282,673.0711,720.4717,673.1294,729.7,676.57" style="stroke: #A80036; stroke-width: 1.0;"/><!--MD5=[3a12498e22f98d970310e61ba9a2b5b2]
link mastermind.views.ProposedCombinationView to mastermind.views.ColorView--><path codeLine="107" d="M584.26,611.108 C563.46,629.908 538.451,653.772 518,677 C501.667,695.551 485.298,717.233 471.527,736.585 " fill="none" id="mastermind.views.ProposedCombinationView-to-mastermind.views.ColorView" style="stroke: #A80036; stroke-width: 1.0; stroke-dasharray: 7.0,7.0;"/><polygon fill="#A80036" points="468.449,740.933,476.9153,735.9008,471.3391,736.8529,470.3871,731.2767,468.449,740.933" style="stroke: #A80036; stroke-width: 1.0;"/><!--MD5=[5ca55cb6731a042285dc1139be3a83ed]
link mastermind.views.ProposedCombinationView to mastermind.views.ErrorView--><path codeLine="108" d="M622.947,611.387 C620.086,645.476 615.775,696.852 612.516,735.68 " fill="none" id="mastermind.views.ProposedCombinationView-to-mastermind.views.ErrorView" style="stroke: #A80036; stroke-width: 1.0; stroke-dasharray: 7.0,7.0;"/><polygon fill="#A80036" points="612.084,740.831,616.8233,732.1974,612.5025,735.8485,608.8514,731.5278,612.084,740.831" style="stroke: #A80036; stroke-width: 1.0;"/><!--MD5=[2d7e15faf830856b886663a4a768f36b]
link mastermind.views.SecretCombinationView to mastermind.utils.Console--><path codeLine="110" d="M343.639,617.188 C322.383,687.897 291.388,832.004 354,928 C380.827,969.1315 436.221,987.5578 476.075,995.7102 " fill="none" id="mastermind.views.SecretCombinationView-to-mastermind.utils.Console" style="stroke: #A80036; stroke-width: 1.0; stroke-dasharray: 7.0,7.0;"/><polygon fill="#A80036" points="481.346,996.7472,473.288,991.0842,476.4401,995.7815,471.7429,998.9336,481.346,996.7472" style="stroke: #A80036; stroke-width: 1.0;"/><!--MD5=[9c73bb65e9ba283b4d1cd2669c51dcdf]
link mastermind.views.SecretCombinationView to mastermind.views.ColorView--><path codeLine="111" d="M373.317,617.122 C385.673,651.101 403.133,699.116 416.489,735.845 " fill="none" id="mastermind.views.SecretCombinationView-to-mastermind.views.ColorView" style="stroke: #A80036; stroke-width: 1.0; stroke-dasharray: 7.0,7.0;"/><polygon fill="#A80036" points="418.262,740.721,418.9455,730.8959,416.5533,736.022,411.4271,733.6298,418.262,740.721" style="stroke: #A80036; stroke-width: 1.0;"/><!--MD5=[c53ad3fb90a914488ef2558fce431392]
link mastermind.views.ColorView to mastermind.utils.Console--><path codeLine="113" d="M455.838,840.057 C472.812,881.603 496.648,939.947 510.594,974.0808 " fill="none" id="mastermind.views.ColorView-to-mastermind.utils.Console" style="stroke: #A80036; stroke-width: 1.0; stroke-dasharray: 7.0,7.0;"/><polygon fill="#A80036" points="512.577,978.9364,512.8761,969.0921,510.686,974.3078,505.4703,972.1177,512.577,978.9364" style="stroke: #A80036; stroke-width: 1.0;"/><!--MD5=[004d866a88031c06ca77ede954572517]
link mastermind.views.ErrorView to mastermind.utils.Console--><path codeLine="114" d="M588.162,840.057 C571.188,881.603 547.352,939.947 533.406,974.0808 " fill="none" id="mastermind.views.ErrorView-to-mastermind.utils.Console" style="stroke: #A80036; stroke-width: 1.0; stroke-dasharray: 7.0,7.0;"/><polygon fill="#A80036" points="531.423,978.9364,538.5297,972.1177,533.314,974.3078,531.1239,969.0921,531.423,978.9364" style="stroke: #A80036; stroke-width: 1.0;"/><!--MD5=[3f914b3e8f203cde9ef4aaa6970ff031]
link mastermind.views.ResultView to mastermind.views.MessageView--><path codeLine="115" d="M836.964,617.122 C837.702,632.959 838.582,651.844 839.486,671.214 " fill="none" id="mastermind.views.ResultView-to-mastermind.views.MessageView" style="stroke: #A80036; stroke-width: 1.0; stroke-dasharray: 7.0,7.0;"/><polygon fill="#A80036" points="839.741,676.689,843.3175,667.5125,839.5081,671.6944,835.3262,667.8851,839.741,676.689" style="stroke: #A80036; stroke-width: 1.0;"/><!--MD5=[82da8e5d3a9bd4a3dd528f589461adec]
@startuml
class  mastermind.views.ColorView{
- color: Color
~ ColorView(Color)
+ write(): void
+ writeInitials(): void
}

class  mastermind.views.ErrorView{
- error: Error
- {static} MESSAGES: String[]
~ ErrorView(Error)
+ {static} valueOf(String): Error
}


class  mastermind.views.MessageView{
+ {static} ATTEMPTS: MessageView
+ {static} SECRET: MessageView
+ {static} RESUME: MessageView
+ {static} RESULT: MessageView
+ {static} PROPOSED_COMBINATION: MessageView
+ {static} TITLE: MessageView
+ {static} WINNER: MessageView
+ {static} LOOSER: MessageView
- MessageView: String
- MessageView(String)
+ write(): void
+ writeln(): void
+ writeln(int): void
+ writeln(int,int): void
}

class  mastermind.views.PlayView{
- board : Board
~ PlayView(Board)
- playBoard(): void
+ interact(): void
}

class  mastermind.views.BoardView{
- board : Board
~ BoardView(Board)
+ write(): void
}


class  mastermind.views.ProposedCombinationView{
+ write(ProposedCombination): void
+ read(): ProposedCombination
}


class  mastermind.views.ResultView{
- result: Result
~ ResultView(Result)
+ writeln(): void
}

class  mastermind.views.ResumeView{
+ interact(): boolean
}

class  mastermind.views.SecretCombinationView{
- secretCombination: SecretCombination
~ SecretCombinationView()
+ writeln(): void
}

class  mastermind.views.StartView{
- board: Board 
~ StartView(Board)
+ interact(Board): void
}

class  mastermind.views.View{
- board: Board
- startView: StartView
- playView: PlayView
- resumeView: ResumeView
+ View(Board)
+ interact(): void
}

mastermind.views.View *-down-> mastermind.models.Board
mastermind.views.View *-down-> mastermind.views.PlayView
mastermind.views.View *-down-> mastermind.views.StartView
mastermind.views.View *-down-> mastermind.views.ResumeView

mastermind.views.PlayView ..> mastermind.views.BoardView
mastermind.views.PlayView ..> mastermind.views.ProposedCombinationView
mastermind.views.PlayView ..> mastermind.models.Board
mastermind.views.PlayView ..> mastermind.views.MessageView


mastermind.views.BoardView ..> mastermind.views.SecretCombinationView
mastermind.views.BoardView ..> mastermind.views.ProposedCombinationView
mastermind.views.BoardView ..> mastermind.views.ResultView
mastermind.views.BoardView ..> mastermind.models.Board

mastermind.views.StartView ..> mastermind.models.Board
mastermind.views.StartView ..> mastermind.views.MessageView
mastermind.views.StartView ..> mastermind.views.BoardView

mastermind.views.ResumeView ..> mastermind.utils.YesNoDialog

mastermind.views.ProposedCombinationView..> mastermind.views.MessageView
mastermind.views.ProposedCombinationView..> mastermind.views.ColorView
mastermind.views.ProposedCombinationView..> mastermind.views.ErrorView

mastermind.views.SecretCombinationView..> mastermind.utils.Console
mastermind.views.SecretCombinationView..> mastermind.views.ColorView

mastermind.views.ColorView..> mastermind.utils.Console
mastermind.views.ErrorView ..> mastermind.utils.Console
mastermind.views.ResultView..> mastermind.views.MessageView
@enduml

PlantUML version 1.2020.19(Mon Oct 12 15:10:01 UTC 2020)
(GPL source distribution)
Java Runtime: Java(TM) SE Runtime Environment
JVM: Java HotSpot(TM) 64-Bit Server VM
Default Encoding: UTF-8
Language: en
Country: US
--></g></svg>