<?xml version="1.0" encoding="UTF-8" standalone="no"?><svg xmlns="http://www.w3.org/2000/svg" xmlns:xlink="http://www.w3.org/1999/xlink" contentScriptType="application/ecmascript" contentStyleType="text/css" height="496px" preserveAspectRatio="none" style="width:695px;height:496px;" version="1.1" viewBox="0 0 695 496" width="695px" zoomAndPan="magnify"><defs><filter height="300%" id="fz9u9k554qj8p" width="300%" x="-1" y="-1"><feGaussianBlur result="blurOut" stdDeviation="2.0"/><feColorMatrix in="blurOut" result="blurOut2" type="matrix" values="0 0 0 0 0 0 0 0 0 0 0 0 0 0 0 0 0 0 .4 0"/><feOffset dx="4.0" dy="4.0" in="blurOut2" result="blurOut3"/><feBlend in="SourceGraphic" in2="blurOut3" mode="normal"/></filter></defs><g><!--MD5=[cc15223dad906424482237695d0c4da8]
cluster com.controllers--><polygon fill="#FFFFFF" filter="url(#fz9u9k554qj8p)" points="16,6,150,6,157,28.2969,625,28.2969,625,366,16,366,16,6" style="stroke: #000000; stroke-width: 1.5;"/><line style="stroke: #000000; stroke-width: 1.5;" x1="16" x2="157" y1="28.2969" y2="28.2969"/><text fill="#000000" font-family="sans-serif" font-size="14" font-weight="bold" lengthAdjust="spacingAndGlyphs" textLength="128" x="20" y="20.9951">com.controllers</text><!--MD5=[b95032ff59720514854eb7a92b6b0ae3]
cluster com.models--><polygon fill="#FFFFFF" filter="url(#fz9u9k554qj8p)" points="379,390,482,390,489,412.2969,678,412.2969,678,489,379,489,379,390" style="stroke: #000000; stroke-width: 1.5;"/><line style="stroke: #000000; stroke-width: 1.5;" x1="379" x2="489" y1="412.2969" y2="412.2969"/><text fill="#000000" font-family="sans-serif" font-size="14" font-weight="bold" lengthAdjust="spacingAndGlyphs" textLength="97" x="383" y="404.9951">com.models</text><!--MD5=[0930c0e587ad373606b07eda6dbc2ee0]
class com.controllers.Controller--><rect codeLine="1" fill="#FEFECE" filter="url(#fz9u9k554qj8p)" height="99.2188" id="com.controllers.Controller" style="stroke: #A80036; stroke-width: 1.5;" width="201" x="342.5" y="41"/><ellipse cx="409.25" cy="57" fill="#ADD1B2" rx="11" ry="11" style="stroke: #A80036; stroke-width: 1.0;"/><path d="M411.5938,52.6719 C410.6563,52.2344 410.0625,52.0938 409.1875,52.0938 C406.5625,52.0938 404.5625,54.1719 404.5625,56.8906 L404.5625,58.0156 C404.5625,60.5938 406.6719,62.4844 409.5625,62.4844 C410.7813,62.4844 411.9375,62.1875 412.6875,61.6406 C413.2656,61.2344 413.5938,60.7813 413.5938,60.3906 C413.5938,59.9375 413.2031,59.5469 412.7344,59.5469 C412.5156,59.5469 412.3125,59.625 412.125,59.8125 C411.6719,60.2969 411.6719,60.2969 411.4844,60.3906 C411.0625,60.6563 410.375,60.7813 409.6094,60.7813 C407.5625,60.7813 406.2656,59.6875 406.2656,57.9844 L406.2656,56.8906 C406.2656,55.1094 407.5156,53.7969 409.25,53.7969 C409.8281,53.7969 410.4375,53.9531 410.9063,54.2031 C411.3906,54.4844 411.5625,54.7031 411.6563,55.1094 C411.7188,55.5156 411.75,55.6406 411.8906,55.7656 C412.0313,55.9063 412.2656,56.0156 412.4844,56.0156 C412.75,56.0156 413.0156,55.875 413.1875,55.6563 C413.2969,55.5 413.3281,55.3125 413.3281,54.8906 L413.3281,53.4688 C413.3281,53.0313 413.3125,52.9063 413.2188,52.75 C413.0625,52.4844 412.7813,52.3438 412.4844,52.3438 C412.1875,52.3438 411.9844,52.4375 411.7656,52.75 L411.5938,52.6719 Z "/><text fill="#000000" font-family="sans-serif" font-size="12" lengthAdjust="spacingAndGlyphs" textLength="59" x="429.75" y="61.1543">Controller</text><line style="stroke: #A80036; stroke-width: 1.5;" x1="343.5" x2="542.5" y1="73" y2="73"/><polygon fill="none" points="353.5,79,357.5,83,353.5,87,349.5,83" style="stroke: #B38D22; stroke-width: 1.0;"/><text fill="#000000" font-family="sans-serif" font-size="11" lengthAdjust="spacingAndGlyphs" textLength="75" x="362.5" y="87.2104">game: Game</text><polygon fill="none" points="353.5,91.8047,357.5,95.8047,353.5,99.8047,349.5,95.8047" style="stroke: #B38D22; stroke-width: 1.0;"/><text fill="#000000" font-family="sans-serif" font-size="11" lengthAdjust="spacingAndGlyphs" textLength="67" x="362.5" y="100.0151">state: State</text><line style="stroke: #A80036; stroke-width: 1.5;" x1="343.5" x2="542.5" y1="106.6094" y2="106.6094"/><polygon fill="#4177AF" points="353.5,113.6094,349.5,119.6094,357.5,119.6094" style="stroke: #1963A0; stroke-width: 1.0;"/><text fill="#000000" font-family="sans-serif" font-size="11" lengthAdjust="spacingAndGlyphs" textLength="136" x="362.5" y="120.8198">Controller(Game, State)</text><ellipse cx="353.5" cy="130.4141" fill="#84BE84" rx="3" ry="3" style="stroke: #038048; stroke-width: 1.0;"/><text fill="#000000" font-family="sans-serif" font-size="11" font-style="italic" lengthAdjust="spacingAndGlyphs" textLength="175" x="362.5" y="133.6245">accept(ControllersVisitor): void</text><!--MD5=[bde59fc6c19aae4f66c9ab2f75e92cdd]
class com.controllers.ResumeController--><rect codeLine="24" fill="#FEFECE" filter="url(#fz9u9k554qj8p)" height="86.4141" id="com.controllers.ResumeController" style="stroke: #A80036; stroke-width: 1.5;" width="209" x="32.5" y="232"/><ellipse cx="79.25" cy="248" fill="#ADD1B2" rx="11" ry="11" style="stroke: #A80036; stroke-width: 1.0;"/><path d="M81.5938,243.6719 C80.6563,243.2344 80.0625,243.0938 79.1875,243.0938 C76.5625,243.0938 74.5625,245.1719 74.5625,247.8906 L74.5625,249.0156 C74.5625,251.5938 76.6719,253.4844 79.5625,253.4844 C80.7813,253.4844 81.9375,253.1875 82.6875,252.6406 C83.2656,252.2344 83.5938,251.7813 83.5938,251.3906 C83.5938,250.9375 83.2031,250.5469 82.7344,250.5469 C82.5156,250.5469 82.3125,250.625 82.125,250.8125 C81.6719,251.2969 81.6719,251.2969 81.4844,251.3906 C81.0625,251.6563 80.375,251.7813 79.6094,251.7813 C77.5625,251.7813 76.2656,250.6875 76.2656,248.9844 L76.2656,247.8906 C76.2656,246.1094 77.5156,244.7969 79.25,244.7969 C79.8281,244.7969 80.4375,244.9531 80.9063,245.2031 C81.3906,245.4844 81.5625,245.7031 81.6563,246.1094 C81.7188,246.5156 81.75,246.6406 81.8906,246.7656 C82.0313,246.9063 82.2656,247.0156 82.4844,247.0156 C82.75,247.0156 83.0156,246.875 83.1875,246.6563 C83.2969,246.5 83.3281,246.3125 83.3281,245.8906 L83.3281,244.4688 C83.3281,244.0313 83.3125,243.9063 83.2188,243.75 C83.0625,243.4844 82.7813,243.3438 82.4844,243.3438 C82.1875,243.3438 81.9844,243.4375 81.7656,243.75 L81.5938,243.6719 Z "/><text fill="#000000" font-family="sans-serif" font-size="12" lengthAdjust="spacingAndGlyphs" textLength="107" x="99.75" y="252.1543">ResumeController</text><line style="stroke: #A80036; stroke-width: 1.5;" x1="33.5" x2="240.5" y1="264" y2="264"/><line style="stroke: #A80036; stroke-width: 1.5;" x1="33.5" x2="240.5" y1="272" y2="272"/><ellipse cx="43.5" cy="283" fill="#84BE84" rx="3" ry="3" style="stroke: #038048; stroke-width: 1.0;"/><text fill="#000000" font-family="sans-serif" font-size="11" lengthAdjust="spacingAndGlyphs" textLength="183" x="52.5" y="286.2104">ResumeController(Game, State)</text><ellipse cx="43.5" cy="295.8047" fill="#84BE84" rx="3" ry="3" style="stroke: #038048; stroke-width: 1.0;"/><text fill="#000000" font-family="sans-serif" font-size="11" lengthAdjust="spacingAndGlyphs" textLength="129" x="52.5" y="299.0151">resume(boolean): void</text><ellipse cx="43.5" cy="308.6094" fill="#84BE84" rx="3" ry="3" style="stroke: #038048; stroke-width: 1.0;"/><text fill="#000000" font-family="sans-serif" font-size="11" lengthAdjust="spacingAndGlyphs" textLength="173" x="52.5" y="311.8198">accept(ControllersVisitor): void</text><!--MD5=[b40cd2b78683de4e07acd5e4e0e94125]
class com.controllers.ProposalController--><rect codeLine="12" fill="#FEFECE" filter="url(#fz9u9k554qj8p)" height="150.4375" id="com.controllers.ProposalController" style="stroke: #A80036; stroke-width: 1.5;" width="332" x="277" y="200"/><ellipse cx="383.25" cy="216" fill="#ADD1B2" rx="11" ry="11" style="stroke: #A80036; stroke-width: 1.0;"/><path d="M385.5938,211.6719 C384.6563,211.2344 384.0625,211.0938 383.1875,211.0938 C380.5625,211.0938 378.5625,213.1719 378.5625,215.8906 L378.5625,217.0156 C378.5625,219.5938 380.6719,221.4844 383.5625,221.4844 C384.7813,221.4844 385.9375,221.1875 386.6875,220.6406 C387.2656,220.2344 387.5938,219.7813 387.5938,219.3906 C387.5938,218.9375 387.2031,218.5469 386.7344,218.5469 C386.5156,218.5469 386.3125,218.625 386.125,218.8125 C385.6719,219.2969 385.6719,219.2969 385.4844,219.3906 C385.0625,219.6563 384.375,219.7813 383.6094,219.7813 C381.5625,219.7813 380.2656,218.6875 380.2656,216.9844 L380.2656,215.8906 C380.2656,214.1094 381.5156,212.7969 383.25,212.7969 C383.8281,212.7969 384.4375,212.9531 384.9063,213.2031 C385.3906,213.4844 385.5625,213.7031 385.6563,214.1094 C385.7188,214.5156 385.75,214.6406 385.8906,214.7656 C386.0313,214.9063 386.2656,215.0156 386.4844,215.0156 C386.75,215.0156 387.0156,214.875 387.1875,214.6563 C387.2969,214.5 387.3281,214.3125 387.3281,213.8906 L387.3281,212.4688 C387.3281,212.0313 387.3125,211.9063 387.2188,211.75 C387.0625,211.4844 386.7813,211.3438 386.4844,211.3438 C386.1875,211.3438 385.9844,211.4375 385.7656,211.75 L385.5938,211.6719 Z "/><text fill="#000000" font-family="sans-serif" font-size="12" lengthAdjust="spacingAndGlyphs" textLength="111" x="403.75" y="220.1543">ProposalController</text><line style="stroke: #A80036; stroke-width: 1.5;" x1="278" x2="608" y1="232" y2="232"/><line style="stroke: #A80036; stroke-width: 1.5;" x1="278" x2="608" y1="240" y2="240"/><ellipse cx="288" cy="251" fill="#84BE84" rx="3" ry="3" style="stroke: #038048; stroke-width: 1.0;"/><text fill="#000000" font-family="sans-serif" font-size="11" lengthAdjust="spacingAndGlyphs" textLength="183" x="297" y="254.2104">ProposalController(Game, State)</text><ellipse cx="288" cy="263.8047" fill="#84BE84" rx="3" ry="3" style="stroke: #038048; stroke-width: 1.0;"/><text fill="#000000" font-family="sans-serif" font-size="11" lengthAdjust="spacingAndGlyphs" textLength="110" x="297" y="267.0151">isWinner(): boolean</text><ellipse cx="288" cy="276.6094" fill="#84BE84" rx="3" ry="3" style="stroke: #038048; stroke-width: 1.0;"/><text fill="#000000" font-family="sans-serif" font-size="11" lengthAdjust="spacingAndGlyphs" textLength="108" x="297" y="279.8198">isLooser(): boolean</text><ellipse cx="288" cy="289.4141" fill="#84BE84" rx="3" ry="3" style="stroke: #038048; stroke-width: 1.0;"/><text fill="#000000" font-family="sans-serif" font-size="11" lengthAdjust="spacingAndGlyphs" textLength="118" x="297" y="292.6245">getResult(int): Result</text><ellipse cx="288" cy="302.2188" fill="#84BE84" rx="3" ry="3" style="stroke: #038048; stroke-width: 1.0;"/><text fill="#000000" font-family="sans-serif" font-size="11" lengthAdjust="spacingAndGlyphs" textLength="294" x="297" y="305.4292">getProposedCombination(int): ProposedCombination</text><ellipse cx="288" cy="315.0234" fill="#84BE84" rx="3" ry="3" style="stroke: #038048; stroke-width: 1.0;"/><text fill="#000000" font-family="sans-serif" font-size="11" lengthAdjust="spacingAndGlyphs" textLength="100" x="297" y="318.2339">getAttempts(): int</text><ellipse cx="288" cy="327.8281" fill="#84BE84" rx="3" ry="3" style="stroke: #038048; stroke-width: 1.0;"/><text fill="#000000" font-family="sans-serif" font-size="11" lengthAdjust="spacingAndGlyphs" textLength="306" x="297" y="331.0386">addProposedCombination(ProposedCombination): void</text><ellipse cx="288" cy="340.6328" fill="#84BE84" rx="3" ry="3" style="stroke: #038048; stroke-width: 1.0;"/><text fill="#000000" font-family="sans-serif" font-size="11" lengthAdjust="spacingAndGlyphs" textLength="173" x="297" y="343.8433">accept(ControllersVisitor): void</text><!--MD5=[774d1cec19cc617bb34cfe9176e0920d]
class com.models.Game--><rect fill="#FEFECE" filter="url(#fz9u9k554qj8p)" height="48" id="com.models.Game" style="stroke: #A80036; stroke-width: 1.5;" width="67" x="594.5" y="425"/><ellipse cx="609.5" cy="441" fill="#ADD1B2" rx="11" ry="11" style="stroke: #A80036; stroke-width: 1.0;"/><path d="M611.8438,436.6719 C610.9063,436.2344 610.3125,436.0938 609.4375,436.0938 C606.8125,436.0938 604.8125,438.1719 604.8125,440.8906 L604.8125,442.0156 C604.8125,444.5938 606.9219,446.4844 609.8125,446.4844 C611.0313,446.4844 612.1875,446.1875 612.9375,445.6406 C613.5156,445.2344 613.8438,444.7813 613.8438,444.3906 C613.8438,443.9375 613.4531,443.5469 612.9844,443.5469 C612.7656,443.5469 612.5625,443.625 612.375,443.8125 C611.9219,444.2969 611.9219,444.2969 611.7344,444.3906 C611.3125,444.6563 610.625,444.7813 609.8594,444.7813 C607.8125,444.7813 606.5156,443.6875 606.5156,441.9844 L606.5156,440.8906 C606.5156,439.1094 607.7656,437.7969 609.5,437.7969 C610.0781,437.7969 610.6875,437.9531 611.1563,438.2031 C611.6406,438.4844 611.8125,438.7031 611.9063,439.1094 C611.9688,439.5156 612,439.6406 612.1406,439.7656 C612.2813,439.9063 612.5156,440.0156 612.7344,440.0156 C613,440.0156 613.2656,439.875 613.4375,439.6563 C613.5469,439.5 613.5781,439.3125 613.5781,438.8906 L613.5781,437.4688 C613.5781,437.0313 613.5625,436.9063 613.4688,436.75 C613.3125,436.4844 613.0313,436.3438 612.7344,436.3438 C612.4375,436.3438 612.2344,436.4375 612.0156,436.75 L611.8438,436.6719 Z "/><text fill="#000000" font-family="sans-serif" font-size="12" lengthAdjust="spacingAndGlyphs" textLength="35" x="623.5" y="445.1543">Game</text><line style="stroke: #A80036; stroke-width: 1.5;" x1="595.5" x2="660.5" y1="457" y2="457"/><line style="stroke: #A80036; stroke-width: 1.5;" x1="595.5" x2="660.5" y1="465" y2="465"/><!--MD5=[adfcb4da0fc9b22ee3d9fbe48754ad99]
class com.models.ProposedCombination--><rect fill="#FEFECE" filter="url(#fz9u9k554qj8p)" height="48" id="com.models.ProposedCombination" style="stroke: #A80036; stroke-width: 1.5;" width="164" x="395" y="425"/><ellipse cx="410" cy="441" fill="#ADD1B2" rx="11" ry="11" style="stroke: #A80036; stroke-width: 1.0;"/><path d="M412.3438,436.6719 C411.4063,436.2344 410.8125,436.0938 409.9375,436.0938 C407.3125,436.0938 405.3125,438.1719 405.3125,440.8906 L405.3125,442.0156 C405.3125,444.5938 407.4219,446.4844 410.3125,446.4844 C411.5313,446.4844 412.6875,446.1875 413.4375,445.6406 C414.0156,445.2344 414.3438,444.7813 414.3438,444.3906 C414.3438,443.9375 413.9531,443.5469 413.4844,443.5469 C413.2656,443.5469 413.0625,443.625 412.875,443.8125 C412.4219,444.2969 412.4219,444.2969 412.2344,444.3906 C411.8125,444.6563 411.125,444.7813 410.3594,444.7813 C408.3125,444.7813 407.0156,443.6875 407.0156,441.9844 L407.0156,440.8906 C407.0156,439.1094 408.2656,437.7969 410,437.7969 C410.5781,437.7969 411.1875,437.9531 411.6563,438.2031 C412.1406,438.4844 412.3125,438.7031 412.4063,439.1094 C412.4688,439.5156 412.5,439.6406 412.6406,439.7656 C412.7813,439.9063 413.0156,440.0156 413.2344,440.0156 C413.5,440.0156 413.7656,439.875 413.9375,439.6563 C414.0469,439.5 414.0781,439.3125 414.0781,438.8906 L414.0781,437.4688 C414.0781,437.0313 414.0625,436.9063 413.9688,436.75 C413.8125,436.4844 413.5313,436.3438 413.2344,436.3438 C412.9375,436.3438 412.7344,436.4375 412.5156,436.75 L412.3438,436.6719 Z "/><text fill="#000000" font-family="sans-serif" font-size="12" lengthAdjust="spacingAndGlyphs" textLength="132" x="424" y="445.1543">ProposedCombination</text><line style="stroke: #A80036; stroke-width: 1.5;" x1="396" x2="558" y1="457" y2="457"/><line style="stroke: #A80036; stroke-width: 1.5;" x1="396" x2="558" y1="465" y2="465"/><!--MD5=[9206204a83b416c032051e88d8017985]
link com.controllers.Controller to com.models.Game--><path codeLine="7" d="M543.658,127.184 C576.105,144.009 608.448,167.675 627,200 C667.322,270.259 648.916,371.199 636.325,419.774 " fill="none" id="com.controllers.Controller-to-com.models.Game" style="stroke: #A80036; stroke-width: 1.0;"/><polygon fill="#A80036" points="634.975,424.8711,641.1463,417.1955,636.2554,420.0378,633.4131,415.1469,634.975,424.8711" style="stroke: #A80036; stroke-width: 1.0;"/><!--MD5=[8e374f6dcdf5fb9acf92c31399e8ecc4]
link com.controllers.Controller to com.controllers.ResumeController--><path codeLine="8" d="M344.1,140.162 C311.322,158.793 274.941,180.299 242,200 C226.259,209.414 209.419,219.573 193.842,229.258 " fill="none" id="com.controllers.Controller-to-com.controllers.ResumeController" style="stroke: #A80036; stroke-width: 1.0; stroke-dasharray: 7.0,7.0;"/><polygon fill="#A80036" points="189.485,231.976,199.2382,230.6066,193.7273,229.3297,195.0042,223.8189,189.485,231.976" style="stroke: #A80036; stroke-width: 1.0;"/><!--MD5=[2cfbb38844f337d560c1e08472688032]
reverse link com.controllers.Controller to com.controllers.ResumeController--><path codeLine="29" d="M359.467,150.685 C333.079,166.629 303.893,183.916 277,200 C259.779,210.299 241.242,221.49 223.376,231.976 " fill="none" id="com.controllers.Controller-backto-com.controllers.ResumeController" style="stroke: #A80036; stroke-width: 1.0;"/><polygon fill="none" points="356.06,144.564,376.787,140.162,363.329,156.529,356.06,144.564" style="stroke: #A80036; stroke-width: 1.0;"/><!--MD5=[298267bb79203bfe4a81b27b155c3901]
link com.controllers.Controller to com.controllers.ProposalController--><path codeLine="9" d="M431.558,140.407 C430.448,157.103 430.044,176.229 430.348,194.692 " fill="none" id="com.controllers.Controller-to-com.controllers.ProposalController" style="stroke: #A80036; stroke-width: 1.0; stroke-dasharray: 7.0,7.0;"/><polygon fill="#A80036" points="430.452,199.879,434.2712,190.8008,430.352,194.88,426.2728,190.9608,430.452,199.879" style="stroke: #A80036; stroke-width: 1.0;"/><!--MD5=[739e865abf40fc68afbdd23fe3496056]
reverse link com.controllers.Controller to com.controllers.ProposalController--><path codeLine="22" d="M456.139,160.574 C456.565,173.42 456.614,186.89 456.286,199.879 " fill="none" id="com.controllers.Controller-backto-com.controllers.ProposalController" style="stroke: #A80036; stroke-width: 1.0;"/><polygon fill="none" points="449.139,160.736,455.115,140.407,463.121,160.026,449.139,160.736" style="stroke: #A80036; stroke-width: 1.0;"/><!--MD5=[cb18b4c3852651973ecf8d5bc45e0fd3]
link com.controllers.ProposalController to com.models.ProposedCombination--><path codeLine="23" d="M457.666,350.191 C462.529,374.791 467.651,400.705 471.401,419.6747 " fill="none" id="com.controllers.ProposalController-to-com.models.ProposedCombination" style="stroke: #A80036; stroke-width: 1.0; stroke-dasharray: 7.0,7.0;"/><polygon fill="#A80036" points="472.421,424.834,474.6001,415.2292,471.4515,419.9289,466.7519,416.7804,472.421,424.834" style="stroke: #A80036; stroke-width: 1.0;"/><!--MD5=[b268daf4213411923beddf560c50f537]
@startuml
class  com.controllers.Controller{
# game: Game
# state: State
~ Controller(Game, State)
+ {abstract} accept(ControllersVisitor): void
}
com.controllers.Controller -down-> com.models.Game
com.controllers.Controller ..> com.controllers.ResumeController
com.controllers.Controller ..> com.controllers.ProposalController


class  com.controllers.ProposalController{
+ ProposalController(Game, State)
+ isWinner(): boolean
+ isLooser(): boolean
+ getResult(int): Result
+ getProposedCombination(int): ProposedCombination
+ getAttempts(): int
+ addProposedCombination(ProposedCombination): void
+ accept(ControllersVisitor): void
}
com.controllers.Controller <|-down- com.controllers.ProposalController
com.controllers.ProposalController ..> com.models.ProposedCombination
class  com.controllers.ResumeController{
+ ResumeController(Game, State)
+ resume(boolean): void
+ accept(ControllersVisitor): void
}
com.controllers.Controller <|-down- com.controllers.ResumeController
@enduml

PlantUML version 1.2020.20beta2(Unknown compile time)
(GPL source distribution)
Java Runtime: Java(TM) SE Runtime Environment
JVM: Java HotSpot(TM) 64-Bit Server VM
Default Encoding: UTF-8
Language: en
Country: US
--></g></svg>