<?xml version="1.0" encoding="UTF-8" standalone="no"?><svg xmlns="http://www.w3.org/2000/svg" xmlns:xlink="http://www.w3.org/1999/xlink" contentScriptType="application/ecmascript" contentStyleType="text/css" height="299px" preserveAspectRatio="none" style="width:398px;height:299px;" version="1.1" viewBox="0 0 398 299" width="398px" zoomAndPan="magnify"><defs><filter height="300%" id="f1c4dh2lk4n4df" width="300%" x="-1" y="-1"><feGaussianBlur result="blurOut" stdDeviation="2.0"/><feColorMatrix in="blurOut" result="blurOut2" type="matrix" values="0 0 0 0 0 0 0 0 0 0 0 0 0 0 0 0 0 0 .4 0"/><feOffset dx="4.0" dy="4.0" in="blurOut2" result="blurOut3"/><feBlend in="SourceGraphic" in2="blurOut3" mode="normal"/></filter></defs><g><!--MD5=[b56d8ef9af079015670ad96965866810]
cluster mastermind--><polygon fill="#FFFFFF" filter="url(#f1c4dh2lk4n4df)" points="110,6,214,6,221,28.2969,276,28.2969,276,169,110,169,110,6" style="stroke: #000000; stroke-width: 1.5;"/><line style="stroke: #000000; stroke-width: 1.5;" x1="110" x2="221" y1="28.2969" y2="28.2969"/><text fill="#000000" font-family="sans-serif" font-size="14" font-weight="bold" lengthAdjust="spacingAndGlyphs" textLength="98" x="114" y="20.9951">mastermind</text><!--MD5=[57ab11106b6017d1c059bb8de6501622]
cluster mastermind.views--><polygon fill="#FFFFFF" filter="url(#f1c4dh2lk4n4df)" points="16,193,170,193,177,215.2969,180,215.2969,180,292,16,292,16,193" style="stroke: #000000; stroke-width: 1.5;"/><line style="stroke: #000000; stroke-width: 1.5;" x1="16" x2="177" y1="215.2969" y2="215.2969"/><text fill="#000000" font-family="sans-serif" font-size="14" font-weight="bold" lengthAdjust="spacingAndGlyphs" textLength="148" x="20" y="207.9951">mastermind.views</text><!--MD5=[8e0b9655f0966c29230933410523611d]
cluster mastermind.models--><polygon fill="#FFFFFF" filter="url(#f1c4dh2lk4n4df)" points="204,193,371,193,378,215.2969,381,215.2969,381,292,204,292,204,193" style="stroke: #000000; stroke-width: 1.5;"/><line style="stroke: #000000; stroke-width: 1.5;" x1="204" x2="378" y1="215.2969" y2="215.2969"/><text fill="#000000" font-family="sans-serif" font-size="14" font-weight="bold" lengthAdjust="spacingAndGlyphs" textLength="161" x="208" y="207.9951">mastermind.models</text><!--MD5=[3690083fa3c0b91189e580515c0d9fca]
class mastermind.Mastermind--><rect codeLine="1" fill="#FEFECE" filter="url(#f1c4dh2lk4n4df)" height="112.0234" id="mastermind.Mastermind" style="stroke: #A80036; stroke-width: 1.5;" width="134" x="126" y="41"/><ellipse cx="155.4" cy="57" fill="#ADD1B2" rx="11" ry="11" style="stroke: #A80036; stroke-width: 1.0;"/><path d="M157.7438,52.6719 C156.8063,52.2344 156.2125,52.0938 155.3375,52.0938 C152.7125,52.0938 150.7125,54.1719 150.7125,56.8906 L150.7125,58.0156 C150.7125,60.5938 152.8219,62.4844 155.7125,62.4844 C156.9313,62.4844 158.0875,62.1875 158.8375,61.6406 C159.4156,61.2344 159.7438,60.7813 159.7438,60.3906 C159.7438,59.9375 159.3531,59.5469 158.8844,59.5469 C158.6656,59.5469 158.4625,59.625 158.275,59.8125 C157.8219,60.2969 157.8219,60.2969 157.6344,60.3906 C157.2125,60.6563 156.525,60.7813 155.7594,60.7813 C153.7125,60.7813 152.4156,59.6875 152.4156,57.9844 L152.4156,56.8906 C152.4156,55.1094 153.6656,53.7969 155.4,53.7969 C155.9781,53.7969 156.5875,53.9531 157.0563,54.2031 C157.5406,54.4844 157.7125,54.7031 157.8063,55.1094 C157.8688,55.5156 157.9,55.6406 158.0406,55.7656 C158.1813,55.9063 158.4156,56.0156 158.6344,56.0156 C158.9,56.0156 159.1656,55.875 159.3375,55.6563 C159.4469,55.5 159.4781,55.3125 159.4781,54.8906 L159.4781,53.4688 C159.4781,53.0313 159.4625,52.9063 159.3688,52.75 C159.2125,52.4844 158.9313,52.3438 158.6344,52.3438 C158.3375,52.3438 158.1344,52.4375 157.9156,52.75 L157.7438,52.6719 Z "/><text fill="#000000" font-family="sans-serif" font-size="12" lengthAdjust="spacingAndGlyphs" textLength="70" x="172.6" y="61.1543">Mastermind</text><line style="stroke: #A80036; stroke-width: 1.5;" x1="127" x2="259" y1="73" y2="73"/><rect fill="none" height="6" style="stroke: #C82930; stroke-width: 1.0;" width="6" x="134" y="81"/><text fill="#000000" font-family="sans-serif" font-size="11" lengthAdjust="spacingAndGlyphs" textLength="72" x="146" y="87.2104">board: Board</text><rect fill="none" height="6" style="stroke: #C82930; stroke-width: 1.0;" width="6" x="134" y="93.8047"/><text fill="#000000" font-family="sans-serif" font-size="11" lengthAdjust="spacingAndGlyphs" textLength="62" x="146" y="100.0151">view: View</text><line style="stroke: #A80036; stroke-width: 1.5;" x1="127" x2="259" y1="106.6094" y2="106.6094"/><polygon fill="#4177AF" points="137,113.6094,133,119.6094,141,119.6094" style="stroke: #1963A0; stroke-width: 1.0;"/><text fill="#000000" font-family="sans-serif" font-size="11" lengthAdjust="spacingAndGlyphs" textLength="74" x="146" y="120.8198">Mastermind()</text><ellipse cx="137" cy="130.4141" fill="#84BE84" rx="3" ry="3" style="stroke: #038048; stroke-width: 1.0;"/><text fill="#000000" font-family="sans-serif" font-size="11" lengthAdjust="spacingAndGlyphs" text-decoration="underline" textLength="108" x="146" y="133.6245">main(String[]): void</text><rect fill="#F24D5C" height="6" style="stroke: #C82930; stroke-width: 1.0;" width="6" x="134" y="140.2188"/><text fill="#000000" font-family="sans-serif" font-size="11" lengthAdjust="spacingAndGlyphs" textLength="63" x="146" y="146.4292">play(): void</text><!--MD5=[904c44326bfc30ddc4fe4077c1b9164d]
class mastermind.views.View--><rect fill="#FEFECE" filter="url(#f1c4dh2lk4n4df)" height="48" id="mastermind.views.View" style="stroke: #A80036; stroke-width: 1.5;" width="61" x="102.5" y="228"/><ellipse cx="117.5" cy="244" fill="#ADD1B2" rx="11" ry="11" style="stroke: #A80036; stroke-width: 1.0;"/><path d="M119.8438,239.6719 C118.9063,239.2344 118.3125,239.0938 117.4375,239.0938 C114.8125,239.0938 112.8125,241.1719 112.8125,243.8906 L112.8125,245.0156 C112.8125,247.5938 114.9219,249.4844 117.8125,249.4844 C119.0313,249.4844 120.1875,249.1875 120.9375,248.6406 C121.5156,248.2344 121.8438,247.7813 121.8438,247.3906 C121.8438,246.9375 121.4531,246.5469 120.9844,246.5469 C120.7656,246.5469 120.5625,246.625 120.375,246.8125 C119.9219,247.2969 119.9219,247.2969 119.7344,247.3906 C119.3125,247.6563 118.625,247.7813 117.8594,247.7813 C115.8125,247.7813 114.5156,246.6875 114.5156,244.9844 L114.5156,243.8906 C114.5156,242.1094 115.7656,240.7969 117.5,240.7969 C118.0781,240.7969 118.6875,240.9531 119.1563,241.2031 C119.6406,241.4844 119.8125,241.7031 119.9063,242.1094 C119.9688,242.5156 120,242.6406 120.1406,242.7656 C120.2813,242.9063 120.5156,243.0156 120.7344,243.0156 C121,243.0156 121.2656,242.875 121.4375,242.6563 C121.5469,242.5 121.5781,242.3125 121.5781,241.8906 L121.5781,240.4688 C121.5781,240.0313 121.5625,239.9063 121.4688,239.75 C121.3125,239.4844 121.0313,239.3438 120.7344,239.3438 C120.4375,239.3438 120.2344,239.4375 120.0156,239.75 L119.8438,239.6719 Z "/><text fill="#000000" font-family="sans-serif" font-size="12" lengthAdjust="spacingAndGlyphs" textLength="29" x="131.5" y="248.1543">View</text><line style="stroke: #A80036; stroke-width: 1.5;" x1="103.5" x2="162.5" y1="260" y2="260"/><line style="stroke: #A80036; stroke-width: 1.5;" x1="103.5" x2="162.5" y1="268" y2="268"/><!--MD5=[dd8a3418c3f40ff738f8309f67b0c279]
class mastermind.models.Board--><rect fill="#FEFECE" filter="url(#f1c4dh2lk4n4df)" height="48" id="mastermind.models.Board" style="stroke: #A80036; stroke-width: 1.5;" width="68" x="220" y="228"/><ellipse cx="235" cy="244" fill="#ADD1B2" rx="11" ry="11" style="stroke: #A80036; stroke-width: 1.0;"/><path d="M237.3438,239.6719 C236.4063,239.2344 235.8125,239.0938 234.9375,239.0938 C232.3125,239.0938 230.3125,241.1719 230.3125,243.8906 L230.3125,245.0156 C230.3125,247.5938 232.4219,249.4844 235.3125,249.4844 C236.5313,249.4844 237.6875,249.1875 238.4375,248.6406 C239.0156,248.2344 239.3438,247.7813 239.3438,247.3906 C239.3438,246.9375 238.9531,246.5469 238.4844,246.5469 C238.2656,246.5469 238.0625,246.625 237.875,246.8125 C237.4219,247.2969 237.4219,247.2969 237.2344,247.3906 C236.8125,247.6563 236.125,247.7813 235.3594,247.7813 C233.3125,247.7813 232.0156,246.6875 232.0156,244.9844 L232.0156,243.8906 C232.0156,242.1094 233.2656,240.7969 235,240.7969 C235.5781,240.7969 236.1875,240.9531 236.6563,241.2031 C237.1406,241.4844 237.3125,241.7031 237.4063,242.1094 C237.4688,242.5156 237.5,242.6406 237.6406,242.7656 C237.7813,242.9063 238.0156,243.0156 238.2344,243.0156 C238.5,243.0156 238.7656,242.875 238.9375,242.6563 C239.0469,242.5 239.0781,242.3125 239.0781,241.8906 L239.0781,240.4688 C239.0781,240.0313 239.0625,239.9063 238.9688,239.75 C238.8125,239.4844 238.5313,239.3438 238.2344,239.3438 C237.9375,239.3438 237.7344,239.4375 237.5156,239.75 L237.3438,239.6719 Z "/><text fill="#000000" font-family="sans-serif" font-size="12" lengthAdjust="spacingAndGlyphs" textLength="36" x="249" y="248.1543">Board</text><line style="stroke: #A80036; stroke-width: 1.5;" x1="221" x2="287" y1="260" y2="260"/><line style="stroke: #A80036; stroke-width: 1.5;" x1="221" x2="287" y1="268" y2="268"/><!--MD5=[23bff7e45a9767c7c92fa52d4f427052]
link mastermind.Mastermind to mastermind.views.View--><path codeLine="8" d="M166.9584,164.4088 C166.9584,164.4088 152.757,200.621 146.905,215.5428 " fill="none" id="mastermind.Mastermind-mastermind.views.View" style="stroke: #A80036; stroke-width: 1.0;"/><polygon fill="#A80036" points="142.096,227.8042,149.1057,220.8858,143.9215,223.1493,141.6579,217.9651,142.096,227.8042" style="stroke: #A80036; stroke-width: 1.0;"/><line style="stroke: #A80036; stroke-width: 1.0;" x1="143.9215" x2="146.843" y1="223.1493" y2="215.7015"/><polygon fill="#A80036" points="171.339,153.237,165.4247,157.3627,166.9584,164.4088,172.8726,160.2831,171.339,153.237" style="stroke: #A80036; stroke-width: 1.0;"/><!--MD5=[381cc9d85d74fe357e943c677cb19ea1]
link mastermind.Mastermind to mastermind.models.Board--><path codeLine="9" d="M219.466,164.3838 C219.466,164.3838 233.914,200.621 239.863,215.5428 " fill="none" id="mastermind.Mastermind-mastermind.models.Board" style="stroke: #A80036; stroke-width: 1.0;"/><polygon fill="#A80036" points="244.752,227.8042,245.1344,217.9628,242.9003,223.1597,237.7033,220.9256,244.752,227.8042" style="stroke: #A80036; stroke-width: 1.0;"/><line style="stroke: #A80036; stroke-width: 1.0;" x1="242.9003" x2="239.9375" y1="223.1597" y2="215.7285"/><polygon fill="#A80036" points="215.022,153.237,213.5284,160.2917,219.466,164.3838,220.9596,157.3291,215.022,153.237" style="stroke: #A80036; stroke-width: 1.0;"/><!--MD5=[67adf5328314367556dcc6824020e2f7]

@startuml
class  mastermind.Mastermind{
- board: Board
- view: View
~  Mastermind()
+ {static} main(String[]): void
- play(): void
}
mastermind.Mastermind *-down-> mastermind.views.View
mastermind.Mastermind *-down-> mastermind.models.Board
@enduml

PlantUML version 1.2020.19(Mon Oct 12 15:10:01 UTC 2020)
(GPL source distribution)
Java Runtime: Java(TM) SE Runtime Environment
JVM: Java HotSpot(TM) 64-Bit Server VM
Default Encoding: UTF-8
Language: en
Country: US
--></g></svg>