<?xml version="1.0" encoding="UTF-8" standalone="no"?><svg xmlns="http://www.w3.org/2000/svg" xmlns:xlink="http://www.w3.org/1999/xlink" contentScriptType="application/ecmascript" contentStyleType="text/css" height="376px" preserveAspectRatio="none" style="width:494px;height:376px;" version="1.1" viewBox="0 0 494 376" width="494px" zoomAndPan="magnify"><defs><filter height="300%" id="fvce5t7gcagjc" width="300%" x="-1" y="-1"><feGaussianBlur result="blurOut" stdDeviation="2.0"/><feColorMatrix in="blurOut" result="blurOut2" type="matrix" values="0 0 0 0 0 0 0 0 0 0 0 0 0 0 0 0 0 0 .4 0"/><feOffset dx="4.0" dy="4.0" in="blurOut2" result="blurOut3"/><feBlend in="SourceGraphic" in2="blurOut3" mode="normal"/></filter></defs><g><!--MD5=[f2bedc297083edee028363469990e0f1]
cluster mastermind.utils--><polygon fill="#FFFFFF" filter="url(#fvce5t7gcagjc)" points="16,6,162,6,169,28.2969,477,28.2969,477,246,16,246,16,6" style="stroke: #000000; stroke-width: 1.5;"/><line style="stroke: #000000; stroke-width: 1.5;" x1="16" x2="169" y1="28.2969" y2="28.2969"/><text fill="#000000" font-family="sans-serif" font-size="14" font-weight="bold" lengthAdjust="spacingAndGlyphs" textLength="140" x="20" y="20.9951">mastermind.utils</text><!--MD5=[0d852700fdad35b7061d461d6907a324]
cluster java.io--><polygon fill="#FFFFFF" filter="url(#fvce5t7gcagjc)" points="274,270,334,270,341,292.2969,434,292.2969,434,369,274,369,274,270" style="stroke: #000000; stroke-width: 1.5;"/><line style="stroke: #000000; stroke-width: 1.5;" x1="274" x2="341" y1="292.2969" y2="292.2969"/><text fill="#000000" font-family="sans-serif" font-size="14" font-weight="bold" lengthAdjust="spacingAndGlyphs" textLength="54" x="278" y="284.9951">java.io</text><!--MD5=[e15ded4e07bed703f8f3e75437a45a59]
class mastermind.utils.ConsoleView--><rect codeLine="1" fill="#FEFECE" filter="url(#fvce5t7gcagjc)" height="188.8516" id="mastermind.utils.ConsoleView" style="stroke: #A80036; stroke-width: 1.5;" width="214" x="247" y="41"/><ellipse cx="310.75" cy="57" fill="#ADD1B2" rx="11" ry="11" style="stroke: #A80036; stroke-width: 1.0;"/><path d="M313.0938,52.6719 C312.1563,52.2344 311.5625,52.0938 310.6875,52.0938 C308.0625,52.0938 306.0625,54.1719 306.0625,56.8906 L306.0625,58.0156 C306.0625,60.5938 308.1719,62.4844 311.0625,62.4844 C312.2813,62.4844 313.4375,62.1875 314.1875,61.6406 C314.7656,61.2344 315.0938,60.7813 315.0938,60.3906 C315.0938,59.9375 314.7031,59.5469 314.2344,59.5469 C314.0156,59.5469 313.8125,59.625 313.625,59.8125 C313.1719,60.2969 313.1719,60.2969 312.9844,60.3906 C312.5625,60.6563 311.875,60.7813 311.1094,60.7813 C309.0625,60.7813 307.7656,59.6875 307.7656,57.9844 L307.7656,56.8906 C307.7656,55.1094 309.0156,53.7969 310.75,53.7969 C311.3281,53.7969 311.9375,53.9531 312.4063,54.2031 C312.8906,54.4844 313.0625,54.7031 313.1563,55.1094 C313.2188,55.5156 313.25,55.6406 313.3906,55.7656 C313.5313,55.9063 313.7656,56.0156 313.9844,56.0156 C314.25,56.0156 314.5156,55.875 314.6875,55.6563 C314.7969,55.5 314.8281,55.3125 314.8281,54.8906 L314.8281,53.4688 C314.8281,53.0313 314.8125,52.9063 314.7188,52.75 C314.5625,52.4844 314.2813,52.3438 313.9844,52.3438 C313.6875,52.3438 313.4844,52.4375 313.2656,52.75 L313.0938,52.6719 Z "/><text fill="#000000" font-family="sans-serif" font-size="12" lengthAdjust="spacingAndGlyphs" textLength="78" x="331.25" y="61.1543">ConsoleView</text><line style="stroke: #A80036; stroke-width: 1.5;" x1="248" x2="460" y1="73" y2="73"/><rect fill="none" height="6" style="stroke: #C82930; stroke-width: 1.0;" width="6" x="255" y="81"/><text fill="#000000" font-family="sans-serif" font-size="11" lengthAdjust="spacingAndGlyphs" textLength="188" x="267" y="87.2104">bufferedReader: BufferedReader</text><line style="stroke: #A80036; stroke-width: 1.5;" x1="248" x2="460" y1="93.8047" y2="93.8047"/><ellipse cx="258" cy="104.8047" fill="#84BE84" rx="3" ry="3" style="stroke: #038048; stroke-width: 1.0;"/><text fill="#000000" font-family="sans-serif" font-size="11" lengthAdjust="spacingAndGlyphs" textLength="54" x="267" y="108.0151">Console()</text><ellipse cx="258" cy="117.6094" fill="#84BE84" rx="3" ry="3" style="stroke: #038048; stroke-width: 1.0;"/><text fill="#000000" font-family="sans-serif" font-size="11" lengthAdjust="spacingAndGlyphs" textLength="91" x="267" y="120.8198">write(char): void</text><ellipse cx="258" cy="130.4141" fill="#84BE84" rx="3" ry="3" style="stroke: #038048; stroke-width: 1.0;"/><text fill="#000000" font-family="sans-serif" font-size="11" lengthAdjust="spacingAndGlyphs" textLength="100" x="267" y="133.6245">write(String): void</text><ellipse cx="258" cy="143.2188" fill="#84BE84" rx="3" ry="3" style="stroke: #038048; stroke-width: 1.0;"/><text fill="#000000" font-family="sans-serif" font-size="11" lengthAdjust="spacingAndGlyphs" textLength="102" x="267" y="146.4292">readInt(String): int</text><ellipse cx="258" cy="156.0234" fill="#84BE84" rx="3" ry="3" style="stroke: #038048; stroke-width: 1.0;"/><text fill="#000000" font-family="sans-serif" font-size="11" lengthAdjust="spacingAndGlyphs" textLength="124" x="267" y="159.2339">readChar(String): char</text><rect fill="#F24D5C" height="6" style="stroke: #C82930; stroke-width: 1.0;" width="6" x="255" y="165.8281"/><text fill="#000000" font-family="sans-serif" font-size="11" lengthAdjust="spacingAndGlyphs" textLength="126" x="267" y="172.0386">writeError(String): void</text><ellipse cx="258" cy="181.6328" fill="#84BE84" rx="3" ry="3" style="stroke: #038048; stroke-width: 1.0;"/><text fill="#000000" font-family="sans-serif" font-size="11" lengthAdjust="spacingAndGlyphs" textLength="110" x="267" y="184.8433">writeln(String): void</text><ellipse cx="258" cy="194.4375" fill="#84BE84" rx="3" ry="3" style="stroke: #038048; stroke-width: 1.0;"/><text fill="#000000" font-family="sans-serif" font-size="11" lengthAdjust="spacingAndGlyphs" textLength="91" x="267" y="197.6479">writeln(int): void</text><ellipse cx="258" cy="207.2422" fill="#84BE84" rx="3" ry="3" style="stroke: #038048; stroke-width: 1.0;"/><text fill="#000000" font-family="sans-serif" font-size="11" lengthAdjust="spacingAndGlyphs" textLength="77" x="267" y="210.4526">writeln(): void</text><ellipse cx="258" cy="220.0469" fill="#84BE84" rx="3" ry="3" style="stroke: #038048; stroke-width: 1.0;"/><text fill="#000000" font-family="sans-serif" font-size="11" lengthAdjust="spacingAndGlyphs" textLength="140" x="267" y="223.2573">readString(String): String</text><!--MD5=[8fefce232ba7ae99aa926d324ff560e5]
class mastermind.utils.YesNoDialog--><rect codeLine="15" fill="#FEFECE" filter="url(#fvce5t7gcagjc)" height="150.4375" id="mastermind.utils.YesNoDialog" style="stroke: #A80036; stroke-width: 1.5;" width="179" x="32.5" y="60.5"/><ellipse cx="79.75" cy="76.5" fill="#ADD1B2" rx="11" ry="11" style="stroke: #A80036; stroke-width: 1.0;"/><path d="M82.0938,72.1719 C81.1563,71.7344 80.5625,71.5938 79.6875,71.5938 C77.0625,71.5938 75.0625,73.6719 75.0625,76.3906 L75.0625,77.5156 C75.0625,80.0938 77.1719,81.9844 80.0625,81.9844 C81.2813,81.9844 82.4375,81.6875 83.1875,81.1406 C83.7656,80.7344 84.0938,80.2813 84.0938,79.8906 C84.0938,79.4375 83.7031,79.0469 83.2344,79.0469 C83.0156,79.0469 82.8125,79.125 82.625,79.3125 C82.1719,79.7969 82.1719,79.7969 81.9844,79.8906 C81.5625,80.1563 80.875,80.2813 80.1094,80.2813 C78.0625,80.2813 76.7656,79.1875 76.7656,77.4844 L76.7656,76.3906 C76.7656,74.6094 78.0156,73.2969 79.75,73.2969 C80.3281,73.2969 80.9375,73.4531 81.4063,73.7031 C81.8906,73.9844 82.0625,74.2031 82.1563,74.6094 C82.2188,75.0156 82.25,75.1406 82.3906,75.2656 C82.5313,75.4063 82.7656,75.5156 82.9844,75.5156 C83.25,75.5156 83.5156,75.375 83.6875,75.1563 C83.7969,75 83.8281,74.8125 83.8281,74.3906 L83.8281,72.9688 C83.8281,72.5313 83.8125,72.4063 83.7188,72.25 C83.5625,71.9844 83.2813,71.8438 82.9844,71.8438 C82.6875,71.8438 82.4844,71.9375 82.2656,72.25 L82.0938,72.1719 Z "/><text fill="#000000" font-family="sans-serif" font-size="12" lengthAdjust="spacingAndGlyphs" textLength="76" x="100.25" y="80.6543">YesNoDialog</text><line style="stroke: #A80036; stroke-width: 1.5;" x1="33.5" x2="210.5" y1="92.5" y2="92.5"/><rect fill="none" height="6" style="stroke: #C82930; stroke-width: 1.0;" width="6" x="40.5" y="100.5"/><text fill="#000000" font-family="sans-serif" font-size="11" lengthAdjust="spacingAndGlyphs" text-decoration="underline" textLength="97" x="52.5" y="106.7104">AFIRMATIVE: char</text><rect fill="none" height="6" style="stroke: #C82930; stroke-width: 1.0;" width="6" x="40.5" y="113.3047"/><text fill="#000000" font-family="sans-serif" font-size="11" lengthAdjust="spacingAndGlyphs" text-decoration="underline" textLength="88" x="52.5" y="119.5151">NEGATIVE: char</text><rect fill="none" height="6" style="stroke: #C82930; stroke-width: 1.0;" width="6" x="40.5" y="126.1094"/><text fill="#000000" font-family="sans-serif" font-size="11" lengthAdjust="spacingAndGlyphs" text-decoration="underline" textLength="99" x="52.5" y="132.3198">QUESTION: String</text><rect fill="none" height="6" style="stroke: #C82930; stroke-width: 1.0;" width="6" x="40.5" y="138.9141"/><text fill="#000000" font-family="sans-serif" font-size="11" lengthAdjust="spacingAndGlyphs" text-decoration="underline" textLength="96" x="52.5" y="145.1245">MESSAGE: String</text><line style="stroke: #A80036; stroke-width: 1.5;" x1="33.5" x2="210.5" y1="151.7188" y2="151.7188"/><ellipse cx="43.5" cy="162.7188" fill="#84BE84" rx="3" ry="3" style="stroke: #038048; stroke-width: 1.0;"/><text fill="#000000" font-family="sans-serif" font-size="11" lengthAdjust="spacingAndGlyphs" textLength="80" x="52.5" y="165.9292">YesNoDialog()</text><ellipse cx="43.5" cy="175.5234" fill="#84BE84" rx="3" ry="3" style="stroke: #038048; stroke-width: 1.0;"/><text fill="#000000" font-family="sans-serif" font-size="11" lengthAdjust="spacingAndGlyphs" textLength="120" x="52.5" y="178.7339">read(String): boolean</text><rect fill="#F24D5C" height="6" style="stroke: #C82930; stroke-width: 1.0;" width="6" x="40.5" y="185.3281"/><text fill="#000000" font-family="sans-serif" font-size="11" lengthAdjust="spacingAndGlyphs" text-decoration="underline" textLength="153" x="52.5" y="191.5386">isAfirmative(char): boolean</text><rect fill="#F24D5C" height="6" style="stroke: #C82930; stroke-width: 1.0;" width="6" x="40.5" y="198.1328"/><text fill="#000000" font-family="sans-serif" font-size="11" lengthAdjust="spacingAndGlyphs" text-decoration="underline" textLength="146" x="52.5" y="204.3433">isNegative(char): boolean</text><!--MD5=[06343bf850d7d7a24456cd327e63b99b]
class java.io.BufferedReader--><rect fill="#FEFECE" filter="url(#fvce5t7gcagjc)" height="48" id="java.io.BufferedReader" style="stroke: #A80036; stroke-width: 1.5;" width="127" x="290.5" y="305"/><ellipse cx="305.5" cy="321" fill="#ADD1B2" rx="11" ry="11" style="stroke: #A80036; stroke-width: 1.0;"/><path d="M307.8438,316.6719 C306.9063,316.2344 306.3125,316.0938 305.4375,316.0938 C302.8125,316.0938 300.8125,318.1719 300.8125,320.8906 L300.8125,322.0156 C300.8125,324.5938 302.9219,326.4844 305.8125,326.4844 C307.0313,326.4844 308.1875,326.1875 308.9375,325.6406 C309.5156,325.2344 309.8438,324.7813 309.8438,324.3906 C309.8438,323.9375 309.4531,323.5469 308.9844,323.5469 C308.7656,323.5469 308.5625,323.625 308.375,323.8125 C307.9219,324.2969 307.9219,324.2969 307.7344,324.3906 C307.3125,324.6563 306.625,324.7813 305.8594,324.7813 C303.8125,324.7813 302.5156,323.6875 302.5156,321.9844 L302.5156,320.8906 C302.5156,319.1094 303.7656,317.7969 305.5,317.7969 C306.0781,317.7969 306.6875,317.9531 307.1563,318.2031 C307.6406,318.4844 307.8125,318.7031 307.9063,319.1094 C307.9688,319.5156 308,319.6406 308.1406,319.7656 C308.2813,319.9063 308.5156,320.0156 308.7344,320.0156 C309,320.0156 309.2656,319.875 309.4375,319.6563 C309.5469,319.5 309.5781,319.3125 309.5781,318.8906 L309.5781,317.4688 C309.5781,317.0313 309.5625,316.9063 309.4688,316.75 C309.3125,316.4844 309.0313,316.3438 308.7344,316.3438 C308.4375,316.3438 308.2344,316.4375 308.0156,316.75 L307.8438,316.6719 Z "/><text fill="#000000" font-family="sans-serif" font-size="12" lengthAdjust="spacingAndGlyphs" textLength="95" x="319.5" y="325.1543">BufferedReader</text><line style="stroke: #A80036; stroke-width: 1.5;" x1="291.5" x2="416.5" y1="337" y2="337"/><line style="stroke: #A80036; stroke-width: 1.5;" x1="291.5" x2="416.5" y1="345" y2="345"/><!--MD5=[dcf2e69b0ebdf1d261b3fb365555713e]
link mastermind.utils.ConsoleView to java.io.BufferedReader--><path codeLine="26" d="M354,242.006 C354,242.006 354,277.542 354,291.5964 " fill="none" id="mastermind.utils.ConsoleView-java.io.BufferedReader" style="stroke: #A80036; stroke-width: 1.0;"/><polygon fill="#A80036" points="354,304.6261,358,295.6261,354,299.6261,350,295.6261,354,304.6261" style="stroke: #A80036; stroke-width: 1.0;"/><line style="stroke: #A80036; stroke-width: 1.0;" x1="354" x2="354" y1="299.6261" y2="291.6261"/><polygon fill="#A80036" points="354,230.006,350,236.006,354,242.006,358,236.006,354,230.006" style="stroke: #A80036; stroke-width: 1.0;"/><!--MD5=[764e561f7ec95f380ddab38c1c79c492]
@startuml
class  mastermind.utils.ConsoleView{
- bufferedReader: BufferedReader
+ Console()
+ write(char): void
+ write(String): void
+ readInt(String): int
+ readChar(String): char
- writeError(String): void
+ writeln(String): void
+ writeln(int): void
+ writeln(): void
+ readString(String): String
}

class  mastermind.utils.YesNoDialog{
- {static} AFIRMATIVE: char
- {static} NEGATIVE: char
- {static} QUESTION: String
- {static} MESSAGE: String
+ YesNoDialog()
+ read(String): boolean
- {static} isAfirmative(char): boolean
- {static} isNegative(char): boolean
}

mastermind.utils.ConsoleView *-down-> java.io.BufferedReader
@enduml

PlantUML version 1.2020.19(Mon Oct 12 15:10:01 UTC 2020)
(GPL source distribution)
Java Runtime: Java(TM) SE Runtime Environment
JVM: Java HotSpot(TM) 64-Bit Server VM
Default Encoding: UTF-8
Language: en
Country: US
--></g></svg>