<?xml version="1.0" encoding="UTF-8" standalone="no"?><svg xmlns="http://www.w3.org/2000/svg" xmlns:xlink="http://www.w3.org/1999/xlink" contentScriptType="application/ecmascript" contentStyleType="text/css" height="1086px" preserveAspectRatio="none" style="width:1225px;height:1086px;" version="1.1" viewBox="0 0 1225 1086" width="1225px" zoomAndPan="magnify"><defs><filter height="300%" id="f1ffj005wkkx7i" width="300%" x="-1" y="-1"><feGaussianBlur result="blurOut" stdDeviation="2.0"/><feColorMatrix in="blurOut" result="blurOut2" type="matrix" values="0 0 0 0 0 0 0 0 0 0 0 0 0 0 0 0 0 0 .4 0"/><feOffset dx="4.0" dy="4.0" in="blurOut2" result="blurOut3"/><feBlend in="SourceGraphic" in2="blurOut3" mode="normal"/></filter></defs><g><!--MD5=[57ab11106b6017d1c059bb8de6501622]
cluster mastermind.views--><polygon fill="#FFFFFF" filter="url(#f1ffj005wkkx7i)" points="196,6,350,6,357,28.2969,1007,28.2969,1007,1079,196,1079,196,6" style="stroke: #000000; stroke-width: 1.5;"/><line style="stroke: #000000; stroke-width: 1.5;" x1="196" x2="357" y1="28.2969" y2="28.2969"/><text fill="#000000" font-family="sans-serif" font-size="14" font-weight="bold" lengthAdjust="spacingAndGlyphs" textLength="148" x="200" y="20.9951">mastermind.views</text><!--MD5=[f2bedc297083edee028363469990e0f1]
cluster mastermind.utils--><polygon fill="#FFFFFF" filter="url(#f1ffj005wkkx7i)" points="16,731.5,162,731.5,169,753.7969,172,753.7969,172,830.5,16,830.5,16,731.5" style="stroke: #000000; stroke-width: 1.5;"/><line style="stroke: #000000; stroke-width: 1.5;" x1="16" x2="169" y1="753.7969" y2="753.7969"/><text fill="#000000" font-family="sans-serif" font-size="14" font-weight="bold" lengthAdjust="spacingAndGlyphs" textLength="140" x="20" y="746.4951">mastermind.utils</text><!--MD5=[8e0b9655f0966c29230933410523611d]
cluster mastermind.models--><polygon fill="#FFFFFF" filter="url(#f1ffj005wkkx7i)" points="1031,515,1198,515,1205,537.2969,1208,537.2969,1208,614,1031,614,1031,515" style="stroke: #000000; stroke-width: 1.5;"/><line style="stroke: #000000; stroke-width: 1.5;" x1="1031" x2="1205" y1="537.2969" y2="537.2969"/><text fill="#000000" font-family="sans-serif" font-size="14" font-weight="bold" lengthAdjust="spacingAndGlyphs" textLength="161" x="1035" y="529.9951">mastermind.models</text><!--MD5=[daba0edef7c2b2303027ed075b2f09fd]
class mastermind.views.ColorView--><rect codeLine="1" fill="#FEFECE" filter="url(#f1ffj005wkkx7i)" height="99.2188" id="mastermind.views.ColorView" style="stroke: #A80036; stroke-width: 1.5;" width="129" x="249.5" y="964"/><ellipse cx="280.7" cy="980" fill="#ADD1B2" rx="11" ry="11" style="stroke: #A80036; stroke-width: 1.0;"/><path d="M283.0438,975.6719 C282.1063,975.2344 281.5125,975.0938 280.6375,975.0938 C278.0125,975.0938 276.0125,977.1719 276.0125,979.8906 L276.0125,981.0156 C276.0125,983.5938 278.1219,985.4844 281.0125,985.4844 C282.2313,985.4844 283.3875,985.1875 284.1375,984.6406 C284.7156,984.2344 285.0438,983.7813 285.0438,983.3906 C285.0438,982.9375 284.6531,982.5469 284.1844,982.5469 C283.9656,982.5469 283.7625,982.625 283.575,982.8125 C283.1219,983.2969 283.1219,983.2969 282.9344,983.3906 C282.5125,983.6563 281.825,983.7813 281.0594,983.7813 C279.0125,983.7813 277.7156,982.6875 277.7156,980.9844 L277.7156,979.8906 C277.7156,978.1094 278.9656,976.7969 280.7,976.7969 C281.2781,976.7969 281.8875,976.9531 282.3563,977.2031 C282.8406,977.4844 283.0125,977.7031 283.1063,978.1094 C283.1688,978.5156 283.2,978.6406 283.3406,978.7656 C283.4813,978.9063 283.7156,979.0156 283.9344,979.0156 C284.2,979.0156 284.4656,978.875 284.6375,978.6563 C284.7469,978.5 284.7781,978.3125 284.7781,977.8906 L284.7781,976.4688 C284.7781,976.0313 284.7625,975.9063 284.6688,975.75 C284.5125,975.4844 284.2313,975.3438 283.9344,975.3438 C283.6375,975.3438 283.4344,975.4375 283.2156,975.75 L283.0438,975.6719 Z "/><text fill="#000000" font-family="sans-serif" font-size="12" lengthAdjust="spacingAndGlyphs" textLength="61" x="298.3" y="984.1543">ColorView</text><line style="stroke: #A80036; stroke-width: 1.5;" x1="250.5" x2="377.5" y1="996" y2="996"/><rect fill="none" height="6" style="stroke: #C82930; stroke-width: 1.0;" width="6" x="257.5" y="1004"/><text fill="#000000" font-family="sans-serif" font-size="11" lengthAdjust="spacingAndGlyphs" textLength="63" x="269.5" y="1010.2104">color: Color</text><line style="stroke: #A80036; stroke-width: 1.5;" x1="250.5" x2="377.5" y1="1016.8047" y2="1016.8047"/><polygon fill="#4177AF" points="260.5,1023.8047,256.5,1029.8047,264.5,1029.8047" style="stroke: #1963A0; stroke-width: 1.0;"/><text fill="#000000" font-family="sans-serif" font-size="11" lengthAdjust="spacingAndGlyphs" textLength="94" x="269.5" y="1031.0151">ColorView(Color)</text><ellipse cx="260.5" cy="1040.6094" fill="#84BE84" rx="3" ry="3" style="stroke: #038048; stroke-width: 1.0;"/><text fill="#000000" font-family="sans-serif" font-size="11" lengthAdjust="spacingAndGlyphs" textLength="67" x="269.5" y="1043.8198">write(): void</text><ellipse cx="260.5" cy="1053.4141" fill="#84BE84" rx="3" ry="3" style="stroke: #038048; stroke-width: 1.0;"/><text fill="#000000" font-family="sans-serif" font-size="11" lengthAdjust="spacingAndGlyphs" textLength="103" x="269.5" y="1056.6245">writeInitials(): void</text><!--MD5=[ee236011c866e79872d7eb09821c7fe9]
class mastermind.views.ErrorView--><rect codeLine="8" fill="#FEFECE" filter="url(#f1ffj005wkkx7i)" height="99.2188" id="mastermind.views.ErrorView" style="stroke: #A80036; stroke-width: 1.5;" width="145" x="318.5" y="741"/><ellipse cx="357.8" cy="757" fill="#ADD1B2" rx="11" ry="11" style="stroke: #A80036; stroke-width: 1.0;"/><path d="M360.1438,752.6719 C359.2063,752.2344 358.6125,752.0938 357.7375,752.0938 C355.1125,752.0938 353.1125,754.1719 353.1125,756.8906 L353.1125,758.0156 C353.1125,760.5938 355.2219,762.4844 358.1125,762.4844 C359.3313,762.4844 360.4875,762.1875 361.2375,761.6406 C361.8156,761.2344 362.1438,760.7813 362.1438,760.3906 C362.1438,759.9375 361.7531,759.5469 361.2844,759.5469 C361.0656,759.5469 360.8625,759.625 360.675,759.8125 C360.2219,760.2969 360.2219,760.2969 360.0344,760.3906 C359.6125,760.6563 358.925,760.7813 358.1594,760.7813 C356.1125,760.7813 354.8156,759.6875 354.8156,757.9844 L354.8156,756.8906 C354.8156,755.1094 356.0656,753.7969 357.8,753.7969 C358.3781,753.7969 358.9875,753.9531 359.4563,754.2031 C359.9406,754.4844 360.1125,754.7031 360.2063,755.1094 C360.2688,755.5156 360.3,755.6406 360.4406,755.7656 C360.5813,755.9063 360.8156,756.0156 361.0344,756.0156 C361.3,756.0156 361.5656,755.875 361.7375,755.6563 C361.8469,755.5 361.8781,755.3125 361.8781,754.8906 L361.8781,753.4688 C361.8781,753.0313 361.8625,752.9063 361.7688,752.75 C361.6125,752.4844 361.3313,752.3438 361.0344,752.3438 C360.7375,752.3438 360.5344,752.4375 360.3156,752.75 L360.1438,752.6719 Z "/><text fill="#000000" font-family="sans-serif" font-size="12" lengthAdjust="spacingAndGlyphs" textLength="59" x="377.2" y="761.1543">ErrorView</text><line style="stroke: #A80036; stroke-width: 1.5;" x1="319.5" x2="462.5" y1="773" y2="773"/><rect fill="none" height="6" style="stroke: #C82930; stroke-width: 1.0;" width="6" x="326.5" y="781"/><text fill="#000000" font-family="sans-serif" font-size="11" lengthAdjust="spacingAndGlyphs" textLength="60" x="338.5" y="787.2104">error: Error</text><rect fill="none" height="6" style="stroke: #C82930; stroke-width: 1.0;" width="6" x="326.5" y="793.8047"/><text fill="#000000" font-family="sans-serif" font-size="11" lengthAdjust="spacingAndGlyphs" text-decoration="underline" textLength="112" x="338.5" y="800.0151">MESSAGES: String[]</text><line style="stroke: #A80036; stroke-width: 1.5;" x1="319.5" x2="462.5" y1="806.6094" y2="806.6094"/><polygon fill="#4177AF" points="329.5,813.6094,325.5,819.6094,333.5,819.6094" style="stroke: #1963A0; stroke-width: 1.0;"/><text fill="#000000" font-family="sans-serif" font-size="11" lengthAdjust="spacingAndGlyphs" textLength="88" x="338.5" y="820.8198">ErrorView(Error)</text><ellipse cx="329.5" cy="830.4141" fill="#84BE84" rx="3" ry="3" style="stroke: #038048; stroke-width: 1.0;"/><text fill="#000000" font-family="sans-serif" font-size="11" lengthAdjust="spacingAndGlyphs" text-decoration="underline" textLength="119" x="338.5" y="833.6245">valueOf(String): Error</text><!--MD5=[7f911fdcbedd274c0437bfdd06f35980]
class mastermind.views.Message--><rect codeLine="17" fill="#FEFECE" filter="url(#f1ffj005wkkx7i)" height="227.2656" id="mastermind.views.Message" style="stroke: #A80036; stroke-width: 1.5;" width="231" x="728.5" y="677"/><ellipse cx="812.25" cy="693" fill="#ADD1B2" rx="11" ry="11" style="stroke: #A80036; stroke-width: 1.0;"/><path d="M814.5938,688.6719 C813.6563,688.2344 813.0625,688.0938 812.1875,688.0938 C809.5625,688.0938 807.5625,690.1719 807.5625,692.8906 L807.5625,694.0156 C807.5625,696.5938 809.6719,698.4844 812.5625,698.4844 C813.7813,698.4844 814.9375,698.1875 815.6875,697.6406 C816.2656,697.2344 816.5938,696.7813 816.5938,696.3906 C816.5938,695.9375 816.2031,695.5469 815.7344,695.5469 C815.5156,695.5469 815.3125,695.625 815.125,695.8125 C814.6719,696.2969 814.6719,696.2969 814.4844,696.3906 C814.0625,696.6563 813.375,696.7813 812.6094,696.7813 C810.5625,696.7813 809.2656,695.6875 809.2656,693.9844 L809.2656,692.8906 C809.2656,691.1094 810.5156,689.7969 812.25,689.7969 C812.8281,689.7969 813.4375,689.9531 813.9063,690.2031 C814.3906,690.4844 814.5625,690.7031 814.6563,691.1094 C814.7188,691.5156 814.75,691.6406 814.8906,691.7656 C815.0313,691.9063 815.2656,692.0156 815.4844,692.0156 C815.75,692.0156 816.0156,691.875 816.1875,691.6563 C816.2969,691.5 816.3281,691.3125 816.3281,690.8906 L816.3281,689.4688 C816.3281,689.0313 816.3125,688.9063 816.2188,688.75 C816.0625,688.4844 815.7813,688.3438 815.4844,688.3438 C815.1875,688.3438 814.9844,688.4375 814.7656,688.75 L814.5938,688.6719 Z "/><text fill="#000000" font-family="sans-serif" font-size="12" lengthAdjust="spacingAndGlyphs" textLength="55" x="832.75" y="697.1543">Message</text><line style="stroke: #A80036; stroke-width: 1.5;" x1="729.5" x2="958.5" y1="709" y2="709"/><ellipse cx="739.5" cy="720" fill="none" rx="3" ry="3" style="stroke: #038048; stroke-width: 1.0;"/><text fill="#000000" font-family="sans-serif" font-size="11" lengthAdjust="spacingAndGlyphs" text-decoration="underline" textLength="117" x="748.5" y="723.2104">ATTEMPTS: Message</text><ellipse cx="739.5" cy="732.8047" fill="none" rx="3" ry="3" style="stroke: #038048; stroke-width: 1.0;"/><text fill="#000000" font-family="sans-serif" font-size="11" lengthAdjust="spacingAndGlyphs" text-decoration="underline" textLength="102" x="748.5" y="736.0151">SECRET: Message</text><ellipse cx="739.5" cy="745.6094" fill="none" rx="3" ry="3" style="stroke: #038048; stroke-width: 1.0;"/><text fill="#000000" font-family="sans-serif" font-size="11" lengthAdjust="spacingAndGlyphs" text-decoration="underline" textLength="104" x="748.5" y="748.8198">RESUME: Message</text><ellipse cx="739.5" cy="758.4141" fill="none" rx="3" ry="3" style="stroke: #038048; stroke-width: 1.0;"/><text fill="#000000" font-family="sans-serif" font-size="11" lengthAdjust="spacingAndGlyphs" text-decoration="underline" textLength="101" x="748.5" y="761.6245">RESULT: Message</text><ellipse cx="739.5" cy="771.2188" fill="none" rx="3" ry="3" style="stroke: #038048; stroke-width: 1.0;"/><text fill="#000000" font-family="sans-serif" font-size="11" lengthAdjust="spacingAndGlyphs" text-decoration="underline" textLength="205" x="748.5" y="774.4292">PROPOSED_COMBINATION: Message</text><ellipse cx="739.5" cy="784.0234" fill="none" rx="3" ry="3" style="stroke: #038048; stroke-width: 1.0;"/><text fill="#000000" font-family="sans-serif" font-size="11" lengthAdjust="spacingAndGlyphs" text-decoration="underline" textLength="88" x="748.5" y="787.2339">TITLE: Message</text><ellipse cx="739.5" cy="796.8281" fill="none" rx="3" ry="3" style="stroke: #038048; stroke-width: 1.0;"/><text fill="#000000" font-family="sans-serif" font-size="11" lengthAdjust="spacingAndGlyphs" text-decoration="underline" textLength="102" x="748.5" y="800.0386">WINNER: Message</text><ellipse cx="739.5" cy="809.6328" fill="none" rx="3" ry="3" style="stroke: #038048; stroke-width: 1.0;"/><text fill="#000000" font-family="sans-serif" font-size="11" lengthAdjust="spacingAndGlyphs" text-decoration="underline" textLength="104" x="748.5" y="812.8433">LOOSER: Message</text><rect fill="none" height="6" style="stroke: #C82930; stroke-width: 1.0;" width="6" x="736.5" y="819.4375"/><text fill="#000000" font-family="sans-serif" font-size="11" lengthAdjust="spacingAndGlyphs" textLength="93" x="748.5" y="825.6479">message: String</text><line style="stroke: #A80036; stroke-width: 1.5;" x1="729.5" x2="958.5" y1="832.2422" y2="832.2422"/><rect fill="#F24D5C" height="6" style="stroke: #C82930; stroke-width: 1.0;" width="6" x="736.5" y="840.2422"/><text fill="#000000" font-family="sans-serif" font-size="11" lengthAdjust="spacingAndGlyphs" textLength="92" x="748.5" y="846.4526">Message(String)</text><ellipse cx="739.5" cy="856.0469" fill="#84BE84" rx="3" ry="3" style="stroke: #038048; stroke-width: 1.0;"/><text fill="#000000" font-family="sans-serif" font-size="11" lengthAdjust="spacingAndGlyphs" textLength="67" x="748.5" y="859.2573">write(): void</text><ellipse cx="739.5" cy="868.8516" fill="#84BE84" rx="3" ry="3" style="stroke: #038048; stroke-width: 1.0;"/><text fill="#000000" font-family="sans-serif" font-size="11" lengthAdjust="spacingAndGlyphs" textLength="77" x="748.5" y="872.062">writeln(): void</text><ellipse cx="739.5" cy="881.6563" fill="#84BE84" rx="3" ry="3" style="stroke: #038048; stroke-width: 1.0;"/><text fill="#000000" font-family="sans-serif" font-size="11" lengthAdjust="spacingAndGlyphs" textLength="91" x="748.5" y="884.8667">writeln(int): void</text><ellipse cx="739.5" cy="894.4609" fill="#84BE84" rx="3" ry="3" style="stroke: #038048; stroke-width: 1.0;"/><text fill="#000000" font-family="sans-serif" font-size="11" lengthAdjust="spacingAndGlyphs" textLength="108" x="748.5" y="897.6714">writeln(int,int): void</text><!--MD5=[3712ebd8f50b9bd9aac3d21701a79400]
class mastermind.views.PlayView--><rect codeLine="34" fill="#FEFECE" filter="url(#f1ffj005wkkx7i)" height="99.2188" id="mastermind.views.PlayView" style="stroke: #A80036; stroke-width: 1.5;" width="124" x="665" y="226"/><ellipse cx="698" cy="242" fill="#ADD1B2" rx="11" ry="11" style="stroke: #A80036; stroke-width: 1.0;"/><path d="M700.3438,237.6719 C699.4063,237.2344 698.8125,237.0938 697.9375,237.0938 C695.3125,237.0938 693.3125,239.1719 693.3125,241.8906 L693.3125,243.0156 C693.3125,245.5938 695.4219,247.4844 698.3125,247.4844 C699.5313,247.4844 700.6875,247.1875 701.4375,246.6406 C702.0156,246.2344 702.3438,245.7813 702.3438,245.3906 C702.3438,244.9375 701.9531,244.5469 701.4844,244.5469 C701.2656,244.5469 701.0625,244.625 700.875,244.8125 C700.4219,245.2969 700.4219,245.2969 700.2344,245.3906 C699.8125,245.6563 699.125,245.7813 698.3594,245.7813 C696.3125,245.7813 695.0156,244.6875 695.0156,242.9844 L695.0156,241.8906 C695.0156,240.1094 696.2656,238.7969 698,238.7969 C698.5781,238.7969 699.1875,238.9531 699.6563,239.2031 C700.1406,239.4844 700.3125,239.7031 700.4063,240.1094 C700.4688,240.5156 700.5,240.6406 700.6406,240.7656 C700.7813,240.9063 701.0156,241.0156 701.2344,241.0156 C701.5,241.0156 701.7656,240.875 701.9375,240.6563 C702.0469,240.5 702.0781,240.3125 702.0781,239.8906 L702.0781,238.4688 C702.0781,238.0313 702.0625,237.9063 701.9688,237.75 C701.8125,237.4844 701.5313,237.3438 701.2344,237.3438 C700.9375,237.3438 700.7344,237.4375 700.5156,237.75 L700.3438,237.6719 Z "/><text fill="#000000" font-family="sans-serif" font-size="12" lengthAdjust="spacingAndGlyphs" textLength="52" x="716" y="246.1543">PlayView</text><line style="stroke: #A80036; stroke-width: 1.5;" x1="666" x2="788" y1="258" y2="258"/><rect fill="none" height="6" style="stroke: #C82930; stroke-width: 1.0;" width="6" x="673" y="266"/><text fill="#000000" font-family="sans-serif" font-size="11" lengthAdjust="spacingAndGlyphs" textLength="79" x="685" y="272.2104">game : Game</text><line style="stroke: #A80036; stroke-width: 1.5;" x1="666" x2="788" y1="278.8047" y2="278.8047"/><polygon fill="#4177AF" points="676,285.8047,672,291.8047,680,291.8047" style="stroke: #1963A0; stroke-width: 1.0;"/><text fill="#000000" font-family="sans-serif" font-size="11" lengthAdjust="spacingAndGlyphs" textLength="94" x="685" y="293.0151">PlayView(Game)</text><rect fill="#F24D5C" height="6" style="stroke: #C82930; stroke-width: 1.0;" width="6" x="673" y="299.6094"/><text fill="#000000" font-family="sans-serif" font-size="11" lengthAdjust="spacingAndGlyphs" textLength="98" x="685" y="305.8198">playGame(): void</text><ellipse cx="676" cy="315.4141" fill="#84BE84" rx="3" ry="3" style="stroke: #038048; stroke-width: 1.0;"/><text fill="#000000" font-family="sans-serif" font-size="11" lengthAdjust="spacingAndGlyphs" textLength="82" x="685" y="318.6245">interact(): void</text><!--MD5=[07584d8a51e396561c21e19470e4221b]
class mastermind.views.GameView--><rect codeLine="41" fill="#FEFECE" filter="url(#f1ffj005wkkx7i)" height="86.4141" id="mastermind.views.GameView" style="stroke: #A80036; stroke-width: 1.5;" width="132" x="606" y="385"/><ellipse cx="637.2" cy="401" fill="#ADD1B2" rx="11" ry="11" style="stroke: #A80036; stroke-width: 1.0;"/><path d="M639.5438,396.6719 C638.6063,396.2344 638.0125,396.0938 637.1375,396.0938 C634.5125,396.0938 632.5125,398.1719 632.5125,400.8906 L632.5125,402.0156 C632.5125,404.5938 634.6219,406.4844 637.5125,406.4844 C638.7313,406.4844 639.8875,406.1875 640.6375,405.6406 C641.2156,405.2344 641.5438,404.7813 641.5438,404.3906 C641.5438,403.9375 641.1531,403.5469 640.6844,403.5469 C640.4656,403.5469 640.2625,403.625 640.075,403.8125 C639.6219,404.2969 639.6219,404.2969 639.4344,404.3906 C639.0125,404.6563 638.325,404.7813 637.5594,404.7813 C635.5125,404.7813 634.2156,403.6875 634.2156,401.9844 L634.2156,400.8906 C634.2156,399.1094 635.4656,397.7969 637.2,397.7969 C637.7781,397.7969 638.3875,397.9531 638.8563,398.2031 C639.3406,398.4844 639.5125,398.7031 639.6063,399.1094 C639.6688,399.5156 639.7,399.6406 639.8406,399.7656 C639.9813,399.9063 640.2156,400.0156 640.4344,400.0156 C640.7,400.0156 640.9656,399.875 641.1375,399.6563 C641.2469,399.5 641.2781,399.3125 641.2781,398.8906 L641.2781,397.4688 C641.2781,397.0313 641.2625,396.9063 641.1688,396.75 C641.0125,396.4844 640.7313,396.3438 640.4344,396.3438 C640.1375,396.3438 639.9344,396.4375 639.7156,396.75 L639.5438,396.6719 Z "/><text fill="#000000" font-family="sans-serif" font-size="12" lengthAdjust="spacingAndGlyphs" textLength="64" x="654.8" y="405.1543">GameView</text><line style="stroke: #A80036; stroke-width: 1.5;" x1="607" x2="737" y1="417" y2="417"/><rect fill="none" height="6" style="stroke: #C82930; stroke-width: 1.0;" width="6" x="614" y="425"/><text fill="#000000" font-family="sans-serif" font-size="11" lengthAdjust="spacingAndGlyphs" textLength="79" x="626" y="431.2104">game : Game</text><line style="stroke: #A80036; stroke-width: 1.5;" x1="607" x2="737" y1="437.8047" y2="437.8047"/><polygon fill="#4177AF" points="617,444.8047,613,450.8047,621,450.8047" style="stroke: #1963A0; stroke-width: 1.0;"/><text fill="#000000" font-family="sans-serif" font-size="11" lengthAdjust="spacingAndGlyphs" textLength="106" x="626" y="452.0151">GameView(Game)</text><ellipse cx="617" cy="461.6094" fill="#84BE84" rx="3" ry="3" style="stroke: #038048; stroke-width: 1.0;"/><text fill="#000000" font-family="sans-serif" font-size="11" lengthAdjust="spacingAndGlyphs" textLength="67" x="626" y="464.8198">write(): void</text><!--MD5=[86bd8337fa6b6b0346fe8333f5c8070e]
class mastermind.views.SecretCombinationView--><rect codeLine="79" fill="#FEFECE" filter="url(#f1ffj005wkkx7i)" height="86.4141" id="mastermind.views.SecretCombinationView" style="stroke: #A80036; stroke-width: 1.5;" width="249" x="463.5" y="531"/><ellipse cx="512.25" cy="547" fill="#ADD1B2" rx="11" ry="11" style="stroke: #A80036; stroke-width: 1.0;"/><path d="M514.5938,542.6719 C513.6563,542.2344 513.0625,542.0938 512.1875,542.0938 C509.5625,542.0938 507.5625,544.1719 507.5625,546.8906 L507.5625,548.0156 C507.5625,550.5938 509.6719,552.4844 512.5625,552.4844 C513.7813,552.4844 514.9375,552.1875 515.6875,551.6406 C516.2656,551.2344 516.5938,550.7813 516.5938,550.3906 C516.5938,549.9375 516.2031,549.5469 515.7344,549.5469 C515.5156,549.5469 515.3125,549.625 515.125,549.8125 C514.6719,550.2969 514.6719,550.2969 514.4844,550.3906 C514.0625,550.6563 513.375,550.7813 512.6094,550.7813 C510.5625,550.7813 509.2656,549.6875 509.2656,547.9844 L509.2656,546.8906 C509.2656,545.1094 510.5156,543.7969 512.25,543.7969 C512.8281,543.7969 513.4375,543.9531 513.9063,544.2031 C514.3906,544.4844 514.5625,544.7031 514.6563,545.1094 C514.7188,545.5156 514.75,545.6406 514.8906,545.7656 C515.0313,545.9063 515.2656,546.0156 515.4844,546.0156 C515.75,546.0156 516.0156,545.875 516.1875,545.6563 C516.2969,545.5 516.3281,545.3125 516.3281,544.8906 L516.3281,543.4688 C516.3281,543.0313 516.3125,542.9063 516.2188,542.75 C516.0625,542.4844 515.7813,542.3438 515.4844,542.3438 C515.1875,542.3438 514.9844,542.4375 514.7656,542.75 L514.5938,542.6719 Z "/><text fill="#000000" font-family="sans-serif" font-size="12" lengthAdjust="spacingAndGlyphs" textLength="143" x="532.75" y="551.1543">SecretCombinationView</text><line style="stroke: #A80036; stroke-width: 1.5;" x1="464.5" x2="711.5" y1="563" y2="563"/><rect fill="none" height="6" style="stroke: #C82930; stroke-width: 1.0;" width="6" x="471.5" y="571"/><text fill="#000000" font-family="sans-serif" font-size="11" lengthAdjust="spacingAndGlyphs" textLength="223" x="483.5" y="577.2104">secretCombination: SecretCombination</text><line style="stroke: #A80036; stroke-width: 1.5;" x1="464.5" x2="711.5" y1="583.8047" y2="583.8047"/><polygon fill="#4177AF" points="474.5,590.8047,470.5,596.8047,478.5,596.8047" style="stroke: #1963A0; stroke-width: 1.0;"/><text fill="#000000" font-family="sans-serif" font-size="11" lengthAdjust="spacingAndGlyphs" textLength="145" x="483.5" y="598.0151">SecretCombinationView()</text><ellipse cx="474.5" cy="607.6094" fill="#84BE84" rx="3" ry="3" style="stroke: #038048; stroke-width: 1.0;"/><text fill="#000000" font-family="sans-serif" font-size="11" lengthAdjust="spacingAndGlyphs" textLength="77" x="483.5" y="610.8198">writeln(): void</text><!--MD5=[4ed27cd8fcf5b6ebdc6bc1a8178e2b74]
class mastermind.views.ProposedCombinationView--><rect codeLine="56" fill="#FEFECE" filter="url(#f1ffj005wkkx7i)" height="73.6094" id="mastermind.views.ProposedCombinationView" style="stroke: #A80036; stroke-width: 1.5;" width="216" x="212" y="537"/><ellipse cx="237.35" cy="553" fill="#ADD1B2" rx="11" ry="11" style="stroke: #A80036; stroke-width: 1.0;"/><path d="M239.6938,548.6719 C238.7563,548.2344 238.1625,548.0938 237.2875,548.0938 C234.6625,548.0938 232.6625,550.1719 232.6625,552.8906 L232.6625,554.0156 C232.6625,556.5938 234.7719,558.4844 237.6625,558.4844 C238.8813,558.4844 240.0375,558.1875 240.7875,557.6406 C241.3656,557.2344 241.6938,556.7813 241.6938,556.3906 C241.6938,555.9375 241.3031,555.5469 240.8344,555.5469 C240.6156,555.5469 240.4125,555.625 240.225,555.8125 C239.7719,556.2969 239.7719,556.2969 239.5844,556.3906 C239.1625,556.6563 238.475,556.7813 237.7094,556.7813 C235.6625,556.7813 234.3656,555.6875 234.3656,553.9844 L234.3656,552.8906 C234.3656,551.1094 235.6156,549.7969 237.35,549.7969 C237.9281,549.7969 238.5375,549.9531 239.0063,550.2031 C239.4906,550.4844 239.6625,550.7031 239.7563,551.1094 C239.8188,551.5156 239.85,551.6406 239.9906,551.7656 C240.1313,551.9063 240.3656,552.0156 240.5844,552.0156 C240.85,552.0156 241.1156,551.875 241.2875,551.6563 C241.3969,551.5 241.4281,551.3125 241.4281,550.8906 L241.4281,549.4688 C241.4281,549.0313 241.4125,548.9063 241.3188,548.75 C241.1625,548.4844 240.8813,548.3438 240.5844,548.3438 C240.2875,548.3438 240.0844,548.4375 239.8656,548.75 L239.6938,548.6719 Z "/><text fill="#000000" font-family="sans-serif" font-size="12" lengthAdjust="spacingAndGlyphs" textLength="161" x="253.65" y="557.1543">ProposedCombinationView</text><line style="stroke: #A80036; stroke-width: 1.5;" x1="213" x2="427" y1="569" y2="569"/><line style="stroke: #A80036; stroke-width: 1.5;" x1="213" x2="427" y1="577" y2="577"/><ellipse cx="223" cy="588" fill="#84BE84" rx="3" ry="3" style="stroke: #038048; stroke-width: 1.0;"/><text fill="#000000" font-family="sans-serif" font-size="11" lengthAdjust="spacingAndGlyphs" textLength="190" x="232" y="591.2104">write(ProposedCombination): void</text><ellipse cx="223" cy="600.8047" fill="#84BE84" rx="3" ry="3" style="stroke: #038048; stroke-width: 1.0;"/><text fill="#000000" font-family="sans-serif" font-size="11" lengthAdjust="spacingAndGlyphs" textLength="164" x="232" y="604.0151">read(): ProposedCombination</text><!--MD5=[56aa617717da0844c5255d733a5f8dfa]
class mastermind.views.ResultView--><rect codeLine="66" fill="#FEFECE" filter="url(#f1ffj005wkkx7i)" height="86.4141" id="mastermind.views.ResultView" style="stroke: #A80036; stroke-width: 1.5;" width="132" x="748" y="531"/><ellipse cx="778.75" cy="547" fill="#ADD1B2" rx="11" ry="11" style="stroke: #A80036; stroke-width: 1.0;"/><path d="M781.0938,542.6719 C780.1563,542.2344 779.5625,542.0938 778.6875,542.0938 C776.0625,542.0938 774.0625,544.1719 774.0625,546.8906 L774.0625,548.0156 C774.0625,550.5938 776.1719,552.4844 779.0625,552.4844 C780.2813,552.4844 781.4375,552.1875 782.1875,551.6406 C782.7656,551.2344 783.0938,550.7813 783.0938,550.3906 C783.0938,549.9375 782.7031,549.5469 782.2344,549.5469 C782.0156,549.5469 781.8125,549.625 781.625,549.8125 C781.1719,550.2969 781.1719,550.2969 780.9844,550.3906 C780.5625,550.6563 779.875,550.7813 779.1094,550.7813 C777.0625,550.7813 775.7656,549.6875 775.7656,547.9844 L775.7656,546.8906 C775.7656,545.1094 777.0156,543.7969 778.75,543.7969 C779.3281,543.7969 779.9375,543.9531 780.4063,544.2031 C780.8906,544.4844 781.0625,544.7031 781.1563,545.1094 C781.2188,545.5156 781.25,545.6406 781.3906,545.7656 C781.5313,545.9063 781.7656,546.0156 781.9844,546.0156 C782.25,546.0156 782.5156,545.875 782.6875,545.6563 C782.7969,545.5 782.8281,545.3125 782.8281,544.8906 L782.8281,543.4688 C782.8281,543.0313 782.8125,542.9063 782.7188,542.75 C782.5625,542.4844 782.2813,542.3438 781.9844,542.3438 C781.6875,542.3438 781.4844,542.4375 781.2656,542.75 L781.0938,542.6719 Z "/><text fill="#000000" font-family="sans-serif" font-size="12" lengthAdjust="spacingAndGlyphs" textLength="65" x="796.25" y="551.1543">ResultView</text><line style="stroke: #A80036; stroke-width: 1.5;" x1="749" x2="879" y1="563" y2="563"/><rect fill="none" height="6" style="stroke: #C82930; stroke-width: 1.0;" width="6" x="756" y="571"/><text fill="#000000" font-family="sans-serif" font-size="11" lengthAdjust="spacingAndGlyphs" textLength="74" x="768" y="577.2104">result: Result</text><line style="stroke: #A80036; stroke-width: 1.5;" x1="749" x2="879" y1="583.8047" y2="583.8047"/><polygon fill="#4177AF" points="759,590.8047,755,596.8047,763,596.8047" style="stroke: #1963A0; stroke-width: 1.0;"/><text fill="#000000" font-family="sans-serif" font-size="11" lengthAdjust="spacingAndGlyphs" textLength="106" x="768" y="598.0151">ResultView(Result)</text><ellipse cx="759" cy="607.6094" fill="#84BE84" rx="3" ry="3" style="stroke: #038048; stroke-width: 1.0;"/><text fill="#000000" font-family="sans-serif" font-size="11" lengthAdjust="spacingAndGlyphs" textLength="77" x="768" y="610.8198">writeln(): void</text><!--MD5=[ec4aad91981170f30f8e0579b5e2d84f]
class mastermind.views.ResumeView--><rect codeLine="74" fill="#FEFECE" filter="url(#f1ffj005wkkx7i)" height="60.8047" id="mastermind.views.ResumeView" style="stroke: #A80036; stroke-width: 1.5;" width="130" x="861" y="245"/><ellipse cx="885.45" cy="261" fill="#ADD1B2" rx="11" ry="11" style="stroke: #A80036; stroke-width: 1.0;"/><path d="M887.7938,256.6719 C886.8563,256.2344 886.2625,256.0938 885.3875,256.0938 C882.7625,256.0938 880.7625,258.1719 880.7625,260.8906 L880.7625,262.0156 C880.7625,264.5938 882.8719,266.4844 885.7625,266.4844 C886.9813,266.4844 888.1375,266.1875 888.8875,265.6406 C889.4656,265.2344 889.7938,264.7813 889.7938,264.3906 C889.7938,263.9375 889.4031,263.5469 888.9344,263.5469 C888.7156,263.5469 888.5125,263.625 888.325,263.8125 C887.8719,264.2969 887.8719,264.2969 887.6844,264.3906 C887.2625,264.6563 886.575,264.7813 885.8094,264.7813 C883.7625,264.7813 882.4656,263.6875 882.4656,261.9844 L882.4656,260.8906 C882.4656,259.1094 883.7156,257.7969 885.45,257.7969 C886.0281,257.7969 886.6375,257.9531 887.1063,258.2031 C887.5906,258.4844 887.7625,258.7031 887.8563,259.1094 C887.9188,259.5156 887.95,259.6406 888.0906,259.7656 C888.2313,259.9063 888.4656,260.0156 888.6844,260.0156 C888.95,260.0156 889.2156,259.875 889.3875,259.6563 C889.4969,259.5 889.5281,259.3125 889.5281,258.8906 L889.5281,257.4688 C889.5281,257.0313 889.5125,256.9063 889.4188,256.75 C889.2625,256.4844 888.9813,256.3438 888.6844,256.3438 C888.3875,256.3438 888.1844,256.4375 887.9656,256.75 L887.7938,256.6719 Z "/><text fill="#000000" font-family="sans-serif" font-size="12" lengthAdjust="spacingAndGlyphs" textLength="77" x="901.55" y="265.1543">ResumeView</text><line style="stroke: #A80036; stroke-width: 1.5;" x1="862" x2="990" y1="277" y2="277"/><line style="stroke: #A80036; stroke-width: 1.5;" x1="862" x2="990" y1="285" y2="285"/><ellipse cx="872" cy="296" fill="#84BE84" rx="3" ry="3" style="stroke: #038048; stroke-width: 1.0;"/><text fill="#000000" font-family="sans-serif" font-size="11" lengthAdjust="spacingAndGlyphs" textLength="104" x="881" y="299.2104">interact(): boolean</text><!--MD5=[159b299c59daed45f31e591a5c9e649b]
class mastermind.views.StartView--><rect codeLine="87" fill="#FEFECE" filter="url(#f1ffj005wkkx7i)" height="86.4141" id="mastermind.views.StartView" style="stroke: #A80036; stroke-width: 1.5;" width="143" x="810.5" y="385"/><ellipse cx="849.8" cy="401" fill="#ADD1B2" rx="11" ry="11" style="stroke: #A80036; stroke-width: 1.0;"/><path d="M852.1438,396.6719 C851.2063,396.2344 850.6125,396.0938 849.7375,396.0938 C847.1125,396.0938 845.1125,398.1719 845.1125,400.8906 L845.1125,402.0156 C845.1125,404.5938 847.2219,406.4844 850.1125,406.4844 C851.3313,406.4844 852.4875,406.1875 853.2375,405.6406 C853.8156,405.2344 854.1438,404.7813 854.1438,404.3906 C854.1438,403.9375 853.7531,403.5469 853.2844,403.5469 C853.0656,403.5469 852.8625,403.625 852.675,403.8125 C852.2219,404.2969 852.2219,404.2969 852.0344,404.3906 C851.6125,404.6563 850.925,404.7813 850.1594,404.7813 C848.1125,404.7813 846.8156,403.6875 846.8156,401.9844 L846.8156,400.8906 C846.8156,399.1094 848.0656,397.7969 849.8,397.7969 C850.3781,397.7969 850.9875,397.9531 851.4563,398.2031 C851.9406,398.4844 852.1125,398.7031 852.2063,399.1094 C852.2688,399.5156 852.3,399.6406 852.4406,399.7656 C852.5813,399.9063 852.8156,400.0156 853.0344,400.0156 C853.3,400.0156 853.5656,399.875 853.7375,399.6563 C853.8469,399.5 853.8781,399.3125 853.8781,398.8906 L853.8781,397.4688 C853.8781,397.0313 853.8625,396.9063 853.7688,396.75 C853.6125,396.4844 853.3313,396.3438 853.0344,396.3438 C852.7375,396.3438 852.5344,396.4375 852.3156,396.75 L852.1438,396.6719 Z "/><text fill="#000000" font-family="sans-serif" font-size="12" lengthAdjust="spacingAndGlyphs" textLength="57" x="869.2" y="405.1543">StartView</text><line style="stroke: #A80036; stroke-width: 1.5;" x1="811.5" x2="952.5" y1="417" y2="417"/><rect fill="none" height="6" style="stroke: #C82930; stroke-width: 1.0;" width="6" x="818.5" y="425"/><text fill="#000000" font-family="sans-serif" font-size="11" lengthAdjust="spacingAndGlyphs" textLength="75" x="830.5" y="431.2104">game: Game</text><line style="stroke: #A80036; stroke-width: 1.5;" x1="811.5" x2="952.5" y1="437.8047" y2="437.8047"/><polygon fill="#4177AF" points="821.5,444.8047,817.5,450.8047,825.5,450.8047" style="stroke: #1963A0; stroke-width: 1.0;"/><text fill="#000000" font-family="sans-serif" font-size="11" lengthAdjust="spacingAndGlyphs" textLength="98" x="830.5" y="452.0151">StartView(Game)</text><ellipse cx="821.5" cy="461.6094" fill="#84BE84" rx="3" ry="3" style="stroke: #038048; stroke-width: 1.0;"/><text fill="#000000" font-family="sans-serif" font-size="11" lengthAdjust="spacingAndGlyphs" textLength="117" x="830.5" y="464.8198">interact(Game): void</text><!--MD5=[904c44326bfc30ddc4fe4077c1b9164d]
class mastermind.views.View--><rect codeLine="96" fill="#FEFECE" filter="url(#f1ffj005wkkx7i)" height="124.8281" id="mastermind.views.View" style="stroke: #A80036; stroke-width: 1.5;" width="184" x="770" y="41"/><ellipse cx="843.25" cy="57" fill="#ADD1B2" rx="11" ry="11" style="stroke: #A80036; stroke-width: 1.0;"/><path d="M845.5938,52.6719 C844.6563,52.2344 844.0625,52.0938 843.1875,52.0938 C840.5625,52.0938 838.5625,54.1719 838.5625,56.8906 L838.5625,58.0156 C838.5625,60.5938 840.6719,62.4844 843.5625,62.4844 C844.7813,62.4844 845.9375,62.1875 846.6875,61.6406 C847.2656,61.2344 847.5938,60.7813 847.5938,60.3906 C847.5938,59.9375 847.2031,59.5469 846.7344,59.5469 C846.5156,59.5469 846.3125,59.625 846.125,59.8125 C845.6719,60.2969 845.6719,60.2969 845.4844,60.3906 C845.0625,60.6563 844.375,60.7813 843.6094,60.7813 C841.5625,60.7813 840.2656,59.6875 840.2656,57.9844 L840.2656,56.8906 C840.2656,55.1094 841.5156,53.7969 843.25,53.7969 C843.8281,53.7969 844.4375,53.9531 844.9063,54.2031 C845.3906,54.4844 845.5625,54.7031 845.6563,55.1094 C845.7188,55.5156 845.75,55.6406 845.8906,55.7656 C846.0313,55.9063 846.2656,56.0156 846.4844,56.0156 C846.75,56.0156 847.0156,55.875 847.1875,55.6563 C847.2969,55.5 847.3281,55.3125 847.3281,54.8906 L847.3281,53.4688 C847.3281,53.0313 847.3125,52.9063 847.2188,52.75 C847.0625,52.4844 846.7813,52.3438 846.4844,52.3438 C846.1875,52.3438 845.9844,52.4375 845.7656,52.75 L845.5938,52.6719 Z "/><text fill="#000000" font-family="sans-serif" font-size="12" lengthAdjust="spacingAndGlyphs" textLength="29" x="863.75" y="61.1543">View</text><line style="stroke: #A80036; stroke-width: 1.5;" x1="771" x2="953" y1="73" y2="73"/><rect fill="none" height="6" style="stroke: #C82930; stroke-width: 1.0;" width="6" x="778" y="81"/><text fill="#000000" font-family="sans-serif" font-size="11" lengthAdjust="spacingAndGlyphs" textLength="75" x="790" y="87.2104">game: Game</text><rect fill="none" height="6" style="stroke: #C82930; stroke-width: 1.0;" width="6" x="778" y="93.8047"/><text fill="#000000" font-family="sans-serif" font-size="11" lengthAdjust="spacingAndGlyphs" textLength="115" x="790" y="100.0151">startView: StartView</text><rect fill="none" height="6" style="stroke: #C82930; stroke-width: 1.0;" width="6" x="778" y="106.6094"/><text fill="#000000" font-family="sans-serif" font-size="11" lengthAdjust="spacingAndGlyphs" textLength="158" x="790" y="112.8198">proposalView: ProposalView</text><rect fill="none" height="6" style="stroke: #C82930; stroke-width: 1.0;" width="6" x="778" y="119.4141"/><text fill="#000000" font-family="sans-serif" font-size="11" lengthAdjust="spacingAndGlyphs" textLength="154" x="790" y="125.6245">resumeView: ResumeView</text><line style="stroke: #A80036; stroke-width: 1.5;" x1="771" x2="953" y1="132.2188" y2="132.2188"/><ellipse cx="781" cy="143.2188" fill="#84BE84" rx="3" ry="3" style="stroke: #038048; stroke-width: 1.0;"/><text fill="#000000" font-family="sans-serif" font-size="11" lengthAdjust="spacingAndGlyphs" textLength="71" x="790" y="146.4292">View(Game)</text><ellipse cx="781" cy="156.0234" fill="#84BE84" rx="3" ry="3" style="stroke: #038048; stroke-width: 1.0;"/><text fill="#000000" font-family="sans-serif" font-size="11" lengthAdjust="spacingAndGlyphs" textLength="82" x="790" y="159.2339">interact(): void</text><!--MD5=[ff88fef78a03b99ee0a0b34d5c9e19a9]
class mastermind.utils.Console--><rect fill="#FEFECE" filter="url(#f1ffj005wkkx7i)" height="48" id="mastermind.utils.Console" style="stroke: #A80036; stroke-width: 1.5;" width="81" x="74.5" y="766.5"/><ellipse cx="89.5" cy="782.5" fill="#ADD1B2" rx="11" ry="11" style="stroke: #A80036; stroke-width: 1.0;"/><path d="M91.8438,778.1719 C90.9063,777.7344 90.3125,777.5938 89.4375,777.5938 C86.8125,777.5938 84.8125,779.6719 84.8125,782.3906 L84.8125,783.5156 C84.8125,786.0938 86.9219,787.9844 89.8125,787.9844 C91.0313,787.9844 92.1875,787.6875 92.9375,787.1406 C93.5156,786.7344 93.8438,786.2813 93.8438,785.8906 C93.8438,785.4375 93.4531,785.0469 92.9844,785.0469 C92.7656,785.0469 92.5625,785.125 92.375,785.3125 C91.9219,785.7969 91.9219,785.7969 91.7344,785.8906 C91.3125,786.1563 90.625,786.2813 89.8594,786.2813 C87.8125,786.2813 86.5156,785.1875 86.5156,783.4844 L86.5156,782.3906 C86.5156,780.6094 87.7656,779.2969 89.5,779.2969 C90.0781,779.2969 90.6875,779.4531 91.1563,779.7031 C91.6406,779.9844 91.8125,780.2031 91.9063,780.6094 C91.9688,781.0156 92,781.1406 92.1406,781.2656 C92.2813,781.4063 92.5156,781.5156 92.7344,781.5156 C93,781.5156 93.2656,781.375 93.4375,781.1563 C93.5469,781 93.5781,780.8125 93.5781,780.3906 L93.5781,778.9688 C93.5781,778.5313 93.5625,778.4063 93.4688,778.25 C93.3125,777.9844 93.0313,777.8438 92.7344,777.8438 C92.4375,777.8438 92.2344,777.9375 92.0156,778.25 L91.8438,778.1719 Z "/><text fill="#000000" font-family="sans-serif" font-size="12" lengthAdjust="spacingAndGlyphs" textLength="49" x="103.5" y="786.6543">Console</text><line style="stroke: #A80036; stroke-width: 1.5;" x1="75.5" x2="154.5" y1="798.5" y2="798.5"/><line style="stroke: #A80036; stroke-width: 1.5;" x1="75.5" x2="154.5" y1="806.5" y2="806.5"/><!--MD5=[5e669b60aaac1a014a32b452096260f0]
class mastermind.models.Game--><rect fill="#FEFECE" filter="url(#f1ffj005wkkx7i)" height="48" id="mastermind.models.Game" style="stroke: #A80036; stroke-width: 1.5;" width="67" x="1047.5" y="550"/><ellipse cx="1062.5" cy="566" fill="#ADD1B2" rx="11" ry="11" style="stroke: #A80036; stroke-width: 1.0;"/><path d="M1064.8438,561.6719 C1063.9063,561.2344 1063.3125,561.0938 1062.4375,561.0938 C1059.8125,561.0938 1057.8125,563.1719 1057.8125,565.8906 L1057.8125,567.0156 C1057.8125,569.5938 1059.9219,571.4844 1062.8125,571.4844 C1064.0313,571.4844 1065.1875,571.1875 1065.9375,570.6406 C1066.5156,570.2344 1066.8438,569.7813 1066.8438,569.3906 C1066.8438,568.9375 1066.4531,568.5469 1065.9844,568.5469 C1065.7656,568.5469 1065.5625,568.625 1065.375,568.8125 C1064.9219,569.2969 1064.9219,569.2969 1064.7344,569.3906 C1064.3125,569.6563 1063.625,569.7813 1062.8594,569.7813 C1060.8125,569.7813 1059.5156,568.6875 1059.5156,566.9844 L1059.5156,565.8906 C1059.5156,564.1094 1060.7656,562.7969 1062.5,562.7969 C1063.0781,562.7969 1063.6875,562.9531 1064.1563,563.2031 C1064.6406,563.4844 1064.8125,563.7031 1064.9063,564.1094 C1064.9688,564.5156 1065,564.6406 1065.1406,564.7656 C1065.2813,564.9063 1065.5156,565.0156 1065.7344,565.0156 C1066,565.0156 1066.2656,564.875 1066.4375,564.6563 C1066.5469,564.5 1066.5781,564.3125 1066.5781,563.8906 L1066.5781,562.4688 C1066.5781,562.0313 1066.5625,561.9063 1066.4688,561.75 C1066.3125,561.4844 1066.0313,561.3438 1065.7344,561.3438 C1065.4375,561.3438 1065.2344,561.4375 1065.0156,561.75 L1064.8438,561.6719 Z "/><text fill="#000000" font-family="sans-serif" font-size="12" lengthAdjust="spacingAndGlyphs" textLength="35" x="1076.5" y="570.1543">Game</text><line style="stroke: #A80036; stroke-width: 1.5;" x1="1048.5" x2="1113.5" y1="582" y2="582"/><line style="stroke: #A80036; stroke-width: 1.5;" x1="1048.5" x2="1113.5" y1="590" y2="590"/><!--MD5=[dc8d05942454a1924107a8bb6b15b8e3]
link mastermind.views.ErrorView to mastermind.views.ColorView--><path codeLine="15" d="M374.007,840.273 C361.757,875.43 345.231,922.862 332.624,959.048 " fill="none" id="mastermind.views.ErrorView-to-mastermind.views.ColorView" style="stroke: #A80036; stroke-width: 1.0; stroke-dasharray: 7.0,7.0;"/><polygon fill="#A80036" points="330.95,963.852,337.6887,956.6694,332.5953,959.1304,330.1342,954.037,330.95,963.852" style="stroke: #A80036; stroke-width: 1.0;"/><!--MD5=[a41988804b71df7f11eb232de1d8c439]
reverse link mastermind.utils.Console to mastermind.views.PlayView--><path codeLine="47" d="M106.047,761.303 C90.5522,706.627 65.3378,584.747 120,507 C247.398,325.8 536.85,286.965 664.518,278.702 " fill="none" id="mastermind.utils.Console-backto-mastermind.views.PlayView" style="stroke: #A80036; stroke-width: 1.0; stroke-dasharray: 7.0,7.0;"/><polygon fill="#A80036" points="107.513,766.381,108.8587,756.6245,106.1256,761.5773,101.1728,758.8443,107.513,766.381" style="stroke: #A80036; stroke-width: 1.0;"/><!--MD5=[21eabf51dcbc5748dda7c39a6a7a708f]
link mastermind.views.PlayView to mastermind.models.Game--><path codeLine="48" d="M789.24,303.048 C859.086,333.009 963.68,378.45 971,385 C1021.78,430.432 1055.57,505.039 1071.13,545.248 " fill="none" id="mastermind.views.PlayView-to-mastermind.models.Game" style="stroke: #A80036; stroke-width: 1.0; stroke-dasharray: 7.0,7.0;"/><polygon fill="#A80036" points="1072.94,549.977,1073.4627,540.142,1071.1547,545.3066,1065.9901,542.9985,1072.94,549.977" style="stroke: #A80036; stroke-width: 1.0;"/><!--MD5=[bf48729883d8f10128e4584c0d66becf]
link mastermind.views.PlayView to mastermind.views.Message--><path codeLine="49" d="M741.144,325.406 C757.157,379.464 782.395,460.362 793,471 C827.829,505.939 869.326,466.856 898,507 C927.708,548.591 905.938,571.509 898,622 C895.441,638.275 891.565,655.126 887.039,671.587 " fill="none" id="mastermind.views.PlayView-to-mastermind.views.Message" style="stroke: #A80036; stroke-width: 1.0; stroke-dasharray: 7.0,7.0;"/><polygon fill="#A80036" points="885.614,676.682,891.8913,669.0928,886.9614,671.867,884.1872,666.937,885.614,676.682" style="stroke: #A80036; stroke-width: 1.0;"/><!--MD5=[158cba7cc40dee9ecba5262de98417ad]
link mastermind.views.GameView to mastermind.views.SecretCombinationView--><path codeLine="50" d="M641.4311,481.4031 C641.4311,481.4031 626.348,507.261 619.297,519.347 " fill="none" id="mastermind.views.GameView-mastermind.views.SecretCombinationView" style="stroke: #A80036; stroke-width: 1.0;"/><polygon fill="#A80036" points="612.698,530.661,620.6876,524.902,615.2171,526.342,613.7772,520.8714,612.698,530.661" style="stroke: #A80036; stroke-width: 1.0;"/><line style="stroke: #A80036; stroke-width: 1.0;" x1="615.2171" x2="619.2485" y1="526.342" y2="519.4315"/><polygon fill="#A80036" points="647.478,471.038,640.9995,474.2049,641.4311,481.4031,647.9096,478.2362,647.478,471.038" style="stroke: #A80036; stroke-width: 1.0;"/><!--MD5=[ed3018aa9d42cb17525c31f6f4d02ef6]
link mastermind.views.GameView to mastermind.views.ProposedCombinationView--><path codeLine="51" d="M594.3059,452.626 C594.3059,452.626 493.866,486.342 446,507 C429.58,514.086 412.366,522.446 396.122,530.79 " fill="none" id="mastermind.views.GameView-mastermind.views.ProposedCombinationView" style="stroke: #A80036; stroke-width: 1.0;"/><polygon fill="#A80036" points="384.491,536.845,394.3211,536.2373,388.9261,534.5363,390.6271,529.1412,384.491,536.845" style="stroke: #A80036; stroke-width: 1.0;"/><line style="stroke: #A80036; stroke-width: 1.0;" x1="388.9261" x2="396.022" y1="534.5363" y2="530.842"/><polygon fill="#A80036" points="605.736,448.972,598.8029,446.989,594.3059,452.626,601.2389,454.6091,605.736,448.972" style="stroke: #A80036; stroke-width: 1.0;"/><!--MD5=[884ae264a6da66074a77621a1ee21070]
link mastermind.views.GameView to mastermind.views.ResultView--><path codeLine="52" d="M721.8791,479.5831 C721.8791,479.5831 749.88,507.977 762.94,521.221 " fill="none" id="mastermind.views.GameView-mastermind.views.ResultView" style="stroke: #A80036; stroke-width: 1.0;"/><polygon fill="#A80036" points="772.249,530.661,768.7771,521.4444,768.738,527.1011,763.0813,527.062,772.249,530.661" style="stroke: #A80036; stroke-width: 1.0;"/><line style="stroke: #A80036; stroke-width: 1.0;" x1="768.738" x2="763.1205" y1="527.1011" y2="521.404"/><polygon fill="#A80036" points="713.454,471.038,714.8182,478.1189,721.8791,479.5831,720.5149,472.5022,713.454,471.038" style="stroke: #A80036; stroke-width: 1.0;"/><!--MD5=[547e4b5206f75b9f8ebad2f68a2aa560]
link mastermind.views.GameView to mastermind.models.Game--><path codeLine="53" d="M738.276,454.243 C755.885,460.332 775.012,466.4 793,471 C886.44,494.897 920.049,465.267 1007,507 C1026.29,516.26 1044.3,532.09 1057.72,545.925 " fill="none" id="mastermind.views.GameView-to-mastermind.models.Game" style="stroke: #A80036; stroke-width: 1.0; stroke-dasharray: 7.0,7.0;"/><polygon fill="#A80036" points="1061.38,549.768,1058.0793,540.4887,1057.9355,546.1437,1052.2805,545.9999,1061.38,549.768" style="stroke: #A80036; stroke-width: 1.0;"/><!--MD5=[e0a0b7858f9d771f786a0f403998e6c3]
link mastermind.views.ProposedCombinationView to mastermind.utils.Console--><path codeLine="60" d="M270.363,611.047 C246.602,629.459 218.499,653.005 196,677 C171.049,703.61 147.25,738.145 131.985,761.894 " fill="none" id="mastermind.views.ProposedCombinationView-to-mastermind.utils.Console" style="stroke: #A80036; stroke-width: 1.0; stroke-dasharray: 7.0,7.0;"/><polygon fill="#A80036" points="129.235,766.199,137.4503,760.7669,131.9262,761.9851,130.708,756.4609,129.235,766.199" style="stroke: #A80036; stroke-width: 1.0;"/><!--MD5=[194d742bf6b1c9388e55040c6cf26da6]
link mastermind.views.ProposedCombinationView to mastermind.views.Message--><path codeLine="61" d="M408.001,611.023 C494.432,646.404 626.971,700.659 723.232,740.064 " fill="none" id="mastermind.views.ProposedCombinationView-to-mastermind.views.Message" style="stroke: #A80036; stroke-width: 1.0; stroke-dasharray: 7.0,7.0;"/><polygon fill="#A80036" points="728.076,742.046,721.2624,734.9344,723.4487,740.1517,718.2315,742.338,728.076,742.046" style="stroke: #A80036; stroke-width: 1.0;"/><!--MD5=[3a12498e22f98d970310e61ba9a2b5b2]
link mastermind.views.ProposedCombinationView to mastermind.views.ColorView--><path codeLine="62" d="M311.593,611.122 C307.503,630.529 303.037,654.938 301,677 C291.723,777.461 294.988,803.29 301,904 C302.06,921.763 304.089,941.075 306.234,958.416 " fill="none" id="mastermind.views.ProposedCombinationView-to-mastermind.views.ColorView" style="stroke: #A80036; stroke-width: 1.0; stroke-dasharray: 7.0,7.0;"/><polygon fill="#A80036" points="306.902,963.731,309.7468,954.3019,306.2776,958.7701,301.8094,955.301,306.902,963.731" style="stroke: #A80036; stroke-width: 1.0;"/><!--MD5=[5ca55cb6731a042285dc1139be3a83ed]
link mastermind.views.ProposedCombinationView to mastermind.views.ErrorView--><path codeLine="63" d="M332.044,611.387 C343.328,645.476 360.333,696.852 373.185,735.68 " fill="none" id="mastermind.views.ProposedCombinationView-to-mastermind.views.ErrorView" style="stroke: #A80036; stroke-width: 1.0; stroke-dasharray: 7.0,7.0;"/><polygon fill="#A80036" points="374.89,740.831,375.8591,731.0299,373.3187,736.0843,368.2643,733.544,374.89,740.831" style="stroke: #A80036; stroke-width: 1.0;"/><!--MD5=[e9337ab22aa6f04a489859f84a6502b5]
link mastermind.views.ResultView to mastermind.utils.Console--><path codeLine="71" d="M747.699,615.244 C741.841,617.828 735.895,620.135 730,622 C502.522,693.961 402.492,557.477 196,677 C162.861,696.182 139.627,734.973 126.787,761.591 " fill="none" id="mastermind.views.ResultView-to-mastermind.utils.Console" style="stroke: #A80036; stroke-width: 1.0; stroke-dasharray: 7.0,7.0;"/><polygon fill="#A80036" points="124.51,766.412,131.9715,759.9835,126.6461,761.8912,124.7383,756.5658,124.51,766.412" style="stroke: #A80036; stroke-width: 1.0;"/><!--MD5=[6206c8ae54f587be5792b87b8248b399]
link mastermind.views.ResultView to mastermind.views.Message--><path codeLine="72" d="M819.891,617.122 C822.125,633.094 824.793,652.167 827.526,671.711 " fill="none" id="mastermind.views.ResultView-to-mastermind.views.Message" style="stroke: #A80036; stroke-width: 1.0; stroke-dasharray: 7.0,7.0;"/><polygon fill="#A80036" points="828.222,676.689,830.9366,667.2216,827.5293,671.7372,823.0137,668.33,828.222,676.689" style="stroke: #A80036; stroke-width: 1.0;"/><!--MD5=[258eb313de30cdc6cb0fd3033b344d72]
link mastermind.views.ResumeView to mastermind.views.Message--><path codeLine="77" d="M942.138,306.354 C952.673,327.602 965.464,357.2 971,385 C978.465,422.486 975.104,432.999 971,471 C963.624,539.298 962.41,557.788 938,622 C931.664,638.667 923.874,655.68 915.513,672.166 " fill="none" id="mastermind.views.ResumeView-to-mastermind.views.Message" style="stroke: #A80036; stroke-width: 1.0; stroke-dasharray: 7.0,7.0;"/><polygon fill="#A80036" points="913.14,676.801,920.8023,670.6132,915.4188,672.3505,913.6815,666.967,913.14,676.801" style="stroke: #A80036; stroke-width: 1.0;"/><!--MD5=[2d7e15faf830856b886663a4a768f36b]
link mastermind.views.SecretCombinationView to mastermind.utils.Console--><path codeLine="84" d="M463.439,616.754 C457.22,618.582 451.049,620.342 445,622 C335.696,651.953 290.67,614.693 196,677 C164.394,697.801 141.059,735.482 127.756,761.466 " fill="none" id="mastermind.views.SecretCombinationView-to-mastermind.utils.Console" style="stroke: #A80036; stroke-width: 1.0; stroke-dasharray: 7.0,7.0;"/><polygon fill="#A80036" points="125.39,766.174,133.0062,759.9295,127.6358,761.7067,125.8586,756.3363,125.39,766.174" style="stroke: #A80036; stroke-width: 1.0;"/><!--MD5=[c3323f9be74955ff1c613605a7686352]
link mastermind.views.SecretCombinationView to mastermind.views.Message--><path codeLine="85" d="M638.272,617.122 C663.008,637.848 693.976,663.796 724.319,689.22 " fill="none" id="mastermind.views.SecretCombinationView-to-mastermind.views.Message" style="stroke: #A80036; stroke-width: 1.0; stroke-dasharray: 7.0,7.0;"/><polygon fill="#A80036" points="728.401,692.641,724.0714,683.7949,724.5685,689.4298,718.9335,689.9269,728.401,692.641" style="stroke: #A80036; stroke-width: 1.0;"/><!--MD5=[adadf83a101ea9f5a427c4090e992caa]
link mastermind.views.StartView to mastermind.utils.Console--><path codeLine="92" d="M810.231,456.462 C792.721,462.172 773.878,467.509 756,471 C694.588,482.993 242.614,467.604 194,507 C116.226,570.027 111.312,702.821 113.221,761.082 " fill="none" id="mastermind.views.StartView-to-mastermind.utils.Console" style="stroke: #A80036; stroke-width: 1.0; stroke-dasharray: 7.0,7.0;"/><polygon fill="#A80036" points="113.411,766.15,117.0714,757.0066,113.2239,761.1535,109.077,757.306,113.411,766.15" style="stroke: #A80036; stroke-width: 1.0;"/><!--MD5=[31a35352d47dc012c92e1ba089f6646d]
link mastermind.views.StartView to mastermind.models.Game--><path codeLine="93" d="M953.805,470.891 C971.587,482.051 990.317,494.498 1007,507 C1023.12,519.078 1039.96,533.902 1053.5,546.439 " fill="none" id="mastermind.views.StartView-to-mastermind.models.Game" style="stroke: #A80036; stroke-width: 1.0; stroke-dasharray: 7.0,7.0;"/><polygon fill="#A80036" points="1057.22,549.91,1053.3693,540.8451,1053.5645,546.4986,1047.9111,546.6939,1057.22,549.91" style="stroke: #A80036; stroke-width: 1.0;"/><!--MD5=[01597fdab68a33d8d757a04053f7674e]
link mastermind.views.StartView to mastermind.views.Message--><path codeLine="94" d="M910.211,471.1 C916.292,482.305 921.839,494.72 925,507 C937.74,556.498 936.414,572.18 925,622 C921.208,638.55 915.559,655.365 908.975,671.638 " fill="none" id="mastermind.views.StartView-to-mastermind.views.Message" style="stroke: #A80036; stroke-width: 1.0; stroke-dasharray: 7.0,7.0;"/><polygon fill="#A80036" points="906.902,676.671,914.0277,669.8721,908.8059,672.0477,906.6303,666.8259,906.902,676.671" style="stroke: #A80036; stroke-width: 1.0;"/><!--MD5=[4e676df5b8491719dcd03de98ee0a76e]
link mastermind.views.View to mastermind.views.PlayView--><path codeLine="104" d="M805.418,175.7528 C805.418,175.7528 783.859,202.9 773.904,215.436 " fill="none" id="mastermind.views.View-mastermind.views.PlayView" style="stroke: #A80036; stroke-width: 1.0;"/><polygon fill="#A80036" points="765.718,225.744,774.4471,221.183,768.8272,221.8283,768.1819,216.2083,765.718,225.744" style="stroke: #A80036; stroke-width: 1.0;"/><line style="stroke: #A80036; stroke-width: 1.0;" x1="768.8272" x2="773.8025" y1="221.8283" y2="215.5635"/><polygon fill="#A80036" points="812.88,166.355,806.0164,168.5665,805.418,175.7528,812.2816,173.5412,812.88,166.355" style="stroke: #A80036; stroke-width: 1.0;"/><!--MD5=[bf97da5fe657ae69f287f34e8a237ad2]
link mastermind.views.View to mastermind.views.StartView--><path codeLine="105" d="M846.5304,178.0624 C846.5304,178.0624 835.326,276.87 844,325 C846.854,340.837 852.014,357.424 857.63,372.51 " fill="none" id="mastermind.views.View-mastermind.views.StartView" style="stroke: #A80036; stroke-width: 1.0;"/><polygon fill="#A80036" points="862.414,384.78,862.8709,374.9417,860.5975,380.1216,855.4176,377.8482,862.414,384.78" style="stroke: #A80036; stroke-width: 1.0;"/><line style="stroke: #A80036; stroke-width: 1.0;" x1="860.5975" x2="857.692" y1="380.1216" y2="372.668"/><polygon fill="#A80036" points="848.469,166.22,843.5523,171.495,846.5304,178.0624,851.4472,172.7874,848.469,166.22" style="stroke: #A80036; stroke-width: 1.0;"/><!--MD5=[365b629ac9f832fcadd636e21d2b2dd5]
link mastermind.views.View to mastermind.models.Game--><path codeLine="106" d="M954.376,164.681 C975.114,182.177 995.072,202.888 1009,226 C1072.17,330.82 1080.64,482.239 1081.28,544.563 " fill="none" id="mastermind.views.View-to-mastermind.models.Game" style="stroke: #A80036; stroke-width: 1.0; stroke-dasharray: 7.0,7.0;"/><polygon fill="#A80036" points="1081.32,549.605,1085.2556,540.5767,1081.2843,544.6051,1077.2558,540.6338,1081.32,549.605" style="stroke: #A80036; stroke-width: 1.0;"/><!--MD5=[d9d92d6dc97b208b24aa04d98e384545]
link mastermind.views.View to mastermind.views.ResumeView--><path codeLine="107" d="M889.5149,177.5855 C889.5149,177.5855 904.074,216.26 910.187,232.498 " fill="none" id="mastermind.views.View-mastermind.views.ResumeView" style="stroke: #A80036; stroke-width: 1.0;"/><polygon fill="#A80036" points="914.835,244.844,915.4076,235.0118,913.0734,240.1646,907.9205,237.8304,914.835,244.844" style="stroke: #A80036; stroke-width: 1.0;"/><line style="stroke: #A80036; stroke-width: 1.0;" x1="913.0734" x2="910.255" y1="240.1646" y2="232.678"/><polygon fill="#A80036" points="885.287,166.355,883.6575,173.3796,889.5149,177.5855,891.1445,170.561,885.287,166.355" style="stroke: #A80036; stroke-width: 1.0;"/><!--MD5=[2970b6c84a7ae8a1087ebe6f7b6a8c3e]
link mastermind.views.PlayView to mastermind.views.GameView--><path codeLine="108" d="M705.0235,336.6337 C705.0235,336.6337 696.015,361.287 691.893,372.566 " fill="none" id="mastermind.views.PlayView-mastermind.views.GameView" style="stroke: #A80036; stroke-width: 1.0;"/><polygon fill="#A80036" points="687.366,384.952,694.2126,377.8721,689.0825,380.2559,686.6987,375.1258,687.366,384.952" style="stroke: #A80036; stroke-width: 1.0;"/><line style="stroke: #A80036; stroke-width: 1.0;" x1="689.0825" x2="691.8285" y1="380.2559" y2="372.742"/><polygon fill="#A80036" points="709.143,325.363,703.3263,329.6252,705.0235,336.6337,710.8401,332.3715,709.143,325.363" style="stroke: #A80036; stroke-width: 1.0;"/><!--MD5=[f26dcc8644d11b94727d47c17235f663]
@startuml
class  mastermind.views.ColorView{
- color: Color
~ ColorView(Color)
+ write(): void
+ writeInitials(): void
}

class  mastermind.views.ErrorView{
- error: Error
- {static} MESSAGES: String[]
~ ErrorView(Error)
+ {static} valueOf(String): Error
}

mastermind.views.ErrorView ..> mastermind.views.ColorView

class  mastermind.views.Message{
+ {static} ATTEMPTS: Message
+ {static} SECRET: Message
+ {static} RESUME: Message
+ {static} RESULT: Message
+ {static} PROPOSED_COMBINATION: Message
+ {static} TITLE: Message
+ {static} WINNER: Message
+ {static} LOOSER: Message
- message: String
- Message(String)
+ write(): void
+ writeln(): void
+ writeln(int): void
+ writeln(int,int): void
}

class  mastermind.views.PlayView{
- game : Game
~ PlayView(Game)
- playGame(): void
+ interact(): void
}

class  mastermind.views.GameView{
- game : Game
~ GameView(Game)
+ write(): void
}

mastermind.utils.Console <.. mastermind.views.PlayView
mastermind.views.PlayView ..> mastermind.models.Game
mastermind.views.PlayView ..> mastermind.views.Message
mastermind.views.GameView *-down-> mastermind.views.SecretCombinationView
mastermind.views.GameView *-down-> mastermind.views.ProposedCombinationView
mastermind.views.GameView *-down-> mastermind.views.ResultView
mastermind.views.GameView ..> mastermind.models.Game


class  mastermind.views.ProposedCombinationView{
+ write(ProposedCombination): void
+ read(): ProposedCombination
}
mastermind.utils.Console <.down. mastermind.views.ProposedCombinationView
mastermind.views.ProposedCombinationView..> mastermind.views.Message
mastermind.views.ProposedCombinationView..> mastermind.views.ColorView
mastermind.views.ProposedCombinationView..> mastermind.views.ErrorView


class  mastermind.views.ResultView{
- result: Result
~ ResultView(Result)
+ writeln(): void
}
mastermind.utils.Console <.down. mastermind.views.ResultView
mastermind.views.ResultView..> mastermind.views.Message

class  mastermind.views.ResumeView{
+ interact(): boolean
}
mastermind.views.ResumeView..> mastermind.views.Message

class  mastermind.views.SecretCombinationView{
- secretCombination: SecretCombination
~ SecretCombinationView()
+ writeln(): void
}
mastermind.utils.Console <.down. mastermind.views.SecretCombinationView
mastermind.views.SecretCombinationView..> mastermind.views.Message

class  mastermind.views.StartView{
- game: Game 
~ StartView(Game)
+ interact(Game): void
}
mastermind.utils.Console <.down. mastermind.views.StartView
mastermind.views.StartView ..> mastermind.models.Game
mastermind.views.StartView..> mastermind.views.Message

class  mastermind.views.View{
- game: Game
- startView: StartView
- proposalView: ProposalView
- resumeView: ResumeView
+ View(Game)
+ interact(): void
}
mastermind.views.View *-down-> mastermind.views.PlayView
mastermind.views.View *-down-> mastermind.views.StartView
mastermind.views.View .down.> mastermind.models.Game
mastermind.views.View *-down-> mastermind.views.ResumeView
mastermind.views.PlayView *-down-> mastermind.views.GameView
@enduml

PlantUML version 1.2020.19beta4(Unknown compile time)
(GPL source distribution)
Java Runtime: Java(TM) SE Runtime Environment
JVM: Java HotSpot(TM) 64-Bit Server VM
Default Encoding: UTF-8
Language: en
Country: US
--></g></svg>