<?xml version="1.0" encoding="UTF-8" standalone="no"?><svg xmlns="http://www.w3.org/2000/svg" xmlns:xlink="http://www.w3.org/1999/xlink" contentScriptType="application/ecmascript" contentStyleType="text/css" height="794px" preserveAspectRatio="none" style="width:1244px;height:794px;" version="1.1" viewBox="0 0 1244 794" width="1244px" zoomAndPan="magnify"><defs><filter height="300%" id="fmoalusw0xja2" width="300%" x="-1" y="-1"><feGaussianBlur result="blurOut" stdDeviation="2.0"/><feColorMatrix in="blurOut" result="blurOut2" type="matrix" values="0 0 0 0 0 0 0 0 0 0 0 0 0 0 0 0 0 0 .4 0"/><feOffset dx="4.0" dy="4.0" in="blurOut2" result="blurOut3"/><feBlend in="SourceGraphic" in2="blurOut3" mode="normal"/></filter></defs><g><!--MD5=[b95032ff59720514854eb7a92b6b0ae3]
cluster com.models--><polygon fill="#FFFFFF" filter="url(#fmoalusw0xja2)" points="16,6,119,6,126,28.2969,1000,28.2969,1000,787,16,787,16,6" style="stroke: #000000; stroke-width: 1.5;"/><line style="stroke: #000000; stroke-width: 1.5;" x1="16" x2="126" y1="28.2969" y2="28.2969"/><text fill="#000000" font-family="sans-serif" font-size="14" font-weight="bold" lengthAdjust="spacingAndGlyphs" textLength="97" x="20" y="20.9951">com.models</text><!--MD5=[7db3c59d38ae5b37b484eb2df9368145]
cluster java.util--><polygon fill="#FFFFFF" filter="url(#fmoalusw0xja2)" points="1024,419,1097,419,1104,441.2969,1227,441.2969,1227,518,1024,518,1024,419" style="stroke: #000000; stroke-width: 1.5;"/><line style="stroke: #000000; stroke-width: 1.5;" x1="1024" x2="1104" y1="441.2969" y2="441.2969"/><text fill="#000000" font-family="sans-serif" font-size="14" font-weight="bold" lengthAdjust="spacingAndGlyphs" textLength="67" x="1028" y="433.9951">java.util</text><!--MD5=[9563755d011c5cec7ec66dc53565a59e]
class Board--><rect codeLine="4" fill="#FEFECE" filter="url(#fmoalusw0xja2)" height="240.0703" id="Board" style="stroke: #A80036; stroke-width: 1.5;" width="333" x="273.5" y="41"/><ellipse cx="417.75" cy="57" fill="#ADD1B2" rx="11" ry="11" style="stroke: #A80036; stroke-width: 1.0;"/><path d="M420.0938,52.6719 C419.1563,52.2344 418.5625,52.0938 417.6875,52.0938 C415.0625,52.0938 413.0625,54.1719 413.0625,56.8906 L413.0625,58.0156 C413.0625,60.5938 415.1719,62.4844 418.0625,62.4844 C419.2813,62.4844 420.4375,62.1875 421.1875,61.6406 C421.7656,61.2344 422.0938,60.7813 422.0938,60.3906 C422.0938,59.9375 421.7031,59.5469 421.2344,59.5469 C421.0156,59.5469 420.8125,59.625 420.625,59.8125 C420.1719,60.2969 420.1719,60.2969 419.9844,60.3906 C419.5625,60.6563 418.875,60.7813 418.1094,60.7813 C416.0625,60.7813 414.7656,59.6875 414.7656,57.9844 L414.7656,56.8906 C414.7656,55.1094 416.0156,53.7969 417.75,53.7969 C418.3281,53.7969 418.9375,53.9531 419.4063,54.2031 C419.8906,54.4844 420.0625,54.7031 420.1563,55.1094 C420.2188,55.5156 420.25,55.6406 420.3906,55.7656 C420.5313,55.9063 420.7656,56.0156 420.9844,56.0156 C421.25,56.0156 421.5156,55.875 421.6875,55.6563 C421.7969,55.5 421.8281,55.3125 421.8281,54.8906 L421.8281,53.4688 C421.8281,53.0313 421.8125,52.9063 421.7188,52.75 C421.5625,52.4844 421.2813,52.3438 420.9844,52.3438 C420.6875,52.3438 420.4844,52.4375 420.2656,52.75 L420.0938,52.6719 Z "/><text fill="#000000" font-family="sans-serif" font-size="12" lengthAdjust="spacingAndGlyphs" textLength="36" x="438.25" y="61.1543">Board</text><line style="stroke: #A80036; stroke-width: 1.5;" x1="274.5" x2="605.5" y1="73" y2="73"/><rect fill="none" height="6" style="stroke: #C82930; stroke-width: 1.0;" width="6" x="281.5" y="81"/><text fill="#000000" font-family="sans-serif" font-size="11" lengthAdjust="spacingAndGlyphs" text-decoration="underline" textLength="177" x="293.5" y="87.2104">{final} int MAX_ATTEMPS = 10;</text><rect fill="none" height="6" style="stroke: #C82930; stroke-width: 1.0;" width="6" x="281.5" y="93.8047"/><text fill="#000000" font-family="sans-serif" font-size="11" lengthAdjust="spacingAndGlyphs" textLength="223" x="293.5" y="100.0151">SecretCombination secretCombination;</text><rect fill="none" height="6" style="stroke: #C82930; stroke-width: 1.0;" width="6" x="281.5" y="106.6094"/><text fill="#000000" font-family="sans-serif" font-size="11" lengthAdjust="spacingAndGlyphs" textLength="268" x="293.5" y="112.8198">ProposedCombination[] proposedCombinations;</text><rect fill="none" height="6" style="stroke: #C82930; stroke-width: 1.0;" width="6" x="281.5" y="119.4141"/><text fill="#000000" font-family="sans-serif" font-size="11" lengthAdjust="spacingAndGlyphs" textLength="88" x="293.5" y="125.6245">Result[] results;</text><rect fill="none" height="6" style="stroke: #C82930; stroke-width: 1.0;" width="6" x="281.5" y="132.2188"/><text fill="#000000" font-family="sans-serif" font-size="11" lengthAdjust="spacingAndGlyphs" textLength="72" x="293.5" y="138.4292">int attempts;</text><text fill="#000000" font-family="sans-serif" font-size="11" lengthAdjust="spacingAndGlyphs" textLength="72" x="293.5" y="151.2339">int attempts;</text><line style="stroke: #A80036; stroke-width: 1.5;" x1="274.5" x2="605.5" y1="157.8281" y2="157.8281"/><polygon fill="#4177AF" points="284.5,164.8281,280.5,170.8281,288.5,170.8281" style="stroke: #1963A0; stroke-width: 1.0;"/><text fill="#000000" font-family="sans-serif" font-size="11" lengthAdjust="spacingAndGlyphs" textLength="41" x="293.5" y="172.0386">Board()</text><ellipse cx="284.5" cy="181.6328" fill="#84BE84" rx="3" ry="3" style="stroke: #038048; stroke-width: 1.0;"/><text fill="#000000" font-family="sans-serif" font-size="11" lengthAdjust="spacingAndGlyphs" textLength="183" x="293.5" y="184.8433">add(ProposedCombination): void</text><ellipse cx="284.5" cy="194.4375" fill="#84BE84" rx="3" ry="3" style="stroke: #038048; stroke-width: 1.0;"/><text fill="#000000" font-family="sans-serif" font-size="11" lengthAdjust="spacingAndGlyphs" textLength="121" x="293.5" y="197.6479">isFinished() : boolean</text><ellipse cx="284.5" cy="207.2422" fill="#84BE84" rx="3" ry="3" style="stroke: #038048; stroke-width: 1.0;"/><text fill="#000000" font-family="sans-serif" font-size="11" lengthAdjust="spacingAndGlyphs" textLength="114" x="293.5" y="210.4526">isWinner() : boolean</text><rect fill="#F24D5C" height="6" style="stroke: #C82930; stroke-width: 1.0;" width="6" x="281.5" y="217.0469"/><text fill="#000000" font-family="sans-serif" font-size="11" lengthAdjust="spacingAndGlyphs" textLength="112" x="293.5" y="223.2573">isLooser() : boolean</text><ellipse cx="284.5" cy="232.8516" fill="#84BE84" rx="3" ry="3" style="stroke: #038048; stroke-width: 1.0;"/><text fill="#000000" font-family="sans-serif" font-size="11" lengthAdjust="spacingAndGlyphs" textLength="131" x="293.5" y="236.062">getResults(int i): Result</text><ellipse cx="284.5" cy="245.6563" fill="#84BE84" rx="3" ry="3" style="stroke: #038048; stroke-width: 1.0;"/><text fill="#000000" font-family="sans-serif" font-size="11" lengthAdjust="spacingAndGlyphs" textLength="307" x="293.5" y="248.8667">getProposedCombinations(int i): ProposedCombination</text><ellipse cx="284.5" cy="258.4609" fill="#84BE84" rx="3" ry="3" style="stroke: #038048; stroke-width: 1.0;"/><text fill="#000000" font-family="sans-serif" font-size="11" lengthAdjust="spacingAndGlyphs" textLength="96" x="293.5" y="261.6714">getAttemps(): int</text><ellipse cx="284.5" cy="271.2656" fill="#84BE84" rx="3" ry="3" style="stroke: #038048; stroke-width: 1.0;"/><text fill="#000000" font-family="sans-serif" font-size="11" lengthAdjust="spacingAndGlyphs" textLength="252" x="293.5" y="274.4761">getSecretCombination(): SecretCombination</text><!--MD5=[28491d17d5ee38c9c116625a5ffc259a]
class Combination--><rect codeLine="22" fill="#FEFECE" filter="url(#fmoalusw0xja2)" height="99.2188" id="Combination" style="stroke: #A80036; stroke-width: 1.5;" width="161" x="822.5" y="111.5"/><ellipse cx="861.35" cy="127.5" fill="#A9DCDF" rx="11" ry="11" style="stroke: #A80036; stroke-width: 1.0;"/><path d="M863.4281,129.3125 L863.8188,130.2969 L863.4281,130.2969 C862.975,130.2969 862.8656,130.3125 862.7094,130.4219 C862.4594,130.5781 862.3031,130.8594 862.3031,131.1563 C862.3031,131.4219 862.4438,131.6719 862.6625,131.8281 C862.8031,131.9531 863.0063,132 863.4281,132 L865.7875,132 C866.1469,132 866.3656,131.9688 866.5063,131.875 C866.7563,131.7344 866.9125,131.4375 866.9125,131.1563 C866.9125,130.875 866.7719,130.625 866.5531,130.4688 C866.3813,130.3281 866.225,130.2969 865.7563,130.2969 L862.3656,122.0938 L858.6938,122.0938 C858.2406,122.0938 858.1156,122.1094 857.9594,122.2031 C857.7094,122.375 857.5531,122.6563 857.5531,122.9375 C857.5531,123.2188 857.6938,123.4688 857.9125,123.6406 C858.0844,123.75 858.2563,123.7813 858.6938,123.7813 L859.7719,123.7813 L857.1313,130.2969 C856.7094,130.2969 856.5531,130.3125 856.3969,130.4219 C856.1469,130.5781 855.9906,130.8594 855.9906,131.1563 C855.9906,131.7188 856.3656,132 857.1156,132 L859.3813,132 C859.7406,132 859.9594,131.9688 860.0844,131.875 C860.35,131.7344 860.4906,131.4375 860.4906,131.1563 C860.4906,130.875 860.3656,130.625 860.1469,130.4531 C859.975,130.3281 859.8344,130.2969 859.3813,130.2969 L858.9906,130.2969 L859.3813,129.3125 L863.4281,129.3125 Z M862.725,127.6094 L860.0531,127.6094 L861.3969,124.3438 L862.725,127.6094 Z "/><text fill="#000000" font-family="sans-serif" font-size="12" font-style="italic" lengthAdjust="spacingAndGlyphs" textLength="76" x="880.65" y="131.6543">Combination</text><line style="stroke: #A80036; stroke-width: 1.5;" x1="823.5" x2="982.5" y1="143.5" y2="143.5"/><polygon fill="none" points="833.5,149.5,837.5,153.5,833.5,157.5,829.5,153.5" style="stroke: #B38D22; stroke-width: 1.0;"/><text fill="#000000" font-family="sans-serif" font-size="11" lengthAdjust="spacingAndGlyphs" textLength="106" x="842.5" y="157.7104">List&lt;Color&gt; colors:</text><line style="stroke: #A80036; stroke-width: 1.5;" x1="823.5" x2="982.5" y1="164.3047" y2="164.3047"/><polygon fill="#4177AF" points="833.5,171.3047,829.5,177.3047,837.5,177.3047" style="stroke: #1963A0; stroke-width: 1.0;"/><text fill="#000000" font-family="sans-serif" font-size="11" lengthAdjust="spacingAndGlyphs" textLength="83" x="842.5" y="178.5151">Combination ()</text><ellipse cx="833.5" cy="188.1094" fill="#84BE84" rx="3" ry="3" style="stroke: #038048; stroke-width: 1.0;"/><text fill="#000000" font-family="sans-serif" font-size="11" lengthAdjust="spacingAndGlyphs" textLength="135" x="842.5" y="191.3198">getColors(): List&lt;Color&gt;</text><ellipse cx="833.5" cy="200.9141" fill="#84BE84" rx="3" ry="3" style="stroke: #038048; stroke-width: 1.0;"/><text fill="#000000" font-family="sans-serif" font-size="11" lengthAdjust="spacingAndGlyphs" textLength="127" x="842.5" y="204.1245">setColors(List&lt;Color&gt;)</text><!--MD5=[e370ee5c0c15ce04544d5f5a73174d72]
class SecretCombination--><rect codeLine="29" fill="#FEFECE" filter="url(#fmoalusw0xja2)" height="73.6094" id="SecretCombination" style="stroke: #A80036; stroke-width: 1.5;" width="253" x="569.5" y="441"/><ellipse cx="634.75" cy="457" fill="#ADD1B2" rx="11" ry="11" style="stroke: #A80036; stroke-width: 1.0;"/><path d="M637.0938,452.6719 C636.1563,452.2344 635.5625,452.0938 634.6875,452.0938 C632.0625,452.0938 630.0625,454.1719 630.0625,456.8906 L630.0625,458.0156 C630.0625,460.5938 632.1719,462.4844 635.0625,462.4844 C636.2813,462.4844 637.4375,462.1875 638.1875,461.6406 C638.7656,461.2344 639.0938,460.7813 639.0938,460.3906 C639.0938,459.9375 638.7031,459.5469 638.2344,459.5469 C638.0156,459.5469 637.8125,459.625 637.625,459.8125 C637.1719,460.2969 637.1719,460.2969 636.9844,460.3906 C636.5625,460.6563 635.875,460.7813 635.1094,460.7813 C633.0625,460.7813 631.7656,459.6875 631.7656,457.9844 L631.7656,456.8906 C631.7656,455.1094 633.0156,453.7969 634.75,453.7969 C635.3281,453.7969 635.9375,453.9531 636.4063,454.2031 C636.8906,454.4844 637.0625,454.7031 637.1563,455.1094 C637.2188,455.5156 637.25,455.6406 637.3906,455.7656 C637.5313,455.9063 637.7656,456.0156 637.9844,456.0156 C638.25,456.0156 638.5156,455.875 638.6875,455.6563 C638.7969,455.5 638.8281,455.3125 638.8281,454.8906 L638.8281,453.4688 C638.8281,453.0313 638.8125,452.9063 638.7188,452.75 C638.5625,452.4844 638.2813,452.3438 637.9844,452.3438 C637.6875,452.3438 637.4844,452.4375 637.2656,452.75 L637.0938,452.6719 Z "/><text fill="#000000" font-family="sans-serif" font-size="12" lengthAdjust="spacingAndGlyphs" textLength="114" x="655.25" y="461.1543">SecretCombination</text><line style="stroke: #A80036; stroke-width: 1.5;" x1="570.5" x2="821.5" y1="473" y2="473"/><line style="stroke: #A80036; stroke-width: 1.5;" x1="570.5" x2="821.5" y1="481" y2="481"/><polygon fill="#4177AF" points="580.5,488,576.5,494,584.5,494" style="stroke: #1963A0; stroke-width: 1.0;"/><text fill="#000000" font-family="sans-serif" font-size="11" lengthAdjust="spacingAndGlyphs" textLength="117" x="589.5" y="495.2104">SecretCombination()</text><text fill="#000000" font-family="sans-serif" font-size="11" lengthAdjust="spacingAndGlyphs" textLength="227" x="589.5" y="508.0151">getResult(ProposedCombination): Result</text><!--MD5=[cf489b19c51ee25e76ddca093e62e620]
class ProposedCombination--><rect codeLine="34" fill="#FEFECE" filter="url(#fmoalusw0xja2)" height="86.4141" id="ProposedCombination" style="stroke: #A80036; stroke-width: 1.5;" width="188" x="346" y="435"/><ellipse cx="371.8" cy="451" fill="#ADD1B2" rx="11" ry="11" style="stroke: #A80036; stroke-width: 1.0;"/><path d="M374.1438,446.6719 C373.2063,446.2344 372.6125,446.0938 371.7375,446.0938 C369.1125,446.0938 367.1125,448.1719 367.1125,450.8906 L367.1125,452.0156 C367.1125,454.5938 369.2219,456.4844 372.1125,456.4844 C373.3313,456.4844 374.4875,456.1875 375.2375,455.6406 C375.8156,455.2344 376.1438,454.7813 376.1438,454.3906 C376.1438,453.9375 375.7531,453.5469 375.2844,453.5469 C375.0656,453.5469 374.8625,453.625 374.675,453.8125 C374.2219,454.2969 374.2219,454.2969 374.0344,454.3906 C373.6125,454.6563 372.925,454.7813 372.1594,454.7813 C370.1125,454.7813 368.8156,453.6875 368.8156,451.9844 L368.8156,450.8906 C368.8156,449.1094 370.0656,447.7969 371.8,447.7969 C372.3781,447.7969 372.9875,447.9531 373.4563,448.2031 C373.9406,448.4844 374.1125,448.7031 374.2063,449.1094 C374.2688,449.5156 374.3,449.6406 374.4406,449.7656 C374.5813,449.9063 374.8156,450.0156 375.0344,450.0156 C375.3,450.0156 375.5656,449.875 375.7375,449.6563 C375.8469,449.5 375.8781,449.3125 375.8781,448.8906 L375.8781,447.4688 C375.8781,447.0313 375.8625,446.9063 375.7688,446.75 C375.6125,446.4844 375.3313,446.3438 375.0344,446.3438 C374.7375,446.3438 374.5344,446.4375 374.3156,446.75 L374.1438,446.6719 Z "/><text fill="#000000" font-family="sans-serif" font-size="12" lengthAdjust="spacingAndGlyphs" textLength="132" x="388.2" y="455.1543">ProposedCombination</text><line style="stroke: #A80036; stroke-width: 1.5;" x1="347" x2="533" y1="467" y2="467"/><line style="stroke: #A80036; stroke-width: 1.5;" x1="347" x2="533" y1="475" y2="475"/><rect fill="#F24D5C" height="6" style="stroke: #C82930; stroke-width: 1.0;" width="6" x="354" y="483"/><text fill="#000000" font-family="sans-serif" font-size="11" lengthAdjust="spacingAndGlyphs" textLength="137" x="366" y="489.2104">checkError(String) : Error</text><text fill="#000000" font-family="sans-serif" font-size="11" lengthAdjust="spacingAndGlyphs" textLength="162" x="366" y="502.0151">contains(Color, int) : boolean</text><text fill="#000000" font-family="sans-serif" font-size="11" lengthAdjust="spacingAndGlyphs" textLength="141" x="366" y="514.8198">contains(Color) : boolean</text><!--MD5=[2741598bdf59a7d7e0d5c97658fd3022]
class Result--><rect codeLine="40" fill="#FEFECE" filter="url(#fmoalusw0xja2)" height="137.6328" id="Result" style="stroke: #A80036; stroke-width: 1.5;" width="148" x="163" y="409"/><ellipse cx="214.75" cy="425" fill="#ADD1B2" rx="11" ry="11" style="stroke: #A80036; stroke-width: 1.0;"/><path d="M217.0938,420.6719 C216.1563,420.2344 215.5625,420.0938 214.6875,420.0938 C212.0625,420.0938 210.0625,422.1719 210.0625,424.8906 L210.0625,426.0156 C210.0625,428.5938 212.1719,430.4844 215.0625,430.4844 C216.2813,430.4844 217.4375,430.1875 218.1875,429.6406 C218.7656,429.2344 219.0938,428.7813 219.0938,428.3906 C219.0938,427.9375 218.7031,427.5469 218.2344,427.5469 C218.0156,427.5469 217.8125,427.625 217.625,427.8125 C217.1719,428.2969 217.1719,428.2969 216.9844,428.3906 C216.5625,428.6563 215.875,428.7813 215.1094,428.7813 C213.0625,428.7813 211.7656,427.6875 211.7656,425.9844 L211.7656,424.8906 C211.7656,423.1094 213.0156,421.7969 214.75,421.7969 C215.3281,421.7969 215.9375,421.9531 216.4063,422.2031 C216.8906,422.4844 217.0625,422.7031 217.1563,423.1094 C217.2188,423.5156 217.25,423.6406 217.3906,423.7656 C217.5313,423.9063 217.7656,424.0156 217.9844,424.0156 C218.25,424.0156 218.5156,423.875 218.6875,423.6563 C218.7969,423.5 218.8281,423.3125 218.8281,422.8906 L218.8281,421.4688 C218.8281,421.0313 218.8125,420.9063 218.7188,420.75 C218.5625,420.4844 218.2813,420.3438 217.9844,420.3438 C217.6875,420.3438 217.4844,420.4375 217.2656,420.75 L217.0938,420.6719 Z "/><text fill="#000000" font-family="sans-serif" font-size="12" lengthAdjust="spacingAndGlyphs" textLength="36" x="235.25" y="429.1543">Result</text><line style="stroke: #A80036; stroke-width: 1.5;" x1="164" x2="310" y1="441" y2="441"/><ellipse cx="174" cy="452" fill="none" rx="3" ry="3" style="stroke: #038048; stroke-width: 1.0;"/><text fill="#000000" font-family="sans-serif" font-size="11" lengthAdjust="spacingAndGlyphs" text-decoration="underline" textLength="122" x="183" y="455.2104">{fina} int WIDTH = 4;</text><rect fill="none" height="6" style="stroke: #C82930; stroke-width: 1.0;" width="6" x="171" y="461.8047"/><text fill="#000000" font-family="sans-serif" font-size="11" lengthAdjust="spacingAndGlyphs" textLength="53" x="183" y="468.0151">int blacks</text><rect fill="none" height="6" style="stroke: #C82930; stroke-width: 1.0;" width="6" x="171" y="474.6094"/><text fill="#000000" font-family="sans-serif" font-size="11" lengthAdjust="spacingAndGlyphs" textLength="55" x="183" y="480.8198">int whites</text><line style="stroke: #A80036; stroke-width: 1.5;" x1="164" x2="310" y1="487.4141" y2="487.4141"/><polygon fill="#4177AF" points="174,494.4141,170,500.4141,178,500.4141" style="stroke: #1963A0; stroke-width: 1.0;"/><text fill="#000000" font-family="sans-serif" font-size="11" lengthAdjust="spacingAndGlyphs" textLength="78" x="183" y="501.6245">Result(int, int)</text><text fill="#000000" font-family="sans-serif" font-size="11" lengthAdjust="spacingAndGlyphs" textLength="110" x="183" y="514.4292">isWinner(): boolean</text><ellipse cx="174" cy="524.0234" fill="#84BE84" rx="3" ry="3" style="stroke: #038048; stroke-width: 1.0;"/><text fill="#000000" font-family="sans-serif" font-size="11" lengthAdjust="spacingAndGlyphs" textLength="91" x="183" y="527.2339">getWhites() : int</text><ellipse cx="174" cy="536.8281" fill="#84BE84" rx="3" ry="3" style="stroke: #038048; stroke-width: 1.0;"/><text fill="#000000" font-family="sans-serif" font-size="11" lengthAdjust="spacingAndGlyphs" textLength="88" x="183" y="540.0386">getBlacks() : int</text><!--MD5=[18eee71c88ab61f27581b8cbdd3ef5ee]
class Color--><rect codeLine="51" fill="#FEFECE" filter="url(#fmoalusw0xja2)" height="240.0703" id="Color" style="stroke: #A80036; stroke-width: 1.5;" width="126" x="858" y="358"/><ellipse cx="900.9" cy="374" fill="#EB937F" rx="11" ry="11" style="stroke: #A80036; stroke-width: 1.0;"/><path d="M899.6969,374.875 L901.15,374.875 L901.15,374.9844 C901.15,375.3906 901.1813,375.5469 901.2594,375.7031 C901.4156,375.9531 901.6969,376.1094 901.9938,376.1094 C902.2438,376.1094 902.5094,375.9688 902.6656,375.75 C902.7906,375.5938 902.8219,375.4375 902.8219,374.9844 L902.8219,373.0625 C902.8219,372.9063 902.8219,372.8594 902.8063,372.7031 C902.7438,372.2344 902.4313,371.9219 901.9781,371.9219 C901.7281,371.9219 901.4625,372.0625 901.2906,372.2813 C901.1813,372.4531 901.15,372.6094 901.15,373.0625 L901.15,373.1875 L899.6969,373.1875 L899.6969,370.7813 L903.6813,370.7813 L903.6813,371.6406 C903.6813,372.0469 903.7125,372.2188 903.7906,372.375 C903.9625,372.625 904.2438,372.7813 904.525,372.7813 C904.7906,372.7813 905.0563,372.6406 905.2281,372.4219 C905.3375,372.25 905.3688,372.1094 905.3688,371.6406 L905.3688,369.0938 L897.7438,369.0938 C897.3063,369.0938 897.1813,369.1094 897.025,369.2031 C896.775,369.3594 896.6188,369.6563 896.6188,369.9375 C896.6188,370.2188 896.7594,370.4688 896.9781,370.6406 C897.1344,370.75 897.3219,370.7813 897.7438,370.7813 L897.9938,370.7813 L897.9938,377.2969 L897.7438,377.2969 C897.3375,377.2969 897.1813,377.3125 897.025,377.4219 C896.775,377.5938 896.6188,377.8594 896.6188,378.1563 C896.6188,378.4219 896.7594,378.6719 896.9781,378.8281 C897.1188,378.9531 897.3531,379 897.7438,379 L905.7438,379 L905.7438,376.4219 C905.7438,375.9844 905.7125,375.8438 905.6344,375.6875 C905.4625,375.4375 905.1813,375.2813 904.9,375.2813 C904.6344,375.2813 904.3688,375.3906 904.1969,375.6406 C904.0875,375.7969 904.0563,375.9375 904.0563,376.4219 L904.0563,377.2969 L899.6969,377.2969 L899.6969,374.875 Z "/><text fill="#000000" font-family="sans-serif" font-size="12" lengthAdjust="spacingAndGlyphs" textLength="32" x="921.1" y="378.1543">Color</text><line style="stroke: #A80036; stroke-width: 1.5;" x1="859" x2="983" y1="390" y2="390"/><text fill="#000000" font-family="sans-serif" font-size="11" lengthAdjust="spacingAndGlyphs" textLength="23" x="878" y="404.2104">RED</text><text fill="#000000" font-family="sans-serif" font-size="11" lengthAdjust="spacingAndGlyphs" textLength="29" x="878" y="417.0151">BLUE</text><text fill="#000000" font-family="sans-serif" font-size="11" lengthAdjust="spacingAndGlyphs" textLength="46" x="878" y="429.8198">YELLOW</text><text fill="#000000" font-family="sans-serif" font-size="11" lengthAdjust="spacingAndGlyphs" textLength="38" x="878" y="442.6245">GREEN</text><text fill="#000000" font-family="sans-serif" font-size="11" lengthAdjust="spacingAndGlyphs" textLength="48" x="878" y="455.4292">ORANGE</text><text fill="#000000" font-family="sans-serif" font-size="11" lengthAdjust="spacingAndGlyphs" textLength="40" x="878" y="468.2339">PURPLE</text><text fill="#000000" font-family="sans-serif" font-size="11" lengthAdjust="spacingAndGlyphs" textLength="73" x="878" y="481.0386">NULL_COLOR</text><rect fill="none" height="6" style="stroke: #C82930; stroke-width: 1.0;" width="6" x="866" y="487.6328"/><text fill="#000000" font-family="sans-serif" font-size="11" lengthAdjust="spacingAndGlyphs" textLength="61" x="878" y="493.8433">char initial;</text><line style="stroke: #A80036; stroke-width: 1.5;" x1="859" x2="983" y1="500.4375" y2="500.4375"/><rect fill="#F24D5C" height="6" style="stroke: #C82930; stroke-width: 1.0;" width="6" x="866" y="508.4375"/><text fill="#000000" font-family="sans-serif" font-size="11" lengthAdjust="spacingAndGlyphs" textLength="37" x="878" y="514.6479">Color()</text><rect fill="#F24D5C" height="6" style="stroke: #C82930; stroke-width: 1.0;" width="6" x="866" y="521.2422"/><text fill="#000000" font-family="sans-serif" font-size="11" lengthAdjust="spacingAndGlyphs" textLength="61" x="878" y="527.4526">Color(char)</text><text fill="#000000" font-family="sans-serif" font-size="11" lengthAdjust="spacingAndGlyphs" text-decoration="underline" textLength="100" x="878" y="540.2573">String getInitials()</text><text fill="#000000" font-family="sans-serif" font-size="11" lengthAdjust="spacingAndGlyphs" text-decoration="underline" textLength="62" x="878" y="553.062">int length()</text><text fill="#000000" font-family="sans-serif" font-size="11" lengthAdjust="spacingAndGlyphs" text-decoration="underline" textLength="74" x="878" y="565.8667">Color get(int)</text><text fill="#000000" font-family="sans-serif" font-size="11" lengthAdjust="spacingAndGlyphs" textLength="88" x="878" y="578.6714">boolean isNull()</text><ellipse cx="869" cy="588.2656" fill="#84BE84" rx="3" ry="3" style="stroke: #038048; stroke-width: 1.0;"/><text fill="#000000" font-family="sans-serif" font-size="11" lengthAdjust="spacingAndGlyphs" textLength="85" x="878" y="591.4761">char getInitial()</text><!--MD5=[b8cfd8c4119a3b0a7a46bfc5fc780f85]
class Error--><rect codeLine="69" fill="#FEFECE" filter="url(#fmoalusw0xja2)" height="112.0234" id="Error" style="stroke: #A80036; stroke-width: 1.5;" width="138" x="371" y="659"/><ellipse cx="420.75" cy="675" fill="#EB937F" rx="11" ry="11" style="stroke: #A80036; stroke-width: 1.0;"/><path d="M419.5469,675.875 L421,675.875 L421,675.9844 C421,676.3906 421.0313,676.5469 421.1094,676.7031 C421.2656,676.9531 421.5469,677.1094 421.8438,677.1094 C422.0938,677.1094 422.3594,676.9688 422.5156,676.75 C422.6406,676.5938 422.6719,676.4375 422.6719,675.9844 L422.6719,674.0625 C422.6719,673.9063 422.6719,673.8594 422.6563,673.7031 C422.5938,673.2344 422.2813,672.9219 421.8281,672.9219 C421.5781,672.9219 421.3125,673.0625 421.1406,673.2813 C421.0313,673.4531 421,673.6094 421,674.0625 L421,674.1875 L419.5469,674.1875 L419.5469,671.7813 L423.5313,671.7813 L423.5313,672.6406 C423.5313,673.0469 423.5625,673.2188 423.6406,673.375 C423.8125,673.625 424.0938,673.7813 424.375,673.7813 C424.6406,673.7813 424.9063,673.6406 425.0781,673.4219 C425.1875,673.25 425.2188,673.1094 425.2188,672.6406 L425.2188,670.0938 L417.5938,670.0938 C417.1563,670.0938 417.0313,670.1094 416.875,670.2031 C416.625,670.3594 416.4688,670.6563 416.4688,670.9375 C416.4688,671.2188 416.6094,671.4688 416.8281,671.6406 C416.9844,671.75 417.1719,671.7813 417.5938,671.7813 L417.8438,671.7813 L417.8438,678.2969 L417.5938,678.2969 C417.1875,678.2969 417.0313,678.3125 416.875,678.4219 C416.625,678.5938 416.4688,678.8594 416.4688,679.1563 C416.4688,679.4219 416.6094,679.6719 416.8281,679.8281 C416.9688,679.9531 417.2031,680 417.5938,680 L425.5938,680 L425.5938,677.4219 C425.5938,676.9844 425.5625,676.8438 425.4844,676.6875 C425.3125,676.4375 425.0313,676.2813 424.75,676.2813 C424.4844,676.2813 424.2188,676.3906 424.0469,676.6406 C423.9375,676.7969 423.9063,676.9375 423.9063,677.4219 L423.9063,678.2969 L419.5469,678.2969 L419.5469,675.875 Z "/><text fill="#000000" font-family="sans-serif" font-size="12" lengthAdjust="spacingAndGlyphs" textLength="30" x="441.25" y="679.1543">Error</text><line style="stroke: #A80036; stroke-width: 1.5;" x1="372" x2="508" y1="691" y2="691"/><text fill="#000000" font-family="sans-serif" font-size="11" lengthAdjust="spacingAndGlyphs" textLength="71" x="377" y="705.2104">DUPLICATED</text><text fill="#000000" font-family="sans-serif" font-size="11" lengthAdjust="spacingAndGlyphs" textLength="126" x="377" y="718.0151">WRONG_CHARACTERS</text><text fill="#000000" font-family="sans-serif" font-size="11" lengthAdjust="spacingAndGlyphs" textLength="95" x="377" y="730.8198">WRONG_LENGTH</text><text fill="#000000" font-family="sans-serif" font-size="11" lengthAdjust="spacingAndGlyphs" textLength="71" x="377" y="743.6245">NULL_ERROR</text><line style="stroke: #A80036; stroke-width: 1.5;" x1="372" x2="508" y1="750.2188" y2="750.2188"/><ellipse cx="382" cy="761.2188" fill="#84BE84" rx="3" ry="3" style="stroke: #038048; stroke-width: 1.0;"/><text fill="#000000" font-family="sans-serif" font-size="11" lengthAdjust="spacingAndGlyphs" textLength="88" x="391" y="764.4292">boolean isNull()</text><!--MD5=[997bdb3e77aba73dac6be0c86df09dcb]
class com.models.State--><rect codeLine="78" fill="#FEFECE" filter="url(#fmoalusw0xja2)" height="112.0234" id="com.models.State" style="stroke: #A80036; stroke-width: 1.5;" width="188" x="32" y="105"/><ellipse cx="106.25" cy="121" fill="#ADD1B2" rx="11" ry="11" style="stroke: #A80036; stroke-width: 1.0;"/><path d="M108.5938,116.6719 C107.6563,116.2344 107.0625,116.0938 106.1875,116.0938 C103.5625,116.0938 101.5625,118.1719 101.5625,120.8906 L101.5625,122.0156 C101.5625,124.5938 103.6719,126.4844 106.5625,126.4844 C107.7813,126.4844 108.9375,126.1875 109.6875,125.6406 C110.2656,125.2344 110.5938,124.7813 110.5938,124.3906 C110.5938,123.9375 110.2031,123.5469 109.7344,123.5469 C109.5156,123.5469 109.3125,123.625 109.125,123.8125 C108.6719,124.2969 108.6719,124.2969 108.4844,124.3906 C108.0625,124.6563 107.375,124.7813 106.6094,124.7813 C104.5625,124.7813 103.2656,123.6875 103.2656,121.9844 L103.2656,120.8906 C103.2656,119.1094 104.5156,117.7969 106.25,117.7969 C106.8281,117.7969 107.4375,117.9531 107.9063,118.2031 C108.3906,118.4844 108.5625,118.7031 108.6563,119.1094 C108.7188,119.5156 108.75,119.6406 108.8906,119.7656 C109.0313,119.9063 109.2656,120.0156 109.4844,120.0156 C109.75,120.0156 110.0156,119.875 110.1875,119.6563 C110.2969,119.5 110.3281,119.3125 110.3281,118.8906 L110.3281,117.4688 C110.3281,117.0313 110.3125,116.9063 110.2188,116.75 C110.0625,116.4844 109.7813,116.3438 109.4844,116.3438 C109.1875,116.3438 108.9844,116.4375 108.7656,116.75 L108.5938,116.6719 Z "/><text fill="#000000" font-family="sans-serif" font-size="12" lengthAdjust="spacingAndGlyphs" textLength="31" x="126.75" y="125.1543">State</text><line style="stroke: #A80036; stroke-width: 1.5;" x1="33" x2="219" y1="137" y2="137"/><rect fill="none" height="6" style="stroke: #C82930; stroke-width: 1.0;" width="6" x="40" y="145"/><text fill="#000000" font-family="sans-serif" font-size="11" lengthAdjust="spacingAndGlyphs" textLength="133" x="52" y="151.2104">stateValue: StateValue</text><line style="stroke: #A80036; stroke-width: 1.5;" x1="33" x2="219" y1="157.8047" y2="157.8047"/><ellipse cx="43" cy="168.8047" fill="#84BE84" rx="3" ry="3" style="stroke: #038048; stroke-width: 1.0;"/><text fill="#000000" font-family="sans-serif" font-size="11" lengthAdjust="spacingAndGlyphs" textLength="39" x="52" y="172.0151">State()</text><ellipse cx="43" cy="181.6094" fill="#84BE84" rx="3" ry="3" style="stroke: #038048; stroke-width: 1.0;"/><text fill="#000000" font-family="sans-serif" font-size="11" lengthAdjust="spacingAndGlyphs" textLength="65" x="52" y="184.8198">next(): void</text><ellipse cx="43" cy="194.4141" fill="#84BE84" rx="3" ry="3" style="stroke: #038048; stroke-width: 1.0;"/><text fill="#000000" font-family="sans-serif" font-size="11" lengthAdjust="spacingAndGlyphs" textLength="69" x="52" y="197.6245">reset(): void</text><ellipse cx="43" cy="207.2188" fill="#84BE84" rx="3" ry="3" style="stroke: #038048; stroke-width: 1.0;"/><text fill="#000000" font-family="sans-serif" font-size="11" lengthAdjust="spacingAndGlyphs" textLength="162" x="52" y="210.4292">getValueState(): StateValue</text><!--MD5=[8a66fd12afa45df59749ff8e19555f5b]
class com.models.StateValue--><rect fill="#FEFECE" filter="url(#fmoalusw0xja2)" height="48" id="com.models.StateValue" style="stroke: #A80036; stroke-width: 1.5;" width="96" x="32" y="454"/><ellipse cx="47" cy="470" fill="#ADD1B2" rx="11" ry="11" style="stroke: #A80036; stroke-width: 1.0;"/><path d="M49.3438,465.6719 C48.4063,465.2344 47.8125,465.0938 46.9375,465.0938 C44.3125,465.0938 42.3125,467.1719 42.3125,469.8906 L42.3125,471.0156 C42.3125,473.5938 44.4219,475.4844 47.3125,475.4844 C48.5313,475.4844 49.6875,475.1875 50.4375,474.6406 C51.0156,474.2344 51.3438,473.7813 51.3438,473.3906 C51.3438,472.9375 50.9531,472.5469 50.4844,472.5469 C50.2656,472.5469 50.0625,472.625 49.875,472.8125 C49.4219,473.2969 49.4219,473.2969 49.2344,473.3906 C48.8125,473.6563 48.125,473.7813 47.3594,473.7813 C45.3125,473.7813 44.0156,472.6875 44.0156,470.9844 L44.0156,469.8906 C44.0156,468.1094 45.2656,466.7969 47,466.7969 C47.5781,466.7969 48.1875,466.9531 48.6563,467.2031 C49.1406,467.4844 49.3125,467.7031 49.4063,468.1094 C49.4688,468.5156 49.5,468.6406 49.6406,468.7656 C49.7813,468.9063 50.0156,469.0156 50.2344,469.0156 C50.5,469.0156 50.7656,468.875 50.9375,468.6563 C51.0469,468.5 51.0781,468.3125 51.0781,467.8906 L51.0781,466.4688 C51.0781,466.0313 51.0625,465.9063 50.9688,465.75 C50.8125,465.4844 50.5313,465.3438 50.2344,465.3438 C49.9375,465.3438 49.7344,465.4375 49.5156,465.75 L49.3438,465.6719 Z "/><text fill="#000000" font-family="sans-serif" font-size="12" lengthAdjust="spacingAndGlyphs" textLength="64" x="61" y="474.1543">StateValue</text><line style="stroke: #A80036; stroke-width: 1.5;" x1="33" x2="127" y1="486" y2="486"/><line style="stroke: #A80036; stroke-width: 1.5;" x1="33" x2="127" y1="494" y2="494"/><!--MD5=[8479184e23c2bec09445fccfd361f5d2]
class java.util.ArrayList--><rect codeLine="105" fill="#FEFECE" filter="url(#fmoalusw0xja2)" height="48" id="java.util.ArrayList" style="stroke: #A80036; stroke-width: 1.5;" width="84" x="1040" y="454"/><ellipse cx="1055" cy="470" fill="#ADD1B2" rx="11" ry="11" style="stroke: #A80036; stroke-width: 1.0;"/><path d="M1057.3438,465.6719 C1056.4063,465.2344 1055.8125,465.0938 1054.9375,465.0938 C1052.3125,465.0938 1050.3125,467.1719 1050.3125,469.8906 L1050.3125,471.0156 C1050.3125,473.5938 1052.4219,475.4844 1055.3125,475.4844 C1056.5313,475.4844 1057.6875,475.1875 1058.4375,474.6406 C1059.0156,474.2344 1059.3438,473.7813 1059.3438,473.3906 C1059.3438,472.9375 1058.9531,472.5469 1058.4844,472.5469 C1058.2656,472.5469 1058.0625,472.625 1057.875,472.8125 C1057.4219,473.2969 1057.4219,473.2969 1057.2344,473.3906 C1056.8125,473.6563 1056.125,473.7813 1055.3594,473.7813 C1053.3125,473.7813 1052.0156,472.6875 1052.0156,470.9844 L1052.0156,469.8906 C1052.0156,468.1094 1053.2656,466.7969 1055,466.7969 C1055.5781,466.7969 1056.1875,466.9531 1056.6563,467.2031 C1057.1406,467.4844 1057.3125,467.7031 1057.4063,468.1094 C1057.4688,468.5156 1057.5,468.6406 1057.6406,468.7656 C1057.7813,468.9063 1058.0156,469.0156 1058.2344,469.0156 C1058.5,469.0156 1058.7656,468.875 1058.9375,468.6563 C1059.0469,468.5 1059.0781,468.3125 1059.0781,467.8906 L1059.0781,466.4688 C1059.0781,466.0313 1059.0625,465.9063 1058.9688,465.75 C1058.8125,465.4844 1058.5313,465.3438 1058.2344,465.3438 C1057.9375,465.3438 1057.7344,465.4375 1057.5156,465.75 L1057.3438,465.6719 Z "/><text fill="#000000" font-family="sans-serif" font-size="12" lengthAdjust="spacingAndGlyphs" textLength="52" x="1069" y="474.1543">ArrayList</text><line style="stroke: #A80036; stroke-width: 1.5;" x1="1041" x2="1123" y1="486" y2="486"/><line style="stroke: #A80036; stroke-width: 1.5;" x1="1041" x2="1123" y1="494" y2="494"/><!--MD5=[6b7a9fc05e2cf62df8c1411c2048df3f]
class java.util.List--><rect codeLine="104" fill="#FEFECE" filter="url(#fmoalusw0xja2)" height="48" id="java.util.List" style="stroke: #A80036; stroke-width: 1.5;" width="52" x="1159" y="454"/><ellipse cx="1174" cy="470" fill="#ADD1B2" rx="11" ry="11" style="stroke: #A80036; stroke-width: 1.0;"/><path d="M1176.3438,465.6719 C1175.4063,465.2344 1174.8125,465.0938 1173.9375,465.0938 C1171.3125,465.0938 1169.3125,467.1719 1169.3125,469.8906 L1169.3125,471.0156 C1169.3125,473.5938 1171.4219,475.4844 1174.3125,475.4844 C1175.5313,475.4844 1176.6875,475.1875 1177.4375,474.6406 C1178.0156,474.2344 1178.3438,473.7813 1178.3438,473.3906 C1178.3438,472.9375 1177.9531,472.5469 1177.4844,472.5469 C1177.2656,472.5469 1177.0625,472.625 1176.875,472.8125 C1176.4219,473.2969 1176.4219,473.2969 1176.2344,473.3906 C1175.8125,473.6563 1175.125,473.7813 1174.3594,473.7813 C1172.3125,473.7813 1171.0156,472.6875 1171.0156,470.9844 L1171.0156,469.8906 C1171.0156,468.1094 1172.2656,466.7969 1174,466.7969 C1174.5781,466.7969 1175.1875,466.9531 1175.6563,467.2031 C1176.1406,467.4844 1176.3125,467.7031 1176.4063,468.1094 C1176.4688,468.5156 1176.5,468.6406 1176.6406,468.7656 C1176.7813,468.9063 1177.0156,469.0156 1177.2344,469.0156 C1177.5,469.0156 1177.7656,468.875 1177.9375,468.6563 C1178.0469,468.5 1178.0781,468.3125 1178.0781,467.8906 L1178.0781,466.4688 C1178.0781,466.0313 1178.0625,465.9063 1177.9688,465.75 C1177.8125,465.4844 1177.5313,465.3438 1177.2344,465.3438 C1176.9375,465.3438 1176.7344,465.4375 1176.5156,465.75 L1176.3438,465.6719 Z "/><text fill="#000000" font-family="sans-serif" font-size="12" lengthAdjust="spacingAndGlyphs" textLength="20" x="1188" y="474.1543">List</text><line style="stroke: #A80036; stroke-width: 1.5;" x1="1160" x2="1210" y1="486" y2="486"/><line style="stroke: #A80036; stroke-width: 1.5;" x1="1160" x2="1210" y1="494" y2="494"/><!--MD5=[8d0cd38cf93bb62ca4c4a288fad75b3b]
link com.models.State to com.models.StateValue--><path codeLine="86" d="M116.2008,229.103 C116.2008,229.103 92.7499,389.691 85.2758,440.872 " fill="none" id="com.models.State-com.models.StateValue" style="stroke: #A80036; stroke-width: 1.0;"/><polygon fill="#A80036" points="83.388,453.799,88.6466,445.4715,84.1105,448.8515,80.7305,444.3154,83.388,453.799" style="stroke: #A80036; stroke-width: 1.0;"/><line style="stroke: #A80036; stroke-width: 1.0;" x1="84.1105" x2="85.2667" y1="448.8515" y2="440.9355"/><polygon fill="#A80036" points="117.935,217.229,113.1099,222.588,116.2008,229.103,121.0259,223.7441,117.935,217.229" style="stroke: #A80036; stroke-width: 1.0;"/><!--MD5=[5e915b8ab835b2366405aaf6901e131b]
link Board to SecretCombination--><path codeLine="89" d="M580.3687,290.1256 C580.3687,290.1256 592.624,304.27 598,311 C627.521,347.957 654.317,394.705 672.398,429.168 " fill="none" id="Board-SecretCombination" style="stroke: #A80036; stroke-width: 1.0;"/><polygon fill="#A80036" points="678.42,440.809,677.8379,430.9774,676.1228,436.3679,670.7322,434.6528,678.42,440.809" style="stroke: #A80036; stroke-width: 1.0;"/><line style="stroke: #A80036; stroke-width: 1.0;" x1="676.1228" x2="672.4465" y1="436.3679" y2="429.2625"/><polygon fill="#A80036" points="572.329,281.217,573.3793,288.3512,580.3687,290.1256,579.3184,282.9914,572.329,281.217" style="stroke: #A80036; stroke-width: 1.0;"/><text fill="#000000" font-family="sans-serif" font-size="13" lengthAdjust="spacingAndGlyphs" textLength="121" x="612" y="324.0669">secretCombination</text><!--MD5=[e0b5d9907fda64872c10fd6493e0c51f]
link Board to ProposedCombination--><path codeLine="90" d="M440,293.088 C440,293.088 440,386.055 440,421.394 " fill="none" id="Board-ProposedCombination" style="stroke: #A80036; stroke-width: 1.0;"/><polygon fill="#A80036" points="440,434.799,444,425.799,440,429.799,436,425.799,440,434.799" style="stroke: #A80036; stroke-width: 1.0;"/><line style="stroke: #A80036; stroke-width: 1.0;" x1="440" x2="440" y1="429.799" y2="421.799"/><polygon fill="#FFFFFF" points="440,281.088,436,287.088,440,293.088,444,287.088,440,281.088" style="stroke: #A80036; stroke-width: 1.0;"/><text fill="#000000" font-family="sans-serif" font-size="13" lengthAdjust="spacingAndGlyphs" textLength="148" x="441" y="324.0669">proposedCombinations</text><text fill="#000000" font-family="sans-serif" font-size="13" lengthAdjust="spacingAndGlyphs" textLength="32" x="405.55" y="424.0808">0..10</text><!--MD5=[8dd95aff79c51151a18c835e3410b3cd]
link Board to Result--><path codeLine="91" d="M356.7539,291.1751 C356.7539,291.1751 308.668,365.791 288.017,397.836 " fill="none" id="Board-Result" style="stroke: #A80036; stroke-width: 1.0;"/><polygon fill="#A80036" points="280.876,408.916,289.1139,403.5182,283.5848,404.7133,282.3896,399.1841,280.876,408.916" style="stroke: #A80036; stroke-width: 1.0;"/><line style="stroke: #A80036; stroke-width: 1.0;" x1="283.5848" x2="287.9185" y1="404.7133" y2="397.989"/><polygon fill="#FFFFFF" points="363.254,281.088,356.6416,283.9648,356.7539,291.1751,363.3663,288.2982,363.254,281.088" style="stroke: #A80036; stroke-width: 1.0;"/><text fill="#000000" font-family="sans-serif" font-size="13" lengthAdjust="spacingAndGlyphs" textLength="43" x="340" y="324.0669">results</text><text fill="#000000" font-family="sans-serif" font-size="13" lengthAdjust="spacingAndGlyphs" textLength="32" x="251.7507" y="398.111">0..10</text><!--MD5=[6e8433e42d71f9427401b78cd95c6f0c]
link Combination to Color--><path codeLine="93" d="M906.4574,222.5085 C906.4574,222.5085 911.047,302.824 913.456,344.984 " fill="none" id="Combination-Color" style="stroke: #A80036; stroke-width: 1.0;"/><polygon fill="#A80036" points="914.199,357.974,917.6792,348.7605,913.9138,352.9821,909.6922,349.2168,914.199,357.974" style="stroke: #A80036; stroke-width: 1.0;"/><line style="stroke: #A80036; stroke-width: 1.0;" x1="913.9138" x2="913.4565" y1="352.9821" y2="344.9955"/><polygon fill="#A80036" points="905.773,210.528,902.1217,216.7464,906.4574,222.5085,910.1087,216.2901,905.773,210.528" style="stroke: #A80036; stroke-width: 1.0;"/><text fill="#000000" font-family="sans-serif" font-size="13" lengthAdjust="spacingAndGlyphs" textLength="38" x="913" y="324.0669">colors</text><text fill="#000000" font-family="sans-serif" font-size="13" lengthAdjust="spacingAndGlyphs" textLength="8" x="905.5071" y="346.8733">4</text><!--MD5=[ed81d3472c9069d2de3c2f5cd308846f]
reverse link Combination to SecretCombination--><path codeLine="94" d="M876.942,229.291 C863.614,260.414 845.986,297.218 826,328 C798.893,369.75 760.787,412.007 732.838,440.802 " fill="none" id="Combination-backto-SecretCombination" style="stroke: #A80036; stroke-width: 1.0;"/><polygon fill="none" points="870.514,226.52,884.668,210.751,883.436,231.905,870.514,226.52" style="stroke: #A80036; stroke-width: 1.0;"/><!--MD5=[2f10888865b2f559cc24db01ac34cee3]
reverse link Combination to ProposedCombination--><path codeLine="95" d="M857.235,226.601 C828.353,262.327 787.891,304.188 742,328 C666.117,367.375 627.586,318.057 552,358 C517.886,376.028 488.409,408.486 468.27,434.954 " fill="none" id="Combination-backto-ProposedCombination" style="stroke: #A80036; stroke-width: 1.0;"/><polygon fill="none" points="851.832,222.146,869.668,210.705,862.86,230.771,851.832,222.146" style="stroke: #A80036; stroke-width: 1.0;"/><!--MD5=[03e1adeaed11e2ac298b9b43cd912fbb]
link ProposedCombination to Error--><path codeLine="96" d="M440,521.013 C440,557.93 440,612.088 440,653.642 " fill="none" id="ProposedCombination-to-Error" style="stroke: #A80036; stroke-width: 1.0; stroke-dasharray: 7.0,7.0;"/><polygon fill="#A80036" points="440,658.645,444,649.645,440,653.645,436,649.645,440,658.645" style="stroke: #A80036; stroke-width: 1.0;"/><!--MD5=[6615ceb231d486349684fcfc94d5200e]
link Combination to java.util.ArrayList--><path codeLine="98" d="M930.576,210.528 C968.636,277.504 1036,396.046 1066.37,449.501 " fill="none" id="Combination-to-java.util.ArrayList" style="stroke: #A80036; stroke-width: 1.0; stroke-dasharray: 7.0,7.0;"/><polygon fill="#A80036" points="1068.85,453.852,1067.8889,444.0501,1066.3831,449.5029,1060.9304,447.9971,1068.85,453.852" style="stroke: #A80036; stroke-width: 1.0;"/><!--MD5=[29abaabc9889eea7d3b52382534c77c3]
link Combination to java.util.List--><path codeLine="99" d="M982.126,210.573 C1033.86,245.867 1099.49,297.859 1142,358 C1161.61,385.748 1173.23,423.411 1179.34,448.876 " fill="none" id="Combination-to-java.util.List" style="stroke: #A80036; stroke-width: 1.0; stroke-dasharray: 7.0,7.0;"/><polygon fill="#A80036" points="1180.49,453.8,1182.3367,444.1258,1179.352,448.9312,1174.5467,445.9466,1180.49,453.8" style="stroke: #A80036; stroke-width: 1.0;"/><!--MD5=[a400280f239679617f5caf2d3ace3e1b]
@startuml
package com.models {


class Board {
  - {static} {final} int MAX_ATTEMPS = 10;
  - SecretCombination secretCombination;
  - ProposedCombination[] proposedCombinations;
  - Result[] results;
  -  int attempts;
  int attempts;
  ~ Board()
  + add(ProposedCombination): void
  + isFinished() : boolean
  + isWinner() : boolean
  - isLooser() : boolean
  + getResults(int i): Result
  + getProposedCombinations(int i): ProposedCombination
  + getAttemps(): int
  + getSecretCombination(): SecretCombination
}

abstract class Combination {
	~ Combination ()
	# List<Color> colors: 
	+ getColors(): List<Color> 
	+ setColors(List<Color>)
}

class SecretCombination {
	~ SecretCombination()
	getResult(ProposedCombination): Result
}

class ProposedCombination {
	- checkError(String) : Error
	contains(Color, int) : boolean
	contains(Color) : boolean
}

class Result{
	+ {static} {fina} int WIDTH = 4;
	- int blacks
	- int whites
	~ Result(int, int)
	isWinner(): boolean
	+ getWhites() : int
	+ getBlacks() : int
}


enum Color {
	RED
	BLUE
	YELLOW
	GREEN
	ORANGE
	PURPLE
	NULL_COLOR
	- char initial;
	- Color()
	- Color(char)
	{static} String getInitials()
	{static} int length()
	{static} Color get(int)
	boolean isNull()
	+ char getInitial()
}

enum Error {
	DUPLICATED
	WRONG_CHARACTERS
	WRONG_LENGTH
	NULL_ERROR
	+ boolean isNull()

}

class  com.models.State{
- stateValue: StateValue
+ State()
+ next(): void
+ reset(): void
+ getValueState(): StateValue
}

com.models.State *-down-> com.models.StateValue


Board *-down-> SecretCombination : secretCombination
Board o-down-> "0..10" ProposedCombination : proposedCombinations
Board o-down-> "0..10" Result : results

Combination *-down-> "4" Color : colors
Combination <|-down- SecretCombination
Combination <|-down- ProposedCombination
ProposedCombination .down.> Error

Combination ..> java.util.ArrayList
Combination ..> java.util.List

}

package java.util {
    class List
    class ArrayList

}
@enduml

PlantUML version 1.2020.20beta2(Unknown compile time)
(GPL source distribution)
Java Runtime: Java(TM) SE Runtime Environment
JVM: Java HotSpot(TM) 64-Bit Server VM
Default Encoding: UTF-8
Language: en
Country: US
--></g></svg>