<?xml version="1.0" encoding="UTF-8" standalone="no"?><svg xmlns="http://www.w3.org/2000/svg" xmlns:xlink="http://www.w3.org/1999/xlink" contentScriptType="application/ecmascript" contentStyleType="text/css" height="401px" preserveAspectRatio="none" style="width:678px;height:401px;" version="1.1" viewBox="0 0 678 401" width="678px" zoomAndPan="magnify"><defs><filter height="300%" id="f1a9zk78oklzyr" width="300%" x="-1" y="-1"><feGaussianBlur result="blurOut" stdDeviation="2.0"/><feColorMatrix in="blurOut" result="blurOut2" type="matrix" values="0 0 0 0 0 0 0 0 0 0 0 0 0 0 0 0 0 0 .4 0"/><feOffset dx="4.0" dy="4.0" in="blurOut2" result="blurOut3"/><feBlend in="SourceGraphic" in2="blurOut3" mode="normal"/></filter></defs><g><!--MD5=[e83acf53252e5e6f992a589437172ba6]
cluster com.views--><polygon fill="#FFFFFF" filter="url(#f1a9zk78oklzyr)" points="26,6,116,6,123,28.2969,661,28.2969,661,271,26,271,26,6" style="stroke: #000000; stroke-width: 1.5;"/><line style="stroke: #000000; stroke-width: 1.5;" x1="26" x2="123" y1="28.2969" y2="28.2969"/><text fill="#000000" font-family="sans-serif" font-size="14" font-weight="bold" lengthAdjust="spacingAndGlyphs" textLength="84" x="30" y="20.9951">com.views</text><!--MD5=[cc15223dad906424482237695d0c4da8]
cluster com.controllers--><polygon fill="#FFFFFF" filter="url(#f1a9zk78oklzyr)" points="16,295,150,295,157,317.2969,311,317.2969,311,394,16,394,16,295" style="stroke: #000000; stroke-width: 1.5;"/><line style="stroke: #000000; stroke-width: 1.5;" x1="16" x2="157" y1="317.2969" y2="317.2969"/><text fill="#000000" font-family="sans-serif" font-size="14" font-weight="bold" lengthAdjust="spacingAndGlyphs" textLength="128" x="20" y="309.9951">com.controllers</text><!--MD5=[b3c4fa56fc4050e12935ef94e0e29ab6]
class com.views.ErrorView--><rect codeLine="1" fill="#FEFECE" filter="url(#f1a9zk78oklzyr)" height="86.4141" id="com.views.ErrorView" style="stroke: #A80036; stroke-width: 1.5;" width="138" x="507" y="105"/><ellipse cx="543.15" cy="121" fill="#ADD1B2" rx="11" ry="11" style="stroke: #A80036; stroke-width: 1.0;"/><path d="M545.4938,116.6719 C544.5563,116.2344 543.9625,116.0938 543.0875,116.0938 C540.4625,116.0938 538.4625,118.1719 538.4625,120.8906 L538.4625,122.0156 C538.4625,124.5938 540.5719,126.4844 543.4625,126.4844 C544.6813,126.4844 545.8375,126.1875 546.5875,125.6406 C547.1656,125.2344 547.4938,124.7813 547.4938,124.3906 C547.4938,123.9375 547.1031,123.5469 546.6344,123.5469 C546.4156,123.5469 546.2125,123.625 546.025,123.8125 C545.5719,124.2969 545.5719,124.2969 545.3844,124.3906 C544.9625,124.6563 544.275,124.7813 543.5094,124.7813 C541.4625,124.7813 540.1656,123.6875 540.1656,121.9844 L540.1656,120.8906 C540.1656,119.1094 541.4156,117.7969 543.15,117.7969 C543.7281,117.7969 544.3375,117.9531 544.8063,118.2031 C545.2906,118.4844 545.4625,118.7031 545.5563,119.1094 C545.6188,119.5156 545.65,119.6406 545.7906,119.7656 C545.9313,119.9063 546.1656,120.0156 546.3844,120.0156 C546.65,120.0156 546.9156,119.875 547.0875,119.6563 C547.1969,119.5 547.2281,119.3125 547.2281,118.8906 L547.2281,117.4688 C547.2281,117.0313 547.2125,116.9063 547.1188,116.75 C546.9625,116.4844 546.6813,116.3438 546.3844,116.3438 C546.0875,116.3438 545.8844,116.4375 545.6656,116.75 L545.4938,116.6719 Z "/><text fill="#000000" font-family="sans-serif" font-size="12" lengthAdjust="spacingAndGlyphs" textLength="59" x="561.85" y="125.1543">ErrorView</text><line style="stroke: #A80036; stroke-width: 1.5;" x1="508" x2="644" y1="137" y2="137"/><ellipse cx="518" cy="148" fill="none" rx="3" ry="3" style="stroke: #038048; stroke-width: 1.0;"/><text fill="#000000" font-family="sans-serif" font-size="11" lengthAdjust="spacingAndGlyphs" text-decoration="underline" textLength="112" x="527" y="151.2104">MESSAGES: String[]</text><polygon fill="none" points="518,155.8047,522,159.8047,518,163.8047,514,159.8047" style="stroke: #B38D22; stroke-width: 1.0;"/><text fill="#000000" font-family="sans-serif" font-size="11" lengthAdjust="spacingAndGlyphs" textLength="60" x="527" y="164.0151">error: Error</text><line style="stroke: #A80036; stroke-width: 1.5;" x1="508" x2="644" y1="170.6094" y2="170.6094"/><ellipse cx="518" cy="181.6094" fill="#84BE84" rx="3" ry="3" style="stroke: #038048; stroke-width: 1.0;"/><text fill="#000000" font-family="sans-serif" font-size="11" lengthAdjust="spacingAndGlyphs" textLength="88" x="527" y="184.8198">ErrorView(Error)</text><!--MD5=[173a4c62e52a3982e8161193ff2a2600]
class com.views.Message--><rect codeLine="7" fill="#FEFECE" filter="url(#f1a9zk78oklzyr)" height="214.4609" id="com.views.Message" style="stroke: #A80036; stroke-width: 1.5;" width="231" x="240.5" y="41"/><ellipse cx="324.25" cy="57" fill="#EB937F" rx="11" ry="11" style="stroke: #A80036; stroke-width: 1.0;"/><path d="M323.0469,57.875 L324.5,57.875 L324.5,57.9844 C324.5,58.3906 324.5313,58.5469 324.6094,58.7031 C324.7656,58.9531 325.0469,59.1094 325.3438,59.1094 C325.5938,59.1094 325.8594,58.9688 326.0156,58.75 C326.1406,58.5938 326.1719,58.4375 326.1719,57.9844 L326.1719,56.0625 C326.1719,55.9063 326.1719,55.8594 326.1563,55.7031 C326.0938,55.2344 325.7813,54.9219 325.3281,54.9219 C325.0781,54.9219 324.8125,55.0625 324.6406,55.2813 C324.5313,55.4531 324.5,55.6094 324.5,56.0625 L324.5,56.1875 L323.0469,56.1875 L323.0469,53.7813 L327.0313,53.7813 L327.0313,54.6406 C327.0313,55.0469 327.0625,55.2188 327.1406,55.375 C327.3125,55.625 327.5938,55.7813 327.875,55.7813 C328.1406,55.7813 328.4063,55.6406 328.5781,55.4219 C328.6875,55.25 328.7188,55.1094 328.7188,54.6406 L328.7188,52.0938 L321.0938,52.0938 C320.6563,52.0938 320.5313,52.1094 320.375,52.2031 C320.125,52.3594 319.9688,52.6563 319.9688,52.9375 C319.9688,53.2188 320.1094,53.4688 320.3281,53.6406 C320.4844,53.75 320.6719,53.7813 321.0938,53.7813 L321.3438,53.7813 L321.3438,60.2969 L321.0938,60.2969 C320.6875,60.2969 320.5313,60.3125 320.375,60.4219 C320.125,60.5938 319.9688,60.8594 319.9688,61.1563 C319.9688,61.4219 320.1094,61.6719 320.3281,61.8281 C320.4688,61.9531 320.7031,62 321.0938,62 L329.0938,62 L329.0938,59.4219 C329.0938,58.9844 329.0625,58.8438 328.9844,58.6875 C328.8125,58.4375 328.5313,58.2813 328.25,58.2813 C327.9844,58.2813 327.7188,58.3906 327.5469,58.6406 C327.4375,58.7969 327.4063,58.9375 327.4063,59.4219 L327.4063,60.2969 L323.0469,60.2969 L323.0469,57.875 Z "/><text fill="#000000" font-family="sans-serif" font-size="12" lengthAdjust="spacingAndGlyphs" textLength="55" x="344.75" y="61.1543">Message</text><line style="stroke: #A80036; stroke-width: 1.5;" x1="241.5" x2="470.5" y1="73" y2="73"/><ellipse cx="251.5" cy="84" fill="none" rx="3" ry="3" style="stroke: #038048; stroke-width: 1.0;"/><text fill="#000000" font-family="sans-serif" font-size="11" lengthAdjust="spacingAndGlyphs" textLength="117" x="260.5" y="87.2104">ATTEMPTS: Message</text><ellipse cx="251.5" cy="96.8047" fill="none" rx="3" ry="3" style="stroke: #038048; stroke-width: 1.0;"/><text fill="#000000" font-family="sans-serif" font-size="11" lengthAdjust="spacingAndGlyphs" textLength="102" x="260.5" y="100.0151">SECRET: Message</text><ellipse cx="251.5" cy="109.6094" fill="none" rx="3" ry="3" style="stroke: #038048; stroke-width: 1.0;"/><text fill="#000000" font-family="sans-serif" font-size="11" lengthAdjust="spacingAndGlyphs" textLength="104" x="260.5" y="112.8198">RESUME: Message</text><ellipse cx="251.5" cy="122.4141" fill="none" rx="3" ry="3" style="stroke: #038048; stroke-width: 1.0;"/><text fill="#000000" font-family="sans-serif" font-size="11" lengthAdjust="spacingAndGlyphs" textLength="101" x="260.5" y="125.6245">RESULT: Message</text><ellipse cx="251.5" cy="135.2188" fill="none" rx="3" ry="3" style="stroke: #038048; stroke-width: 1.0;"/><text fill="#000000" font-family="sans-serif" font-size="11" lengthAdjust="spacingAndGlyphs" textLength="205" x="260.5" y="138.4292">PROPOSED_COMBINATION: Message</text><ellipse cx="251.5" cy="148.0234" fill="none" rx="3" ry="3" style="stroke: #038048; stroke-width: 1.0;"/><text fill="#000000" font-family="sans-serif" font-size="11" lengthAdjust="spacingAndGlyphs" textLength="88" x="260.5" y="151.2339">TITLE: Message</text><ellipse cx="251.5" cy="160.8281" fill="none" rx="3" ry="3" style="stroke: #038048; stroke-width: 1.0;"/><text fill="#000000" font-family="sans-serif" font-size="11" lengthAdjust="spacingAndGlyphs" textLength="102" x="260.5" y="164.0386">WINNER: Message</text><ellipse cx="251.5" cy="173.6328" fill="none" rx="3" ry="3" style="stroke: #038048; stroke-width: 1.0;"/><text fill="#000000" font-family="sans-serif" font-size="11" lengthAdjust="spacingAndGlyphs" textLength="104" x="260.5" y="176.8433">LOOSER: Message</text><line style="stroke: #A80036; stroke-width: 1.5;" x1="241.5" x2="470.5" y1="183.4375" y2="183.4375"/><polygon fill="#4177AF" points="251.5,190.4375,247.5,196.4375,255.5,196.4375" style="stroke: #1963A0; stroke-width: 1.0;"/><text fill="#000000" font-family="sans-serif" font-size="11" lengthAdjust="spacingAndGlyphs" textLength="92" x="260.5" y="197.6479">Message(String)</text><ellipse cx="251.5" cy="207.2422" fill="#84BE84" rx="3" ry="3" style="stroke: #038048; stroke-width: 1.0;"/><text fill="#000000" font-family="sans-serif" font-size="11" lengthAdjust="spacingAndGlyphs" textLength="67" x="260.5" y="210.4526">write(): void</text><ellipse cx="251.5" cy="220.0469" fill="#84BE84" rx="3" ry="3" style="stroke: #038048; stroke-width: 1.0;"/><text fill="#000000" font-family="sans-serif" font-size="11" lengthAdjust="spacingAndGlyphs" textLength="77" x="260.5" y="223.2573">writeln(): void</text><ellipse cx="251.5" cy="232.8516" fill="#84BE84" rx="3" ry="3" style="stroke: #038048; stroke-width: 1.0;"/><text fill="#000000" font-family="sans-serif" font-size="11" lengthAdjust="spacingAndGlyphs" textLength="91" x="260.5" y="236.062">writeln(int): void</text><ellipse cx="251.5" cy="245.6563" fill="#84BE84" rx="3" ry="3" style="stroke: #038048; stroke-width: 1.0;"/><text fill="#000000" font-family="sans-serif" font-size="11" lengthAdjust="spacingAndGlyphs" textLength="102" x="260.5" y="248.8667">write(int, int): void</text><!--MD5=[4e4b69ff03f558308117a21ae810a87e]
class com.views.View--><rect codeLine="24" fill="#FEFECE" filter="url(#f1a9zk78oklzyr)" height="60.8047" id="com.views.View" style="stroke: #A80036; stroke-width: 1.5;" width="163" x="42.5" y="117.5"/><ellipse cx="105.25" cy="133.5" fill="#ADD1B2" rx="11" ry="11" style="stroke: #A80036; stroke-width: 1.0;"/><path d="M107.5938,129.1719 C106.6563,128.7344 106.0625,128.5938 105.1875,128.5938 C102.5625,128.5938 100.5625,130.6719 100.5625,133.3906 L100.5625,134.5156 C100.5625,137.0938 102.6719,138.9844 105.5625,138.9844 C106.7813,138.9844 107.9375,138.6875 108.6875,138.1406 C109.2656,137.7344 109.5938,137.2813 109.5938,136.8906 C109.5938,136.4375 109.2031,136.0469 108.7344,136.0469 C108.5156,136.0469 108.3125,136.125 108.125,136.3125 C107.6719,136.7969 107.6719,136.7969 107.4844,136.8906 C107.0625,137.1563 106.375,137.2813 105.6094,137.2813 C103.5625,137.2813 102.2656,136.1875 102.2656,134.4844 L102.2656,133.3906 C102.2656,131.6094 103.5156,130.2969 105.25,130.2969 C105.8281,130.2969 106.4375,130.4531 106.9063,130.7031 C107.3906,130.9844 107.5625,131.2031 107.6563,131.6094 C107.7188,132.0156 107.75,132.1406 107.8906,132.2656 C108.0313,132.4063 108.2656,132.5156 108.4844,132.5156 C108.75,132.5156 109.0156,132.375 109.1875,132.1563 C109.2969,132 109.3281,131.8125 109.3281,131.3906 L109.3281,129.9688 C109.3281,129.5313 109.3125,129.4063 109.2188,129.25 C109.0625,128.9844 108.7813,128.8438 108.4844,128.8438 C108.1875,128.8438 107.9844,128.9375 107.7656,129.25 L107.5938,129.1719 Z "/><text fill="#000000" font-family="sans-serif" font-size="12" lengthAdjust="spacingAndGlyphs" textLength="29" x="125.75" y="137.6543">View</text><line style="stroke: #A80036; stroke-width: 1.5;" x1="43.5" x2="204.5" y1="149.5" y2="149.5"/><line style="stroke: #A80036; stroke-width: 1.5;" x1="43.5" x2="204.5" y1="157.5" y2="157.5"/><ellipse cx="53.5" cy="168.5" fill="#84BE84" rx="3" ry="3" style="stroke: #038048; stroke-width: 1.0;"/><text fill="#000000" font-family="sans-serif" font-size="11" lengthAdjust="spacingAndGlyphs" textLength="137" x="62.5" y="171.7104">interact(Controller): void</text><!--MD5=[61ebf5587ca724e138f61f43eb76e85e]
class com.controllers.ControllersVisitor--><rect fill="#FEFECE" filter="url(#f1a9zk78oklzyr)" height="48" id="com.controllers.ControllersVisitor" style="stroke: #A80036; stroke-width: 1.5;" width="136" x="159" y="330"/><ellipse cx="174" cy="346" fill="#ADD1B2" rx="11" ry="11" style="stroke: #A80036; stroke-width: 1.0;"/><path d="M176.3438,341.6719 C175.4063,341.2344 174.8125,341.0938 173.9375,341.0938 C171.3125,341.0938 169.3125,343.1719 169.3125,345.8906 L169.3125,347.0156 C169.3125,349.5938 171.4219,351.4844 174.3125,351.4844 C175.5313,351.4844 176.6875,351.1875 177.4375,350.6406 C178.0156,350.2344 178.3438,349.7813 178.3438,349.3906 C178.3438,348.9375 177.9531,348.5469 177.4844,348.5469 C177.2656,348.5469 177.0625,348.625 176.875,348.8125 C176.4219,349.2969 176.4219,349.2969 176.2344,349.3906 C175.8125,349.6563 175.125,349.7813 174.3594,349.7813 C172.3125,349.7813 171.0156,348.6875 171.0156,346.9844 L171.0156,345.8906 C171.0156,344.1094 172.2656,342.7969 174,342.7969 C174.5781,342.7969 175.1875,342.9531 175.6563,343.2031 C176.1406,343.4844 176.3125,343.7031 176.4063,344.1094 C176.4688,344.5156 176.5,344.6406 176.6406,344.7656 C176.7813,344.9063 177.0156,345.0156 177.2344,345.0156 C177.5,345.0156 177.7656,344.875 177.9375,344.6563 C178.0469,344.5 178.0781,344.3125 178.0781,343.8906 L178.0781,342.4688 C178.0781,342.0313 178.0625,341.9063 177.9688,341.75 C177.8125,341.4844 177.5313,341.3438 177.2344,341.3438 C176.9375,341.3438 176.7344,341.4375 176.5156,341.75 L176.3438,341.6719 Z "/><text fill="#000000" font-family="sans-serif" font-size="12" lengthAdjust="spacingAndGlyphs" textLength="104" x="188" y="350.1543">ControllersVisitor</text><line style="stroke: #A80036; stroke-width: 1.5;" x1="160" x2="294" y1="362" y2="362"/><line style="stroke: #A80036; stroke-width: 1.5;" x1="160" x2="294" y1="370" y2="370"/><!--MD5=[0930c0e587ad373606b07eda6dbc2ee0]
class com.controllers.Controller--><rect fill="#FEFECE" filter="url(#f1a9zk78oklzyr)" height="48" id="com.controllers.Controller" style="stroke: #A80036; stroke-width: 1.5;" width="91" x="32.5" y="330"/><ellipse cx="47.5" cy="346" fill="#ADD1B2" rx="11" ry="11" style="stroke: #A80036; stroke-width: 1.0;"/><path d="M49.8438,341.6719 C48.9063,341.2344 48.3125,341.0938 47.4375,341.0938 C44.8125,341.0938 42.8125,343.1719 42.8125,345.8906 L42.8125,347.0156 C42.8125,349.5938 44.9219,351.4844 47.8125,351.4844 C49.0313,351.4844 50.1875,351.1875 50.9375,350.6406 C51.5156,350.2344 51.8438,349.7813 51.8438,349.3906 C51.8438,348.9375 51.4531,348.5469 50.9844,348.5469 C50.7656,348.5469 50.5625,348.625 50.375,348.8125 C49.9219,349.2969 49.9219,349.2969 49.7344,349.3906 C49.3125,349.6563 48.625,349.7813 47.8594,349.7813 C45.8125,349.7813 44.5156,348.6875 44.5156,346.9844 L44.5156,345.8906 C44.5156,344.1094 45.7656,342.7969 47.5,342.7969 C48.0781,342.7969 48.6875,342.9531 49.1563,343.2031 C49.6406,343.4844 49.8125,343.7031 49.9063,344.1094 C49.9688,344.5156 50,344.6406 50.1406,344.7656 C50.2813,344.9063 50.5156,345.0156 50.7344,345.0156 C51,345.0156 51.2656,344.875 51.4375,344.6563 C51.5469,344.5 51.5781,344.3125 51.5781,343.8906 L51.5781,342.4688 C51.5781,342.0313 51.5625,341.9063 51.4688,341.75 C51.3125,341.4844 51.0313,341.3438 50.7344,341.3438 C50.4375,341.3438 50.2344,341.4375 50.0156,341.75 L49.8438,341.6719 Z "/><text fill="#000000" font-family="sans-serif" font-size="12" lengthAdjust="spacingAndGlyphs" textLength="59" x="61.5" y="350.1543">Controller</text><line style="stroke: #A80036; stroke-width: 1.5;" x1="33.5" x2="122.5" y1="362" y2="362"/><line style="stroke: #A80036; stroke-width: 1.5;" x1="33.5" x2="122.5" y1="370" y2="370"/><!--MD5=[e82ae357ac59503d7a7b5834f3d19076]
reverse link com.controllers.ControllersVisitor to com.views.View--><path codeLine="27" d="M206.326,312.0532 C186.398,272.583 156.726,213.816 138.977,178.663 " fill="none" id="com.controllers.ControllersVisitor-backto-com.views.View" style="stroke: #A80036; stroke-width: 1.0;"/><polygon fill="none" points="212.594,308.937,215.359,329.945,200.097,315.2465,212.594,308.937" style="stroke: #A80036; stroke-width: 1.0;"/><!--MD5=[37e8e374a275c6caf1648d726fd92e94]
link com.views.View to com.controllers.Controller--><path codeLine="28" d="M117.311,178.663 C108.464,217.899 92.9823,286.557 84.3226,324.9605 " fill="none" id="com.views.View-to-com.controllers.Controller" style="stroke: #A80036; stroke-width: 1.0; stroke-dasharray: 7.0,7.0;"/><polygon fill="#A80036" points="83.1987,329.945,89.0805,322.0454,84.2986,325.0675,81.2765,320.2855,83.1987,329.945" style="stroke: #A80036; stroke-width: 1.0;"/><!--MD5=[b7d41d9183d1e82ba9b75852d19c92e3]
@startuml
class  com.views.ErrorView{
+ {static} MESSAGES: String[]
# error: Error
+ ErrorView(Error)
}

enum  com.views.Message{
+ ATTEMPTS: Message
+ SECRET: Message
+ RESUME: Message
+ RESULT: Message
+ PROPOSED_COMBINATION: Message
+ TITLE: Message
+ WINNER: Message
+ LOOSER: Message
~ Message(String)
+ write(): void
+ writeln(): void
+ writeln(int): void
+ write(int, int): void
}


class  com.views.View{
+ interact(Controller): void
}
com.controllers.ControllersVisitor <|-down- com.views.View
com.views.View ..> com.controllers.Controller
@enduml

PlantUML version 1.2020.20beta2(Unknown compile time)
(GPL source distribution)
Java Runtime: Java(TM) SE Runtime Environment
JVM: Java HotSpot(TM) 64-Bit Server VM
Default Encoding: UTF-8
Language: en
Country: US
--></g></svg>