<?xml version="1.0" encoding="UTF-8" standalone="no"?><svg xmlns="http://www.w3.org/2000/svg" xmlns:xlink="http://www.w3.org/1999/xlink" contentScriptType="application/ecmascript" contentStyleType="text/css" height="802px" preserveAspectRatio="none" style="width:1090px;height:802px;" version="1.1" viewBox="0 0 1090 802" width="1090px" zoomAndPan="magnify"><defs><filter height="300%" id="fkz65yar3ldyv" width="300%" x="-1" y="-1"><feGaussianBlur result="blurOut" stdDeviation="2.0"/><feColorMatrix in="blurOut" result="blurOut2" type="matrix" values="0 0 0 0 0 0 0 0 0 0 0 0 0 0 0 0 0 0 .4 0"/><feOffset dx="4.0" dy="4.0" in="blurOut2" result="blurOut3"/><feBlend in="SourceGraphic" in2="blurOut3" mode="normal"/></filter></defs><g><!--MD5=[cc15223dad906424482237695d0c4da8]
cluster com.controllers--><polygon fill="#FFFFFF" filter="url(#fkz65yar3ldyv)" points="16,6,150,6,157,28.2969,625,28.2969,625,672,16,672,16,6" style="stroke: #000000; stroke-width: 1.5;"/><line style="stroke: #000000; stroke-width: 1.5;" x1="16" x2="157" y1="28.2969" y2="28.2969"/><text fill="#000000" font-family="sans-serif" font-size="14" font-weight="bold" lengthAdjust="spacingAndGlyphs" textLength="128" x="20" y="20.9951">com.controllers</text><!--MD5=[b95032ff59720514854eb7a92b6b0ae3]
cluster com.models--><polygon fill="#FFFFFF" filter="url(#fkz65yar3ldyv)" points="448,696,551,696,558,718.2969,976,718.2969,976,795,448,795,448,696" style="stroke: #000000; stroke-width: 1.5;"/><line style="stroke: #000000; stroke-width: 1.5;" x1="448" x2="558" y1="718.2969" y2="718.2969"/><text fill="#000000" font-family="sans-serif" font-size="14" font-weight="bold" lengthAdjust="spacingAndGlyphs" textLength="97" x="452" y="710.9951">com.models</text><!--MD5=[7db3c59d38ae5b37b484eb2df9368145]
cluster java.util--><polygon fill="#FFFFFF" filter="url(#fkz65yar3ldyv)" points="983,203.5,1056,203.5,1063,225.7969,1073,225.7969,1073,302.5,983,302.5,983,203.5" style="stroke: #000000; stroke-width: 1.5;"/><line style="stroke: #000000; stroke-width: 1.5;" x1="983" x2="1063" y1="225.7969" y2="225.7969"/><text fill="#000000" font-family="sans-serif" font-size="14" font-weight="bold" lengthAdjust="spacingAndGlyphs" textLength="67" x="987" y="218.4951">java.util</text><!--MD5=[0930c0e587ad373606b07eda6dbc2ee0]
class com.controllers.Controller--><rect codeLine="1" fill="#FEFECE" filter="url(#fkz65yar3ldyv)" height="99.2188" id="com.controllers.Controller" style="stroke: #A80036; stroke-width: 1.5;" width="201" x="378.5" y="213"/><ellipse cx="445.25" cy="229" fill="#ADD1B2" rx="11" ry="11" style="stroke: #A80036; stroke-width: 1.0;"/><path d="M447.5938,224.6719 C446.6563,224.2344 446.0625,224.0938 445.1875,224.0938 C442.5625,224.0938 440.5625,226.1719 440.5625,228.8906 L440.5625,230.0156 C440.5625,232.5938 442.6719,234.4844 445.5625,234.4844 C446.7813,234.4844 447.9375,234.1875 448.6875,233.6406 C449.2656,233.2344 449.5938,232.7813 449.5938,232.3906 C449.5938,231.9375 449.2031,231.5469 448.7344,231.5469 C448.5156,231.5469 448.3125,231.625 448.125,231.8125 C447.6719,232.2969 447.6719,232.2969 447.4844,232.3906 C447.0625,232.6563 446.375,232.7813 445.6094,232.7813 C443.5625,232.7813 442.2656,231.6875 442.2656,229.9844 L442.2656,228.8906 C442.2656,227.1094 443.5156,225.7969 445.25,225.7969 C445.8281,225.7969 446.4375,225.9531 446.9063,226.2031 C447.3906,226.4844 447.5625,226.7031 447.6563,227.1094 C447.7188,227.5156 447.75,227.6406 447.8906,227.7656 C448.0313,227.9063 448.2656,228.0156 448.4844,228.0156 C448.75,228.0156 449.0156,227.875 449.1875,227.6563 C449.2969,227.5 449.3281,227.3125 449.3281,226.8906 L449.3281,225.4688 C449.3281,225.0313 449.3125,224.9063 449.2188,224.75 C449.0625,224.4844 448.7813,224.3438 448.4844,224.3438 C448.1875,224.3438 447.9844,224.4375 447.7656,224.75 L447.5938,224.6719 Z "/><text fill="#000000" font-family="sans-serif" font-size="12" lengthAdjust="spacingAndGlyphs" textLength="59" x="465.75" y="233.1543">Controller</text><line style="stroke: #A80036; stroke-width: 1.5;" x1="379.5" x2="578.5" y1="245" y2="245"/><polygon fill="none" points="389.5,251,393.5,255,389.5,259,385.5,255" style="stroke: #B38D22; stroke-width: 1.0;"/><text fill="#000000" font-family="sans-serif" font-size="11" lengthAdjust="spacingAndGlyphs" textLength="75" x="398.5" y="259.2104">game: Game</text><polygon fill="none" points="389.5,263.8047,393.5,267.8047,389.5,271.8047,385.5,267.8047" style="stroke: #B38D22; stroke-width: 1.0;"/><text fill="#000000" font-family="sans-serif" font-size="11" lengthAdjust="spacingAndGlyphs" textLength="67" x="398.5" y="272.0151">state: State</text><line style="stroke: #A80036; stroke-width: 1.5;" x1="379.5" x2="578.5" y1="278.6094" y2="278.6094"/><polygon fill="#4177AF" points="389.5,285.6094,385.5,291.6094,393.5,291.6094" style="stroke: #1963A0; stroke-width: 1.0;"/><text fill="#000000" font-family="sans-serif" font-size="11" lengthAdjust="spacingAndGlyphs" textLength="136" x="398.5" y="292.8198">Controller(Game, State)</text><ellipse cx="389.5" cy="302.4141" fill="#84BE84" rx="3" ry="3" style="stroke: #038048; stroke-width: 1.0;"/><text fill="#000000" font-family="sans-serif" font-size="11" font-style="italic" lengthAdjust="spacingAndGlyphs" textLength="175" x="398.5" y="305.6245">accept(ControllersVisitor): void</text><!--MD5=[61ebf5587ca724e138f61f43eb76e85e]
class com.controllers.ControllersVisitor--><rect codeLine="11" fill="#FEFECE" filter="url(#fkz65yar3ldyv)" height="73.6094" id="com.controllers.ControllersVisitor" style="stroke: #A80036; stroke-width: 1.5;" width="190" x="253" y="372"/><ellipse cx="292.3" cy="388" fill="#ADD1B2" rx="11" ry="11" style="stroke: #A80036; stroke-width: 1.0;"/><path d="M294.6438,383.6719 C293.7063,383.2344 293.1125,383.0938 292.2375,383.0938 C289.6125,383.0938 287.6125,385.1719 287.6125,387.8906 L287.6125,389.0156 C287.6125,391.5938 289.7219,393.4844 292.6125,393.4844 C293.8313,393.4844 294.9875,393.1875 295.7375,392.6406 C296.3156,392.2344 296.6438,391.7813 296.6438,391.3906 C296.6438,390.9375 296.2531,390.5469 295.7844,390.5469 C295.5656,390.5469 295.3625,390.625 295.175,390.8125 C294.7219,391.2969 294.7219,391.2969 294.5344,391.3906 C294.1125,391.6563 293.425,391.7813 292.6594,391.7813 C290.6125,391.7813 289.3156,390.6875 289.3156,388.9844 L289.3156,387.8906 C289.3156,386.1094 290.5656,384.7969 292.3,384.7969 C292.8781,384.7969 293.4875,384.9531 293.9563,385.2031 C294.4406,385.4844 294.6125,385.7031 294.7063,386.1094 C294.7688,386.5156 294.8,386.6406 294.9406,386.7656 C295.0813,386.9063 295.3156,387.0156 295.5344,387.0156 C295.8,387.0156 296.0656,386.875 296.2375,386.6563 C296.3469,386.5 296.3781,386.3125 296.3781,385.8906 L296.3781,384.4688 C296.3781,384.0313 296.3625,383.9063 296.2688,383.75 C296.1125,383.4844 295.8313,383.3438 295.5344,383.3438 C295.2375,383.3438 295.0344,383.4375 294.8156,383.75 L294.6438,383.6719 Z "/><text fill="#000000" font-family="sans-serif" font-size="12" lengthAdjust="spacingAndGlyphs" textLength="104" x="311.7" y="392.1543">ControllersVisitor</text><line style="stroke: #A80036; stroke-width: 1.5;" x1="254" x2="442" y1="404" y2="404"/><line style="stroke: #A80036; stroke-width: 1.5;" x1="254" x2="442" y1="412" y2="412"/><polygon fill="#4177AF" points="264,419,260,425,268,425" style="stroke: #1963A0; stroke-width: 1.0;"/><text fill="#000000" font-family="sans-serif" font-size="11" lengthAdjust="spacingAndGlyphs" textLength="164" x="273" y="426.2104">visit(ProposalController): void</text><polygon fill="#4177AF" points="264,431.8047,260,437.8047,268,437.8047" style="stroke: #1963A0; stroke-width: 1.0;"/><text fill="#000000" font-family="sans-serif" font-size="11" lengthAdjust="spacingAndGlyphs" textLength="164" x="273" y="439.0151">visit(ResumeController): void</text><!--MD5=[bde59fc6c19aae4f66c9ab2f75e92cdd]
class com.controllers.ResumeController--><rect codeLine="45" fill="#FEFECE" filter="url(#fkz65yar3ldyv)" height="86.4141" id="com.controllers.ResumeController" style="stroke: #A80036; stroke-width: 1.5;" width="209" x="32.5" y="538"/><ellipse cx="79.25" cy="554" fill="#ADD1B2" rx="11" ry="11" style="stroke: #A80036; stroke-width: 1.0;"/><path d="M81.5938,549.6719 C80.6563,549.2344 80.0625,549.0938 79.1875,549.0938 C76.5625,549.0938 74.5625,551.1719 74.5625,553.8906 L74.5625,555.0156 C74.5625,557.5938 76.6719,559.4844 79.5625,559.4844 C80.7813,559.4844 81.9375,559.1875 82.6875,558.6406 C83.2656,558.2344 83.5938,557.7813 83.5938,557.3906 C83.5938,556.9375 83.2031,556.5469 82.7344,556.5469 C82.5156,556.5469 82.3125,556.625 82.125,556.8125 C81.6719,557.2969 81.6719,557.2969 81.4844,557.3906 C81.0625,557.6563 80.375,557.7813 79.6094,557.7813 C77.5625,557.7813 76.2656,556.6875 76.2656,554.9844 L76.2656,553.8906 C76.2656,552.1094 77.5156,550.7969 79.25,550.7969 C79.8281,550.7969 80.4375,550.9531 80.9063,551.2031 C81.3906,551.4844 81.5625,551.7031 81.6563,552.1094 C81.7188,552.5156 81.75,552.6406 81.8906,552.7656 C82.0313,552.9063 82.2656,553.0156 82.4844,553.0156 C82.75,553.0156 83.0156,552.875 83.1875,552.6563 C83.2969,552.5 83.3281,552.3125 83.3281,551.8906 L83.3281,550.4688 C83.3281,550.0313 83.3125,549.9063 83.2188,549.75 C83.0625,549.4844 82.7813,549.3438 82.4844,549.3438 C82.1875,549.3438 81.9844,549.4375 81.7656,549.75 L81.5938,549.6719 Z "/><text fill="#000000" font-family="sans-serif" font-size="12" lengthAdjust="spacingAndGlyphs" textLength="107" x="99.75" y="558.1543">ResumeController</text><line style="stroke: #A80036; stroke-width: 1.5;" x1="33.5" x2="240.5" y1="570" y2="570"/><line style="stroke: #A80036; stroke-width: 1.5;" x1="33.5" x2="240.5" y1="578" y2="578"/><ellipse cx="43.5" cy="589" fill="#84BE84" rx="3" ry="3" style="stroke: #038048; stroke-width: 1.0;"/><text fill="#000000" font-family="sans-serif" font-size="11" lengthAdjust="spacingAndGlyphs" textLength="183" x="52.5" y="592.2104">ResumeController(Game, State)</text><ellipse cx="43.5" cy="601.8047" fill="#84BE84" rx="3" ry="3" style="stroke: #038048; stroke-width: 1.0;"/><text fill="#000000" font-family="sans-serif" font-size="11" lengthAdjust="spacingAndGlyphs" textLength="129" x="52.5" y="605.0151">resume(boolean): void</text><ellipse cx="43.5" cy="614.6094" fill="#84BE84" rx="3" ry="3" style="stroke: #038048; stroke-width: 1.0;"/><text fill="#000000" font-family="sans-serif" font-size="11" lengthAdjust="spacingAndGlyphs" textLength="173" x="52.5" y="617.8198">accept(ControllersVisitor): void</text><!--MD5=[b40cd2b78683de4e07acd5e4e0e94125]
class com.controllers.ProposalController--><rect codeLine="31" fill="#FEFECE" filter="url(#fkz65yar3ldyv)" height="150.4375" id="com.controllers.ProposalController" style="stroke: #A80036; stroke-width: 1.5;" width="332" x="277" y="506"/><ellipse cx="383.25" cy="522" fill="#ADD1B2" rx="11" ry="11" style="stroke: #A80036; stroke-width: 1.0;"/><path d="M385.5938,517.6719 C384.6563,517.2344 384.0625,517.0938 383.1875,517.0938 C380.5625,517.0938 378.5625,519.1719 378.5625,521.8906 L378.5625,523.0156 C378.5625,525.5938 380.6719,527.4844 383.5625,527.4844 C384.7813,527.4844 385.9375,527.1875 386.6875,526.6406 C387.2656,526.2344 387.5938,525.7813 387.5938,525.3906 C387.5938,524.9375 387.2031,524.5469 386.7344,524.5469 C386.5156,524.5469 386.3125,524.625 386.125,524.8125 C385.6719,525.2969 385.6719,525.2969 385.4844,525.3906 C385.0625,525.6563 384.375,525.7813 383.6094,525.7813 C381.5625,525.7813 380.2656,524.6875 380.2656,522.9844 L380.2656,521.8906 C380.2656,520.1094 381.5156,518.7969 383.25,518.7969 C383.8281,518.7969 384.4375,518.9531 384.9063,519.2031 C385.3906,519.4844 385.5625,519.7031 385.6563,520.1094 C385.7188,520.5156 385.75,520.6406 385.8906,520.7656 C386.0313,520.9063 386.2656,521.0156 386.4844,521.0156 C386.75,521.0156 387.0156,520.875 387.1875,520.6563 C387.2969,520.5 387.3281,520.3125 387.3281,519.8906 L387.3281,518.4688 C387.3281,518.0313 387.3125,517.9063 387.2188,517.75 C387.0625,517.4844 386.7813,517.3438 386.4844,517.3438 C386.1875,517.3438 385.9844,517.4375 385.7656,517.75 L385.5938,517.6719 Z "/><text fill="#000000" font-family="sans-serif" font-size="12" lengthAdjust="spacingAndGlyphs" textLength="111" x="403.75" y="526.1543">ProposalController</text><line style="stroke: #A80036; stroke-width: 1.5;" x1="278" x2="608" y1="538" y2="538"/><line style="stroke: #A80036; stroke-width: 1.5;" x1="278" x2="608" y1="546" y2="546"/><ellipse cx="288" cy="557" fill="#84BE84" rx="3" ry="3" style="stroke: #038048; stroke-width: 1.0;"/><text fill="#000000" font-family="sans-serif" font-size="11" lengthAdjust="spacingAndGlyphs" textLength="183" x="297" y="560.2104">ProposalController(Game, State)</text><ellipse cx="288" cy="569.8047" fill="#84BE84" rx="3" ry="3" style="stroke: #038048; stroke-width: 1.0;"/><text fill="#000000" font-family="sans-serif" font-size="11" lengthAdjust="spacingAndGlyphs" textLength="110" x="297" y="573.0151">isWinner(): boolean</text><ellipse cx="288" cy="582.6094" fill="#84BE84" rx="3" ry="3" style="stroke: #038048; stroke-width: 1.0;"/><text fill="#000000" font-family="sans-serif" font-size="11" lengthAdjust="spacingAndGlyphs" textLength="108" x="297" y="585.8198">isLooser(): boolean</text><ellipse cx="288" cy="595.4141" fill="#84BE84" rx="3" ry="3" style="stroke: #038048; stroke-width: 1.0;"/><text fill="#000000" font-family="sans-serif" font-size="11" lengthAdjust="spacingAndGlyphs" textLength="118" x="297" y="598.6245">getResult(int): Result</text><ellipse cx="288" cy="608.2188" fill="#84BE84" rx="3" ry="3" style="stroke: #038048; stroke-width: 1.0;"/><text fill="#000000" font-family="sans-serif" font-size="11" lengthAdjust="spacingAndGlyphs" textLength="294" x="297" y="611.4292">getProposedCombination(int): ProposedCombination</text><ellipse cx="288" cy="621.0234" fill="#84BE84" rx="3" ry="3" style="stroke: #038048; stroke-width: 1.0;"/><text fill="#000000" font-family="sans-serif" font-size="11" lengthAdjust="spacingAndGlyphs" textLength="100" x="297" y="624.2339">getAttempts(): int</text><ellipse cx="288" cy="633.8281" fill="#84BE84" rx="3" ry="3" style="stroke: #038048; stroke-width: 1.0;"/><text fill="#000000" font-family="sans-serif" font-size="11" lengthAdjust="spacingAndGlyphs" textLength="306" x="297" y="637.0386">addProposedCombination(ProposedCombination): void</text><ellipse cx="288" cy="646.6328" fill="#84BE84" rx="3" ry="3" style="stroke: #038048; stroke-width: 1.0;"/><text fill="#000000" font-family="sans-serif" font-size="11" lengthAdjust="spacingAndGlyphs" textLength="173" x="297" y="649.8433">accept(ControllersVisitor): void</text><!--MD5=[597bcf847d9dc816d3fd91def28a2705]
class com.controllers.Logic--><rect codeLine="18" fill="#FEFECE" filter="url(#fkz65yar3ldyv)" height="112.0234" id="com.controllers.Logic" style="stroke: #A80036; stroke-width: 1.5;" width="259" x="349.5" y="41"/><ellipse cx="458.75" cy="57" fill="#ADD1B2" rx="11" ry="11" style="stroke: #A80036; stroke-width: 1.0;"/><path d="M461.0938,52.6719 C460.1563,52.2344 459.5625,52.0938 458.6875,52.0938 C456.0625,52.0938 454.0625,54.1719 454.0625,56.8906 L454.0625,58.0156 C454.0625,60.5938 456.1719,62.4844 459.0625,62.4844 C460.2813,62.4844 461.4375,62.1875 462.1875,61.6406 C462.7656,61.2344 463.0938,60.7813 463.0938,60.3906 C463.0938,59.9375 462.7031,59.5469 462.2344,59.5469 C462.0156,59.5469 461.8125,59.625 461.625,59.8125 C461.1719,60.2969 461.1719,60.2969 460.9844,60.3906 C460.5625,60.6563 459.875,60.7813 459.1094,60.7813 C457.0625,60.7813 455.7656,59.6875 455.7656,57.9844 L455.7656,56.8906 C455.7656,55.1094 457.0156,53.7969 458.75,53.7969 C459.3281,53.7969 459.9375,53.9531 460.4063,54.2031 C460.8906,54.4844 461.0625,54.7031 461.1563,55.1094 C461.2188,55.5156 461.25,55.6406 461.3906,55.7656 C461.5313,55.9063 461.7656,56.0156 461.9844,56.0156 C462.25,56.0156 462.5156,55.875 462.6875,55.6563 C462.7969,55.5 462.8281,55.3125 462.8281,54.8906 L462.8281,53.4688 C462.8281,53.0313 462.8125,52.9063 462.7188,52.75 C462.5625,52.4844 462.2813,52.3438 461.9844,52.3438 C461.6875,52.3438 461.4844,52.4375 461.2656,52.75 L461.0938,52.6719 Z "/><text fill="#000000" font-family="sans-serif" font-size="12" lengthAdjust="spacingAndGlyphs" textLength="32" x="479.25" y="61.1543">Logic</text><line style="stroke: #A80036; stroke-width: 1.5;" x1="350.5" x2="607.5" y1="73" y2="73"/><rect fill="none" height="6" style="stroke: #C82930; stroke-width: 1.0;" width="6" x="357.5" y="81"/><text fill="#000000" font-family="sans-serif" font-size="11" lengthAdjust="spacingAndGlyphs" textLength="67" x="369.5" y="87.2104">state: State</text><rect fill="none" height="6" style="stroke: #C82930; stroke-width: 1.0;" width="6" x="357.5" y="93.8047"/><text fill="#000000" font-family="sans-serif" font-size="11" lengthAdjust="spacingAndGlyphs" textLength="75" x="369.5" y="100.0151">game: Game</text><rect fill="none" height="6" style="stroke: #C82930; stroke-width: 1.0;" width="6" x="357.5" y="106.6094"/><text fill="#000000" font-family="sans-serif" font-size="11" lengthAdjust="spacingAndGlyphs" textLength="233" x="369.5" y="112.8198">controllers: Map&lt;StateValue, Controller&gt;</text><line style="stroke: #A80036; stroke-width: 1.5;" x1="350.5" x2="607.5" y1="119.4141" y2="119.4141"/><ellipse cx="360.5" cy="130.4141" fill="#84BE84" rx="3" ry="3" style="stroke: #038048; stroke-width: 1.0;"/><text fill="#000000" font-family="sans-serif" font-size="11" lengthAdjust="spacingAndGlyphs" textLength="37" x="369.5" y="133.6245">Logic()</text><ellipse cx="360.5" cy="143.2188" fill="#84BE84" rx="3" ry="3" style="stroke: #038048; stroke-width: 1.0;"/><text fill="#000000" font-family="sans-serif" font-size="11" lengthAdjust="spacingAndGlyphs" textLength="144" x="369.5" y="146.4292">getController(): Controller</text><!--MD5=[774d1cec19cc617bb34cfe9176e0920d]
class com.models.Game--><rect fill="#FEFECE" filter="url(#fkz65yar3ldyv)" height="48" id="com.models.Game" style="stroke: #A80036; stroke-width: 1.5;" width="67" x="761.5" y="731"/><ellipse cx="776.5" cy="747" fill="#ADD1B2" rx="11" ry="11" style="stroke: #A80036; stroke-width: 1.0;"/><path d="M778.8438,742.6719 C777.9063,742.2344 777.3125,742.0938 776.4375,742.0938 C773.8125,742.0938 771.8125,744.1719 771.8125,746.8906 L771.8125,748.0156 C771.8125,750.5938 773.9219,752.4844 776.8125,752.4844 C778.0313,752.4844 779.1875,752.1875 779.9375,751.6406 C780.5156,751.2344 780.8438,750.7813 780.8438,750.3906 C780.8438,749.9375 780.4531,749.5469 779.9844,749.5469 C779.7656,749.5469 779.5625,749.625 779.375,749.8125 C778.9219,750.2969 778.9219,750.2969 778.7344,750.3906 C778.3125,750.6563 777.625,750.7813 776.8594,750.7813 C774.8125,750.7813 773.5156,749.6875 773.5156,747.9844 L773.5156,746.8906 C773.5156,745.1094 774.7656,743.7969 776.5,743.7969 C777.0781,743.7969 777.6875,743.9531 778.1563,744.2031 C778.6406,744.4844 778.8125,744.7031 778.9063,745.1094 C778.9688,745.5156 779,745.6406 779.1406,745.7656 C779.2813,745.9063 779.5156,746.0156 779.7344,746.0156 C780,746.0156 780.2656,745.875 780.4375,745.6563 C780.5469,745.5 780.5781,745.3125 780.5781,744.8906 L780.5781,743.4688 C780.5781,743.0313 780.5625,742.9063 780.4688,742.75 C780.3125,742.4844 780.0313,742.3438 779.7344,742.3438 C779.4375,742.3438 779.2344,742.4375 779.0156,742.75 L778.8438,742.6719 Z "/><text fill="#000000" font-family="sans-serif" font-size="12" lengthAdjust="spacingAndGlyphs" textLength="35" x="790.5" y="751.1543">Game</text><line style="stroke: #A80036; stroke-width: 1.5;" x1="762.5" x2="827.5" y1="763" y2="763"/><line style="stroke: #A80036; stroke-width: 1.5;" x1="762.5" x2="827.5" y1="771" y2="771"/><!--MD5=[997bdb3e77aba73dac6be0c86df09dcb]
class com.models.State--><rect fill="#FEFECE" filter="url(#fkz65yar3ldyv)" height="48" id="com.models.State" style="stroke: #A80036; stroke-width: 1.5;" width="63" x="663.5" y="731"/><ellipse cx="678.5" cy="747" fill="#ADD1B2" rx="11" ry="11" style="stroke: #A80036; stroke-width: 1.0;"/><path d="M680.8438,742.6719 C679.9063,742.2344 679.3125,742.0938 678.4375,742.0938 C675.8125,742.0938 673.8125,744.1719 673.8125,746.8906 L673.8125,748.0156 C673.8125,750.5938 675.9219,752.4844 678.8125,752.4844 C680.0313,752.4844 681.1875,752.1875 681.9375,751.6406 C682.5156,751.2344 682.8438,750.7813 682.8438,750.3906 C682.8438,749.9375 682.4531,749.5469 681.9844,749.5469 C681.7656,749.5469 681.5625,749.625 681.375,749.8125 C680.9219,750.2969 680.9219,750.2969 680.7344,750.3906 C680.3125,750.6563 679.625,750.7813 678.8594,750.7813 C676.8125,750.7813 675.5156,749.6875 675.5156,747.9844 L675.5156,746.8906 C675.5156,745.1094 676.7656,743.7969 678.5,743.7969 C679.0781,743.7969 679.6875,743.9531 680.1563,744.2031 C680.6406,744.4844 680.8125,744.7031 680.9063,745.1094 C680.9688,745.5156 681,745.6406 681.1406,745.7656 C681.2813,745.9063 681.5156,746.0156 681.7344,746.0156 C682,746.0156 682.2656,745.875 682.4375,745.6563 C682.5469,745.5 682.5781,745.3125 682.5781,744.8906 L682.5781,743.4688 C682.5781,743.0313 682.5625,742.9063 682.4688,742.75 C682.3125,742.4844 682.0313,742.3438 681.7344,742.3438 C681.4375,742.3438 681.2344,742.4375 681.0156,742.75 L680.8438,742.6719 Z "/><text fill="#000000" font-family="sans-serif" font-size="12" lengthAdjust="spacingAndGlyphs" textLength="31" x="692.5" y="751.1543">State</text><line style="stroke: #A80036; stroke-width: 1.5;" x1="664.5" x2="725.5" y1="763" y2="763"/><line style="stroke: #A80036; stroke-width: 1.5;" x1="664.5" x2="725.5" y1="771" y2="771"/><!--MD5=[8a66fd12afa45df59749ff8e19555f5b]
class com.models.StateValue--><rect fill="#FEFECE" filter="url(#fkz65yar3ldyv)" height="48" id="com.models.StateValue" style="stroke: #A80036; stroke-width: 1.5;" width="96" x="864" y="731"/><ellipse cx="879" cy="747" fill="#ADD1B2" rx="11" ry="11" style="stroke: #A80036; stroke-width: 1.0;"/><path d="M881.3438,742.6719 C880.4063,742.2344 879.8125,742.0938 878.9375,742.0938 C876.3125,742.0938 874.3125,744.1719 874.3125,746.8906 L874.3125,748.0156 C874.3125,750.5938 876.4219,752.4844 879.3125,752.4844 C880.5313,752.4844 881.6875,752.1875 882.4375,751.6406 C883.0156,751.2344 883.3438,750.7813 883.3438,750.3906 C883.3438,749.9375 882.9531,749.5469 882.4844,749.5469 C882.2656,749.5469 882.0625,749.625 881.875,749.8125 C881.4219,750.2969 881.4219,750.2969 881.2344,750.3906 C880.8125,750.6563 880.125,750.7813 879.3594,750.7813 C877.3125,750.7813 876.0156,749.6875 876.0156,747.9844 L876.0156,746.8906 C876.0156,745.1094 877.2656,743.7969 879,743.7969 C879.5781,743.7969 880.1875,743.9531 880.6563,744.2031 C881.1406,744.4844 881.3125,744.7031 881.4063,745.1094 C881.4688,745.5156 881.5,745.6406 881.6406,745.7656 C881.7813,745.9063 882.0156,746.0156 882.2344,746.0156 C882.5,746.0156 882.7656,745.875 882.9375,745.6563 C883.0469,745.5 883.0781,745.3125 883.0781,744.8906 L883.0781,743.4688 C883.0781,743.0313 883.0625,742.9063 882.9688,742.75 C882.8125,742.4844 882.5313,742.3438 882.2344,742.3438 C881.9375,742.3438 881.7344,742.4375 881.5156,742.75 L881.3438,742.6719 Z "/><text fill="#000000" font-family="sans-serif" font-size="12" lengthAdjust="spacingAndGlyphs" textLength="64" x="893" y="751.1543">StateValue</text><line style="stroke: #A80036; stroke-width: 1.5;" x1="865" x2="959" y1="763" y2="763"/><line style="stroke: #A80036; stroke-width: 1.5;" x1="865" x2="959" y1="771" y2="771"/><!--MD5=[adfcb4da0fc9b22ee3d9fbe48754ad99]
class com.models.ProposedCombination--><rect fill="#FEFECE" filter="url(#fkz65yar3ldyv)" height="48" id="com.models.ProposedCombination" style="stroke: #A80036; stroke-width: 1.5;" width="164" x="464" y="731"/><ellipse cx="479" cy="747" fill="#ADD1B2" rx="11" ry="11" style="stroke: #A80036; stroke-width: 1.0;"/><path d="M481.3438,742.6719 C480.4063,742.2344 479.8125,742.0938 478.9375,742.0938 C476.3125,742.0938 474.3125,744.1719 474.3125,746.8906 L474.3125,748.0156 C474.3125,750.5938 476.4219,752.4844 479.3125,752.4844 C480.5313,752.4844 481.6875,752.1875 482.4375,751.6406 C483.0156,751.2344 483.3438,750.7813 483.3438,750.3906 C483.3438,749.9375 482.9531,749.5469 482.4844,749.5469 C482.2656,749.5469 482.0625,749.625 481.875,749.8125 C481.4219,750.2969 481.4219,750.2969 481.2344,750.3906 C480.8125,750.6563 480.125,750.7813 479.3594,750.7813 C477.3125,750.7813 476.0156,749.6875 476.0156,747.9844 L476.0156,746.8906 C476.0156,745.1094 477.2656,743.7969 479,743.7969 C479.5781,743.7969 480.1875,743.9531 480.6563,744.2031 C481.1406,744.4844 481.3125,744.7031 481.4063,745.1094 C481.4688,745.5156 481.5,745.6406 481.6406,745.7656 C481.7813,745.9063 482.0156,746.0156 482.2344,746.0156 C482.5,746.0156 482.7656,745.875 482.9375,745.6563 C483.0469,745.5 483.0781,745.3125 483.0781,744.8906 L483.0781,743.4688 C483.0781,743.0313 483.0625,742.9063 482.9688,742.75 C482.8125,742.4844 482.5313,742.3438 482.2344,742.3438 C481.9375,742.3438 481.7344,742.4375 481.5156,742.75 L481.3438,742.6719 Z "/><text fill="#000000" font-family="sans-serif" font-size="12" lengthAdjust="spacingAndGlyphs" textLength="132" x="493" y="751.1543">ProposedCombination</text><line style="stroke: #A80036; stroke-width: 1.5;" x1="465" x2="627" y1="763" y2="763"/><line style="stroke: #A80036; stroke-width: 1.5;" x1="465" x2="627" y1="771" y2="771"/><!--MD5=[a8a83881b90490f923aa71f2c5ea5dc6]
class java.util.Map--><rect fill="#FEFECE" filter="url(#fkz65yar3ldyv)" height="48" id="java.util.Map" style="stroke: #A80036; stroke-width: 1.5;" width="57" x="999.5" y="238.5"/><ellipse cx="1014.5" cy="254.5" fill="#ADD1B2" rx="11" ry="11" style="stroke: #A80036; stroke-width: 1.0;"/><path d="M1016.8438,250.1719 C1015.9063,249.7344 1015.3125,249.5938 1014.4375,249.5938 C1011.8125,249.5938 1009.8125,251.6719 1009.8125,254.3906 L1009.8125,255.5156 C1009.8125,258.0938 1011.9219,259.9844 1014.8125,259.9844 C1016.0313,259.9844 1017.1875,259.6875 1017.9375,259.1406 C1018.5156,258.7344 1018.8438,258.2813 1018.8438,257.8906 C1018.8438,257.4375 1018.4531,257.0469 1017.9844,257.0469 C1017.7656,257.0469 1017.5625,257.125 1017.375,257.3125 C1016.9219,257.7969 1016.9219,257.7969 1016.7344,257.8906 C1016.3125,258.1563 1015.625,258.2813 1014.8594,258.2813 C1012.8125,258.2813 1011.5156,257.1875 1011.5156,255.4844 L1011.5156,254.3906 C1011.5156,252.6094 1012.7656,251.2969 1014.5,251.2969 C1015.0781,251.2969 1015.6875,251.4531 1016.1563,251.7031 C1016.6406,251.9844 1016.8125,252.2031 1016.9063,252.6094 C1016.9688,253.0156 1017,253.1406 1017.1406,253.2656 C1017.2813,253.4063 1017.5156,253.5156 1017.7344,253.5156 C1018,253.5156 1018.2656,253.375 1018.4375,253.1563 C1018.5469,253 1018.5781,252.8125 1018.5781,252.3906 L1018.5781,250.9688 C1018.5781,250.5313 1018.5625,250.4063 1018.4688,250.25 C1018.3125,249.9844 1018.0313,249.8438 1017.7344,249.8438 C1017.4375,249.8438 1017.2344,249.9375 1017.0156,250.25 L1016.8438,250.1719 Z "/><text fill="#000000" font-family="sans-serif" font-size="12" lengthAdjust="spacingAndGlyphs" textLength="25" x="1028.5" y="258.6543">Map</text><line style="stroke: #A80036; stroke-width: 1.5;" x1="1000.5" x2="1055.5" y1="270.5" y2="270.5"/><line style="stroke: #A80036; stroke-width: 1.5;" x1="1000.5" x2="1055.5" y1="278.5" y2="278.5"/><!--MD5=[9206204a83b416c032051e88d8017985]
link com.controllers.Controller to com.models.Game--><path codeLine="7" d="M541.27,312.171 C561.638,329.771 583.504,350.607 601,372 C696.23,488.441 762.068,659.299 785.524,725.9341 " fill="none" id="com.controllers.Controller-to-com.models.Game" style="stroke: #A80036; stroke-width: 1.0;"/><polygon fill="#A80036" points="787.27,730.9271,788.0739,721.1111,785.619,726.2075,780.5226,723.7527,787.27,730.9271" style="stroke: #A80036; stroke-width: 1.0;"/><!--MD5=[eb606d172ac3e9e5c67921da7c324af6]
link com.controllers.Controller to com.models.State--><path codeLine="8" d="M514.184,312.419 C546.983,359.921 595.32,435.055 626,506 C659.032,582.385 680.518,678.865 689.777,725.7893 " fill="none" id="com.controllers.Controller-to-com.models.State" style="stroke: #A80036; stroke-width: 1.0;"/><polygon fill="#A80036" points="690.741,730.7179,692.94,721.1177,689.7817,725.8108,685.0886,722.6525,690.741,730.7179" style="stroke: #A80036; stroke-width: 1.0;"/><!--MD5=[802b46ab21cc60cd83f9db8453b063fc]
link com.controllers.Controller to com.controllers.ControllersVisitor--><path codeLine="9" d="M435.014,312.018 C418.568,330.16 400.085,350.547 384.398,367.851 " fill="none" id="com.controllers.Controller-to-com.controllers.ControllersVisitor" style="stroke: #A80036; stroke-width: 1.0; stroke-dasharray: 7.0,7.0;"/><polygon fill="#A80036" points="380.889,371.722,389.8975,367.7413,384.2475,368.0178,383.9709,362.3678,380.889,371.722" style="stroke: #A80036; stroke-width: 1.0;"/><!--MD5=[187c4035c3e83990b74671fe7339a329]
link com.controllers.ControllersVisitor to com.controllers.ResumeController--><path codeLine="15" d="M303.252,446.053 C271.285,471.808 228.028,506.66 193.652,534.357 " fill="none" id="com.controllers.ControllersVisitor-to-com.controllers.ResumeController" style="stroke: #A80036; stroke-width: 1.0; stroke-dasharray: 7.0,7.0;"/><polygon fill="#A80036" points="189.505,537.698,199.0226,535.1652,193.3982,534.5606,194.0028,528.9362,189.505,537.698" style="stroke: #A80036; stroke-width: 1.0;"/><!--MD5=[648fb77371c461e3f94041fa9c4f7845]
link com.controllers.ControllersVisitor to com.controllers.ProposalController--><path codeLine="16" d="M368.147,446.053 C377.211,462.272 388.29,482.099 399.118,501.474 " fill="none" id="com.controllers.ControllersVisitor-to-com.controllers.ProposalController" style="stroke: #A80036; stroke-width: 1.0; stroke-dasharray: 7.0,7.0;"/><polygon fill="#A80036" points="401.569,505.861,400.6698,496.0533,399.1296,501.4964,393.6865,499.9563,401.569,505.861" style="stroke: #A80036; stroke-width: 1.0;"/><!--MD5=[8ce942f5b7fa157e4822c08442a942d7]
link com.controllers.Logic to com.models.Game--><path codeLine="25" d="M613.4041,159.9986 C613.4041,159.9986 640.594,182.457 651,195.5 C780.028,357.227 794.582,621.704 795.396,717.7236 " fill="none" id="com.controllers.Logic-com.models.Game" style="stroke: #A80036; stroke-width: 1.0;"/><polygon fill="#A80036" points="795.427,730.8896,799.4054,721.88,795.415,725.8896,791.4055,721.8992,795.427,730.8896" style="stroke: #A80036; stroke-width: 1.0;"/><line style="stroke: #A80036; stroke-width: 1.0;" x1="795.415" x2="795.396" y1="725.8896" y2="717.8896"/><polygon fill="#A80036" points="603.627,153.041,606.1963,159.7788,613.4041,159.9986,610.8348,153.2608,603.627,153.041" style="stroke: #A80036; stroke-width: 1.0;"/><!--MD5=[0b27aa565185e94331db64adfbb95e32]
link com.controllers.Logic to com.models.State--><path codeLine="26" d="M568.5237,161.2938 C568.5237,161.2938 589.379,183.589 597,195.5 C706.136,366.061 703.162,623.094 697.778,717.5309 " fill="none" id="com.controllers.Logic-com.models.State" style="stroke: #A80036; stroke-width: 1.0;"/><polygon fill="#A80036" points="696.944,730.7555,701.5022,722.0249,697.2585,725.7654,693.518,721.5217,696.944,730.7555" style="stroke: #A80036; stroke-width: 1.0;"/><line style="stroke: #A80036; stroke-width: 1.0;" x1="697.2585" x2="697.762" y1="725.7654" y2="717.7812"/><polygon fill="#A80036" points="559.782,153.073,561.4126,160.0973,568.5237,161.2938,566.8931,154.2695,559.782,153.073" style="stroke: #A80036; stroke-width: 1.0;"/><!--MD5=[621bc9dabc33f810a38b2fb454f4e940]
link com.controllers.Logic to com.controllers.Controller--><path codeLine="27" d="M479,153.354 C479,170.817 479,190.08 479,207.451 " fill="none" id="com.controllers.Logic-to-com.controllers.Controller" style="stroke: #A80036; stroke-width: 1.0;"/><polygon fill="#A80036" points="479,212.777,483,203.777,479,207.777,475,203.777,479,212.777" style="stroke: #A80036; stroke-width: 1.0;"/><!--MD5=[7ce88cd953c58aacab5b99d8ecbe3b80]
link com.controllers.Logic to com.models.StateValue--><path codeLine="28" d="M619.6911,136.2807 C619.6911,136.2807 686.081,170.07 711,195.5 C860.518,348.081 899.687,619.783 909.179,717.6266 " fill="none" id="com.controllers.Logic-com.models.StateValue" style="stroke: #A80036; stroke-width: 1.0;"/><polygon fill="#A80036" points="910.373,730.7661,913.5416,721.4409,909.9202,725.7866,905.5744,722.1653,910.373,730.7661" style="stroke: #A80036; stroke-width: 1.0;"/><line style="stroke: #A80036; stroke-width: 1.0;" x1="909.9202" x2="909.196" y1="725.7866" y2="717.8195"/><polygon fill="#A80036" points="608.613,131.668,612.6145,137.667,619.6911,136.2807,615.6896,130.2816,608.613,131.668" style="stroke: #A80036; stroke-width: 1.0;"/><!--MD5=[1270eba594ee27379f2e4c0318724ab3]
link com.controllers.Logic to java.util.Map--><path codeLine="29" d="M620.7192,101.3772 C620.7192,101.3772 865.234,132.769 972,195.5 C985.491,203.426 997.271,215.824 1006.5,227.744 " fill="none" id="com.controllers.Logic-java.util.Map" style="stroke: #A80036; stroke-width: 1.0;"/><polygon fill="#A80036" points="1014.24,238.414,1012.1977,228.7792,1011.306,234.3654,1005.7198,233.4737,1014.24,238.414" style="stroke: #A80036; stroke-width: 1.0;"/><line style="stroke: #A80036; stroke-width: 1.0;" x1="1011.306" x2="1006.605" y1="234.3654" y2="227.8885"/><polygon fill="#A80036" points="608.752,100.491,614.4402,104.9232,620.7192,101.3772,615.031,96.945,608.752,100.491" style="stroke: #A80036; stroke-width: 1.0;"/><!--MD5=[739e865abf40fc68afbdd23fe3496056]
reverse link com.controllers.Controller to com.controllers.ProposalController--><path codeLine="42" d="M472.185,332.504 C468.717,366.669 464.327,408.525 460,446 C457.754,465.452 455.164,486.47 452.694,505.964 " fill="none" id="com.controllers.Controller-backto-com.controllers.ProposalController" style="stroke: #A80036; stroke-width: 1.0;"/><polygon fill="none" points="465.248,331.53,474.217,312.333,479.177,332.933,465.248,331.53" style="stroke: #A80036; stroke-width: 1.0;"/><!--MD5=[cb18b4c3852651973ecf8d5bc45e0fd3]
link com.controllers.ProposalController to com.models.ProposedCombination--><path codeLine="43" d="M487.429,656.191 C502.286,681.002 517.943,707.148 529.328,726.1595 " fill="none" id="com.controllers.ProposalController-to-com.models.ProposedCombination" style="stroke: #A80036; stroke-width: 1.0; stroke-dasharray: 7.0,7.0;"/><polygon fill="#A80036" points="532.127,730.834,530.9351,721.0575,529.5583,726.5443,524.0716,725.1674,532.127,730.834" style="stroke: #A80036; stroke-width: 1.0;"/><!--MD5=[2cfbb38844f337d560c1e08472688032]
reverse link com.controllers.Controller to com.controllers.ResumeController--><path codeLine="50" d="M359.387,297.228 C316.086,314.11 269.424,338.322 235,372 C187.776,418.201 160.653,491.597 147.378,537.717 " fill="none" id="com.controllers.Controller-backto-com.controllers.ResumeController" style="stroke: #A80036; stroke-width: 1.0;"/><polygon fill="none" points="357.153,290.591,378.339,290.208,362.016,303.719,357.153,290.591" style="stroke: #A80036; stroke-width: 1.0;"/><!--MD5=[bd64b1e86d9c0f881ccf376e9e0f2545]
@startuml
class  com.controllers.Controller{
# game: Game
# state: State
~ Controller(Game, State)
+ {abstract} accept(ControllersVisitor): void
}
com.controllers.Controller -down-> com.models.Game
com.controllers.Controller -down-> com.models.State
com.controllers.Controller ..> com.controllers.ControllersVisitor

class  com.controllers.ControllersVisitor{
~ visit(ProposalController): void
~ visit(ResumeController): void
}
com.controllers.ControllersVisitor ..> com.controllers.ResumeController
com.controllers.ControllersVisitor ..> com.controllers.ProposalController

class  com.controllers.Logic{
- state: State
- game: Game
- controllers: Map<StateValue, Controller>
+ Logic()
+ getController(): Controller
}
com.controllers.Logic *-down-> com.models.Game
com.controllers.Logic *-down-> com.models.State
com.controllers.Logic - -> com.controllers.Controller
com.controllers.Logic *-down-> com.models.StateValue
com.controllers.Logic *-down-> java.util.Map

class  com.controllers.ProposalController{
+ ProposalController(Game, State)
+ isWinner(): boolean
+ isLooser(): boolean
+ getResult(int): Result
+ getProposedCombination(int): ProposedCombination
+ getAttempts(): int
+ addProposedCombination(ProposedCombination): void
+ accept(ControllersVisitor): void

}
com.controllers.Controller <|-down- com.controllers.ProposalController
com.controllers.ProposalController ..> com.models.ProposedCombination

class  com.controllers.ResumeController{
+ ResumeController(Game, State)
+ resume(boolean): void
+ accept(ControllersVisitor): void
}
com.controllers.Controller <|-down- com.controllers.ResumeController
@enduml

PlantUML version 1.2020.20beta2(Unknown compile time)
(GPL source distribution)
Java Runtime: Java(TM) SE Runtime Environment
JVM: Java HotSpot(TM) 64-Bit Server VM
Default Encoding: UTF-8
Language: en
Country: US
--></g></svg>