<?xml version="1.0" encoding="UTF-8" standalone="no"?><svg xmlns="http://www.w3.org/2000/svg" xmlns:xlink="http://www.w3.org/1999/xlink" contentScriptType="application/ecmascript" contentStyleType="text/css" height="871px" preserveAspectRatio="none" style="width:1518px;height:871px;" version="1.1" viewBox="0 0 1518 871" width="1518px" zoomAndPan="magnify"><defs><filter height="300%" id="f1g8sqlq27sdcl" width="300%" x="-1" y="-1"><feGaussianBlur result="blurOut" stdDeviation="2.0"/><feColorMatrix in="blurOut" result="blurOut2" type="matrix" values="0 0 0 0 0 0 0 0 0 0 0 0 0 0 0 0 0 0 .4 0"/><feOffset dx="4.0" dy="4.0" in="blurOut2" result="blurOut3"/><feBlend in="SourceGraphic" in2="blurOut3" mode="normal"/></filter></defs><g><!--MD5=[e83acf53252e5e6f992a589437172ba6]
cluster com.views--><polygon fill="#FFFFFF" filter="url(#f1g8sqlq27sdcl)" points="496,6,586,6,593,28.2969,838,28.2969,838,105,496,105,496,6" style="stroke: #000000; stroke-width: 1.5;"/><line style="stroke: #000000; stroke-width: 1.5;" x1="496" x2="593" y1="28.2969" y2="28.2969"/><text fill="#000000" font-family="sans-serif" font-size="14" font-weight="bold" lengthAdjust="spacingAndGlyphs" textLength="84" x="500" y="20.9951">com.views</text><!--MD5=[fb07557d2c686a50e554965aae2e0b39]
cluster com.views.console--><polygon fill="#FFFFFF" filter="url(#f1g8sqlq27sdcl)" points="16,129,173,129,180,151.2969,675,151.2969,675,864,16,864,16,129" style="stroke: #000000; stroke-width: 1.5;"/><line style="stroke: #000000; stroke-width: 1.5;" x1="16" x2="180" y1="151.2969" y2="151.2969"/><text fill="#000000" font-family="sans-serif" font-size="14" font-weight="bold" lengthAdjust="spacingAndGlyphs" textLength="151" x="20" y="143.9951">com.views.console</text><!--MD5=[cc15223dad906424482237695d0c4da8]
cluster com.controllers--><polygon fill="#FFFFFF" filter="url(#f1g8sqlq27sdcl)" points="699,441,833,441,840,463.2969,1049,463.2969,1049,540,699,540,699,441" style="stroke: #000000; stroke-width: 1.5;"/><line style="stroke: #000000; stroke-width: 1.5;" x1="699" x2="840" y1="463.2969" y2="463.2969"/><text fill="#000000" font-family="sans-serif" font-size="14" font-weight="bold" lengthAdjust="spacingAndGlyphs" textLength="128" x="703" y="455.9951">com.controllers</text><!--MD5=[47f2fb41d70c30a0d48f1e8cc0776cb1]
cluster com.utils--><polygon fill="#FFFFFF" filter="url(#f1g8sqlq27sdcl)" points="1073,441,1155,441,1162,463.2969,1501,463.2969,1501,540,1073,540,1073,441" style="stroke: #000000; stroke-width: 1.5;"/><line style="stroke: #000000; stroke-width: 1.5;" x1="1073" x2="1162" y1="463.2969" y2="463.2969"/><text fill="#000000" font-family="sans-serif" font-size="14" font-weight="bold" lengthAdjust="spacingAndGlyphs" textLength="76" x="1077" y="455.9951">com.utils</text><!--MD5=[b3c4fa56fc4050e12935ef94e0e29ab6]
class com.views.ErrorView--><rect codeLine="1" fill="#FEFECE" filter="url(#f1g8sqlq27sdcl)" height="48" id="com.views.ErrorView" style="stroke: #A80036; stroke-width: 1.5;" width="91" x="730.5" y="41"/><ellipse cx="745.5" cy="57" fill="#ADD1B2" rx="11" ry="11" style="stroke: #A80036; stroke-width: 1.0;"/><path d="M747.8438,52.6719 C746.9063,52.2344 746.3125,52.0938 745.4375,52.0938 C742.8125,52.0938 740.8125,54.1719 740.8125,56.8906 L740.8125,58.0156 C740.8125,60.5938 742.9219,62.4844 745.8125,62.4844 C747.0313,62.4844 748.1875,62.1875 748.9375,61.6406 C749.5156,61.2344 749.8438,60.7813 749.8438,60.3906 C749.8438,59.9375 749.4531,59.5469 748.9844,59.5469 C748.7656,59.5469 748.5625,59.625 748.375,59.8125 C747.9219,60.2969 747.9219,60.2969 747.7344,60.3906 C747.3125,60.6563 746.625,60.7813 745.8594,60.7813 C743.8125,60.7813 742.5156,59.6875 742.5156,57.9844 L742.5156,56.8906 C742.5156,55.1094 743.7656,53.7969 745.5,53.7969 C746.0781,53.7969 746.6875,53.9531 747.1563,54.2031 C747.6406,54.4844 747.8125,54.7031 747.9063,55.1094 C747.9688,55.5156 748,55.6406 748.1406,55.7656 C748.2813,55.9063 748.5156,56.0156 748.7344,56.0156 C749,56.0156 749.2656,55.875 749.4375,55.6563 C749.5469,55.5 749.5781,55.3125 749.5781,54.8906 L749.5781,53.4688 C749.5781,53.0313 749.5625,52.9063 749.4688,52.75 C749.3125,52.4844 749.0313,52.3438 748.7344,52.3438 C748.4375,52.3438 748.2344,52.4375 748.0156,52.75 L747.8438,52.6719 Z "/><text fill="#000000" font-family="sans-serif" font-size="12" lengthAdjust="spacingAndGlyphs" textLength="59" x="759.5" y="61.1543">ErrorView</text><line style="stroke: #A80036; stroke-width: 1.5;" x1="731.5" x2="820.5" y1="73" y2="73"/><line style="stroke: #A80036; stroke-width: 1.5;" x1="731.5" x2="820.5" y1="81" y2="81"/><!--MD5=[173a4c62e52a3982e8161193ff2a2600]
class com.views.Message--><rect codeLine="2" fill="#FEFECE" filter="url(#f1g8sqlq27sdcl)" height="48" id="com.views.Message" style="stroke: #A80036; stroke-width: 1.5;" width="87" x="608.5" y="41"/><ellipse cx="623.5" cy="57" fill="#ADD1B2" rx="11" ry="11" style="stroke: #A80036; stroke-width: 1.0;"/><path d="M625.8438,52.6719 C624.9063,52.2344 624.3125,52.0938 623.4375,52.0938 C620.8125,52.0938 618.8125,54.1719 618.8125,56.8906 L618.8125,58.0156 C618.8125,60.5938 620.9219,62.4844 623.8125,62.4844 C625.0313,62.4844 626.1875,62.1875 626.9375,61.6406 C627.5156,61.2344 627.8438,60.7813 627.8438,60.3906 C627.8438,59.9375 627.4531,59.5469 626.9844,59.5469 C626.7656,59.5469 626.5625,59.625 626.375,59.8125 C625.9219,60.2969 625.9219,60.2969 625.7344,60.3906 C625.3125,60.6563 624.625,60.7813 623.8594,60.7813 C621.8125,60.7813 620.5156,59.6875 620.5156,57.9844 L620.5156,56.8906 C620.5156,55.1094 621.7656,53.7969 623.5,53.7969 C624.0781,53.7969 624.6875,53.9531 625.1563,54.2031 C625.6406,54.4844 625.8125,54.7031 625.9063,55.1094 C625.9688,55.5156 626,55.6406 626.1406,55.7656 C626.2813,55.9063 626.5156,56.0156 626.7344,56.0156 C627,56.0156 627.2656,55.875 627.4375,55.6563 C627.5469,55.5 627.5781,55.3125 627.5781,54.8906 L627.5781,53.4688 C627.5781,53.0313 627.5625,52.9063 627.4688,52.75 C627.3125,52.4844 627.0313,52.3438 626.7344,52.3438 C626.4375,52.3438 626.2344,52.4375 626.0156,52.75 L625.8438,52.6719 Z "/><text fill="#000000" font-family="sans-serif" font-size="12" lengthAdjust="spacingAndGlyphs" textLength="55" x="637.5" y="61.1543">Message</text><line style="stroke: #A80036; stroke-width: 1.5;" x1="609.5" x2="694.5" y1="73" y2="73"/><line style="stroke: #A80036; stroke-width: 1.5;" x1="609.5" x2="694.5" y1="81" y2="81"/><!--MD5=[4e4b69ff03f558308117a21ae810a87e]
class com.views.View--><rect codeLine="3" fill="#FEFECE" filter="url(#f1g8sqlq27sdcl)" height="48" id="com.views.View" style="stroke: #A80036; stroke-width: 1.5;" width="61" x="512.5" y="41"/><ellipse cx="527.5" cy="57" fill="#ADD1B2" rx="11" ry="11" style="stroke: #A80036; stroke-width: 1.0;"/><path d="M529.8438,52.6719 C528.9063,52.2344 528.3125,52.0938 527.4375,52.0938 C524.8125,52.0938 522.8125,54.1719 522.8125,56.8906 L522.8125,58.0156 C522.8125,60.5938 524.9219,62.4844 527.8125,62.4844 C529.0313,62.4844 530.1875,62.1875 530.9375,61.6406 C531.5156,61.2344 531.8438,60.7813 531.8438,60.3906 C531.8438,59.9375 531.4531,59.5469 530.9844,59.5469 C530.7656,59.5469 530.5625,59.625 530.375,59.8125 C529.9219,60.2969 529.9219,60.2969 529.7344,60.3906 C529.3125,60.6563 528.625,60.7813 527.8594,60.7813 C525.8125,60.7813 524.5156,59.6875 524.5156,57.9844 L524.5156,56.8906 C524.5156,55.1094 525.7656,53.7969 527.5,53.7969 C528.0781,53.7969 528.6875,53.9531 529.1563,54.2031 C529.6406,54.4844 529.8125,54.7031 529.9063,55.1094 C529.9688,55.5156 530,55.6406 530.1406,55.7656 C530.2813,55.9063 530.5156,56.0156 530.7344,56.0156 C531,56.0156 531.2656,55.875 531.4375,55.6563 C531.5469,55.5 531.5781,55.3125 531.5781,54.8906 L531.5781,53.4688 C531.5781,53.0313 531.5625,52.9063 531.4688,52.75 C531.3125,52.4844 531.0313,52.3438 530.7344,52.3438 C530.4375,52.3438 530.2344,52.4375 530.0156,52.75 L529.8438,52.6719 Z "/><text fill="#000000" font-family="sans-serif" font-size="12" lengthAdjust="spacingAndGlyphs" textLength="29" x="541.5" y="61.1543">View</text><line style="stroke: #A80036; stroke-width: 1.5;" x1="513.5" x2="572.5" y1="73" y2="73"/><line style="stroke: #A80036; stroke-width: 1.5;" x1="513.5" x2="572.5" y1="81" y2="81"/><!--MD5=[dc385e317ae906c8a6e1db887894bc4f]
class com.views.console.ColorView--><rect codeLine="4" fill="#FEFECE" filter="url(#f1g8sqlq27sdcl)" height="99.2188" id="com.views.console.ColorView" style="stroke: #A80036; stroke-width: 1.5;" width="129" x="499.5" y="749"/><ellipse cx="530.7" cy="765" fill="#ADD1B2" rx="11" ry="11" style="stroke: #A80036; stroke-width: 1.0;"/><path d="M533.0438,760.6719 C532.1063,760.2344 531.5125,760.0938 530.6375,760.0938 C528.0125,760.0938 526.0125,762.1719 526.0125,764.8906 L526.0125,766.0156 C526.0125,768.5938 528.1219,770.4844 531.0125,770.4844 C532.2313,770.4844 533.3875,770.1875 534.1375,769.6406 C534.7156,769.2344 535.0438,768.7813 535.0438,768.3906 C535.0438,767.9375 534.6531,767.5469 534.1844,767.5469 C533.9656,767.5469 533.7625,767.625 533.575,767.8125 C533.1219,768.2969 533.1219,768.2969 532.9344,768.3906 C532.5125,768.6563 531.825,768.7813 531.0594,768.7813 C529.0125,768.7813 527.7156,767.6875 527.7156,765.9844 L527.7156,764.8906 C527.7156,763.1094 528.9656,761.7969 530.7,761.7969 C531.2781,761.7969 531.8875,761.9531 532.3563,762.2031 C532.8406,762.4844 533.0125,762.7031 533.1063,763.1094 C533.1688,763.5156 533.2,763.6406 533.3406,763.7656 C533.4813,763.9063 533.7156,764.0156 533.9344,764.0156 C534.2,764.0156 534.4656,763.875 534.6375,763.6563 C534.7469,763.5 534.7781,763.3125 534.7781,762.8906 L534.7781,761.4688 C534.7781,761.0313 534.7625,760.9063 534.6688,760.75 C534.5125,760.4844 534.2313,760.3438 533.9344,760.3438 C533.6375,760.3438 533.4344,760.4375 533.2156,760.75 L533.0438,760.6719 Z "/><text fill="#000000" font-family="sans-serif" font-size="12" lengthAdjust="spacingAndGlyphs" textLength="61" x="548.3" y="769.1543">ColorView</text><line style="stroke: #A80036; stroke-width: 1.5;" x1="500.5" x2="627.5" y1="781" y2="781"/><rect fill="none" height="6" style="stroke: #C82930; stroke-width: 1.0;" width="6" x="507.5" y="789"/><text fill="#000000" font-family="sans-serif" font-size="11" lengthAdjust="spacingAndGlyphs" textLength="63" x="519.5" y="795.2104">color: Color</text><line style="stroke: #A80036; stroke-width: 1.5;" x1="500.5" x2="627.5" y1="801.8047" y2="801.8047"/><polygon fill="#4177AF" points="510.5,808.8047,506.5,814.8047,514.5,814.8047" style="stroke: #1963A0; stroke-width: 1.0;"/><text fill="#000000" font-family="sans-serif" font-size="11" lengthAdjust="spacingAndGlyphs" textLength="94" x="519.5" y="816.0151">ColorView(Color)</text><ellipse cx="510.5" cy="825.6094" fill="#84BE84" rx="3" ry="3" style="stroke: #038048; stroke-width: 1.0;"/><text fill="#000000" font-family="sans-serif" font-size="11" lengthAdjust="spacingAndGlyphs" textLength="67" x="519.5" y="828.8198">write(): void</text><ellipse cx="510.5" cy="838.4141" fill="#84BE84" rx="3" ry="3" style="stroke: #038048; stroke-width: 1.0;"/><text fill="#000000" font-family="sans-serif" font-size="11" lengthAdjust="spacingAndGlyphs" textLength="103" x="519.5" y="841.6245">writeInitials(): void</text><!--MD5=[3855bc8a697b206343f1e850694ca859]
class com.views.console.ProposedCombinationView--><rect codeLine="10" fill="#FEFECE" filter="url(#f1g8sqlq27sdcl)" height="86.4141" id="com.views.console.ProposedCombinationView" style="stroke: #A80036; stroke-width: 1.5;" width="280" x="199" y="457"/><ellipse cx="254.25" cy="473" fill="#ADD1B2" rx="11" ry="11" style="stroke: #A80036; stroke-width: 1.0;"/><path d="M256.5938,468.6719 C255.6563,468.2344 255.0625,468.0938 254.1875,468.0938 C251.5625,468.0938 249.5625,470.1719 249.5625,472.8906 L249.5625,474.0156 C249.5625,476.5938 251.6719,478.4844 254.5625,478.4844 C255.7813,478.4844 256.9375,478.1875 257.6875,477.6406 C258.2656,477.2344 258.5938,476.7813 258.5938,476.3906 C258.5938,475.9375 258.2031,475.5469 257.7344,475.5469 C257.5156,475.5469 257.3125,475.625 257.125,475.8125 C256.6719,476.2969 256.6719,476.2969 256.4844,476.3906 C256.0625,476.6563 255.375,476.7813 254.6094,476.7813 C252.5625,476.7813 251.2656,475.6875 251.2656,473.9844 L251.2656,472.8906 C251.2656,471.1094 252.5156,469.7969 254.25,469.7969 C254.8281,469.7969 255.4375,469.9531 255.9063,470.2031 C256.3906,470.4844 256.5625,470.7031 256.6563,471.1094 C256.7188,471.5156 256.75,471.6406 256.8906,471.7656 C257.0313,471.9063 257.2656,472.0156 257.4844,472.0156 C257.75,472.0156 258.0156,471.875 258.1875,471.6563 C258.2969,471.5 258.3281,471.3125 258.3281,470.8906 L258.3281,469.4688 C258.3281,469.0313 258.3125,468.9063 258.2188,468.75 C258.0625,468.4844 257.7813,468.3438 257.4844,468.3438 C257.1875,468.3438 256.9844,468.4375 256.7656,468.75 L256.5938,468.6719 Z "/><text fill="#000000" font-family="sans-serif" font-size="12" lengthAdjust="spacingAndGlyphs" textLength="161" x="274.75" y="477.1543">ProposedCombinationView</text><line style="stroke: #A80036; stroke-width: 1.5;" x1="200" x2="478" y1="489" y2="489"/><rect fill="none" height="6" style="stroke: #C82930; stroke-width: 1.0;" width="6" x="207" y="497"/><text fill="#000000" font-family="sans-serif" font-size="11" lengthAdjust="spacingAndGlyphs" textLength="254" x="219" y="503.2104">proposedCombination: ProposedCombination</text><line style="stroke: #A80036; stroke-width: 1.5;" x1="200" x2="478" y1="509.8047" y2="509.8047"/><ellipse cx="210" cy="520.8047" fill="#84BE84" rx="3" ry="3" style="stroke: #038048; stroke-width: 1.0;"/><text fill="#000000" font-family="sans-serif" font-size="11" lengthAdjust="spacingAndGlyphs" textLength="190" x="219" y="524.0151">write(ProposedCombination): void</text><ellipse cx="210" cy="533.6094" fill="#84BE84" rx="3" ry="3" style="stroke: #038048; stroke-width: 1.0;"/><text fill="#000000" font-family="sans-serif" font-size="11" lengthAdjust="spacingAndGlyphs" textLength="164" x="219" y="536.8198">read(): ProposedCombination</text><!--MD5=[df8a789533cc1a32125527061336f7b2]
class com.views.console.ResultView--><rect codeLine="15" fill="#FEFECE" filter="url(#f1g8sqlq27sdcl)" height="86.4141" id="com.views.console.ResultView" style="stroke: #A80036; stroke-width: 1.5;" width="132" x="32" y="457"/><ellipse cx="62.75" cy="473" fill="#ADD1B2" rx="11" ry="11" style="stroke: #A80036; stroke-width: 1.0;"/><path d="M65.0938,468.6719 C64.1563,468.2344 63.5625,468.0938 62.6875,468.0938 C60.0625,468.0938 58.0625,470.1719 58.0625,472.8906 L58.0625,474.0156 C58.0625,476.5938 60.1719,478.4844 63.0625,478.4844 C64.2813,478.4844 65.4375,478.1875 66.1875,477.6406 C66.7656,477.2344 67.0938,476.7813 67.0938,476.3906 C67.0938,475.9375 66.7031,475.5469 66.2344,475.5469 C66.0156,475.5469 65.8125,475.625 65.625,475.8125 C65.1719,476.2969 65.1719,476.2969 64.9844,476.3906 C64.5625,476.6563 63.875,476.7813 63.1094,476.7813 C61.0625,476.7813 59.7656,475.6875 59.7656,473.9844 L59.7656,472.8906 C59.7656,471.1094 61.0156,469.7969 62.75,469.7969 C63.3281,469.7969 63.9375,469.9531 64.4063,470.2031 C64.8906,470.4844 65.0625,470.7031 65.1563,471.1094 C65.2188,471.5156 65.25,471.6406 65.3906,471.7656 C65.5313,471.9063 65.7656,472.0156 65.9844,472.0156 C66.25,472.0156 66.5156,471.875 66.6875,471.6563 C66.7969,471.5 66.8281,471.3125 66.8281,470.8906 L66.8281,469.4688 C66.8281,469.0313 66.8125,468.9063 66.7188,468.75 C66.5625,468.4844 66.2813,468.3438 65.9844,468.3438 C65.6875,468.3438 65.4844,468.4375 65.2656,468.75 L65.0938,468.6719 Z "/><text fill="#000000" font-family="sans-serif" font-size="12" lengthAdjust="spacingAndGlyphs" textLength="65" x="80.25" y="477.1543">ResultView</text><line style="stroke: #A80036; stroke-width: 1.5;" x1="33" x2="163" y1="489" y2="489"/><rect fill="none" height="6" style="stroke: #C82930; stroke-width: 1.0;" width="6" x="40" y="497"/><text fill="#000000" font-family="sans-serif" font-size="11" lengthAdjust="spacingAndGlyphs" textLength="74" x="52" y="503.2104">result: Result</text><line style="stroke: #A80036; stroke-width: 1.5;" x1="33" x2="163" y1="509.8047" y2="509.8047"/><polygon fill="#4177AF" points="43,516.8047,39,522.8047,47,522.8047" style="stroke: #1963A0; stroke-width: 1.0;"/><text fill="#000000" font-family="sans-serif" font-size="11" lengthAdjust="spacingAndGlyphs" textLength="106" x="52" y="524.0151">ResultView(Result)</text><ellipse cx="43" cy="533.6094" fill="#84BE84" rx="3" ry="3" style="stroke: #038048; stroke-width: 1.0;"/><text fill="#000000" font-family="sans-serif" font-size="11" lengthAdjust="spacingAndGlyphs" textLength="77" x="52" y="536.8198">writeln(): void</text><!--MD5=[391f6d716704d329e54366d22ea15624]
class com.views.console.ResumeView--><rect codeLine="20" fill="#FEFECE" filter="url(#f1g8sqlq27sdcl)" height="60.8047" id="com.views.console.ResumeView" style="stroke: #A80036; stroke-width: 1.5;" width="232" x="427" y="336"/><ellipse cx="500.25" cy="352" fill="#ADD1B2" rx="11" ry="11" style="stroke: #A80036; stroke-width: 1.0;"/><path d="M502.5938,347.6719 C501.6563,347.2344 501.0625,347.0938 500.1875,347.0938 C497.5625,347.0938 495.5625,349.1719 495.5625,351.8906 L495.5625,353.0156 C495.5625,355.5938 497.6719,357.4844 500.5625,357.4844 C501.7813,357.4844 502.9375,357.1875 503.6875,356.6406 C504.2656,356.2344 504.5938,355.7813 504.5938,355.3906 C504.5938,354.9375 504.2031,354.5469 503.7344,354.5469 C503.5156,354.5469 503.3125,354.625 503.125,354.8125 C502.6719,355.2969 502.6719,355.2969 502.4844,355.3906 C502.0625,355.6563 501.375,355.7813 500.6094,355.7813 C498.5625,355.7813 497.2656,354.6875 497.2656,352.9844 L497.2656,351.8906 C497.2656,350.1094 498.5156,348.7969 500.25,348.7969 C500.8281,348.7969 501.4375,348.9531 501.9063,349.2031 C502.3906,349.4844 502.5625,349.7031 502.6563,350.1094 C502.7188,350.5156 502.75,350.6406 502.8906,350.7656 C503.0313,350.9063 503.2656,351.0156 503.4844,351.0156 C503.75,351.0156 504.0156,350.875 504.1875,350.6563 C504.2969,350.5 504.3281,350.3125 504.3281,349.8906 L504.3281,348.4688 C504.3281,348.0313 504.3125,347.9063 504.2188,347.75 C504.0625,347.4844 503.7813,347.3438 503.4844,347.3438 C503.1875,347.3438 502.9844,347.4375 502.7656,347.75 L502.5938,347.6719 Z "/><text fill="#000000" font-family="sans-serif" font-size="12" lengthAdjust="spacingAndGlyphs" textLength="77" x="520.75" y="356.1543">ResumeView</text><line style="stroke: #A80036; stroke-width: 1.5;" x1="428" x2="658" y1="368" y2="368"/><line style="stroke: #A80036; stroke-width: 1.5;" x1="428" x2="658" y1="376" y2="376"/><ellipse cx="438" cy="387" fill="#84BE84" rx="3" ry="3" style="stroke: #038048; stroke-width: 1.0;"/><text fill="#000000" font-family="sans-serif" font-size="11" lengthAdjust="spacingAndGlyphs" textLength="206" x="447" y="390.2104">interact(ResumeController): boolean</text><!--MD5=[f3b49c9f6938875554ffa97ab7003387]
class com.views.console.ProposalView--><rect codeLine="23" fill="#FEFECE" filter="url(#f1g8sqlq27sdcl)" height="60.8047" id="com.views.console.ProposalView" style="stroke: #A80036; stroke-width: 1.5;" width="232" x="160" y="336"/><ellipse cx="231.25" cy="352" fill="#ADD1B2" rx="11" ry="11" style="stroke: #A80036; stroke-width: 1.0;"/><path d="M233.5938,347.6719 C232.6563,347.2344 232.0625,347.0938 231.1875,347.0938 C228.5625,347.0938 226.5625,349.1719 226.5625,351.8906 L226.5625,353.0156 C226.5625,355.5938 228.6719,357.4844 231.5625,357.4844 C232.7813,357.4844 233.9375,357.1875 234.6875,356.6406 C235.2656,356.2344 235.5938,355.7813 235.5938,355.3906 C235.5938,354.9375 235.2031,354.5469 234.7344,354.5469 C234.5156,354.5469 234.3125,354.625 234.125,354.8125 C233.6719,355.2969 233.6719,355.2969 233.4844,355.3906 C233.0625,355.6563 232.375,355.7813 231.6094,355.7813 C229.5625,355.7813 228.2656,354.6875 228.2656,352.9844 L228.2656,351.8906 C228.2656,350.1094 229.5156,348.7969 231.25,348.7969 C231.8281,348.7969 232.4375,348.9531 232.9063,349.2031 C233.3906,349.4844 233.5625,349.7031 233.6563,350.1094 C233.7188,350.5156 233.75,350.6406 233.8906,350.7656 C234.0313,350.9063 234.2656,351.0156 234.4844,351.0156 C234.75,351.0156 235.0156,350.875 235.1875,350.6563 C235.2969,350.5 235.3281,350.3125 235.3281,349.8906 L235.3281,348.4688 C235.3281,348.0313 235.3125,347.9063 235.2188,347.75 C235.0625,347.4844 234.7813,347.3438 234.4844,347.3438 C234.1875,347.3438 233.9844,347.4375 233.7656,347.75 L233.5938,347.6719 Z "/><text fill="#000000" font-family="sans-serif" font-size="12" lengthAdjust="spacingAndGlyphs" textLength="81" x="251.75" y="356.1543">ProposalView</text><line style="stroke: #A80036; stroke-width: 1.5;" x1="161" x2="391" y1="368" y2="368"/><line style="stroke: #A80036; stroke-width: 1.5;" x1="161" x2="391" y1="376" y2="376"/><ellipse cx="171" cy="387" fill="#84BE84" rx="3" ry="3" style="stroke: #038048; stroke-width: 1.0;"/><text fill="#000000" font-family="sans-serif" font-size="11" lengthAdjust="spacingAndGlyphs" textLength="206" x="180" y="390.2104">interact(ProposalController): boolean</text><!--MD5=[aae4e11cd8849136eeec4d1c1be7ec33]
class com.views.console.StartView--><rect codeLine="26" fill="#FEFECE" filter="url(#f1g8sqlq27sdcl)" height="60.8047" id="com.views.console.StartView" style="stroke: #A80036; stroke-width: 1.5;" width="108" x="514" y="469.5"/><ellipse cx="537.55" cy="485.5" fill="#ADD1B2" rx="11" ry="11" style="stroke: #A80036; stroke-width: 1.0;"/><path d="M539.8938,481.1719 C538.9563,480.7344 538.3625,480.5938 537.4875,480.5938 C534.8625,480.5938 532.8625,482.6719 532.8625,485.3906 L532.8625,486.5156 C532.8625,489.0938 534.9719,490.9844 537.8625,490.9844 C539.0813,490.9844 540.2375,490.6875 540.9875,490.1406 C541.5656,489.7344 541.8938,489.2813 541.8938,488.8906 C541.8938,488.4375 541.5031,488.0469 541.0344,488.0469 C540.8156,488.0469 540.6125,488.125 540.425,488.3125 C539.9719,488.7969 539.9719,488.7969 539.7844,488.8906 C539.3625,489.1563 538.675,489.2813 537.9094,489.2813 C535.8625,489.2813 534.5656,488.1875 534.5656,486.4844 L534.5656,485.3906 C534.5656,483.6094 535.8156,482.2969 537.55,482.2969 C538.1281,482.2969 538.7375,482.4531 539.2063,482.7031 C539.6906,482.9844 539.8625,483.2031 539.9563,483.6094 C540.0188,484.0156 540.05,484.1406 540.1906,484.2656 C540.3313,484.4063 540.5656,484.5156 540.7844,484.5156 C541.05,484.5156 541.3156,484.375 541.4875,484.1563 C541.5969,484 541.6281,483.8125 541.6281,483.3906 L541.6281,481.9688 C541.6281,481.5313 541.6125,481.4063 541.5188,481.25 C541.3625,480.9844 541.0813,480.8438 540.7844,480.8438 C540.4875,480.8438 540.2844,480.9375 540.0656,481.25 L539.8938,481.1719 Z "/><text fill="#000000" font-family="sans-serif" font-size="12" lengthAdjust="spacingAndGlyphs" textLength="57" x="553.45" y="489.6543">StartView</text><line style="stroke: #A80036; stroke-width: 1.5;" x1="515" x2="621" y1="501.5" y2="501.5"/><line style="stroke: #A80036; stroke-width: 1.5;" x1="515" x2="621" y1="509.5" y2="509.5"/><ellipse cx="525" cy="520.5" fill="#84BE84" rx="3" ry="3" style="stroke: #038048; stroke-width: 1.0;"/><text fill="#000000" font-family="sans-serif" font-size="11" lengthAdjust="spacingAndGlyphs" textLength="82" x="534" y="523.7104">interact(): void</text><!--MD5=[b0ce8f1a0b3369ba0a958ee078d136b2]
class com.views.console.SecretCombinationView--><rect codeLine="29" fill="#FEFECE" filter="url(#f1g8sqlq27sdcl)" height="86.4141" id="com.views.console.SecretCombinationView" style="stroke: #A80036; stroke-width: 1.5;" width="249" x="409.5" y="603"/><ellipse cx="458.25" cy="619" fill="#ADD1B2" rx="11" ry="11" style="stroke: #A80036; stroke-width: 1.0;"/><path d="M460.5938,614.6719 C459.6563,614.2344 459.0625,614.0938 458.1875,614.0938 C455.5625,614.0938 453.5625,616.1719 453.5625,618.8906 L453.5625,620.0156 C453.5625,622.5938 455.6719,624.4844 458.5625,624.4844 C459.7813,624.4844 460.9375,624.1875 461.6875,623.6406 C462.2656,623.2344 462.5938,622.7813 462.5938,622.3906 C462.5938,621.9375 462.2031,621.5469 461.7344,621.5469 C461.5156,621.5469 461.3125,621.625 461.125,621.8125 C460.6719,622.2969 460.6719,622.2969 460.4844,622.3906 C460.0625,622.6563 459.375,622.7813 458.6094,622.7813 C456.5625,622.7813 455.2656,621.6875 455.2656,619.9844 L455.2656,618.8906 C455.2656,617.1094 456.5156,615.7969 458.25,615.7969 C458.8281,615.7969 459.4375,615.9531 459.9063,616.2031 C460.3906,616.4844 460.5625,616.7031 460.6563,617.1094 C460.7188,617.5156 460.75,617.6406 460.8906,617.7656 C461.0313,617.9063 461.2656,618.0156 461.4844,618.0156 C461.75,618.0156 462.0156,617.875 462.1875,617.6563 C462.2969,617.5 462.3281,617.3125 462.3281,616.8906 L462.3281,615.4688 C462.3281,615.0313 462.3125,614.9063 462.2188,614.75 C462.0625,614.4844 461.7813,614.3438 461.4844,614.3438 C461.1875,614.3438 460.9844,614.4375 460.7656,614.75 L460.5938,614.6719 Z "/><text fill="#000000" font-family="sans-serif" font-size="12" lengthAdjust="spacingAndGlyphs" textLength="143" x="478.75" y="623.1543">SecretCombinationView</text><line style="stroke: #A80036; stroke-width: 1.5;" x1="410.5" x2="657.5" y1="635" y2="635"/><rect fill="none" height="6" style="stroke: #C82930; stroke-width: 1.0;" width="6" x="417.5" y="643"/><text fill="#000000" font-family="sans-serif" font-size="11" lengthAdjust="spacingAndGlyphs" textLength="223" x="429.5" y="649.2104">secretCombination: SecretCombination</text><line style="stroke: #A80036; stroke-width: 1.5;" x1="410.5" x2="657.5" y1="655.8047" y2="655.8047"/><polygon fill="#4177AF" points="420.5,662.8047,416.5,668.8047,424.5,668.8047" style="stroke: #1963A0; stroke-width: 1.0;"/><text fill="#000000" font-family="sans-serif" font-size="11" lengthAdjust="spacingAndGlyphs" textLength="145" x="429.5" y="670.0151">SecretCombinationView()</text><ellipse cx="420.5" cy="679.6094" fill="#84BE84" rx="3" ry="3" style="stroke: #038048; stroke-width: 1.0;"/><text fill="#000000" font-family="sans-serif" font-size="11" lengthAdjust="spacingAndGlyphs" textLength="77" x="429.5" y="682.8198">writeln(): void</text><!--MD5=[c6c01aec0b7ccbc7c6e2d1137d7bfafe]
class com.views.console.ConsoleView--><rect codeLine="34" fill="#FEFECE" filter="url(#f1g8sqlq27sdcl)" height="112.0234" id="com.views.console.ConsoleView" style="stroke: #A80036; stroke-width: 1.5;" width="190" x="448" y="164"/><ellipse cx="499.75" cy="180" fill="#ADD1B2" rx="11" ry="11" style="stroke: #A80036; stroke-width: 1.0;"/><path d="M502.0938,175.6719 C501.1563,175.2344 500.5625,175.0938 499.6875,175.0938 C497.0625,175.0938 495.0625,177.1719 495.0625,179.8906 L495.0625,181.0156 C495.0625,183.5938 497.1719,185.4844 500.0625,185.4844 C501.2813,185.4844 502.4375,185.1875 503.1875,184.6406 C503.7656,184.2344 504.0938,183.7813 504.0938,183.3906 C504.0938,182.9375 503.7031,182.5469 503.2344,182.5469 C503.0156,182.5469 502.8125,182.625 502.625,182.8125 C502.1719,183.2969 502.1719,183.2969 501.9844,183.3906 C501.5625,183.6563 500.875,183.7813 500.1094,183.7813 C498.0625,183.7813 496.7656,182.6875 496.7656,180.9844 L496.7656,179.8906 C496.7656,178.1094 498.0156,176.7969 499.75,176.7969 C500.3281,176.7969 500.9375,176.9531 501.4063,177.2031 C501.8906,177.4844 502.0625,177.7031 502.1563,178.1094 C502.2188,178.5156 502.25,178.6406 502.3906,178.7656 C502.5313,178.9063 502.7656,179.0156 502.9844,179.0156 C503.25,179.0156 503.5156,178.875 503.6875,178.6563 C503.7969,178.5 503.8281,178.3125 503.8281,177.8906 L503.8281,176.4688 C503.8281,176.0313 503.8125,175.9063 503.7188,175.75 C503.5625,175.4844 503.2813,175.3438 502.9844,175.3438 C502.6875,175.3438 502.4844,175.4375 502.2656,175.75 L502.0938,175.6719 Z "/><text fill="#000000" font-family="sans-serif" font-size="12" lengthAdjust="spacingAndGlyphs" textLength="78" x="520.25" y="184.1543">ConsoleView</text><line style="stroke: #A80036; stroke-width: 1.5;" x1="449" x2="637" y1="196" y2="196"/><rect fill="none" height="6" style="stroke: #C82930; stroke-width: 1.0;" width="6" x="456" y="204"/><text fill="#000000" font-family="sans-serif" font-size="11" lengthAdjust="spacingAndGlyphs" textLength="158" x="468" y="210.2104">proposalView: ProposalView</text><rect fill="none" height="6" style="stroke: #C82930; stroke-width: 1.0;" width="6" x="456" y="216.8047"/><text fill="#000000" font-family="sans-serif" font-size="11" lengthAdjust="spacingAndGlyphs" textLength="154" x="468" y="223.0151">resumeView: ResumeView</text><line style="stroke: #A80036; stroke-width: 1.5;" x1="449" x2="637" y1="229.6094" y2="229.6094"/><ellipse cx="459" cy="240.6094" fill="#84BE84" rx="3" ry="3" style="stroke: #038048; stroke-width: 1.0;"/><text fill="#000000" font-family="sans-serif" font-size="11" lengthAdjust="spacingAndGlyphs" textLength="82" x="468" y="243.8198">ConsoleView()</text><polygon fill="#FFFF44" points="459,248.4141,463,252.4141,459,256.4141,455,252.4141" style="stroke: #B38D22; stroke-width: 1.0;"/><text fill="#000000" font-family="sans-serif" font-size="11" lengthAdjust="spacingAndGlyphs" textLength="164" x="468" y="256.6245">visit(ProposalController): void</text><polygon fill="#FFFF44" points="459,261.2188,463,265.2188,459,269.2188,455,265.2188" style="stroke: #B38D22; stroke-width: 1.0;"/><text fill="#000000" font-family="sans-serif" font-size="11" lengthAdjust="spacingAndGlyphs" textLength="164" x="468" y="269.4292">visit(ResumeController): void</text><!--MD5=[fa5c417039aa357259d94198e3deb065]
class com.views.console.Message--><rect fill="#FEFECE" filter="url(#f1g8sqlq27sdcl)" height="48" id="com.views.console.Message" style="stroke: #A80036; stroke-width: 1.5;" width="87" x="123.5" y="622"/><ellipse cx="138.5" cy="638" fill="#ADD1B2" rx="11" ry="11" style="stroke: #A80036; stroke-width: 1.0;"/><path d="M140.8438,633.6719 C139.9063,633.2344 139.3125,633.0938 138.4375,633.0938 C135.8125,633.0938 133.8125,635.1719 133.8125,637.8906 L133.8125,639.0156 C133.8125,641.5938 135.9219,643.4844 138.8125,643.4844 C140.0313,643.4844 141.1875,643.1875 141.9375,642.6406 C142.5156,642.2344 142.8438,641.7813 142.8438,641.3906 C142.8438,640.9375 142.4531,640.5469 141.9844,640.5469 C141.7656,640.5469 141.5625,640.625 141.375,640.8125 C140.9219,641.2969 140.9219,641.2969 140.7344,641.3906 C140.3125,641.6563 139.625,641.7813 138.8594,641.7813 C136.8125,641.7813 135.5156,640.6875 135.5156,638.9844 L135.5156,637.8906 C135.5156,636.1094 136.7656,634.7969 138.5,634.7969 C139.0781,634.7969 139.6875,634.9531 140.1563,635.2031 C140.6406,635.4844 140.8125,635.7031 140.9063,636.1094 C140.9688,636.5156 141,636.6406 141.1406,636.7656 C141.2813,636.9063 141.5156,637.0156 141.7344,637.0156 C142,637.0156 142.2656,636.875 142.4375,636.6563 C142.5469,636.5 142.5781,636.3125 142.5781,635.8906 L142.5781,634.4688 C142.5781,634.0313 142.5625,633.9063 142.4688,633.75 C142.3125,633.4844 142.0313,633.3438 141.7344,633.3438 C141.4375,633.3438 141.2344,633.4375 141.0156,633.75 L140.8438,633.6719 Z "/><text fill="#000000" font-family="sans-serif" font-size="12" lengthAdjust="spacingAndGlyphs" textLength="55" x="152.5" y="642.1543">Message</text><line style="stroke: #A80036; stroke-width: 1.5;" x1="124.5" x2="209.5" y1="654" y2="654"/><line style="stroke: #A80036; stroke-width: 1.5;" x1="124.5" x2="209.5" y1="662" y2="662"/><!--MD5=[105cc80cb4153fdb197ae73822de8e1f]
class com.views.console.ErrorView--><rect fill="#FEFECE" filter="url(#f1g8sqlq27sdcl)" height="48" id="com.views.console.ErrorView" style="stroke: #A80036; stroke-width: 1.5;" width="91" x="283.5" y="622"/><ellipse cx="298.5" cy="638" fill="#ADD1B2" rx="11" ry="11" style="stroke: #A80036; stroke-width: 1.0;"/><path d="M300.8438,633.6719 C299.9063,633.2344 299.3125,633.0938 298.4375,633.0938 C295.8125,633.0938 293.8125,635.1719 293.8125,637.8906 L293.8125,639.0156 C293.8125,641.5938 295.9219,643.4844 298.8125,643.4844 C300.0313,643.4844 301.1875,643.1875 301.9375,642.6406 C302.5156,642.2344 302.8438,641.7813 302.8438,641.3906 C302.8438,640.9375 302.4531,640.5469 301.9844,640.5469 C301.7656,640.5469 301.5625,640.625 301.375,640.8125 C300.9219,641.2969 300.9219,641.2969 300.7344,641.3906 C300.3125,641.6563 299.625,641.7813 298.8594,641.7813 C296.8125,641.7813 295.5156,640.6875 295.5156,638.9844 L295.5156,637.8906 C295.5156,636.1094 296.7656,634.7969 298.5,634.7969 C299.0781,634.7969 299.6875,634.9531 300.1563,635.2031 C300.6406,635.4844 300.8125,635.7031 300.9063,636.1094 C300.9688,636.5156 301,636.6406 301.1406,636.7656 C301.2813,636.9063 301.5156,637.0156 301.7344,637.0156 C302,637.0156 302.2656,636.875 302.4375,636.6563 C302.5469,636.5 302.5781,636.3125 302.5781,635.8906 L302.5781,634.4688 C302.5781,634.0313 302.5625,633.9063 302.4688,633.75 C302.3125,633.4844 302.0313,633.3438 301.7344,633.3438 C301.4375,633.3438 301.2344,633.4375 301.0156,633.75 L300.8438,633.6719 Z "/><text fill="#000000" font-family="sans-serif" font-size="12" lengthAdjust="spacingAndGlyphs" textLength="59" x="312.5" y="642.1543">ErrorView</text><line style="stroke: #A80036; stroke-width: 1.5;" x1="284.5" x2="373.5" y1="654" y2="654"/><line style="stroke: #A80036; stroke-width: 1.5;" x1="284.5" x2="373.5" y1="662" y2="662"/><!--MD5=[bde59fc6c19aae4f66c9ab2f75e92cdd]
class com.controllers.ResumeController--><rect codeLine="41" fill="#FEFECE" filter="url(#f1g8sqlq27sdcl)" height="48" id="com.controllers.ResumeController" style="stroke: #A80036; stroke-width: 1.5;" width="139" x="893.5" y="476"/><ellipse cx="908.5" cy="492" fill="#ADD1B2" rx="11" ry="11" style="stroke: #A80036; stroke-width: 1.0;"/><path d="M910.8438,487.6719 C909.9063,487.2344 909.3125,487.0938 908.4375,487.0938 C905.8125,487.0938 903.8125,489.1719 903.8125,491.8906 L903.8125,493.0156 C903.8125,495.5938 905.9219,497.4844 908.8125,497.4844 C910.0313,497.4844 911.1875,497.1875 911.9375,496.6406 C912.5156,496.2344 912.8438,495.7813 912.8438,495.3906 C912.8438,494.9375 912.4531,494.5469 911.9844,494.5469 C911.7656,494.5469 911.5625,494.625 911.375,494.8125 C910.9219,495.2969 910.9219,495.2969 910.7344,495.3906 C910.3125,495.6563 909.625,495.7813 908.8594,495.7813 C906.8125,495.7813 905.5156,494.6875 905.5156,492.9844 L905.5156,491.8906 C905.5156,490.1094 906.7656,488.7969 908.5,488.7969 C909.0781,488.7969 909.6875,488.9531 910.1563,489.2031 C910.6406,489.4844 910.8125,489.7031 910.9063,490.1094 C910.9688,490.5156 911,490.6406 911.1406,490.7656 C911.2813,490.9063 911.5156,491.0156 911.7344,491.0156 C912,491.0156 912.2656,490.875 912.4375,490.6563 C912.5469,490.5 912.5781,490.3125 912.5781,489.8906 L912.5781,488.4688 C912.5781,488.0313 912.5625,487.9063 912.4688,487.75 C912.3125,487.4844 912.0313,487.3438 911.7344,487.3438 C911.4375,487.3438 911.2344,487.4375 911.0156,487.75 L910.8438,487.6719 Z "/><text fill="#000000" font-family="sans-serif" font-size="12" lengthAdjust="spacingAndGlyphs" textLength="107" x="922.5" y="496.1543">ResumeController</text><line style="stroke: #A80036; stroke-width: 1.5;" x1="894.5" x2="1031.5" y1="508" y2="508"/><line style="stroke: #A80036; stroke-width: 1.5;" x1="894.5" x2="1031.5" y1="516" y2="516"/><!--MD5=[b40cd2b78683de4e07acd5e4e0e94125]
class com.controllers.ProposalController--><rect codeLine="43" fill="#FEFECE" filter="url(#f1g8sqlq27sdcl)" height="48" id="com.controllers.ProposalController" style="stroke: #A80036; stroke-width: 1.5;" width="143" x="715.5" y="476"/><ellipse cx="730.5" cy="492" fill="#ADD1B2" rx="11" ry="11" style="stroke: #A80036; stroke-width: 1.0;"/><path d="M732.8438,487.6719 C731.9063,487.2344 731.3125,487.0938 730.4375,487.0938 C727.8125,487.0938 725.8125,489.1719 725.8125,491.8906 L725.8125,493.0156 C725.8125,495.5938 727.9219,497.4844 730.8125,497.4844 C732.0313,497.4844 733.1875,497.1875 733.9375,496.6406 C734.5156,496.2344 734.8438,495.7813 734.8438,495.3906 C734.8438,494.9375 734.4531,494.5469 733.9844,494.5469 C733.7656,494.5469 733.5625,494.625 733.375,494.8125 C732.9219,495.2969 732.9219,495.2969 732.7344,495.3906 C732.3125,495.6563 731.625,495.7813 730.8594,495.7813 C728.8125,495.7813 727.5156,494.6875 727.5156,492.9844 L727.5156,491.8906 C727.5156,490.1094 728.7656,488.7969 730.5,488.7969 C731.0781,488.7969 731.6875,488.9531 732.1563,489.2031 C732.6406,489.4844 732.8125,489.7031 732.9063,490.1094 C732.9688,490.5156 733,490.6406 733.1406,490.7656 C733.2813,490.9063 733.5156,491.0156 733.7344,491.0156 C734,491.0156 734.2656,490.875 734.4375,490.6563 C734.5469,490.5 734.5781,490.3125 734.5781,489.8906 L734.5781,488.4688 C734.5781,488.0313 734.5625,487.9063 734.4688,487.75 C734.3125,487.4844 734.0313,487.3438 733.7344,487.3438 C733.4375,487.3438 733.2344,487.4375 733.0156,487.75 L732.8438,487.6719 Z "/><text fill="#000000" font-family="sans-serif" font-size="12" lengthAdjust="spacingAndGlyphs" textLength="111" x="744.5" y="496.1543">ProposalController</text><line style="stroke: #A80036; stroke-width: 1.5;" x1="716.5" x2="857.5" y1="508" y2="508"/><line style="stroke: #A80036; stroke-width: 1.5;" x1="716.5" x2="857.5" y1="516" y2="516"/><!--MD5=[ca8154f1b0e69687fd6637bef92cef2f]
class com.utils.YesNoDialog--><rect fill="#FEFECE" filter="url(#f1g8sqlq27sdcl)" height="48" id="com.utils.YesNoDialog" style="stroke: #A80036; stroke-width: 1.5;" width="108" x="1377" y="476"/><ellipse cx="1392" cy="492" fill="#ADD1B2" rx="11" ry="11" style="stroke: #A80036; stroke-width: 1.0;"/><path d="M1394.3438,487.6719 C1393.4063,487.2344 1392.8125,487.0938 1391.9375,487.0938 C1389.3125,487.0938 1387.3125,489.1719 1387.3125,491.8906 L1387.3125,493.0156 C1387.3125,495.5938 1389.4219,497.4844 1392.3125,497.4844 C1393.5313,497.4844 1394.6875,497.1875 1395.4375,496.6406 C1396.0156,496.2344 1396.3438,495.7813 1396.3438,495.3906 C1396.3438,494.9375 1395.9531,494.5469 1395.4844,494.5469 C1395.2656,494.5469 1395.0625,494.625 1394.875,494.8125 C1394.4219,495.2969 1394.4219,495.2969 1394.2344,495.3906 C1393.8125,495.6563 1393.125,495.7813 1392.3594,495.7813 C1390.3125,495.7813 1389.0156,494.6875 1389.0156,492.9844 L1389.0156,491.8906 C1389.0156,490.1094 1390.2656,488.7969 1392,488.7969 C1392.5781,488.7969 1393.1875,488.9531 1393.6563,489.2031 C1394.1406,489.4844 1394.3125,489.7031 1394.4063,490.1094 C1394.4688,490.5156 1394.5,490.6406 1394.6406,490.7656 C1394.7813,490.9063 1395.0156,491.0156 1395.2344,491.0156 C1395.5,491.0156 1395.7656,490.875 1395.9375,490.6563 C1396.0469,490.5 1396.0781,490.3125 1396.0781,489.8906 L1396.0781,488.4688 C1396.0781,488.0313 1396.0625,487.9063 1395.9688,487.75 C1395.8125,487.4844 1395.5313,487.3438 1395.2344,487.3438 C1394.9375,487.3438 1394.7344,487.4375 1394.5156,487.75 L1394.3438,487.6719 Z "/><text fill="#000000" font-family="sans-serif" font-size="12" lengthAdjust="spacingAndGlyphs" textLength="76" x="1406" y="496.1543">YesNoDialog</text><line style="stroke: #A80036; stroke-width: 1.5;" x1="1378" x2="1484" y1="508" y2="508"/><line style="stroke: #A80036; stroke-width: 1.5;" x1="1378" x2="1484" y1="516" y2="516"/><!--MD5=[a73f5e6aa95c1c5d816abffe3cd86853]
class com.utils.WithConsoleView--><rect fill="#FEFECE" filter="url(#f1g8sqlq27sdcl)" height="48" id="com.utils.WithConsoleView" style="stroke: #A80036; stroke-width: 1.5;" width="136" x="1206" y="476"/><ellipse cx="1221" cy="492" fill="#ADD1B2" rx="11" ry="11" style="stroke: #A80036; stroke-width: 1.0;"/><path d="M1223.3438,487.6719 C1222.4063,487.2344 1221.8125,487.0938 1220.9375,487.0938 C1218.3125,487.0938 1216.3125,489.1719 1216.3125,491.8906 L1216.3125,493.0156 C1216.3125,495.5938 1218.4219,497.4844 1221.3125,497.4844 C1222.5313,497.4844 1223.6875,497.1875 1224.4375,496.6406 C1225.0156,496.2344 1225.3438,495.7813 1225.3438,495.3906 C1225.3438,494.9375 1224.9531,494.5469 1224.4844,494.5469 C1224.2656,494.5469 1224.0625,494.625 1223.875,494.8125 C1223.4219,495.2969 1223.4219,495.2969 1223.2344,495.3906 C1222.8125,495.6563 1222.125,495.7813 1221.3594,495.7813 C1219.3125,495.7813 1218.0156,494.6875 1218.0156,492.9844 L1218.0156,491.8906 C1218.0156,490.1094 1219.2656,488.7969 1221,488.7969 C1221.5781,488.7969 1222.1875,488.9531 1222.6563,489.2031 C1223.1406,489.4844 1223.3125,489.7031 1223.4063,490.1094 C1223.4688,490.5156 1223.5,490.6406 1223.6406,490.7656 C1223.7813,490.9063 1224.0156,491.0156 1224.2344,491.0156 C1224.5,491.0156 1224.7656,490.875 1224.9375,490.6563 C1225.0469,490.5 1225.0781,490.3125 1225.0781,489.8906 L1225.0781,488.4688 C1225.0781,488.0313 1225.0625,487.9063 1224.9688,487.75 C1224.8125,487.4844 1224.5313,487.3438 1224.2344,487.3438 C1223.9375,487.3438 1223.7344,487.4375 1223.5156,487.75 L1223.3438,487.6719 Z "/><text fill="#000000" font-family="sans-serif" font-size="12" lengthAdjust="spacingAndGlyphs" textLength="104" x="1235" y="496.1543">WithConsoleView</text><line style="stroke: #A80036; stroke-width: 1.5;" x1="1207" x2="1341" y1="508" y2="508"/><line style="stroke: #A80036; stroke-width: 1.5;" x1="1207" x2="1341" y1="516" y2="516"/><!--MD5=[a146112e0988386c11c85e1ba9cb589c]
class com.utils.Console--><rect fill="#FEFECE" filter="url(#f1g8sqlq27sdcl)" height="48" id="com.utils.Console" style="stroke: #A80036; stroke-width: 1.5;" width="81" x="1089.5" y="476"/><ellipse cx="1104.5" cy="492" fill="#ADD1B2" rx="11" ry="11" style="stroke: #A80036; stroke-width: 1.0;"/><path d="M1106.8438,487.6719 C1105.9063,487.2344 1105.3125,487.0938 1104.4375,487.0938 C1101.8125,487.0938 1099.8125,489.1719 1099.8125,491.8906 L1099.8125,493.0156 C1099.8125,495.5938 1101.9219,497.4844 1104.8125,497.4844 C1106.0313,497.4844 1107.1875,497.1875 1107.9375,496.6406 C1108.5156,496.2344 1108.8438,495.7813 1108.8438,495.3906 C1108.8438,494.9375 1108.4531,494.5469 1107.9844,494.5469 C1107.7656,494.5469 1107.5625,494.625 1107.375,494.8125 C1106.9219,495.2969 1106.9219,495.2969 1106.7344,495.3906 C1106.3125,495.6563 1105.625,495.7813 1104.8594,495.7813 C1102.8125,495.7813 1101.5156,494.6875 1101.5156,492.9844 L1101.5156,491.8906 C1101.5156,490.1094 1102.7656,488.7969 1104.5,488.7969 C1105.0781,488.7969 1105.6875,488.9531 1106.1563,489.2031 C1106.6406,489.4844 1106.8125,489.7031 1106.9063,490.1094 C1106.9688,490.5156 1107,490.6406 1107.1406,490.7656 C1107.2813,490.9063 1107.5156,491.0156 1107.7344,491.0156 C1108,491.0156 1108.2656,490.875 1108.4375,490.6563 C1108.5469,490.5 1108.5781,490.3125 1108.5781,489.8906 L1108.5781,488.4688 C1108.5781,488.0313 1108.5625,487.9063 1108.4688,487.75 C1108.3125,487.4844 1108.0313,487.3438 1107.7344,487.3438 C1107.4375,487.3438 1107.2344,487.4375 1107.0156,487.75 L1106.8438,487.6719 Z "/><text fill="#000000" font-family="sans-serif" font-size="12" lengthAdjust="spacingAndGlyphs" textLength="49" x="1118.5" y="496.1543">Console</text><line style="stroke: #A80036; stroke-width: 1.5;" x1="1090.5" x2="1169.5" y1="508" y2="508"/><line style="stroke: #A80036; stroke-width: 1.5;" x1="1090.5" x2="1169.5" y1="516" y2="516"/><!--MD5=[7aa64f585256ce516095cd2e22591688]
reverse link com.views.View to com.views.console.ConsoleView--><path codeLine="45" d="M543,109.52 C543,126.385 543,145.893 543,163.73 " fill="none" id="com.views.View-backto-com.views.console.ConsoleView" style="stroke: #A80036; stroke-width: 1.0;"/><polygon fill="none" points="536,109.237,543,89.237,550,109.237,536,109.237" style="stroke: #A80036; stroke-width: 1.0;"/><!--MD5=[e22baea2f8c5a6b8410929355e0293cc]
link com.views.console.ConsoleView to com.views.console.ProposalView--><path codeLine="46" d="M437.1843,278.2674 C437.1843,278.2674 370.828,314.179 342.551,329.483 " fill="none" id="com.views.console.ConsoleView-com.views.console.ProposalView" style="stroke: #A80036; stroke-width: 1.0;"/><polygon fill="#A80036" points="330.785,335.85,340.6041,335.0844,335.1824,333.4703,336.7965,328.0486,330.785,335.85" style="stroke: #A80036; stroke-width: 1.0;"/><line style="stroke: #A80036; stroke-width: 1.0;" x1="335.1824" x2="342.2185" y1="333.4703" y2="329.6625"/><polygon fill="#A80036" points="447.738,272.556,440.5574,271.8938,437.1843,278.2674,444.3649,278.9296,447.738,272.556" style="stroke: #A80036; stroke-width: 1.0;"/><!--MD5=[d2cae6fbfef1442cc1e4a2e378a50eb8]
link com.views.console.ConsoleView to com.views.console.ResumeView--><path codeLine="47" d="M543,288.041 C543,288.041 543,311.972 543,322.504 " fill="none" id="com.views.console.ConsoleView-com.views.console.ResumeView" style="stroke: #A80036; stroke-width: 1.0;"/><polygon fill="#A80036" points="543,335.679,547,326.679,543,330.679,539,326.679,543,335.679" style="stroke: #A80036; stroke-width: 1.0;"/><line style="stroke: #A80036; stroke-width: 1.0;" x1="543" x2="543" y1="330.679" y2="322.679"/><polygon fill="#A80036" points="543,276.041,539,282.041,543,288.041,547,282.041,543,276.041" style="stroke: #A80036; stroke-width: 1.0;"/><!--MD5=[71f3a91da12756bc4af8fb361c280429]
link com.views.console.ConsoleView to com.utils.YesNoDialog--><path codeLine="48" d="M638.281,230.384 C796.7,249.23 1120.51,301.728 1360,433 C1378.08,442.908 1395.11,458.444 1407.96,471.954 " fill="none" id="com.views.console.ConsoleView-to-com.utils.YesNoDialog" style="stroke: #A80036; stroke-width: 1.0; stroke-dasharray: 7.0,7.0;"/><polygon fill="#A80036" points="1411.47,475.704,1408.2482,466.397,1408.0564,472.0506,1402.4028,471.8588,1411.47,475.704" style="stroke: #A80036; stroke-width: 1.0;"/><!--MD5=[54addae0174bf8ce0e5c259080353776]
link com.views.console.ProposalView to com.views.console.SecretCombinationView--><path codeLine="49" d="M392.329,393.746 C397.959,394.877 403.539,395.968 409,397 C459.834,406.606 605.366,393.692 639,433 C672.229,471.835 659.49,501.176 639,548 C630.47,567.492 615.877,584.808 600.239,599.219 " fill="none" id="com.views.console.ProposalView-to-com.views.console.SecretCombinationView" style="stroke: #A80036; stroke-width: 1.0; stroke-dasharray: 7.0,7.0;"/><polygon fill="#A80036" points="596.243,602.819,605.6066,599.7655,599.9573,599.4718,600.2511,593.8226,596.243,602.819" style="stroke: #A80036; stroke-width: 1.0;"/><!--MD5=[bc9d378066991817bd6561b80559f405]
link com.views.console.ProposalView to com.views.console.ProposedCombinationView--><path codeLine="50" d="M290.138,397.011 C297.931,413.276 307.785,433.844 316.599,452.242 " fill="none" id="com.views.console.ProposalView-to-com.views.console.ProposedCombinationView" style="stroke: #A80036; stroke-width: 1.0; stroke-dasharray: 7.0,7.0;"/><polygon fill="#A80036" points="318.816,456.869,318.5348,447.0242,316.6557,452.3598,311.3201,450.4807,318.816,456.869" style="stroke: #A80036; stroke-width: 1.0;"/><!--MD5=[db5e31afe49d720b69a83fd3f36d0211]
link com.views.console.ProposalView to com.views.console.ResultView--><path codeLine="51" d="M231.573,397.21 C215.473,408.217 197.257,420.954 181,433 C172.229,439.499 163.068,446.529 154.168,453.494 " fill="none" id="com.views.console.ProposalView-to-com.views.console.ResultView" style="stroke: #A80036; stroke-width: 1.0; stroke-dasharray: 7.0,7.0;"/><polygon fill="#A80036" points="149.823,456.906,159.3717,454.4932,153.7553,453.8178,154.4307,448.2014,149.823,456.906" style="stroke: #A80036; stroke-width: 1.0;"/><!--MD5=[1cf0367ab8a792c9e190b449c161ce8a]
link com.views.console.StartView to com.views.console.SecretCombinationView--><path codeLine="52" d="M560.955,530.837 C556.38,550.214 550.32,575.881 545.104,597.969 " fill="none" id="com.views.console.StartView-to-com.views.console.SecretCombinationView" style="stroke: #A80036; stroke-width: 1.0; stroke-dasharray: 7.0,7.0;"/><polygon fill="#A80036" points="543.937,602.915,549.8977,595.0747,545.0857,598.0487,542.1117,593.2368,543.937,602.915" style="stroke: #A80036; stroke-width: 1.0;"/><!--MD5=[726183ef7816c83cd7ffea104b600899]
reverse link com.utils.WithConsoleView to com.views.console.ColorView--><path codeLine="53" d="M1214.83,533.91 C1205.88,538.719 1196.73,543.547 1188,548 C1057.84,614.397 1026.6,634.556 891,689 C801.633,724.882 695.337,758.545 628.752,778.589 " fill="none" id="com.utils.WithConsoleView-backto-com.views.console.ColorView" style="stroke: #A80036; stroke-width: 1.0;"/><polygon fill="none" points="1211.78,527.598,1232.7,524.191,1218.47,539.896,1211.78,527.598" style="stroke: #A80036; stroke-width: 1.0;"/><!--MD5=[feedc1042afae6e2e04d18811f8c7bcd]
reverse link com.utils.WithConsoleView to com.views.console.ProposedCombinationView--><path codeLine="54" d="M1239.43,461.275 C1220.96,443.519 1196.67,424.368 1170.5,415 C1101.77,390.395 584.633,398.597 513.5,415 C477.216,423.367 439.743,440.348 408.869,456.947 " fill="none" id="com.utils.WithConsoleView-backto-com.views.console.ProposedCombinationView" style="stroke: #A80036; stroke-width: 1.0;"/><polygon fill="none" points="1244.49,456.432,1253.48,475.616,1234.49,466.231,1244.49,456.432" style="stroke: #A80036; stroke-width: 1.0;"/><!--MD5=[0dc20a1e41fc7e5f04f5f06aa486d743]
reverse link com.utils.WithConsoleView to com.views.console.ResultView--><path codeLine="55" d="M1239.43,461.275 C1220.96,443.519 1196.67,424.368 1170.5,415 C1119.66,396.799 249.207,396.432 198.5,415 C175.111,423.565 153.419,440.246 136.22,456.579 " fill="none" id="com.utils.WithConsoleView-backto-com.views.console.ResultView" style="stroke: #A80036; stroke-width: 1.0;"/><polygon fill="none" points="1244.49,456.432,1253.48,475.616,1234.49,466.231,1244.49,456.432" style="stroke: #A80036; stroke-width: 1.0;"/><!--MD5=[8b678d481ca4a6b7461ff7c1272e7c21]
reverse link com.utils.WithConsoleView to com.views.console.SecretCombinationView--><path codeLine="56" d="M1220.89,533.777 C1210.29,539.228 1199.02,544.301 1188,548 C1010.08,607.694 792.654,630.705 658.762,639.54 " fill="none" id="com.utils.WithConsoleView-backto-com.views.console.SecretCombinationView" style="stroke: #A80036; stroke-width: 1.0;"/><polygon fill="none" points="1217.57,527.61,1238.47,524.102,1224.32,539.876,1217.57,527.61" style="stroke: #A80036; stroke-width: 1.0;"/><!--MD5=[2114718b386996653dbe92f2fe941d7f]
link com.views.console.StartView to com.views.console.Message--><path codeLine="57" d="M527.872,530.648 C517.835,537.076 506.832,543.337 496,548 C399.462,589.56 365.835,570.14 266,603 C249.285,608.502 231.459,615.645 215.606,622.476 " fill="none" id="com.views.console.StartView-to-com.views.console.Message" style="stroke: #A80036; stroke-width: 1.0; stroke-dasharray: 7.0,7.0;"/><polygon fill="#A80036" points="210.752,624.583,220.6005,624.6655,215.3379,622.5907,217.4128,617.3281,210.752,624.583" style="stroke: #A80036; stroke-width: 1.0;"/><!--MD5=[603888e2eaaff50926ac19058d7e052e]
link com.views.console.ResumeView to com.utils.YesNoDialog--><path codeLine="58" d="M659.257,374.801 C877.264,388.772 1328.48,419.131 1360,433 C1379.43,441.549 1396.95,457.697 1409.73,471.88 " fill="none" id="com.views.console.ResumeView-to-com.utils.YesNoDialog" style="stroke: #A80036; stroke-width: 1.0; stroke-dasharray: 7.0,7.0;"/><polygon fill="#A80036" points="1413.2,475.821,1410.256,466.4224,1409.8964,472.0679,1404.251,471.7082,1413.2,475.821" style="stroke: #A80036; stroke-width: 1.0;"/><!--MD5=[15855486d702e117089f25dcf3bee8b6]
link com.views.console.ProposalView to com.views.console.StartView--><path codeLine="59" d="M392.211,397.059 C434.808,408.949 477.192,422.339 496,433 C511.241,441.639 525.907,454.054 537.979,465.791 " fill="none" id="com.views.console.ProposalView-to-com.views.console.StartView" style="stroke: #A80036; stroke-width: 1.0; stroke-dasharray: 7.0,7.0;"/><polygon fill="#A80036" points="541.64,469.406,538.047,460.2359,538.0824,465.8927,532.4256,465.9281,541.64,469.406" style="stroke: #A80036; stroke-width: 1.0;"/><!--MD5=[bb941783f923331f1f3f715bc099975c]
link com.views.console.ProposedCombinationView to com.views.console.Message--><path codeLine="60" d="M288.788,543.038 C259.611,567.466 223.744,597.494 198.514,618.616 " fill="none" id="com.views.console.ProposedCombinationView-to-com.views.console.Message" style="stroke: #A80036; stroke-width: 1.0; stroke-dasharray: 7.0,7.0;"/><polygon fill="#A80036" points="194.559,621.928,204.0276,619.2177,198.3928,618.7184,198.8922,613.0836,194.559,621.928" style="stroke: #A80036; stroke-width: 1.0;"/><!--MD5=[d81739f0e07cdd2aac06dd5608921218]
link com.views.console.ProposedCombinationView to com.views.console.ColorView--><path codeLine="61" d="M300.848,543.016 C269.293,583.076 234.372,643.826 266,689 C317.345,762.337 423.683,786.2843 494.444,793.9967 " fill="none" id="com.views.console.ProposedCombinationView-to-com.views.console.ColorView" style="stroke: #A80036; stroke-width: 1.0; stroke-dasharray: 7.0,7.0;"/><polygon fill="#A80036" points="499.476,794.5244,490.9422,789.6076,494.5033,794.003,490.1079,797.564,499.476,794.5244" style="stroke: #A80036; stroke-width: 1.0;"/><!--MD5=[ff0185f0b3b10021bfb6f06bb73b91d9]
link com.views.console.ProposedCombinationView to com.views.console.ErrorView--><path codeLine="62" d="M336.081,543.038 C334.433,566.762 332.419,595.768 330.96,616.769 " fill="none" id="com.views.console.ProposedCombinationView-to-com.views.console.ErrorView" style="stroke: #A80036; stroke-width: 1.0; stroke-dasharray: 7.0,7.0;"/><polygon fill="#A80036" points="330.602,621.928,335.2171,613.2274,330.9491,616.9401,327.2364,612.672,330.602,621.928" style="stroke: #A80036; stroke-width: 1.0;"/><!--MD5=[4cb906c255cdd9b037b3d07e75d1777b]
link com.views.console.SecretCombinationView to com.utils.Console--><path codeLine="63" d="M658.648,633.501 C764.967,620.897 920.55,595.759 1049,548 C1063.65,542.553 1078.72,534.569 1091.83,526.722 " fill="none" id="com.views.console.SecretCombinationView-to-com.utils.Console" style="stroke: #A80036; stroke-width: 1.0; stroke-dasharray: 7.0,7.0;"/><polygon fill="#A80036" points="1096.19,524.07,1086.4222,525.3313,1091.9186,526.6691,1090.5808,532.1655,1096.19,524.07" style="stroke: #A80036; stroke-width: 1.0;"/><!--MD5=[a530400e35e44f4130d2988e30e4501c]
link com.views.console.SecretCombinationView to com.views.console.ColorView--><path codeLine="64" d="M542.437,689.323 C545.811,706.25 549.737,725.946 553.307,743.858 " fill="none" id="com.views.console.SecretCombinationView-to-com.views.console.ColorView" style="stroke: #A80036; stroke-width: 1.0; stroke-dasharray: 7.0,7.0;"/><polygon fill="#A80036" points="554.304,748.859,556.4683,739.2509,553.327,743.9554,548.6225,740.8141,554.304,748.859" style="stroke: #A80036; stroke-width: 1.0;"/><!--MD5=[049f9d60b17577bc39fc255c13cb9467]
link com.views.console.ColorView to com.utils.Console--><path codeLine="65" d="M628.877,765.435 C722.422,718.905 900.291,629.327 1049,548 C1061.32,541.261 1074.55,533.717 1086.68,526.68 " fill="none" id="com.views.console.ColorView-to-com.utils.Console" style="stroke: #A80036; stroke-width: 1.0; stroke-dasharray: 7.0,7.0;"/><polygon fill="#A80036" points="1091.09,524.113,1081.2993,525.1816,1086.7683,526.6275,1085.3224,532.0964,1091.09,524.113" style="stroke: #A80036; stroke-width: 1.0;"/><!--MD5=[6ea0a1a87890fb473433baab9a86dccb]
link com.views.console.ErrorView to com.utils.Console--><path codeLine="66" d="M357.158,621.824 C367.507,614.541 379.713,607.288 392,603 C668.659,506.453 769.471,635.893 1049,548 C1064.33,543.18 1079.89,535.077 1093.23,526.944 " fill="none" id="com.views.console.ErrorView-to-com.utils.Console" style="stroke: #A80036; stroke-width: 1.0; stroke-dasharray: 7.0,7.0;"/><polygon fill="#A80036" points="1097.66,524.19,1087.9053,525.5488,1093.4148,526.8316,1092.132,532.3411,1097.66,524.19" style="stroke: #A80036; stroke-width: 1.0;"/><!--MD5=[831de021c2e45039d9a288e5a93b274f]
link com.views.console.ResultView to com.views.console.Message--><path codeLine="67" d="M118.143,543.038 C129.607,566.963 143.646,596.26 153.728,617.301 " fill="none" id="com.views.console.ResultView-to-com.views.console.Message" style="stroke: #A80036; stroke-width: 1.0; stroke-dasharray: 7.0,7.0;"/><polygon fill="#A80036" points="155.944,621.928,155.6603,612.0832,153.7825,617.4193,148.4464,615.5416,155.944,621.928" style="stroke: #A80036; stroke-width: 1.0;"/><!--MD5=[aa718054689abbe4931710ed5a95854e]
link com.views.console.ProposalView to com.controllers.ProposalController--><path codeLine="68" d="M392.303,393.886 C397.94,394.98 403.528,396.025 409,397 C526.449,417.935 562.274,393.945 675,433 C702.077,442.381 729.846,458.692 750.96,472.751 " fill="none" id="com.views.console.ProposalView-to-com.controllers.ProposalController" style="stroke: #A80036; stroke-width: 1.0; stroke-dasharray: 7.0,7.0;"/><polygon fill="#A80036" points="755.361,475.713,750.1303,467.368,751.2138,472.9201,745.6616,474.0035,755.361,475.713" style="stroke: #A80036; stroke-width: 1.0;"/><!--MD5=[a908cb694482f37bba1d28f702d5395a]
link com.views.console.ResumeView to com.controllers.ResumeController--><path codeLine="69" d="M659.052,377.256 C724.911,385.954 807.589,402.318 876,433 C897.528,442.656 918.686,458.521 934.746,472.277 " fill="none" id="com.views.console.ResumeView-to-com.controllers.ResumeController" style="stroke: #A80036; stroke-width: 1.0; stroke-dasharray: 7.0,7.0;"/><polygon fill="#A80036" points="938.716,475.724,934.543,466.8029,934.9407,472.4458,929.2978,472.8434,938.716,475.724" style="stroke: #A80036; stroke-width: 1.0;"/><!--MD5=[94195a494d147ce240e1009b69980ee3]
@startuml
class  com.views.ErrorView{}
class  com.views.Message{}
class  com.views.View{}
class  com.views.console.ColorView{
- color: Color
~ ColorView(Color)
+ write(): void
+ writeInitials(): void
}
class  com.views.console.ProposedCombinationView{
-proposedCombination: ProposedCombination
+ write(ProposedCombination): void
+ read(): ProposedCombination
}
class  com.views.console.ResultView{
- result: Result
~ ResultView(Result)
+ writeln(): void
}
class  com.views.console.ResumeView{
+ interact(ResumeController): boolean
}
class  com.views.console.ProposalView{
+ interact(ProposalController): boolean
}
class  com.views.console.StartView{
+ interact(): void
}
class  com.views.console.SecretCombinationView{
- secretCombination: SecretCombination
~ SecretCombinationView()
+ writeln(): void
}
class  com.views.console.ConsoleView{
- proposalView: ProposalView
- resumeView: ResumeView
+ ConsoleView()
# visit(ProposalController): void
# visit(ResumeController): void
}
class com.controllers.ResumeController {
}
class com.controllers.ProposalController {
}
com.views.View <|-down- com.views.console.ConsoleView
com.views.console.ConsoleView *-down-> com.views.console.ProposalView
com.views.console.ConsoleView *-down-> com.views.console.ResumeView
com.views.console.ConsoleView ..> com.utils.YesNoDialog
com.views.console.ProposalView..> com.views.console.SecretCombinationView
com.views.console.ProposalView..> com.views.console.ProposedCombinationView
com.views.console.ProposalView..> com.views.console.ResultView
com.views.console.StartView..> com.views.console.SecretCombinationView
com.utils.WithConsoleView <|-down- com.views.console.ColorView
com.utils.WithConsoleView <|-down- com.views.console.ProposedCombinationView
com.utils.WithConsoleView <|-down- com.views.console.ResultView
com.utils.WithConsoleView <|-down- com.views.console.SecretCombinationView
com.views.console.StartView ..> com.views.console.Message
com.views.console.ResumeView ..> com.utils.YesNoDialog
com.views.console.ProposalView ..> com.views.console.StartView
com.views.console.ProposedCombinationView..> com.views.console.Message
com.views.console.ProposedCombinationView..> com.views.console.ColorView
com.views.console.ProposedCombinationView..> com.views.console.ErrorView
com.views.console.SecretCombinationView..> com.utils.Console
com.views.console.SecretCombinationView..> com.views.console.ColorView
com.views.console.ColorView..> com.utils.Console
com.views.console.ErrorView ..> com.utils.Console
com.views.console.ResultView..> com.views.console.Message
com.views.console.ProposalView .down.> com.controllers.ProposalController
com.views.console.ResumeView .down.> com.controllers.ResumeController
@enduml

PlantUML version 1.2020.20beta2(Unknown compile time)
(GPL source distribution)
Java Runtime: Java(TM) SE Runtime Environment
JVM: Java HotSpot(TM) 64-Bit Server VM
Default Encoding: UTF-8
Language: en
Country: US
--></g></svg>