<?xml version="1.0" encoding="UTF-8" standalone="no"?><svg xmlns="http://www.w3.org/2000/svg" xmlns:xlink="http://www.w3.org/1999/xlink" contentScriptType="application/ecmascript" contentStyleType="text/css" height="310px" preserveAspectRatio="none" style="width:699px;height:310px;" version="1.1" viewBox="0 0 699 310" width="699px" zoomAndPan="magnify"><defs><filter height="300%" id="f11j5olnvywq8y" width="300%" x="-1" y="-1"><feGaussianBlur result="blurOut" stdDeviation="2.0"/><feColorMatrix in="blurOut" result="blurOut2" type="matrix" values="0 0 0 0 0 0 0 0 0 0 0 0 0 0 0 0 0 0 .4 0"/><feOffset dx="4.0" dy="4.0" in="blurOut2" result="blurOut3"/><feBlend in="SourceGraphic" in2="blurOut3" mode="normal"/></filter></defs><g><!--MD5=[043c5a28d89c867fc56a76551f267aaf]
cluster com.mastermind--><polygon fill="#FFFFFF" filter="url(#f11j5olnvywq8y)" points="16,6,159,6,166,28.2969,390,28.2969,390,303,16,303,16,6" style="stroke: #000000; stroke-width: 1.5;"/><line style="stroke: #000000; stroke-width: 1.5;" x1="16" x2="166" y1="28.2969" y2="28.2969"/><text fill="#000000" font-family="sans-serif" font-size="14" font-weight="bold" lengthAdjust="spacingAndGlyphs" textLength="137" x="20" y="20.9951">com.mastermind</text><!--MD5=[e83acf53252e5e6f992a589437172ba6]
cluster com.views--><polygon fill="#FFFFFF" filter="url(#f11j5olnvywq8y)" points="414,191,504,191,511,213.2969,514,213.2969,514,290,414,290,414,191" style="stroke: #000000; stroke-width: 1.5;"/><line style="stroke: #000000; stroke-width: 1.5;" x1="414" x2="511" y1="213.2969" y2="213.2969"/><text fill="#000000" font-family="sans-serif" font-size="14" font-weight="bold" lengthAdjust="spacingAndGlyphs" textLength="84" x="418" y="205.9951">com.views</text><!--MD5=[cc15223dad906424482237695d0c4da8]
cluster com.controllers--><polygon fill="#FFFFFF" filter="url(#f11j5olnvywq8y)" points="538,191,672,191,679,213.2969,682,213.2969,682,290,538,290,538,191" style="stroke: #000000; stroke-width: 1.5;"/><line style="stroke: #000000; stroke-width: 1.5;" x1="538" x2="679" y1="213.2969" y2="213.2969"/><text fill="#000000" font-family="sans-serif" font-size="14" font-weight="bold" lengthAdjust="spacingAndGlyphs" textLength="128" x="542" y="205.9951">com.controllers</text><!--MD5=[5aabb3b58752f61d5b0f38be09dbe0ff]
class com.mastermind.ConsoleMastermind--><rect codeLine="1" fill="#FEFECE" filter="url(#f11j5olnvywq8y)" height="73.6094" id="com.mastermind.ConsoleMastermind" style="stroke: #A80036; stroke-width: 1.5;" width="151" x="32.5" y="213"/><ellipse cx="47.5" cy="229" fill="#ADD1B2" rx="11" ry="11" style="stroke: #A80036; stroke-width: 1.0;"/><path d="M49.8438,224.6719 C48.9063,224.2344 48.3125,224.0938 47.4375,224.0938 C44.8125,224.0938 42.8125,226.1719 42.8125,228.8906 L42.8125,230.0156 C42.8125,232.5938 44.9219,234.4844 47.8125,234.4844 C49.0313,234.4844 50.1875,234.1875 50.9375,233.6406 C51.5156,233.2344 51.8438,232.7813 51.8438,232.3906 C51.8438,231.9375 51.4531,231.5469 50.9844,231.5469 C50.7656,231.5469 50.5625,231.625 50.375,231.8125 C49.9219,232.2969 49.9219,232.2969 49.7344,232.3906 C49.3125,232.6563 48.625,232.7813 47.8594,232.7813 C45.8125,232.7813 44.5156,231.6875 44.5156,229.9844 L44.5156,228.8906 C44.5156,227.1094 45.7656,225.7969 47.5,225.7969 C48.0781,225.7969 48.6875,225.9531 49.1563,226.2031 C49.6406,226.4844 49.8125,226.7031 49.9063,227.1094 C49.9688,227.5156 50,227.6406 50.1406,227.7656 C50.2813,227.9063 50.5156,228.0156 50.7344,228.0156 C51,228.0156 51.2656,227.875 51.4375,227.6563 C51.5469,227.5 51.5781,227.3125 51.5781,226.8906 L51.5781,225.4688 C51.5781,225.0313 51.5625,224.9063 51.4688,224.75 C51.3125,224.4844 51.0313,224.3438 50.7344,224.3438 C50.4375,224.3438 50.2344,224.4375 50.0156,224.75 L49.8438,224.6719 Z "/><text fill="#000000" font-family="sans-serif" font-size="12" lengthAdjust="spacingAndGlyphs" textLength="119" x="61.5" y="233.1543">ConsoleMastermind</text><line style="stroke: #A80036; stroke-width: 1.5;" x1="33.5" x2="182.5" y1="245" y2="245"/><line style="stroke: #A80036; stroke-width: 1.5;" x1="33.5" x2="182.5" y1="253" y2="253"/><ellipse cx="43.5" cy="264" fill="#84BE84" rx="3" ry="3" style="stroke: #038048; stroke-width: 1.0;"/><text fill="#000000" font-family="sans-serif" font-size="11" lengthAdjust="spacingAndGlyphs" text-decoration="underline" textLength="108" x="52.5" y="267.2104">main(String[]): void</text><polygon fill="#FFFF44" points="43.5,271.8047,47.5,275.8047,43.5,279.8047,39.5,275.8047" style="stroke: #B38D22; stroke-width: 1.0;"/><text fill="#000000" font-family="sans-serif" font-size="11" lengthAdjust="spacingAndGlyphs" textLength="108" x="52.5" y="280.0151">createView(): View</text><!--MD5=[ac7b9389ce6f19cd8ef561e672b8b75c]
class com.mastermind.Mastermind--><rect codeLine="13" fill="#FEFECE" filter="url(#f11j5olnvywq8y)" height="112.0234" id="com.mastermind.Mastermind" style="stroke: #A80036; stroke-width: 1.5;" width="132" x="236" y="41"/><ellipse cx="264.5" cy="57" fill="#ADD1B2" rx="11" ry="11" style="stroke: #A80036; stroke-width: 1.0;"/><path d="M266.8438,52.6719 C265.9063,52.2344 265.3125,52.0938 264.4375,52.0938 C261.8125,52.0938 259.8125,54.1719 259.8125,56.8906 L259.8125,58.0156 C259.8125,60.5938 261.9219,62.4844 264.8125,62.4844 C266.0313,62.4844 267.1875,62.1875 267.9375,61.6406 C268.5156,61.2344 268.8438,60.7813 268.8438,60.3906 C268.8438,59.9375 268.4531,59.5469 267.9844,59.5469 C267.7656,59.5469 267.5625,59.625 267.375,59.8125 C266.9219,60.2969 266.9219,60.2969 266.7344,60.3906 C266.3125,60.6563 265.625,60.7813 264.8594,60.7813 C262.8125,60.7813 261.5156,59.6875 261.5156,57.9844 L261.5156,56.8906 C261.5156,55.1094 262.7656,53.7969 264.5,53.7969 C265.0781,53.7969 265.6875,53.9531 266.1563,54.2031 C266.6406,54.4844 266.8125,54.7031 266.9063,55.1094 C266.9688,55.5156 267,55.6406 267.1406,55.7656 C267.2813,55.9063 267.5156,56.0156 267.7344,56.0156 C268,56.0156 268.2656,55.875 268.4375,55.6563 C268.5469,55.5 268.5781,55.3125 268.5781,54.8906 L268.5781,53.4688 C268.5781,53.0313 268.5625,52.9063 268.4688,52.75 C268.3125,52.4844 268.0313,52.3438 267.7344,52.3438 C267.4375,52.3438 267.2344,52.4375 267.0156,52.75 L266.8438,52.6719 Z "/><text fill="#000000" font-family="sans-serif" font-size="12" lengthAdjust="spacingAndGlyphs" textLength="70" x="281.5" y="61.1543">Mastermind</text><line style="stroke: #A80036; stroke-width: 1.5;" x1="237" x2="367" y1="73" y2="73"/><rect fill="none" height="6" style="stroke: #C82930; stroke-width: 1.0;" width="6" x="244" y="81"/><text fill="#000000" font-family="sans-serif" font-size="11" lengthAdjust="spacingAndGlyphs" textLength="62" x="256" y="87.2104">logic: Logic</text><rect fill="none" height="6" style="stroke: #C82930; stroke-width: 1.0;" width="6" x="244" y="93.8047"/><text fill="#000000" font-family="sans-serif" font-size="11" lengthAdjust="spacingAndGlyphs" textLength="62" x="256" y="100.0151">view: View</text><line style="stroke: #A80036; stroke-width: 1.5;" x1="237" x2="367" y1="106.6094" y2="106.6094"/><polygon fill="#FFFF44" points="247,112.6094,251,116.6094,247,120.6094,243,116.6094" style="stroke: #B38D22; stroke-width: 1.0;"/><text fill="#000000" font-family="sans-serif" font-size="11" lengthAdjust="spacingAndGlyphs" textLength="74" x="256" y="120.8198">Mastermind()</text><polygon fill="#FFFF44" points="247,125.4141,251,129.4141,247,133.4141,243,129.4141" style="stroke: #B38D22; stroke-width: 1.0;"/><text fill="#000000" font-family="sans-serif" font-size="11" font-style="italic" lengthAdjust="spacingAndGlyphs" textLength="106" x="256" y="133.6245">createView(): View</text><polygon fill="#FFFF44" points="247,138.2188,251,142.2188,247,146.2188,243,142.2188" style="stroke: #B38D22; stroke-width: 1.0;"/><text fill="#000000" font-family="sans-serif" font-size="11" lengthAdjust="spacingAndGlyphs" textLength="63" x="256" y="146.4292">play(): void</text><!--MD5=[7f28e2b24727fe27b6594ae840809ea4]
class com.mastermind.GraphicsMastermind--><rect codeLine="7" fill="#FEFECE" filter="url(#f11j5olnvywq8y)" height="73.6094" id="com.mastermind.GraphicsMastermind" style="stroke: #A80036; stroke-width: 1.5;" width="155" x="218.5" y="213"/><ellipse cx="233.5" cy="229" fill="#ADD1B2" rx="11" ry="11" style="stroke: #A80036; stroke-width: 1.0;"/><path d="M235.8438,224.6719 C234.9063,224.2344 234.3125,224.0938 233.4375,224.0938 C230.8125,224.0938 228.8125,226.1719 228.8125,228.8906 L228.8125,230.0156 C228.8125,232.5938 230.9219,234.4844 233.8125,234.4844 C235.0313,234.4844 236.1875,234.1875 236.9375,233.6406 C237.5156,233.2344 237.8438,232.7813 237.8438,232.3906 C237.8438,231.9375 237.4531,231.5469 236.9844,231.5469 C236.7656,231.5469 236.5625,231.625 236.375,231.8125 C235.9219,232.2969 235.9219,232.2969 235.7344,232.3906 C235.3125,232.6563 234.625,232.7813 233.8594,232.7813 C231.8125,232.7813 230.5156,231.6875 230.5156,229.9844 L230.5156,228.8906 C230.5156,227.1094 231.7656,225.7969 233.5,225.7969 C234.0781,225.7969 234.6875,225.9531 235.1563,226.2031 C235.6406,226.4844 235.8125,226.7031 235.9063,227.1094 C235.9688,227.5156 236,227.6406 236.1406,227.7656 C236.2813,227.9063 236.5156,228.0156 236.7344,228.0156 C237,228.0156 237.2656,227.875 237.4375,227.6563 C237.5469,227.5 237.5781,227.3125 237.5781,226.8906 L237.5781,225.4688 C237.5781,225.0313 237.5625,224.9063 237.4688,224.75 C237.3125,224.4844 237.0313,224.3438 236.7344,224.3438 C236.4375,224.3438 236.2344,224.4375 236.0156,224.75 L235.8438,224.6719 Z "/><text fill="#000000" font-family="sans-serif" font-size="12" lengthAdjust="spacingAndGlyphs" textLength="123" x="247.5" y="233.1543">GraphicsMastermind</text><line style="stroke: #A80036; stroke-width: 1.5;" x1="219.5" x2="372.5" y1="245" y2="245"/><line style="stroke: #A80036; stroke-width: 1.5;" x1="219.5" x2="372.5" y1="253" y2="253"/><ellipse cx="229.5" cy="264" fill="#84BE84" rx="3" ry="3" style="stroke: #038048; stroke-width: 1.0;"/><text fill="#000000" font-family="sans-serif" font-size="11" lengthAdjust="spacingAndGlyphs" text-decoration="underline" textLength="108" x="238.5" y="267.2104">main(String[]): void</text><polygon fill="#FFFF44" points="229.5,271.8047,233.5,275.8047,229.5,279.8047,225.5,275.8047" style="stroke: #B38D22; stroke-width: 1.0;"/><text fill="#000000" font-family="sans-serif" font-size="11" lengthAdjust="spacingAndGlyphs" textLength="108" x="238.5" y="280.0151">createView(): View</text><!--MD5=[4e4b69ff03f558308117a21ae810a87e]
class com.views.View--><rect fill="#FEFECE" filter="url(#f11j5olnvywq8y)" height="48" id="com.views.View" style="stroke: #A80036; stroke-width: 1.5;" width="61" x="430.5" y="226"/><ellipse cx="445.5" cy="242" fill="#ADD1B2" rx="11" ry="11" style="stroke: #A80036; stroke-width: 1.0;"/><path d="M447.8438,237.6719 C446.9063,237.2344 446.3125,237.0938 445.4375,237.0938 C442.8125,237.0938 440.8125,239.1719 440.8125,241.8906 L440.8125,243.0156 C440.8125,245.5938 442.9219,247.4844 445.8125,247.4844 C447.0313,247.4844 448.1875,247.1875 448.9375,246.6406 C449.5156,246.2344 449.8438,245.7813 449.8438,245.3906 C449.8438,244.9375 449.4531,244.5469 448.9844,244.5469 C448.7656,244.5469 448.5625,244.625 448.375,244.8125 C447.9219,245.2969 447.9219,245.2969 447.7344,245.3906 C447.3125,245.6563 446.625,245.7813 445.8594,245.7813 C443.8125,245.7813 442.5156,244.6875 442.5156,242.9844 L442.5156,241.8906 C442.5156,240.1094 443.7656,238.7969 445.5,238.7969 C446.0781,238.7969 446.6875,238.9531 447.1563,239.2031 C447.6406,239.4844 447.8125,239.7031 447.9063,240.1094 C447.9688,240.5156 448,240.6406 448.1406,240.7656 C448.2813,240.9063 448.5156,241.0156 448.7344,241.0156 C449,241.0156 449.2656,240.875 449.4375,240.6563 C449.5469,240.5 449.5781,240.3125 449.5781,239.8906 L449.5781,238.4688 C449.5781,238.0313 449.5625,237.9063 449.4688,237.75 C449.3125,237.4844 449.0313,237.3438 448.7344,237.3438 C448.4375,237.3438 448.2344,237.4375 448.0156,237.75 L447.8438,237.6719 Z "/><text fill="#000000" font-family="sans-serif" font-size="12" lengthAdjust="spacingAndGlyphs" textLength="29" x="459.5" y="246.1543">View</text><line style="stroke: #A80036; stroke-width: 1.5;" x1="431.5" x2="490.5" y1="258" y2="258"/><line style="stroke: #A80036; stroke-width: 1.5;" x1="431.5" x2="490.5" y1="266" y2="266"/><!--MD5=[597bcf847d9dc816d3fd91def28a2705]
class com.controllers.Logic--><rect fill="#FEFECE" filter="url(#f11j5olnvywq8y)" height="48" id="com.controllers.Logic" style="stroke: #A80036; stroke-width: 1.5;" width="64" x="554" y="226"/><ellipse cx="569" cy="242" fill="#ADD1B2" rx="11" ry="11" style="stroke: #A80036; stroke-width: 1.0;"/><path d="M571.3438,237.6719 C570.4063,237.2344 569.8125,237.0938 568.9375,237.0938 C566.3125,237.0938 564.3125,239.1719 564.3125,241.8906 L564.3125,243.0156 C564.3125,245.5938 566.4219,247.4844 569.3125,247.4844 C570.5313,247.4844 571.6875,247.1875 572.4375,246.6406 C573.0156,246.2344 573.3438,245.7813 573.3438,245.3906 C573.3438,244.9375 572.9531,244.5469 572.4844,244.5469 C572.2656,244.5469 572.0625,244.625 571.875,244.8125 C571.4219,245.2969 571.4219,245.2969 571.2344,245.3906 C570.8125,245.6563 570.125,245.7813 569.3594,245.7813 C567.3125,245.7813 566.0156,244.6875 566.0156,242.9844 L566.0156,241.8906 C566.0156,240.1094 567.2656,238.7969 569,238.7969 C569.5781,238.7969 570.1875,238.9531 570.6563,239.2031 C571.1406,239.4844 571.3125,239.7031 571.4063,240.1094 C571.4688,240.5156 571.5,240.6406 571.6406,240.7656 C571.7813,240.9063 572.0156,241.0156 572.2344,241.0156 C572.5,241.0156 572.7656,240.875 572.9375,240.6563 C573.0469,240.5 573.0781,240.3125 573.0781,239.8906 L573.0781,238.4688 C573.0781,238.0313 573.0625,237.9063 572.9688,237.75 C572.8125,237.4844 572.5313,237.3438 572.2344,237.3438 C571.9375,237.3438 571.7344,237.4375 571.5156,237.75 L571.3438,237.6719 Z "/><text fill="#000000" font-family="sans-serif" font-size="12" lengthAdjust="spacingAndGlyphs" textLength="32" x="583" y="246.1543">Logic</text><line style="stroke: #A80036; stroke-width: 1.5;" x1="555" x2="617" y1="258" y2="258"/><line style="stroke: #A80036; stroke-width: 1.5;" x1="555" x2="617" y1="266" y2="266"/><!--MD5=[7585fc93400394f776d0e4815b7b655b]
reverse link com.mastermind.Mastermind to com.mastermind.ConsoleMastermind--><path codeLine="5" d="M219.756,162.015 C197.395,179.419 173.963,197.658 154.364,212.913 " fill="none" id="com.mastermind.Mastermind-backto-com.mastermind.ConsoleMastermind" style="stroke: #A80036; stroke-width: 1.0;"/><polygon fill="none" points="215.697,156.304,235.779,149.543,224.296,167.352,215.697,156.304" style="stroke: #A80036; stroke-width: 1.0;"/><!--MD5=[c8cf6ab12fec1fe89466390d24e2f134]
reverse link com.mastermind.Mastermind to com.mastermind.GraphicsMastermind--><path codeLine="11" d="M299.006,173.357 C298.458,187.148 297.909,200.946 297.434,212.91 " fill="none" id="com.mastermind.Mastermind-backto-com.mastermind.GraphicsMastermind" style="stroke: #A80036; stroke-width: 1.0;"/><polygon fill="none" points="292.011,173.076,299.8,153.369,306,173.632,292.011,173.076" style="stroke: #A80036; stroke-width: 1.0;"/><!--MD5=[333d3d858488f8e746c6c1c72a6f8d47]
link com.mastermind.Mastermind to com.views.View--><path codeLine="20" d="M360.303,153.369 C385.064,176.885 412.784,203.21 432.862,222.2781 " fill="none" id="com.mastermind.Mastermind-to-com.views.View" style="stroke: #A80036; stroke-width: 1.0;"/><polygon fill="#A80036" points="436.773,225.9919,433.0011,216.8939,433.1473,222.5489,427.4923,222.6951,436.773,225.9919" style="stroke: #A80036; stroke-width: 1.0;"/><!--MD5=[9ea09b2e1181314c1e4dee3a912635ae]
link com.mastermind.Mastermind to com.controllers.Logic--><path codeLine="21" d="M379.3393,123.4083 C379.3393,123.4083 468.104,158.715 508,183 C523.663,192.534 539.394,205.129 552.584,216.759 " fill="none" id="com.mastermind.Mastermind-com.controllers.Logic" style="stroke: #A80036; stroke-width: 1.0;"/><polygon fill="#A80036" points="562.569,225.8022,558.5839,216.7956,558.8632,222.4455,553.2133,222.7248,562.569,225.8022" style="stroke: #A80036; stroke-width: 1.0;"/><line style="stroke: #A80036; stroke-width: 1.0;" x1="558.8632" x2="552.9335" y1="222.4455" y2="217.0752"/><polygon fill="#A80036" points="368.059,119.315,372.3347,125.1217,379.3393,123.4083,375.0636,117.6015,368.059,119.315" style="stroke: #A80036; stroke-width: 1.0;"/><!--MD5=[8b9e770d0f703e272633792cc5eeb225]
@startuml
class  com.mastermind.ConsoleMastermind{
+ {static} main(String[]): void
# createView(): View
}
com.mastermind.Mastermind <|-down- com.mastermind.ConsoleMastermind

class  com.mastermind.GraphicsMastermind{
+ {static} main(String[]): void
# createView(): View
}
com.mastermind.Mastermind <|-down- com.mastermind.GraphicsMastermind

class  com.mastermind.Mastermind{
- logic: Logic
- view: View
# Mastermind()
# {abstract} createView(): View
# play(): void
}
com.mastermind.Mastermind - -> com.views.View
com.mastermind.Mastermind *-down-> com.controllers.Logic
@enduml

PlantUML version 1.2020.20beta2(Unknown compile time)
(GPL source distribution)
Java Runtime: Java(TM) SE Runtime Environment
JVM: Java HotSpot(TM) 64-Bit Server VM
Default Encoding: UTF-8
Language: en
Country: US
--></g></svg>