<?xml version="1.0" encoding="UTF-8" standalone="no"?><svg xmlns="http://www.w3.org/2000/svg" xmlns:xlink="http://www.w3.org/1999/xlink" contentScriptType="application/ecmascript" contentStyleType="text/css" height="929px" preserveAspectRatio="none" style="width:1089px;height:929px;" version="1.1" viewBox="0 0 1089 929" width="1089px" zoomAndPan="magnify"><defs><filter height="300%" id="fwsqxcv8hm53" width="300%" x="-1" y="-1"><feGaussianBlur result="blurOut" stdDeviation="2.0"/><feColorMatrix in="blurOut" result="blurOut2" type="matrix" values="0 0 0 0 0 0 0 0 0 0 0 0 0 0 0 0 0 0 .4 0"/><feOffset dx="4.0" dy="4.0" in="blurOut2" result="blurOut3"/><feBlend in="SourceGraphic" in2="blurOut3" mode="normal"/></filter></defs><g><!--MD5=[28052287a149be16b11390e02296575d]
cluster usantatecla.models--><polygon fill="#FFFFFF" filter="url(#fwsqxcv8hm53)" points="16,6,183,6,190,28.2969,845,28.2969,845,922,16,922,16,6" style="stroke: #000000; stroke-width: 1.5;"/><line style="stroke: #000000; stroke-width: 1.5;" x1="16" x2="190" y1="28.2969" y2="28.2969"/><text fill="#000000" font-family="sans-serif" font-size="14" font-weight="bold" lengthAdjust="spacingAndGlyphs" textLength="161" x="20" y="20.9951">usantatecla.models</text><!--MD5=[7db3c59d38ae5b37b484eb2df9368145]
cluster java.util--><polygon fill="#FFFFFF" filter="url(#fwsqxcv8hm53)" points="869,554,942,554,949,576.2969,1072,576.2969,1072,653,869,653,869,554" style="stroke: #000000; stroke-width: 1.5;"/><line style="stroke: #000000; stroke-width: 1.5;" x1="869" x2="949" y1="576.2969" y2="576.2969"/><text fill="#000000" font-family="sans-serif" font-size="14" font-weight="bold" lengthAdjust="spacingAndGlyphs" textLength="67" x="873" y="568.9951">java.util</text><!--MD5=[9563755d011c5cec7ec66dc53565a59e]
class Board--><rect codeLine="4" fill="#FEFECE" filter="url(#fwsqxcv8hm53)" height="137.6328" id="Board" style="stroke: #A80036; stroke-width: 1.5;" width="206" x="203" y="278"/><ellipse cx="283.75" cy="294" fill="#ADD1B2" rx="11" ry="11" style="stroke: #A80036; stroke-width: 1.0;"/><path d="M286.0938,289.6719 C285.1563,289.2344 284.5625,289.0938 283.6875,289.0938 C281.0625,289.0938 279.0625,291.1719 279.0625,293.8906 L279.0625,295.0156 C279.0625,297.5938 281.1719,299.4844 284.0625,299.4844 C285.2813,299.4844 286.4375,299.1875 287.1875,298.6406 C287.7656,298.2344 288.0938,297.7813 288.0938,297.3906 C288.0938,296.9375 287.7031,296.5469 287.2344,296.5469 C287.0156,296.5469 286.8125,296.625 286.625,296.8125 C286.1719,297.2969 286.1719,297.2969 285.9844,297.3906 C285.5625,297.6563 284.875,297.7813 284.1094,297.7813 C282.0625,297.7813 280.7656,296.6875 280.7656,294.9844 L280.7656,293.8906 C280.7656,292.1094 282.0156,290.7969 283.75,290.7969 C284.3281,290.7969 284.9375,290.9531 285.4063,291.2031 C285.8906,291.4844 286.0625,291.7031 286.1563,292.1094 C286.2188,292.5156 286.25,292.6406 286.3906,292.7656 C286.5313,292.9063 286.7656,293.0156 286.9844,293.0156 C287.25,293.0156 287.5156,292.875 287.6875,292.6563 C287.7969,292.5 287.8281,292.3125 287.8281,291.8906 L287.8281,290.4688 C287.8281,290.0313 287.8125,289.9063 287.7188,289.75 C287.5625,289.4844 287.2813,289.3438 286.9844,289.3438 C286.6875,289.3438 286.4844,289.4375 286.2656,289.75 L286.0938,289.6719 Z "/><text fill="#000000" font-family="sans-serif" font-size="12" lengthAdjust="spacingAndGlyphs" textLength="36" x="304.25" y="298.1543">Board</text><line style="stroke: #A80036; stroke-width: 1.5;" x1="204" x2="408" y1="310" y2="310"/><rect fill="none" height="6" style="stroke: #C82930; stroke-width: 1.0;" width="6" x="211" y="318"/><text fill="#000000" font-family="sans-serif" font-size="11" lengthAdjust="spacingAndGlyphs" text-decoration="underline" textLength="177" x="223" y="324.2104">{final} int MAX_ATTEMPS = 10;</text><text fill="#000000" font-family="sans-serif" font-size="11" lengthAdjust="spacingAndGlyphs" textLength="72" x="223" y="337.0151">int attempts;</text><line style="stroke: #A80036; stroke-width: 1.5;" x1="204" x2="408" y1="343.6094" y2="343.6094"/><text fill="#000000" font-family="sans-serif" font-size="11" lengthAdjust="spacingAndGlyphs" textLength="41" x="223" y="357.8198">Board()</text><ellipse cx="214" cy="367.4141" fill="#84BE84" rx="3" ry="3" style="stroke: #038048; stroke-width: 1.0;"/><text fill="#000000" font-family="sans-serif" font-size="11" lengthAdjust="spacingAndGlyphs" textLength="180" x="223" y="370.6245">void add(ProposedCombination)</text><ellipse cx="214" cy="380.2188" fill="#84BE84" rx="3" ry="3" style="stroke: #038048; stroke-width: 1.0;"/><text fill="#000000" font-family="sans-serif" font-size="11" lengthAdjust="spacingAndGlyphs" textLength="114" x="223" y="383.4292">boolean isFinished()</text><ellipse cx="214" cy="393.0234" fill="#84BE84" rx="3" ry="3" style="stroke: #038048; stroke-width: 1.0;"/><text fill="#000000" font-family="sans-serif" font-size="11" lengthAdjust="spacingAndGlyphs" textLength="107" x="223" y="396.2339">boolean isWinner()</text><rect fill="#F24D5C" height="6" style="stroke: #C82930; stroke-width: 1.0;" width="6" x="211" y="402.8281"/><text fill="#000000" font-family="sans-serif" font-size="11" lengthAdjust="spacingAndGlyphs" textLength="105" x="223" y="409.0386">boolean isLooser()</text><!--MD5=[28491d17d5ee38c9c116625a5ffc259a]
class Combination--><rect codeLine="14" fill="#FEFECE" filter="url(#fwsqxcv8hm53)" height="99.2188" id="Combination" style="stroke: #A80036; stroke-width: 1.5;" width="158" x="671" y="297.5"/><ellipse cx="708.5" cy="313.5" fill="#A9DCDF" rx="11" ry="11" style="stroke: #A80036; stroke-width: 1.0;"/><path d="M710.5781,315.3125 L710.9688,316.2969 L710.5781,316.2969 C710.125,316.2969 710.0156,316.3125 709.8594,316.4219 C709.6094,316.5781 709.4531,316.8594 709.4531,317.1563 C709.4531,317.4219 709.5938,317.6719 709.8125,317.8281 C709.9531,317.9531 710.1563,318 710.5781,318 L712.9375,318 C713.2969,318 713.5156,317.9688 713.6563,317.875 C713.9063,317.7344 714.0625,317.4375 714.0625,317.1563 C714.0625,316.875 713.9219,316.625 713.7031,316.4688 C713.5313,316.3281 713.375,316.2969 712.9063,316.2969 L709.5156,308.0938 L705.8438,308.0938 C705.3906,308.0938 705.2656,308.1094 705.1094,308.2031 C704.8594,308.375 704.7031,308.6563 704.7031,308.9375 C704.7031,309.2188 704.8438,309.4688 705.0625,309.6406 C705.2344,309.75 705.4063,309.7813 705.8438,309.7813 L706.9219,309.7813 L704.2813,316.2969 C703.8594,316.2969 703.7031,316.3125 703.5469,316.4219 C703.2969,316.5781 703.1406,316.8594 703.1406,317.1563 C703.1406,317.7188 703.5156,318 704.2656,318 L706.5313,318 C706.8906,318 707.1094,317.9688 707.2344,317.875 C707.5,317.7344 707.6406,317.4375 707.6406,317.1563 C707.6406,316.875 707.5156,316.625 707.2969,316.4531 C707.125,316.3281 706.9844,316.2969 706.5313,316.2969 L706.1406,316.2969 L706.5313,315.3125 L710.5781,315.3125 Z M709.875,313.6094 L707.2031,313.6094 L708.5469,310.3438 L709.875,313.6094 Z "/><text fill="#000000" font-family="sans-serif" font-size="12" font-style="italic" lengthAdjust="spacingAndGlyphs" textLength="76" x="727.5" y="317.6543">Combination</text><line style="stroke: #A80036; stroke-width: 1.5;" x1="672" x2="828" y1="329.5" y2="329.5"/><polygon fill="none" points="682,335.5,686,339.5,682,343.5,678,339.5" style="stroke: #B38D22; stroke-width: 1.0;"/><text fill="#000000" font-family="sans-serif" font-size="11" lengthAdjust="spacingAndGlyphs" textLength="106" x="691" y="343.7104">List&lt;Color&gt; colors;</text><line style="stroke: #A80036; stroke-width: 1.5;" x1="672" x2="828" y1="350.3047" y2="350.3047"/><polygon fill="#4177AF" points="682,357.3047,678,363.3047,686,363.3047" style="stroke: #1963A0; stroke-width: 1.0;"/><text fill="#000000" font-family="sans-serif" font-size="11" lengthAdjust="spacingAndGlyphs" textLength="83" x="691" y="364.5151">Combination ()</text><ellipse cx="682" cy="374.1094" fill="#84BE84" rx="3" ry="3" style="stroke: #038048; stroke-width: 1.0;"/><text fill="#000000" font-family="sans-serif" font-size="11" lengthAdjust="spacingAndGlyphs" textLength="132" x="691" y="377.3198">List&lt;Color&gt; getColors()</text><ellipse cx="682" cy="386.9141" fill="#84BE84" rx="3" ry="3" style="stroke: #038048; stroke-width: 1.0;"/><text fill="#000000" font-family="sans-serif" font-size="11" lengthAdjust="spacingAndGlyphs" textLength="127" x="691" y="390.1245">setColors(List&lt;Color&gt;)</text><!--MD5=[e370ee5c0c15ce04544d5f5a73174d72]
class SecretCombination--><rect codeLine="21" fill="#FEFECE" filter="url(#fwsqxcv8hm53)" height="73.6094" id="SecretCombination" style="stroke: #A80036; stroke-width: 1.5;" width="236" x="432" y="576"/><ellipse cx="488.75" cy="592" fill="#ADD1B2" rx="11" ry="11" style="stroke: #A80036; stroke-width: 1.0;"/><path d="M491.0938,587.6719 C490.1563,587.2344 489.5625,587.0938 488.6875,587.0938 C486.0625,587.0938 484.0625,589.1719 484.0625,591.8906 L484.0625,593.0156 C484.0625,595.5938 486.1719,597.4844 489.0625,597.4844 C490.2813,597.4844 491.4375,597.1875 492.1875,596.6406 C492.7656,596.2344 493.0938,595.7813 493.0938,595.3906 C493.0938,594.9375 492.7031,594.5469 492.2344,594.5469 C492.0156,594.5469 491.8125,594.625 491.625,594.8125 C491.1719,595.2969 491.1719,595.2969 490.9844,595.3906 C490.5625,595.6563 489.875,595.7813 489.1094,595.7813 C487.0625,595.7813 485.7656,594.6875 485.7656,592.9844 L485.7656,591.8906 C485.7656,590.1094 487.0156,588.7969 488.75,588.7969 C489.3281,588.7969 489.9375,588.9531 490.4063,589.2031 C490.8906,589.4844 491.0625,589.7031 491.1563,590.1094 C491.2188,590.5156 491.25,590.6406 491.3906,590.7656 C491.5313,590.9063 491.7656,591.0156 491.9844,591.0156 C492.25,591.0156 492.5156,590.875 492.6875,590.6563 C492.7969,590.5 492.8281,590.3125 492.8281,589.8906 L492.8281,588.4688 C492.8281,588.0313 492.8125,587.9063 492.7188,587.75 C492.5625,587.4844 492.2813,587.3438 491.9844,587.3438 C491.6875,587.3438 491.4844,587.4375 491.2656,587.75 L491.0938,587.6719 Z "/><text fill="#000000" font-family="sans-serif" font-size="12" lengthAdjust="spacingAndGlyphs" textLength="114" x="509.25" y="596.1543">SecretCombination</text><line style="stroke: #A80036; stroke-width: 1.5;" x1="433" x2="667" y1="608" y2="608"/><line style="stroke: #A80036; stroke-width: 1.5;" x1="433" x2="667" y1="616" y2="616"/><text fill="#000000" font-family="sans-serif" font-size="11" lengthAdjust="spacingAndGlyphs" textLength="117" x="438" y="630.2104">SecretCombination()</text><text fill="#000000" font-family="sans-serif" font-size="11" lengthAdjust="spacingAndGlyphs" textLength="224" x="438" y="643.0151">Result getResult(ProposedCombination)</text><!--MD5=[cf489b19c51ee25e76ddca093e62e620]
class ProposedCombination--><rect codeLine="26" fill="#FEFECE" filter="url(#fwsqxcv8hm53)" height="86.4141" id="ProposedCombination" style="stroke: #A80036; stroke-width: 1.5;" width="181" x="215.5" y="570"/><ellipse cx="238.15" cy="586" fill="#ADD1B2" rx="11" ry="11" style="stroke: #A80036; stroke-width: 1.0;"/><path d="M240.4938,581.6719 C239.5563,581.2344 238.9625,581.0938 238.0875,581.0938 C235.4625,581.0938 233.4625,583.1719 233.4625,585.8906 L233.4625,587.0156 C233.4625,589.5938 235.5719,591.4844 238.4625,591.4844 C239.6813,591.4844 240.8375,591.1875 241.5875,590.6406 C242.1656,590.2344 242.4938,589.7813 242.4938,589.3906 C242.4938,588.9375 242.1031,588.5469 241.6344,588.5469 C241.4156,588.5469 241.2125,588.625 241.025,588.8125 C240.5719,589.2969 240.5719,589.2969 240.3844,589.3906 C239.9625,589.6563 239.275,589.7813 238.5094,589.7813 C236.4625,589.7813 235.1656,588.6875 235.1656,586.9844 L235.1656,585.8906 C235.1656,584.1094 236.4156,582.7969 238.15,582.7969 C238.7281,582.7969 239.3375,582.9531 239.8063,583.2031 C240.2906,583.4844 240.4625,583.7031 240.5563,584.1094 C240.6188,584.5156 240.65,584.6406 240.7906,584.7656 C240.9313,584.9063 241.1656,585.0156 241.3844,585.0156 C241.65,585.0156 241.9156,584.875 242.0875,584.6563 C242.1969,584.5 242.2281,584.3125 242.2281,583.8906 L242.2281,582.4688 C242.2281,582.0313 242.2125,581.9063 242.1188,581.75 C241.9625,581.4844 241.6813,581.3438 241.3844,581.3438 C241.0875,581.3438 240.8844,581.4375 240.6656,581.75 L240.4938,581.6719 Z "/><text fill="#000000" font-family="sans-serif" font-size="12" lengthAdjust="spacingAndGlyphs" textLength="132" x="253.85" y="590.1543">ProposedCombination</text><line style="stroke: #A80036; stroke-width: 1.5;" x1="216.5" x2="395.5" y1="602" y2="602"/><line style="stroke: #A80036; stroke-width: 1.5;" x1="216.5" x2="395.5" y1="610" y2="610"/><rect fill="#F24D5C" height="6" style="stroke: #C82930; stroke-width: 1.0;" width="6" x="223.5" y="618"/><text fill="#000000" font-family="sans-serif" font-size="11" lengthAdjust="spacingAndGlyphs" textLength="130" x="235.5" y="624.2104">Error checkError(String)</text><text fill="#000000" font-family="sans-serif" font-size="11" lengthAdjust="spacingAndGlyphs" textLength="155" x="235.5" y="637.0151">boolean contains(Color, int)</text><text fill="#000000" font-family="sans-serif" font-size="11" lengthAdjust="spacingAndGlyphs" textLength="134" x="235.5" y="649.8198">boolean contains(Color)</text><!--MD5=[2741598bdf59a7d7e0d5c97658fd3022]
class Result--><rect codeLine="32" fill="#FEFECE" filter="url(#fwsqxcv8hm53)" height="137.6328" id="Result" style="stroke: #A80036; stroke-width: 1.5;" width="148" x="32" y="544"/><ellipse cx="83.75" cy="560" fill="#ADD1B2" rx="11" ry="11" style="stroke: #A80036; stroke-width: 1.0;"/><path d="M86.0938,555.6719 C85.1563,555.2344 84.5625,555.0938 83.6875,555.0938 C81.0625,555.0938 79.0625,557.1719 79.0625,559.8906 L79.0625,561.0156 C79.0625,563.5938 81.1719,565.4844 84.0625,565.4844 C85.2813,565.4844 86.4375,565.1875 87.1875,564.6406 C87.7656,564.2344 88.0938,563.7813 88.0938,563.3906 C88.0938,562.9375 87.7031,562.5469 87.2344,562.5469 C87.0156,562.5469 86.8125,562.625 86.625,562.8125 C86.1719,563.2969 86.1719,563.2969 85.9844,563.3906 C85.5625,563.6563 84.875,563.7813 84.1094,563.7813 C82.0625,563.7813 80.7656,562.6875 80.7656,560.9844 L80.7656,559.8906 C80.7656,558.1094 82.0156,556.7969 83.75,556.7969 C84.3281,556.7969 84.9375,556.9531 85.4063,557.2031 C85.8906,557.4844 86.0625,557.7031 86.1563,558.1094 C86.2188,558.5156 86.25,558.6406 86.3906,558.7656 C86.5313,558.9063 86.7656,559.0156 86.9844,559.0156 C87.25,559.0156 87.5156,558.875 87.6875,558.6563 C87.7969,558.5 87.8281,558.3125 87.8281,557.8906 L87.8281,556.4688 C87.8281,556.0313 87.8125,555.9063 87.7188,555.75 C87.5625,555.4844 87.2813,555.3438 86.9844,555.3438 C86.6875,555.3438 86.4844,555.4375 86.2656,555.75 L86.0938,555.6719 Z "/><text fill="#000000" font-family="sans-serif" font-size="12" lengthAdjust="spacingAndGlyphs" textLength="36" x="104.25" y="564.1543">Result</text><line style="stroke: #A80036; stroke-width: 1.5;" x1="33" x2="179" y1="576" y2="576"/><ellipse cx="43" cy="587" fill="none" rx="3" ry="3" style="stroke: #038048; stroke-width: 1.0;"/><text fill="#000000" font-family="sans-serif" font-size="11" lengthAdjust="spacingAndGlyphs" text-decoration="underline" textLength="122" x="52" y="590.2104">{fina} int WIDTH = 4;</text><rect fill="none" height="6" style="stroke: #C82930; stroke-width: 1.0;" width="6" x="40" y="596.8047"/><text fill="#000000" font-family="sans-serif" font-size="11" lengthAdjust="spacingAndGlyphs" textLength="53" x="52" y="603.0151">int blacks</text><rect fill="none" height="6" style="stroke: #C82930; stroke-width: 1.0;" width="6" x="40" y="609.6094"/><text fill="#000000" font-family="sans-serif" font-size="11" lengthAdjust="spacingAndGlyphs" textLength="55" x="52" y="615.8198">int whites</text><line style="stroke: #A80036; stroke-width: 1.5;" x1="33" x2="179" y1="622.4141" y2="622.4141"/><text fill="#000000" font-family="sans-serif" font-size="11" lengthAdjust="spacingAndGlyphs" textLength="78" x="52" y="636.6245">Result(int, int)</text><text fill="#000000" font-family="sans-serif" font-size="11" lengthAdjust="spacingAndGlyphs" textLength="107" x="52" y="649.4292">boolean isWinner()</text><ellipse cx="43" cy="659.0234" fill="#84BE84" rx="3" ry="3" style="stroke: #038048; stroke-width: 1.0;"/><text fill="#000000" font-family="sans-serif" font-size="11" lengthAdjust="spacingAndGlyphs" textLength="84" x="52" y="662.2339">int getWhites()</text><ellipse cx="43" cy="671.8281" fill="#84BE84" rx="3" ry="3" style="stroke: #038048; stroke-width: 1.0;"/><text fill="#000000" font-family="sans-serif" font-size="11" lengthAdjust="spacingAndGlyphs" textLength="81" x="52" y="675.0386">int getBlacks()</text><!--MD5=[b6dcce5e5ef3c84b0b048d11301373dd]
class Game--><rect codeLine="42" fill="#FEFECE" filter="url(#fwsqxcv8hm53)" height="176.0469" id="Game" style="stroke: #A80036; stroke-width: 1.5;" width="334" x="139" y="41"/><ellipse cx="284.25" cy="57" fill="#ADD1B2" rx="11" ry="11" style="stroke: #A80036; stroke-width: 1.0;"/><path d="M286.5938,52.6719 C285.6563,52.2344 285.0625,52.0938 284.1875,52.0938 C281.5625,52.0938 279.5625,54.1719 279.5625,56.8906 L279.5625,58.0156 C279.5625,60.5938 281.6719,62.4844 284.5625,62.4844 C285.7813,62.4844 286.9375,62.1875 287.6875,61.6406 C288.2656,61.2344 288.5938,60.7813 288.5938,60.3906 C288.5938,59.9375 288.2031,59.5469 287.7344,59.5469 C287.5156,59.5469 287.3125,59.625 287.125,59.8125 C286.6719,60.2969 286.6719,60.2969 286.4844,60.3906 C286.0625,60.6563 285.375,60.7813 284.6094,60.7813 C282.5625,60.7813 281.2656,59.6875 281.2656,57.9844 L281.2656,56.8906 C281.2656,55.1094 282.5156,53.7969 284.25,53.7969 C284.8281,53.7969 285.4375,53.9531 285.9063,54.2031 C286.3906,54.4844 286.5625,54.7031 286.6563,55.1094 C286.7188,55.5156 286.75,55.6406 286.8906,55.7656 C287.0313,55.9063 287.2656,56.0156 287.4844,56.0156 C287.75,56.0156 288.0156,55.875 288.1875,55.6563 C288.2969,55.5 288.3281,55.3125 288.3281,54.8906 L288.3281,53.4688 C288.3281,53.0313 288.3125,52.9063 288.2188,52.75 C288.0625,52.4844 287.7813,52.3438 287.4844,52.3438 C287.1875,52.3438 286.9844,52.4375 286.7656,52.75 L286.5938,52.6719 Z "/><text fill="#000000" font-family="sans-serif" font-size="12" lengthAdjust="spacingAndGlyphs" textLength="35" x="304.75" y="61.1543">Game</text><line style="stroke: #A80036; stroke-width: 1.5;" x1="140" x2="472" y1="73" y2="73"/><rect fill="none" height="6" style="stroke: #C82930; stroke-width: 1.0;" width="6" x="147" y="81"/><text fill="#000000" font-family="sans-serif" font-size="11" lengthAdjust="spacingAndGlyphs" textLength="72" x="159" y="87.2104">Board board;</text><line style="stroke: #A80036; stroke-width: 1.5;" x1="140" x2="472" y1="93.8047" y2="93.8047"/><polygon fill="#4177AF" points="150,100.8047,146,106.8047,154,106.8047" style="stroke: #1963A0; stroke-width: 1.0;"/><text fill="#000000" font-family="sans-serif" font-size="11" lengthAdjust="spacingAndGlyphs" textLength="43" x="159" y="108.0151">Game()</text><ellipse cx="150" cy="117.6094" fill="#84BE84" rx="3" ry="3" style="stroke: #038048; stroke-width: 1.0;"/><text fill="#000000" font-family="sans-serif" font-size="11" lengthAdjust="spacingAndGlyphs" textLength="131" x="159" y="120.8198">getResults(int i): Result</text><ellipse cx="150" cy="130.4141" fill="#84BE84" rx="3" ry="3" style="stroke: #038048; stroke-width: 1.0;"/><text fill="#000000" font-family="sans-serif" font-size="11" lengthAdjust="spacingAndGlyphs" textLength="307" x="159" y="133.6245">getProposedCombinations(int i): ProposedCombination</text><ellipse cx="150" cy="143.2188" fill="#84BE84" rx="3" ry="3" style="stroke: #038048; stroke-width: 1.0;"/><text fill="#000000" font-family="sans-serif" font-size="11" lengthAdjust="spacingAndGlyphs" textLength="96" x="159" y="146.4292">getAttemps(): int</text><ellipse cx="150" cy="156.0234" fill="#84BE84" rx="3" ry="3" style="stroke: #038048; stroke-width: 1.0;"/><text fill="#000000" font-family="sans-serif" font-size="11" lengthAdjust="spacingAndGlyphs" textLength="252" x="159" y="159.2339">getSecretCombination(): SecretCombination</text><ellipse cx="150" cy="168.8281" fill="#84BE84" rx="3" ry="3" style="stroke: #038048; stroke-width: 1.0;"/><text fill="#000000" font-family="sans-serif" font-size="11" lengthAdjust="spacingAndGlyphs" textLength="117" x="159" y="172.0386">isFinished(): boolean</text><ellipse cx="150" cy="181.6328" fill="#84BE84" rx="3" ry="3" style="stroke: #038048; stroke-width: 1.0;"/><text fill="#000000" font-family="sans-serif" font-size="11" lengthAdjust="spacingAndGlyphs" textLength="100" x="159" y="184.8433">getBoard(): Board</text><ellipse cx="150" cy="194.4375" fill="#84BE84" rx="3" ry="3" style="stroke: #038048; stroke-width: 1.0;"/><text fill="#000000" font-family="sans-serif" font-size="11" lengthAdjust="spacingAndGlyphs" textLength="308" x="159" y="197.6479">put(ProposedCombination proposedCombination): void</text><ellipse cx="150" cy="207.2422" fill="#84BE84" rx="3" ry="3" style="stroke: #038048; stroke-width: 1.0;"/><text fill="#000000" font-family="sans-serif" font-size="11" lengthAdjust="spacingAndGlyphs" textLength="110" x="159" y="210.4526">isWinner(): boolean</text><!--MD5=[18eee71c88ab61f27581b8cbdd3ef5ee]
class Color--><rect codeLine="55" fill="#FEFECE" filter="url(#fwsqxcv8hm53)" height="240.0703" id="Color" style="stroke: #A80036; stroke-width: 1.5;" width="126" x="703" y="493"/><ellipse cx="745.9" cy="509" fill="#EB937F" rx="11" ry="11" style="stroke: #A80036; stroke-width: 1.0;"/><path d="M744.6969,509.875 L746.15,509.875 L746.15,509.9844 C746.15,510.3906 746.1813,510.5469 746.2594,510.7031 C746.4156,510.9531 746.6969,511.1094 746.9938,511.1094 C747.2438,511.1094 747.5094,510.9688 747.6656,510.75 C747.7906,510.5938 747.8219,510.4375 747.8219,509.9844 L747.8219,508.0625 C747.8219,507.9063 747.8219,507.8594 747.8063,507.7031 C747.7438,507.2344 747.4313,506.9219 746.9781,506.9219 C746.7281,506.9219 746.4625,507.0625 746.2906,507.2813 C746.1813,507.4531 746.15,507.6094 746.15,508.0625 L746.15,508.1875 L744.6969,508.1875 L744.6969,505.7813 L748.6813,505.7813 L748.6813,506.6406 C748.6813,507.0469 748.7125,507.2188 748.7906,507.375 C748.9625,507.625 749.2438,507.7813 749.525,507.7813 C749.7906,507.7813 750.0563,507.6406 750.2281,507.4219 C750.3375,507.25 750.3688,507.1094 750.3688,506.6406 L750.3688,504.0938 L742.7438,504.0938 C742.3063,504.0938 742.1813,504.1094 742.025,504.2031 C741.775,504.3594 741.6188,504.6563 741.6188,504.9375 C741.6188,505.2188 741.7594,505.4688 741.9781,505.6406 C742.1344,505.75 742.3219,505.7813 742.7438,505.7813 L742.9938,505.7813 L742.9938,512.2969 L742.7438,512.2969 C742.3375,512.2969 742.1813,512.3125 742.025,512.4219 C741.775,512.5938 741.6188,512.8594 741.6188,513.1563 C741.6188,513.4219 741.7594,513.6719 741.9781,513.8281 C742.1188,513.9531 742.3531,514 742.7438,514 L750.7438,514 L750.7438,511.4219 C750.7438,510.9844 750.7125,510.8438 750.6344,510.6875 C750.4625,510.4375 750.1813,510.2813 749.9,510.2813 C749.6344,510.2813 749.3688,510.3906 749.1969,510.6406 C749.0875,510.7969 749.0563,510.9375 749.0563,511.4219 L749.0563,512.2969 L744.6969,512.2969 L744.6969,509.875 Z "/><text fill="#000000" font-family="sans-serif" font-size="12" lengthAdjust="spacingAndGlyphs" textLength="32" x="766.1" y="513.1543">Color</text><line style="stroke: #A80036; stroke-width: 1.5;" x1="704" x2="828" y1="525" y2="525"/><text fill="#000000" font-family="sans-serif" font-size="11" lengthAdjust="spacingAndGlyphs" textLength="23" x="723" y="539.2104">RED</text><text fill="#000000" font-family="sans-serif" font-size="11" lengthAdjust="spacingAndGlyphs" textLength="29" x="723" y="552.0151">BLUE</text><text fill="#000000" font-family="sans-serif" font-size="11" lengthAdjust="spacingAndGlyphs" textLength="46" x="723" y="564.8198">YELLOW</text><text fill="#000000" font-family="sans-serif" font-size="11" lengthAdjust="spacingAndGlyphs" textLength="38" x="723" y="577.6245">GREEN</text><text fill="#000000" font-family="sans-serif" font-size="11" lengthAdjust="spacingAndGlyphs" textLength="48" x="723" y="590.4292">ORANGE</text><text fill="#000000" font-family="sans-serif" font-size="11" lengthAdjust="spacingAndGlyphs" textLength="40" x="723" y="603.2339">PURPLE</text><text fill="#000000" font-family="sans-serif" font-size="11" lengthAdjust="spacingAndGlyphs" textLength="73" x="723" y="616.0386">NULL_COLOR</text><rect fill="none" height="6" style="stroke: #C82930; stroke-width: 1.0;" width="6" x="711" y="622.6328"/><text fill="#000000" font-family="sans-serif" font-size="11" lengthAdjust="spacingAndGlyphs" textLength="61" x="723" y="628.8433">char initial;</text><line style="stroke: #A80036; stroke-width: 1.5;" x1="704" x2="828" y1="635.4375" y2="635.4375"/><rect fill="#F24D5C" height="6" style="stroke: #C82930; stroke-width: 1.0;" width="6" x="711" y="643.4375"/><text fill="#000000" font-family="sans-serif" font-size="11" lengthAdjust="spacingAndGlyphs" textLength="37" x="723" y="649.6479">Color()</text><rect fill="#F24D5C" height="6" style="stroke: #C82930; stroke-width: 1.0;" width="6" x="711" y="656.2422"/><text fill="#000000" font-family="sans-serif" font-size="11" lengthAdjust="spacingAndGlyphs" textLength="61" x="723" y="662.4526">Color(char)</text><text fill="#000000" font-family="sans-serif" font-size="11" lengthAdjust="spacingAndGlyphs" text-decoration="underline" textLength="100" x="723" y="675.2573">String getInitials()</text><text fill="#000000" font-family="sans-serif" font-size="11" lengthAdjust="spacingAndGlyphs" text-decoration="underline" textLength="62" x="723" y="688.062">int length()</text><text fill="#000000" font-family="sans-serif" font-size="11" lengthAdjust="spacingAndGlyphs" text-decoration="underline" textLength="74" x="723" y="700.8667">Color get(int)</text><text fill="#000000" font-family="sans-serif" font-size="11" lengthAdjust="spacingAndGlyphs" textLength="88" x="723" y="713.6714">boolean isNull()</text><ellipse cx="714" cy="723.2656" fill="#84BE84" rx="3" ry="3" style="stroke: #038048; stroke-width: 1.0;"/><text fill="#000000" font-family="sans-serif" font-size="11" lengthAdjust="spacingAndGlyphs" textLength="85" x="723" y="726.4761">char getInitial()</text><!--MD5=[b8cfd8c4119a3b0a7a46bfc5fc780f85]
class Error--><rect codeLine="73" fill="#FEFECE" filter="url(#fwsqxcv8hm53)" height="112.0234" id="Error" style="stroke: #A80036; stroke-width: 1.5;" width="138" x="237" y="794"/><ellipse cx="286.75" cy="810" fill="#EB937F" rx="11" ry="11" style="stroke: #A80036; stroke-width: 1.0;"/><path d="M285.5469,810.875 L287,810.875 L287,810.9844 C287,811.3906 287.0313,811.5469 287.1094,811.7031 C287.2656,811.9531 287.5469,812.1094 287.8438,812.1094 C288.0938,812.1094 288.3594,811.9688 288.5156,811.75 C288.6406,811.5938 288.6719,811.4375 288.6719,810.9844 L288.6719,809.0625 C288.6719,808.9063 288.6719,808.8594 288.6563,808.7031 C288.5938,808.2344 288.2813,807.9219 287.8281,807.9219 C287.5781,807.9219 287.3125,808.0625 287.1406,808.2813 C287.0313,808.4531 287,808.6094 287,809.0625 L287,809.1875 L285.5469,809.1875 L285.5469,806.7813 L289.5313,806.7813 L289.5313,807.6406 C289.5313,808.0469 289.5625,808.2188 289.6406,808.375 C289.8125,808.625 290.0938,808.7813 290.375,808.7813 C290.6406,808.7813 290.9063,808.6406 291.0781,808.4219 C291.1875,808.25 291.2188,808.1094 291.2188,807.6406 L291.2188,805.0938 L283.5938,805.0938 C283.1563,805.0938 283.0313,805.1094 282.875,805.2031 C282.625,805.3594 282.4688,805.6563 282.4688,805.9375 C282.4688,806.2188 282.6094,806.4688 282.8281,806.6406 C282.9844,806.75 283.1719,806.7813 283.5938,806.7813 L283.8438,806.7813 L283.8438,813.2969 L283.5938,813.2969 C283.1875,813.2969 283.0313,813.3125 282.875,813.4219 C282.625,813.5938 282.4688,813.8594 282.4688,814.1563 C282.4688,814.4219 282.6094,814.6719 282.8281,814.8281 C282.9688,814.9531 283.2031,815 283.5938,815 L291.5938,815 L291.5938,812.4219 C291.5938,811.9844 291.5625,811.8438 291.4844,811.6875 C291.3125,811.4375 291.0313,811.2813 290.75,811.2813 C290.4844,811.2813 290.2188,811.3906 290.0469,811.6406 C289.9375,811.7969 289.9063,811.9375 289.9063,812.4219 L289.9063,813.2969 L285.5469,813.2969 L285.5469,810.875 Z "/><text fill="#000000" font-family="sans-serif" font-size="12" lengthAdjust="spacingAndGlyphs" textLength="30" x="307.25" y="814.1543">Error</text><line style="stroke: #A80036; stroke-width: 1.5;" x1="238" x2="374" y1="826" y2="826"/><text fill="#000000" font-family="sans-serif" font-size="11" lengthAdjust="spacingAndGlyphs" textLength="71" x="243" y="840.2104">DUPLICATED</text><text fill="#000000" font-family="sans-serif" font-size="11" lengthAdjust="spacingAndGlyphs" textLength="126" x="243" y="853.0151">WRONG_CHARACTERS</text><text fill="#000000" font-family="sans-serif" font-size="11" lengthAdjust="spacingAndGlyphs" textLength="95" x="243" y="865.8198">WRONG_LENGTH</text><text fill="#000000" font-family="sans-serif" font-size="11" lengthAdjust="spacingAndGlyphs" textLength="71" x="243" y="878.6245">NULL_ERROR</text><line style="stroke: #A80036; stroke-width: 1.5;" x1="238" x2="374" y1="885.2188" y2="885.2188"/><ellipse cx="248" cy="896.2188" fill="#84BE84" rx="3" ry="3" style="stroke: #038048; stroke-width: 1.0;"/><text fill="#000000" font-family="sans-serif" font-size="11" lengthAdjust="spacingAndGlyphs" textLength="88" x="257" y="899.4292">boolean isNull()</text><!--MD5=[8479184e23c2bec09445fccfd361f5d2]
class java.util.ArrayList--><rect codeLine="100" fill="#FEFECE" filter="url(#fwsqxcv8hm53)" height="48" id="java.util.ArrayList" style="stroke: #A80036; stroke-width: 1.5;" width="84" x="885" y="589"/><ellipse cx="900" cy="605" fill="#ADD1B2" rx="11" ry="11" style="stroke: #A80036; stroke-width: 1.0;"/><path d="M902.3438,600.6719 C901.4063,600.2344 900.8125,600.0938 899.9375,600.0938 C897.3125,600.0938 895.3125,602.1719 895.3125,604.8906 L895.3125,606.0156 C895.3125,608.5938 897.4219,610.4844 900.3125,610.4844 C901.5313,610.4844 902.6875,610.1875 903.4375,609.6406 C904.0156,609.2344 904.3438,608.7813 904.3438,608.3906 C904.3438,607.9375 903.9531,607.5469 903.4844,607.5469 C903.2656,607.5469 903.0625,607.625 902.875,607.8125 C902.4219,608.2969 902.4219,608.2969 902.2344,608.3906 C901.8125,608.6563 901.125,608.7813 900.3594,608.7813 C898.3125,608.7813 897.0156,607.6875 897.0156,605.9844 L897.0156,604.8906 C897.0156,603.1094 898.2656,601.7969 900,601.7969 C900.5781,601.7969 901.1875,601.9531 901.6563,602.2031 C902.1406,602.4844 902.3125,602.7031 902.4063,603.1094 C902.4688,603.5156 902.5,603.6406 902.6406,603.7656 C902.7813,603.9063 903.0156,604.0156 903.2344,604.0156 C903.5,604.0156 903.7656,603.875 903.9375,603.6563 C904.0469,603.5 904.0781,603.3125 904.0781,602.8906 L904.0781,601.4688 C904.0781,601.0313 904.0625,600.9063 903.9688,600.75 C903.8125,600.4844 903.5313,600.3438 903.2344,600.3438 C902.9375,600.3438 902.7344,600.4375 902.5156,600.75 L902.3438,600.6719 Z "/><text fill="#000000" font-family="sans-serif" font-size="12" lengthAdjust="spacingAndGlyphs" textLength="52" x="914" y="609.1543">ArrayList</text><line style="stroke: #A80036; stroke-width: 1.5;" x1="886" x2="968" y1="621" y2="621"/><line style="stroke: #A80036; stroke-width: 1.5;" x1="886" x2="968" y1="629" y2="629"/><!--MD5=[6b7a9fc05e2cf62df8c1411c2048df3f]
class java.util.List--><rect codeLine="99" fill="#FEFECE" filter="url(#fwsqxcv8hm53)" height="48" id="java.util.List" style="stroke: #A80036; stroke-width: 1.5;" width="52" x="1004" y="589"/><ellipse cx="1019" cy="605" fill="#ADD1B2" rx="11" ry="11" style="stroke: #A80036; stroke-width: 1.0;"/><path d="M1021.3438,600.6719 C1020.4063,600.2344 1019.8125,600.0938 1018.9375,600.0938 C1016.3125,600.0938 1014.3125,602.1719 1014.3125,604.8906 L1014.3125,606.0156 C1014.3125,608.5938 1016.4219,610.4844 1019.3125,610.4844 C1020.5313,610.4844 1021.6875,610.1875 1022.4375,609.6406 C1023.0156,609.2344 1023.3438,608.7813 1023.3438,608.3906 C1023.3438,607.9375 1022.9531,607.5469 1022.4844,607.5469 C1022.2656,607.5469 1022.0625,607.625 1021.875,607.8125 C1021.4219,608.2969 1021.4219,608.2969 1021.2344,608.3906 C1020.8125,608.6563 1020.125,608.7813 1019.3594,608.7813 C1017.3125,608.7813 1016.0156,607.6875 1016.0156,605.9844 L1016.0156,604.8906 C1016.0156,603.1094 1017.2656,601.7969 1019,601.7969 C1019.5781,601.7969 1020.1875,601.9531 1020.6563,602.2031 C1021.1406,602.4844 1021.3125,602.7031 1021.4063,603.1094 C1021.4688,603.5156 1021.5,603.6406 1021.6406,603.7656 C1021.7813,603.9063 1022.0156,604.0156 1022.2344,604.0156 C1022.5,604.0156 1022.7656,603.875 1022.9375,603.6563 C1023.0469,603.5 1023.0781,603.3125 1023.0781,602.8906 L1023.0781,601.4688 C1023.0781,601.0313 1023.0625,600.9063 1022.9688,600.75 C1022.8125,600.4844 1022.5313,600.3438 1022.2344,600.3438 C1021.9375,600.3438 1021.7344,600.4375 1021.5156,600.75 L1021.3438,600.6719 Z "/><text fill="#000000" font-family="sans-serif" font-size="12" lengthAdjust="spacingAndGlyphs" textLength="20" x="1033" y="609.1543">List</text><line style="stroke: #A80036; stroke-width: 1.5;" x1="1005" x2="1055" y1="621" y2="621"/><line style="stroke: #A80036; stroke-width: 1.5;" x1="1005" x2="1055" y1="629" y2="629"/><!--MD5=[15c8f9ca3aac13d865864b4eb5314ef1]
link Game to Board--><path codeLine="83" d="M306,229.233 C306,229.233 306,253.373 306,264.439 " fill="none" id="Game-Board" style="stroke: #A80036; stroke-width: 1.0;"/><polygon fill="#A80036" points="306,277.707,310,268.707,306,272.707,302,268.707,306,277.707" style="stroke: #A80036; stroke-width: 1.0;"/><line style="stroke: #A80036; stroke-width: 1.0;" x1="306" x2="306" y1="272.707" y2="264.707"/><polygon fill="#A80036" points="306,217.233,302,223.233,306,229.233,310,223.233,306,217.233" style="stroke: #A80036; stroke-width: 1.0;"/><!--MD5=[5e915b8ab835b2366405aaf6901e131b]
link Board to SecretCombination--><path codeLine="84" d="M418.968,407.4551 C418.968,407.4551 451.173,432.143 464,446 C495.517,480.048 518.651,527.83 532.937,563.392 " fill="none" id="Board-SecretCombination" style="stroke: #A80036; stroke-width: 1.0;"/><polygon fill="#A80036" points="537.799,575.893,538.2642,566.0551,535.9864,571.2331,530.8084,568.9553,537.799,575.893" style="stroke: #A80036; stroke-width: 1.0;"/><line style="stroke: #A80036; stroke-width: 1.0;" x1="535.9864" x2="533.0865" y1="571.2331" y2="563.7765"/><polygon fill="#A80036" points="409.069,400.672,411.7575,407.3632,418.968,407.4551,416.2795,400.7639,409.069,400.672" style="stroke: #A80036; stroke-width: 1.0;"/><text fill="#000000" font-family="sans-serif" font-size="13" lengthAdjust="spacingAndGlyphs" textLength="121" x="479" y="459.0669">secretCombination</text><!--MD5=[e0b5d9907fda64872c10fd6493e0c51f]
link Board to ProposedCombination--><path codeLine="85" d="M306,428.33 C306,428.33 306,519.625 306,556.456 " fill="none" id="Board-ProposedCombination" style="stroke: #A80036; stroke-width: 1.0;"/><polygon fill="#A80036" points="306,569.937,310,560.937,306,564.937,302,560.937,306,569.937" style="stroke: #A80036; stroke-width: 1.0;"/><line style="stroke: #A80036; stroke-width: 1.0;" x1="306" x2="306" y1="564.937" y2="556.937"/><polygon fill="#FFFFFF" points="306,416.33,302,422.33,306,428.33,310,422.33,306,416.33" style="stroke: #A80036; stroke-width: 1.0;"/><text fill="#000000" font-family="sans-serif" font-size="13" lengthAdjust="spacingAndGlyphs" textLength="148" x="307" y="459.0669">proposedCombinations</text><text fill="#000000" font-family="sans-serif" font-size="13" lengthAdjust="spacingAndGlyphs" textLength="32" x="271.45" y="558.923">0..10</text><!--MD5=[8dd95aff79c51151a18c835e3410b3cd]
link Board to Result--><path codeLine="86" d="M246.9891,425.8954 C246.9891,425.8954 191.038,499.75 165.638,533.278 " fill="none" id="Board-Result" style="stroke: #A80036; stroke-width: 1.0;"/><polygon fill="#A80036" points="157.548,543.956,166.1712,539.1978,160.5674,539.9706,159.7946,534.3668,157.548,543.956" style="stroke: #A80036; stroke-width: 1.0;"/><line style="stroke: #A80036; stroke-width: 1.0;" x1="160.5674" x2="165.3985" y1="539.9706" y2="533.5945"/><polygon fill="#FFFFFF" points="254.235,416.33,247.4236,418.6974,246.9891,425.8954,253.8005,423.528,254.235,416.33" style="stroke: #A80036; stroke-width: 1.0;"/><text fill="#000000" font-family="sans-serif" font-size="13" lengthAdjust="spacingAndGlyphs" textLength="43" x="231" y="459.0669">results</text><text fill="#000000" font-family="sans-serif" font-size="13" lengthAdjust="spacingAndGlyphs" textLength="32" x="129.2139" y="533.1551">0..10</text><!--MD5=[6e8433e42d71f9427401b78cd95c6f0c]
link Combination to Color--><path codeLine="88" d="M753.6796,408.707 C753.6796,408.707 756.505,455.327 757.98,479.677 " fill="none" id="Combination-Color" style="stroke: #A80036; stroke-width: 1.0;"/><polygon fill="#A80036" points="758.775,492.788,762.2227,483.5623,758.4722,487.7972,754.2374,484.0467,758.775,492.788" style="stroke: #A80036; stroke-width: 1.0;"/><line style="stroke: #A80036; stroke-width: 1.0;" x1="758.4722" x2="757.9885" y1="487.7972" y2="479.8115"/><polygon fill="#A80036" points="752.953,396.729,749.3236,402.9602,753.6796,408.707,757.309,402.4758,752.953,396.729" style="stroke: #A80036; stroke-width: 1.0;"/><text fill="#000000" font-family="sans-serif" font-size="13" lengthAdjust="spacingAndGlyphs" textLength="38" x="757" y="459.0669">colors</text><text fill="#000000" font-family="sans-serif" font-size="13" lengthAdjust="spacingAndGlyphs" textLength="8" x="750.091" y="482.0743">4</text><!--MD5=[ed81d3472c9069d2de3c2f5cd308846f]
reverse link Combination to SecretCombination--><path codeLine="89" d="M709.795,413.723 C699.21,430.103 687.518,447.429 676,463 C646.385,503.037 609.236,546.223 582.969,575.741 " fill="none" id="Combination-backto-SecretCombination" style="stroke: #A80036; stroke-width: 1.0;"/><polygon fill="none" points="703.935,409.893,720.578,396.779,715.746,417.41,703.935,409.893" style="stroke: #A80036; stroke-width: 1.0;"/><!--MD5=[2f10888865b2f559cc24db01ac34cee3]
reverse link Combination to ProposedCombination--><path codeLine="90" d="M688.281,410.294 C665.205,430.166 637.611,450.277 609,463 C528.878,498.628 491.235,451.483 414,493 C380.579,510.965 352.188,543.427 332.914,569.913 " fill="none" id="Combination-backto-ProposedCombination" style="stroke: #A80036; stroke-width: 1.0;"/><polygon fill="none" points="683.923,404.8,703.491,396.669,693.264,415.228,683.923,404.8" style="stroke: #A80036; stroke-width: 1.0;"/><!--MD5=[03e1adeaed11e2ac298b9b43cd912fbb]
link ProposedCombination to Error--><path codeLine="91" d="M306,656.013 C306,692.93 306,747.088 306,788.642 " fill="none" id="ProposedCombination-to-Error" style="stroke: #A80036; stroke-width: 1.0; stroke-dasharray: 7.0,7.0;"/><polygon fill="#A80036" points="306,793.645,310,784.645,306,788.645,302,784.645,306,793.645" style="stroke: #A80036; stroke-width: 1.0;"/><!--MD5=[6615ceb231d486349684fcfc94d5200e]
link Combination to java.util.ArrayList--><path codeLine="93" d="M782.671,396.729 C819.733,452.008 878.873,540.218 908.63,584.601 " fill="none" id="Combination-to-java.util.ArrayList" style="stroke: #A80036; stroke-width: 1.0; stroke-dasharray: 7.0,7.0;"/><polygon fill="#A80036" points="911.416,588.757,909.7281,579.0539,908.6323,584.6036,903.0826,583.5078,911.416,588.757" style="stroke: #A80036; stroke-width: 1.0;"/><!--MD5=[29abaabc9889eea7d3b52382534c77c3]
link Combination to java.util.List--><path codeLine="94" d="M829.227,379.804 C880.529,404.004 945.306,441.886 987,493 C1008.61,519.491 1019.84,557.751 1025.32,583.681 " fill="none" id="Combination-to-java.util.List" style="stroke: #A80036; stroke-width: 1.0; stroke-dasharray: 7.0,7.0;"/><polygon fill="#A80036" points="1026.34,588.695,1028.4623,579.0775,1025.3416,583.7957,1020.6234,580.675,1026.34,588.695" style="stroke: #A80036; stroke-width: 1.0;"/><!--MD5=[58037f704ea55609e0aaab10f6dbf124]
@startuml
package usantatecla.models {


class Board {
  - {static} {final} int MAX_ATTEMPS = 10;
  int attempts;
  Board()
  + void add(ProposedCombination)
  + boolean isFinished()
  + boolean isWinner()
  - boolean isLooser()
}

abstract class Combination {
	~ Combination ()
	# List<Color> colors;
	+ List<Color> getColors()
	+ setColors(List<Color>)
}

class SecretCombination {
	SecretCombination()
	Result getResult(ProposedCombination)
}

class ProposedCombination {
	- Error checkError(String)
	boolean contains(Color, int)
	boolean contains(Color)
}

class Result{
	+ {static} {fina} int WIDTH = 4;
	- int blacks
	- int whites
	Result(int, int)
	boolean isWinner()
	+ int getWhites()
	+ int getBlacks()
}

class Game {
  - Board board;
  ~ Game()
  + getResults(int i): Result
  + getProposedCombinations(int i): ProposedCombination
  + getAttemps(): int
  + getSecretCombination(): SecretCombination
  + isFinished(): boolean
  + getBoard(): Board
  + put(ProposedCombination proposedCombination): void
  + isWinner(): boolean
}

enum Color {
	RED
	BLUE
	YELLOW
	GREEN
	ORANGE
	PURPLE
	NULL_COLOR
	- char initial;
	- Color()
	- Color(char)
	{static} String getInitials()
	{static} int length()
	{static} Color get(int)
	boolean isNull()
	+ char getInitial()
}

enum Error {
	DUPLICATED
	WRONG_CHARACTERS
	WRONG_LENGTH
	NULL_ERROR
	+ boolean isNull()

}


Game *-down-> Board
Board *-down-> SecretCombination : secretCombination
Board o-down-> "0..10" ProposedCombination : proposedCombinations
Board o-down-> "0..10" Result : results

Combination *-down-> "4" Color : colors
Combination <|-down- SecretCombination
Combination <|-down- ProposedCombination
ProposedCombination .down.> Error

Combination ..> java.util.ArrayList
Combination ..> java.util.List

}

package java.util {
    class List
    class ArrayList

}
@enduml

PlantUML version 1.2020.19(Mon Oct 12 15:10:01 UTC 2020)
(GPL source distribution)
Java Runtime: Java(TM) SE Runtime Environment
JVM: Java HotSpot(TM) 64-Bit Server VM
Default Encoding: UTF-8
Language: en
Country: US
--></g></svg>