<?xml version="1.0" encoding="UTF-8" standalone="no"?><svg xmlns="http://www.w3.org/2000/svg" xmlns:xlink="http://www.w3.org/1999/xlink" contentScriptType="application/ecmascript" contentStyleType="text/css" height="463px" preserveAspectRatio="none" style="width:463px;height:463px;" version="1.1" viewBox="0 0 463 463" width="463px" zoomAndPan="magnify"><defs><filter height="300%" id="f1lk8zqtuqgp5k" width="300%" x="-1" y="-1"><feGaussianBlur result="blurOut" stdDeviation="2.0"/><feColorMatrix in="blurOut" result="blurOut2" type="matrix" values="0 0 0 0 0 0 0 0 0 0 0 0 0 0 0 0 0 0 .4 0"/><feOffset dx="4.0" dy="4.0" in="blurOut2" result="blurOut3"/><feBlend in="SourceGraphic" in2="blurOut3" mode="normal"/></filter></defs><g><!--MD5=[f2bedc297083edee028363469990e0f1]
cluster mastermind.utils--><polygon fill="#FFFFFF" filter="url(#f1lk8zqtuqgp5k)" points="16,6,162,6,169,28.2969,262,28.2969,262,456,16,456,16,6" style="stroke: #000000; stroke-width: 1.5;"/><line style="stroke: #000000; stroke-width: 1.5;" x1="16" x2="169" y1="28.2969" y2="28.2969"/><text fill="#000000" font-family="sans-serif" font-size="14" font-weight="bold" lengthAdjust="spacingAndGlyphs" textLength="140" x="20" y="20.9951">mastermind.utils</text><!--MD5=[0d852700fdad35b7061d461d6907a324]
cluster java.io--><polygon fill="#FFFFFF" filter="url(#f1lk8zqtuqgp5k)" points="286,306,346,306,353,328.2969,446,328.2969,446,405,286,405,286,306" style="stroke: #000000; stroke-width: 1.5;"/><line style="stroke: #000000; stroke-width: 1.5;" x1="286" x2="353" y1="328.2969" y2="328.2969"/><text fill="#000000" font-family="sans-serif" font-size="14" font-weight="bold" lengthAdjust="spacingAndGlyphs" textLength="54" x="290" y="320.9951">java.io</text><!--MD5=[e15ded4e07bed703f8f3e75437a45a59]
class mastermind.utils.ConsoleView--><rect codeLine="1" fill="#FEFECE" filter="url(#f1lk8zqtuqgp5k)" height="188.8516" id="mastermind.utils.ConsoleView" style="stroke: #A80036; stroke-width: 1.5;" width="214" x="32" y="41"/><ellipse cx="95.75" cy="57" fill="#ADD1B2" rx="11" ry="11" style="stroke: #A80036; stroke-width: 1.0;"/><path d="M98.0938,52.6719 C97.1563,52.2344 96.5625,52.0938 95.6875,52.0938 C93.0625,52.0938 91.0625,54.1719 91.0625,56.8906 L91.0625,58.0156 C91.0625,60.5938 93.1719,62.4844 96.0625,62.4844 C97.2813,62.4844 98.4375,62.1875 99.1875,61.6406 C99.7656,61.2344 100.0938,60.7813 100.0938,60.3906 C100.0938,59.9375 99.7031,59.5469 99.2344,59.5469 C99.0156,59.5469 98.8125,59.625 98.625,59.8125 C98.1719,60.2969 98.1719,60.2969 97.9844,60.3906 C97.5625,60.6563 96.875,60.7813 96.1094,60.7813 C94.0625,60.7813 92.7656,59.6875 92.7656,57.9844 L92.7656,56.8906 C92.7656,55.1094 94.0156,53.7969 95.75,53.7969 C96.3281,53.7969 96.9375,53.9531 97.4063,54.2031 C97.8906,54.4844 98.0625,54.7031 98.1563,55.1094 C98.2188,55.5156 98.25,55.6406 98.3906,55.7656 C98.5313,55.9063 98.7656,56.0156 98.9844,56.0156 C99.25,56.0156 99.5156,55.875 99.6875,55.6563 C99.7969,55.5 99.8281,55.3125 99.8281,54.8906 L99.8281,53.4688 C99.8281,53.0313 99.8125,52.9063 99.7188,52.75 C99.5625,52.4844 99.2813,52.3438 98.9844,52.3438 C98.6875,52.3438 98.4844,52.4375 98.2656,52.75 L98.0938,52.6719 Z "/><text fill="#000000" font-family="sans-serif" font-size="12" lengthAdjust="spacingAndGlyphs" textLength="78" x="116.25" y="61.1543">ConsoleView</text><line style="stroke: #A80036; stroke-width: 1.5;" x1="33" x2="245" y1="73" y2="73"/><rect fill="none" height="6" style="stroke: #C82930; stroke-width: 1.0;" width="6" x="40" y="81"/><text fill="#000000" font-family="sans-serif" font-size="11" lengthAdjust="spacingAndGlyphs" textLength="188" x="52" y="87.2104">bufferedReader: BufferedReader</text><line style="stroke: #A80036; stroke-width: 1.5;" x1="33" x2="245" y1="93.8047" y2="93.8047"/><ellipse cx="43" cy="104.8047" fill="#84BE84" rx="3" ry="3" style="stroke: #038048; stroke-width: 1.0;"/><text fill="#000000" font-family="sans-serif" font-size="11" lengthAdjust="spacingAndGlyphs" textLength="54" x="52" y="108.0151">Console()</text><ellipse cx="43" cy="117.6094" fill="#84BE84" rx="3" ry="3" style="stroke: #038048; stroke-width: 1.0;"/><text fill="#000000" font-family="sans-serif" font-size="11" lengthAdjust="spacingAndGlyphs" textLength="91" x="52" y="120.8198">write(char): void</text><ellipse cx="43" cy="130.4141" fill="#84BE84" rx="3" ry="3" style="stroke: #038048; stroke-width: 1.0;"/><text fill="#000000" font-family="sans-serif" font-size="11" lengthAdjust="spacingAndGlyphs" textLength="100" x="52" y="133.6245">write(String): void</text><ellipse cx="43" cy="143.2188" fill="#84BE84" rx="3" ry="3" style="stroke: #038048; stroke-width: 1.0;"/><text fill="#000000" font-family="sans-serif" font-size="11" lengthAdjust="spacingAndGlyphs" textLength="102" x="52" y="146.4292">readInt(String): int</text><ellipse cx="43" cy="156.0234" fill="#84BE84" rx="3" ry="3" style="stroke: #038048; stroke-width: 1.0;"/><text fill="#000000" font-family="sans-serif" font-size="11" lengthAdjust="spacingAndGlyphs" textLength="124" x="52" y="159.2339">readChar(String): char</text><rect fill="#F24D5C" height="6" style="stroke: #C82930; stroke-width: 1.0;" width="6" x="40" y="165.8281"/><text fill="#000000" font-family="sans-serif" font-size="11" lengthAdjust="spacingAndGlyphs" textLength="126" x="52" y="172.0386">writeError(String): void</text><ellipse cx="43" cy="181.6328" fill="#84BE84" rx="3" ry="3" style="stroke: #038048; stroke-width: 1.0;"/><text fill="#000000" font-family="sans-serif" font-size="11" lengthAdjust="spacingAndGlyphs" textLength="110" x="52" y="184.8433">writeln(String): void</text><ellipse cx="43" cy="194.4375" fill="#84BE84" rx="3" ry="3" style="stroke: #038048; stroke-width: 1.0;"/><text fill="#000000" font-family="sans-serif" font-size="11" lengthAdjust="spacingAndGlyphs" textLength="91" x="52" y="197.6479">writeln(int): void</text><ellipse cx="43" cy="207.2422" fill="#84BE84" rx="3" ry="3" style="stroke: #038048; stroke-width: 1.0;"/><text fill="#000000" font-family="sans-serif" font-size="11" lengthAdjust="spacingAndGlyphs" textLength="77" x="52" y="210.4526">writeln(): void</text><ellipse cx="43" cy="220.0469" fill="#84BE84" rx="3" ry="3" style="stroke: #038048; stroke-width: 1.0;"/><text fill="#000000" font-family="sans-serif" font-size="11" lengthAdjust="spacingAndGlyphs" textLength="140" x="52" y="223.2573">readString(String): String</text><!--MD5=[8fefce232ba7ae99aa926d324ff560e5]
class mastermind.utils.YesNoDialog--><rect codeLine="16" fill="#FEFECE" filter="url(#f1lk8zqtuqgp5k)" height="150.4375" id="mastermind.utils.YesNoDialog" style="stroke: #A80036; stroke-width: 1.5;" width="179" x="49.5" y="290"/><ellipse cx="96.75" cy="306" fill="#ADD1B2" rx="11" ry="11" style="stroke: #A80036; stroke-width: 1.0;"/><path d="M99.0938,301.6719 C98.1563,301.2344 97.5625,301.0938 96.6875,301.0938 C94.0625,301.0938 92.0625,303.1719 92.0625,305.8906 L92.0625,307.0156 C92.0625,309.5938 94.1719,311.4844 97.0625,311.4844 C98.2813,311.4844 99.4375,311.1875 100.1875,310.6406 C100.7656,310.2344 101.0938,309.7813 101.0938,309.3906 C101.0938,308.9375 100.7031,308.5469 100.2344,308.5469 C100.0156,308.5469 99.8125,308.625 99.625,308.8125 C99.1719,309.2969 99.1719,309.2969 98.9844,309.3906 C98.5625,309.6563 97.875,309.7813 97.1094,309.7813 C95.0625,309.7813 93.7656,308.6875 93.7656,306.9844 L93.7656,305.8906 C93.7656,304.1094 95.0156,302.7969 96.75,302.7969 C97.3281,302.7969 97.9375,302.9531 98.4063,303.2031 C98.8906,303.4844 99.0625,303.7031 99.1563,304.1094 C99.2188,304.5156 99.25,304.6406 99.3906,304.7656 C99.5313,304.9063 99.7656,305.0156 99.9844,305.0156 C100.25,305.0156 100.5156,304.875 100.6875,304.6563 C100.7969,304.5 100.8281,304.3125 100.8281,303.8906 L100.8281,302.4688 C100.8281,302.0313 100.8125,301.9063 100.7188,301.75 C100.5625,301.4844 100.2813,301.3438 99.9844,301.3438 C99.6875,301.3438 99.4844,301.4375 99.2656,301.75 L99.0938,301.6719 Z "/><text fill="#000000" font-family="sans-serif" font-size="12" lengthAdjust="spacingAndGlyphs" textLength="76" x="117.25" y="310.1543">YesNoDialog</text><line style="stroke: #A80036; stroke-width: 1.5;" x1="50.5" x2="227.5" y1="322" y2="322"/><rect fill="none" height="6" style="stroke: #C82930; stroke-width: 1.0;" width="6" x="57.5" y="330"/><text fill="#000000" font-family="sans-serif" font-size="11" lengthAdjust="spacingAndGlyphs" text-decoration="underline" textLength="97" x="69.5" y="336.2104">AFIRMATIVE: char</text><rect fill="none" height="6" style="stroke: #C82930; stroke-width: 1.0;" width="6" x="57.5" y="342.8047"/><text fill="#000000" font-family="sans-serif" font-size="11" lengthAdjust="spacingAndGlyphs" text-decoration="underline" textLength="88" x="69.5" y="349.0151">NEGATIVE: char</text><rect fill="none" height="6" style="stroke: #C82930; stroke-width: 1.0;" width="6" x="57.5" y="355.6094"/><text fill="#000000" font-family="sans-serif" font-size="11" lengthAdjust="spacingAndGlyphs" text-decoration="underline" textLength="99" x="69.5" y="361.8198">QUESTION: String</text><rect fill="none" height="6" style="stroke: #C82930; stroke-width: 1.0;" width="6" x="57.5" y="368.4141"/><text fill="#000000" font-family="sans-serif" font-size="11" lengthAdjust="spacingAndGlyphs" text-decoration="underline" textLength="96" x="69.5" y="374.6245">MESSAGE: String</text><line style="stroke: #A80036; stroke-width: 1.5;" x1="50.5" x2="227.5" y1="381.2188" y2="381.2188"/><ellipse cx="60.5" cy="392.2188" fill="#84BE84" rx="3" ry="3" style="stroke: #038048; stroke-width: 1.0;"/><text fill="#000000" font-family="sans-serif" font-size="11" lengthAdjust="spacingAndGlyphs" textLength="80" x="69.5" y="395.4292">YesNoDialog()</text><ellipse cx="60.5" cy="405.0234" fill="#84BE84" rx="3" ry="3" style="stroke: #038048; stroke-width: 1.0;"/><text fill="#000000" font-family="sans-serif" font-size="11" lengthAdjust="spacingAndGlyphs" textLength="120" x="69.5" y="408.2339">read(String): boolean</text><rect fill="#F24D5C" height="6" style="stroke: #C82930; stroke-width: 1.0;" width="6" x="57.5" y="414.8281"/><text fill="#000000" font-family="sans-serif" font-size="11" lengthAdjust="spacingAndGlyphs" text-decoration="underline" textLength="153" x="69.5" y="421.0386">isAfirmative(char): boolean</text><rect fill="#F24D5C" height="6" style="stroke: #C82930; stroke-width: 1.0;" width="6" x="57.5" y="427.6328"/><text fill="#000000" font-family="sans-serif" font-size="11" lengthAdjust="spacingAndGlyphs" text-decoration="underline" textLength="146" x="69.5" y="433.8433">isNegative(char): boolean</text><!--MD5=[06343bf850d7d7a24456cd327e63b99b]
class java.io.BufferedReader--><rect fill="#FEFECE" filter="url(#f1lk8zqtuqgp5k)" height="48" id="java.io.BufferedReader" style="stroke: #A80036; stroke-width: 1.5;" width="127" x="302.5" y="341"/><ellipse cx="317.5" cy="357" fill="#ADD1B2" rx="11" ry="11" style="stroke: #A80036; stroke-width: 1.0;"/><path d="M319.8438,352.6719 C318.9063,352.2344 318.3125,352.0938 317.4375,352.0938 C314.8125,352.0938 312.8125,354.1719 312.8125,356.8906 L312.8125,358.0156 C312.8125,360.5938 314.9219,362.4844 317.8125,362.4844 C319.0313,362.4844 320.1875,362.1875 320.9375,361.6406 C321.5156,361.2344 321.8438,360.7813 321.8438,360.3906 C321.8438,359.9375 321.4531,359.5469 320.9844,359.5469 C320.7656,359.5469 320.5625,359.625 320.375,359.8125 C319.9219,360.2969 319.9219,360.2969 319.7344,360.3906 C319.3125,360.6563 318.625,360.7813 317.8594,360.7813 C315.8125,360.7813 314.5156,359.6875 314.5156,357.9844 L314.5156,356.8906 C314.5156,355.1094 315.7656,353.7969 317.5,353.7969 C318.0781,353.7969 318.6875,353.9531 319.1563,354.2031 C319.6406,354.4844 319.8125,354.7031 319.9063,355.1094 C319.9688,355.5156 320,355.6406 320.1406,355.7656 C320.2813,355.9063 320.5156,356.0156 320.7344,356.0156 C321,356.0156 321.2656,355.875 321.4375,355.6563 C321.5469,355.5 321.5781,355.3125 321.5781,354.8906 L321.5781,353.4688 C321.5781,353.0313 321.5625,352.9063 321.4688,352.75 C321.3125,352.4844 321.0313,352.3438 320.7344,352.3438 C320.4375,352.3438 320.2344,352.4375 320.0156,352.75 L319.8438,352.6719 Z "/><text fill="#000000" font-family="sans-serif" font-size="12" lengthAdjust="spacingAndGlyphs" textLength="95" x="331.5" y="361.1543">BufferedReader</text><line style="stroke: #A80036; stroke-width: 1.5;" x1="303.5" x2="428.5" y1="373" y2="373"/><line style="stroke: #A80036; stroke-width: 1.5;" x1="303.5" x2="428.5" y1="381" y2="381"/><!--MD5=[dcf2e69b0ebdf1d261b3fb365555713e]
link mastermind.utils.ConsoleView to java.io.BufferedReader--><path codeLine="14" d="M240.788,238.5125 C240.788,238.5125 309.115,306.989 333.256,331.184 " fill="none" id="mastermind.utils.ConsoleView-java.io.BufferedReader" style="stroke: #A80036; stroke-width: 1.0;"/><polygon fill="#A80036" points="342.629,340.578,339.1035,331.3818,339.0973,337.0386,333.4405,337.0325,342.629,340.578" style="stroke: #A80036; stroke-width: 1.0;"/><line style="stroke: #A80036; stroke-width: 1.0;" x1="339.0973" x2="333.447" y1="337.0386" y2="331.375"/><polygon fill="#A80036" points="232.312,230.018,233.7185,237.0906,240.788,238.5125,239.3815,231.4399,232.312,230.018" style="stroke: #A80036; stroke-width: 1.0;"/><!--MD5=[bcb5beaafc93a61bbda22784ee1797c7]
reverse link mastermind.utils.ConsoleView to mastermind.utils.YesNoDialog--><path codeLine="26" d="M139,250.344 C139,263.8 139,277.255 139,289.955 " fill="none" id="mastermind.utils.ConsoleView-backto-mastermind.utils.YesNoDialog" style="stroke: #A80036; stroke-width: 1.0;"/><polygon fill="none" points="132,250.018,139,230.018,146,250.018,132,250.018" style="stroke: #A80036; stroke-width: 1.0;"/><!--MD5=[a28b81a15b5614f243da324a9323e919]
@startuml
class  mastermind.utils.ConsoleView{
- bufferedReader: BufferedReader
+ Console()
+ write(char): void
+ write(String): void
+ readInt(String): int
+ readChar(String): char
- writeError(String): void
+ writeln(String): void
+ writeln(int): void
+ writeln(): void
+ readString(String): String
}
mastermind.utils.ConsoleView *-down-> java.io.BufferedReader

class  mastermind.utils.YesNoDialog{
- {static} AFIRMATIVE: char
- {static} NEGATIVE: char
- {static} QUESTION: String
- {static} MESSAGE: String
+ YesNoDialog()
+ read(String): boolean
- {static} isAfirmative(char): boolean
- {static} isNegative(char): boolean
}
mastermind.utils.ConsoleView <|-down- mastermind.utils.YesNoDialog
@enduml

PlantUML version 1.2020.19beta4(Unknown compile time)
(GPL source distribution)
Java Runtime: Java(TM) SE Runtime Environment
JVM: Java HotSpot(TM) 64-Bit Server VM
Default Encoding: UTF-8
Language: en
Country: US
--></g></svg>