<?xml version="1.0" encoding="UTF-8" standalone="no"?><svg xmlns="http://www.w3.org/2000/svg" xmlns:xlink="http://www.w3.org/1999/xlink" contentScriptType="application/ecmascript" contentStyleType="text/css" height="336px" preserveAspectRatio="none" style="width:905px;height:336px;" version="1.1" viewBox="0 0 905 336" width="905px" zoomAndPan="magnify"><defs><filter height="300%" id="f1qeun1m3fyomb" width="300%" x="-1" y="-1"><feGaussianBlur result="blurOut" stdDeviation="2.0"/><feColorMatrix in="blurOut" result="blurOut2" type="matrix" values="0 0 0 0 0 0 0 0 0 0 0 0 0 0 0 0 0 0 .4 0"/><feOffset dx="4.0" dy="4.0" in="blurOut2" result="blurOut3"/><feBlend in="SourceGraphic" in2="blurOut3" mode="normal"/></filter></defs><g><!--MD5=[043c5a28d89c867fc56a76551f267aaf]
cluster com.mastermind--><polygon fill="#FFFFFF" filter="url(#f1qeun1m3fyomb)" points="16,6,159,6,166,28.2969,390,28.2969,390,329,16,329,16,6" style="stroke: #000000; stroke-width: 1.5;"/><line style="stroke: #000000; stroke-width: 1.5;" x1="16" x2="166" y1="28.2969" y2="28.2969"/><text fill="#000000" font-family="sans-serif" font-size="14" font-weight="bold" lengthAdjust="spacingAndGlyphs" textLength="137" x="20" y="20.9951">com.mastermind</text><!--MD5=[e83acf53252e5e6f992a589437172ba6]
cluster com.views--><polygon fill="#FFFFFF" filter="url(#f1qeun1m3fyomb)" points="414,217,504,217,511,239.2969,514,239.2969,514,316,414,316,414,217" style="stroke: #000000; stroke-width: 1.5;"/><line style="stroke: #000000; stroke-width: 1.5;" x1="414" x2="511" y1="239.2969" y2="239.2969"/><text fill="#000000" font-family="sans-serif" font-size="14" font-weight="bold" lengthAdjust="spacingAndGlyphs" textLength="84" x="418" y="231.9951">com.views</text><!--MD5=[cc15223dad906424482237695d0c4da8]
cluster com.controllers--><polygon fill="#FFFFFF" filter="url(#f1qeun1m3fyomb)" points="538,217,672,217,679,239.2969,888,239.2969,888,316,538,316,538,217" style="stroke: #000000; stroke-width: 1.5;"/><line style="stroke: #000000; stroke-width: 1.5;" x1="538" x2="679" y1="239.2969" y2="239.2969"/><text fill="#000000" font-family="sans-serif" font-size="14" font-weight="bold" lengthAdjust="spacingAndGlyphs" textLength="128" x="542" y="231.9951">com.controllers</text><!--MD5=[5aabb3b58752f61d5b0f38be09dbe0ff]
class com.mastermind.ConsoleMastermind--><rect codeLine="1" fill="#FEFECE" filter="url(#f1qeun1m3fyomb)" height="73.6094" id="com.mastermind.ConsoleMastermind" style="stroke: #A80036; stroke-width: 1.5;" width="151" x="32.5" y="239"/><ellipse cx="47.5" cy="255" fill="#ADD1B2" rx="11" ry="11" style="stroke: #A80036; stroke-width: 1.0;"/><path d="M49.8438,250.6719 C48.9063,250.2344 48.3125,250.0938 47.4375,250.0938 C44.8125,250.0938 42.8125,252.1719 42.8125,254.8906 L42.8125,256.0156 C42.8125,258.5938 44.9219,260.4844 47.8125,260.4844 C49.0313,260.4844 50.1875,260.1875 50.9375,259.6406 C51.5156,259.2344 51.8438,258.7813 51.8438,258.3906 C51.8438,257.9375 51.4531,257.5469 50.9844,257.5469 C50.7656,257.5469 50.5625,257.625 50.375,257.8125 C49.9219,258.2969 49.9219,258.2969 49.7344,258.3906 C49.3125,258.6563 48.625,258.7813 47.8594,258.7813 C45.8125,258.7813 44.5156,257.6875 44.5156,255.9844 L44.5156,254.8906 C44.5156,253.1094 45.7656,251.7969 47.5,251.7969 C48.0781,251.7969 48.6875,251.9531 49.1563,252.2031 C49.6406,252.4844 49.8125,252.7031 49.9063,253.1094 C49.9688,253.5156 50,253.6406 50.1406,253.7656 C50.2813,253.9063 50.5156,254.0156 50.7344,254.0156 C51,254.0156 51.2656,253.875 51.4375,253.6563 C51.5469,253.5 51.5781,253.3125 51.5781,252.8906 L51.5781,251.4688 C51.5781,251.0313 51.5625,250.9063 51.4688,250.75 C51.3125,250.4844 51.0313,250.3438 50.7344,250.3438 C50.4375,250.3438 50.2344,250.4375 50.0156,250.75 L49.8438,250.6719 Z "/><text fill="#000000" font-family="sans-serif" font-size="12" lengthAdjust="spacingAndGlyphs" textLength="119" x="61.5" y="259.1543">ConsoleMastermind</text><line style="stroke: #A80036; stroke-width: 1.5;" x1="33.5" x2="182.5" y1="271" y2="271"/><line style="stroke: #A80036; stroke-width: 1.5;" x1="33.5" x2="182.5" y1="279" y2="279"/><ellipse cx="43.5" cy="290" fill="#84BE84" rx="3" ry="3" style="stroke: #038048; stroke-width: 1.0;"/><text fill="#000000" font-family="sans-serif" font-size="11" lengthAdjust="spacingAndGlyphs" text-decoration="underline" textLength="108" x="52.5" y="293.2104">main(String[]): void</text><polygon fill="#FFFF44" points="43.5,297.8047,47.5,301.8047,43.5,305.8047,39.5,301.8047" style="stroke: #B38D22; stroke-width: 1.0;"/><text fill="#000000" font-family="sans-serif" font-size="11" lengthAdjust="spacingAndGlyphs" textLength="108" x="52.5" y="306.0151">createView(): View</text><!--MD5=[ac7b9389ce6f19cd8ef561e672b8b75c]
class com.mastermind.Mastermind--><rect codeLine="11" fill="#FEFECE" filter="url(#f1qeun1m3fyomb)" height="137.6328" id="com.mastermind.Mastermind" style="stroke: #A80036; stroke-width: 1.5;" width="242" x="132" y="41"/><ellipse cx="213.75" cy="57" fill="#ADD1B2" rx="11" ry="11" style="stroke: #A80036; stroke-width: 1.0;"/><path d="M216.0938,52.6719 C215.1563,52.2344 214.5625,52.0938 213.6875,52.0938 C211.0625,52.0938 209.0625,54.1719 209.0625,56.8906 L209.0625,58.0156 C209.0625,60.5938 211.1719,62.4844 214.0625,62.4844 C215.2813,62.4844 216.4375,62.1875 217.1875,61.6406 C217.7656,61.2344 218.0938,60.7813 218.0938,60.3906 C218.0938,59.9375 217.7031,59.5469 217.2344,59.5469 C217.0156,59.5469 216.8125,59.625 216.625,59.8125 C216.1719,60.2969 216.1719,60.2969 215.9844,60.3906 C215.5625,60.6563 214.875,60.7813 214.1094,60.7813 C212.0625,60.7813 210.7656,59.6875 210.7656,57.9844 L210.7656,56.8906 C210.7656,55.1094 212.0156,53.7969 213.75,53.7969 C214.3281,53.7969 214.9375,53.9531 215.4063,54.2031 C215.8906,54.4844 216.0625,54.7031 216.1563,55.1094 C216.2188,55.5156 216.25,55.6406 216.3906,55.7656 C216.5313,55.9063 216.7656,56.0156 216.9844,56.0156 C217.25,56.0156 217.5156,55.875 217.6875,55.6563 C217.7969,55.5 217.8281,55.3125 217.8281,54.8906 L217.8281,53.4688 C217.8281,53.0313 217.8125,52.9063 217.7188,52.75 C217.5625,52.4844 217.2813,52.3438 216.9844,52.3438 C216.6875,52.3438 216.4844,52.4375 216.2656,52.75 L216.0938,52.6719 Z "/><text fill="#000000" font-family="sans-serif" font-size="12" lengthAdjust="spacingAndGlyphs" textLength="70" x="234.25" y="61.1543">Mastermind</text><line style="stroke: #A80036; stroke-width: 1.5;" x1="133" x2="373" y1="73" y2="73"/><rect fill="none" height="6" style="stroke: #C82930; stroke-width: 1.0;" width="6" x="140" y="81"/><text fill="#000000" font-family="sans-serif" font-size="11" lengthAdjust="spacingAndGlyphs" textLength="79" x="152" y="87.2104">game : Game</text><rect fill="none" height="6" style="stroke: #C82930; stroke-width: 1.0;" width="6" x="140" y="93.8047"/><text fill="#000000" font-family="sans-serif" font-size="11" lengthAdjust="spacingAndGlyphs" textLength="62" x="152" y="100.0151">view: View</text><rect fill="none" height="6" style="stroke: #C82930; stroke-width: 1.0;" width="6" x="140" y="106.6094"/><text fill="#000000" font-family="sans-serif" font-size="11" lengthAdjust="spacingAndGlyphs" textLength="216" x="152" y="112.8198">proposalController : ProposalController</text><rect fill="none" height="6" style="stroke: #C82930; stroke-width: 1.0;" width="6" x="140" y="119.4141"/><text fill="#000000" font-family="sans-serif" font-size="11" lengthAdjust="spacingAndGlyphs" textLength="212" x="152" y="125.6245">resumeController : ResumeController</text><line style="stroke: #A80036; stroke-width: 1.5;" x1="133" x2="373" y1="132.2188" y2="132.2188"/><polygon fill="#FFFF44" points="143,138.2188,147,142.2188,143,146.2188,139,142.2188" style="stroke: #B38D22; stroke-width: 1.0;"/><text fill="#000000" font-family="sans-serif" font-size="11" lengthAdjust="spacingAndGlyphs" textLength="74" x="152" y="146.4292">Mastermind()</text><polygon fill="#FFFF44" points="143,151.0234,147,155.0234,143,159.0234,139,155.0234" style="stroke: #B38D22; stroke-width: 1.0;"/><text fill="#000000" font-family="sans-serif" font-size="11" font-style="italic" lengthAdjust="spacingAndGlyphs" textLength="106" x="152" y="159.2339">createView(): View</text><polygon fill="#FFFF44" points="143,163.8281,147,167.8281,143,171.8281,139,167.8281" style="stroke: #B38D22; stroke-width: 1.0;"/><text fill="#000000" font-family="sans-serif" font-size="11" lengthAdjust="spacingAndGlyphs" textLength="63" x="152" y="172.0386">play(): void</text><!--MD5=[7f28e2b24727fe27b6594ae840809ea4]
class com.mastermind.GraphicsMastermind--><rect codeLine="6" fill="#FEFECE" filter="url(#f1qeun1m3fyomb)" height="73.6094" id="com.mastermind.GraphicsMastermind" style="stroke: #A80036; stroke-width: 1.5;" width="155" x="218.5" y="239"/><ellipse cx="233.5" cy="255" fill="#ADD1B2" rx="11" ry="11" style="stroke: #A80036; stroke-width: 1.0;"/><path d="M235.8438,250.6719 C234.9063,250.2344 234.3125,250.0938 233.4375,250.0938 C230.8125,250.0938 228.8125,252.1719 228.8125,254.8906 L228.8125,256.0156 C228.8125,258.5938 230.9219,260.4844 233.8125,260.4844 C235.0313,260.4844 236.1875,260.1875 236.9375,259.6406 C237.5156,259.2344 237.8438,258.7813 237.8438,258.3906 C237.8438,257.9375 237.4531,257.5469 236.9844,257.5469 C236.7656,257.5469 236.5625,257.625 236.375,257.8125 C235.9219,258.2969 235.9219,258.2969 235.7344,258.3906 C235.3125,258.6563 234.625,258.7813 233.8594,258.7813 C231.8125,258.7813 230.5156,257.6875 230.5156,255.9844 L230.5156,254.8906 C230.5156,253.1094 231.7656,251.7969 233.5,251.7969 C234.0781,251.7969 234.6875,251.9531 235.1563,252.2031 C235.6406,252.4844 235.8125,252.7031 235.9063,253.1094 C235.9688,253.5156 236,253.6406 236.1406,253.7656 C236.2813,253.9063 236.5156,254.0156 236.7344,254.0156 C237,254.0156 237.2656,253.875 237.4375,253.6563 C237.5469,253.5 237.5781,253.3125 237.5781,252.8906 L237.5781,251.4688 C237.5781,251.0313 237.5625,250.9063 237.4688,250.75 C237.3125,250.4844 237.0313,250.3438 236.7344,250.3438 C236.4375,250.3438 236.2344,250.4375 236.0156,250.75 L235.8438,250.6719 Z "/><text fill="#000000" font-family="sans-serif" font-size="12" lengthAdjust="spacingAndGlyphs" textLength="123" x="247.5" y="259.1543">GraphicsMastermind</text><line style="stroke: #A80036; stroke-width: 1.5;" x1="219.5" x2="372.5" y1="271" y2="271"/><line style="stroke: #A80036; stroke-width: 1.5;" x1="219.5" x2="372.5" y1="279" y2="279"/><ellipse cx="229.5" cy="290" fill="#84BE84" rx="3" ry="3" style="stroke: #038048; stroke-width: 1.0;"/><text fill="#000000" font-family="sans-serif" font-size="11" lengthAdjust="spacingAndGlyphs" text-decoration="underline" textLength="108" x="238.5" y="293.2104">main(String[]): void</text><polygon fill="#FFFF44" points="229.5,297.8047,233.5,301.8047,229.5,305.8047,225.5,301.8047" style="stroke: #B38D22; stroke-width: 1.0;"/><text fill="#000000" font-family="sans-serif" font-size="11" lengthAdjust="spacingAndGlyphs" textLength="108" x="238.5" y="306.0151">createView(): View</text><!--MD5=[4e4b69ff03f558308117a21ae810a87e]
class com.views.View--><rect fill="#FEFECE" filter="url(#f1qeun1m3fyomb)" height="48" id="com.views.View" style="stroke: #A80036; stroke-width: 1.5;" width="61" x="430.5" y="252"/><ellipse cx="445.5" cy="268" fill="#ADD1B2" rx="11" ry="11" style="stroke: #A80036; stroke-width: 1.0;"/><path d="M447.8438,263.6719 C446.9063,263.2344 446.3125,263.0938 445.4375,263.0938 C442.8125,263.0938 440.8125,265.1719 440.8125,267.8906 L440.8125,269.0156 C440.8125,271.5938 442.9219,273.4844 445.8125,273.4844 C447.0313,273.4844 448.1875,273.1875 448.9375,272.6406 C449.5156,272.2344 449.8438,271.7813 449.8438,271.3906 C449.8438,270.9375 449.4531,270.5469 448.9844,270.5469 C448.7656,270.5469 448.5625,270.625 448.375,270.8125 C447.9219,271.2969 447.9219,271.2969 447.7344,271.3906 C447.3125,271.6563 446.625,271.7813 445.8594,271.7813 C443.8125,271.7813 442.5156,270.6875 442.5156,268.9844 L442.5156,267.8906 C442.5156,266.1094 443.7656,264.7969 445.5,264.7969 C446.0781,264.7969 446.6875,264.9531 447.1563,265.2031 C447.6406,265.4844 447.8125,265.7031 447.9063,266.1094 C447.9688,266.5156 448,266.6406 448.1406,266.7656 C448.2813,266.9063 448.5156,267.0156 448.7344,267.0156 C449,267.0156 449.2656,266.875 449.4375,266.6563 C449.5469,266.5 449.5781,266.3125 449.5781,265.8906 L449.5781,264.4688 C449.5781,264.0313 449.5625,263.9063 449.4688,263.75 C449.3125,263.4844 449.0313,263.3438 448.7344,263.3438 C448.4375,263.3438 448.2344,263.4375 448.0156,263.75 L447.8438,263.6719 Z "/><text fill="#000000" font-family="sans-serif" font-size="12" lengthAdjust="spacingAndGlyphs" textLength="29" x="459.5" y="272.1543">View</text><line style="stroke: #A80036; stroke-width: 1.5;" x1="431.5" x2="490.5" y1="284" y2="284"/><line style="stroke: #A80036; stroke-width: 1.5;" x1="431.5" x2="490.5" y1="292" y2="292"/><!--MD5=[b40cd2b78683de4e07acd5e4e0e94125]
class com.controllers.ProposalController--><rect fill="#FEFECE" filter="url(#f1qeun1m3fyomb)" height="48" id="com.controllers.ProposalController" style="stroke: #A80036; stroke-width: 1.5;" width="143" x="728.5" y="252"/><ellipse cx="743.5" cy="268" fill="#ADD1B2" rx="11" ry="11" style="stroke: #A80036; stroke-width: 1.0;"/><path d="M745.8438,263.6719 C744.9063,263.2344 744.3125,263.0938 743.4375,263.0938 C740.8125,263.0938 738.8125,265.1719 738.8125,267.8906 L738.8125,269.0156 C738.8125,271.5938 740.9219,273.4844 743.8125,273.4844 C745.0313,273.4844 746.1875,273.1875 746.9375,272.6406 C747.5156,272.2344 747.8438,271.7813 747.8438,271.3906 C747.8438,270.9375 747.4531,270.5469 746.9844,270.5469 C746.7656,270.5469 746.5625,270.625 746.375,270.8125 C745.9219,271.2969 745.9219,271.2969 745.7344,271.3906 C745.3125,271.6563 744.625,271.7813 743.8594,271.7813 C741.8125,271.7813 740.5156,270.6875 740.5156,268.9844 L740.5156,267.8906 C740.5156,266.1094 741.7656,264.7969 743.5,264.7969 C744.0781,264.7969 744.6875,264.9531 745.1563,265.2031 C745.6406,265.4844 745.8125,265.7031 745.9063,266.1094 C745.9688,266.5156 746,266.6406 746.1406,266.7656 C746.2813,266.9063 746.5156,267.0156 746.7344,267.0156 C747,267.0156 747.2656,266.875 747.4375,266.6563 C747.5469,266.5 747.5781,266.3125 747.5781,265.8906 L747.5781,264.4688 C747.5781,264.0313 747.5625,263.9063 747.4688,263.75 C747.3125,263.4844 747.0313,263.3438 746.7344,263.3438 C746.4375,263.3438 746.2344,263.4375 746.0156,263.75 L745.8438,263.6719 Z "/><text fill="#000000" font-family="sans-serif" font-size="12" lengthAdjust="spacingAndGlyphs" textLength="111" x="757.5" y="272.1543">ProposalController</text><line style="stroke: #A80036; stroke-width: 1.5;" x1="729.5" x2="870.5" y1="284" y2="284"/><line style="stroke: #A80036; stroke-width: 1.5;" x1="729.5" x2="870.5" y1="292" y2="292"/><!--MD5=[bde59fc6c19aae4f66c9ab2f75e92cdd]
class com.controllers.ResumeController--><rect fill="#FEFECE" filter="url(#f1qeun1m3fyomb)" height="48" id="com.controllers.ResumeController" style="stroke: #A80036; stroke-width: 1.5;" width="139" x="554.5" y="252"/><ellipse cx="569.5" cy="268" fill="#ADD1B2" rx="11" ry="11" style="stroke: #A80036; stroke-width: 1.0;"/><path d="M571.8438,263.6719 C570.9063,263.2344 570.3125,263.0938 569.4375,263.0938 C566.8125,263.0938 564.8125,265.1719 564.8125,267.8906 L564.8125,269.0156 C564.8125,271.5938 566.9219,273.4844 569.8125,273.4844 C571.0313,273.4844 572.1875,273.1875 572.9375,272.6406 C573.5156,272.2344 573.8438,271.7813 573.8438,271.3906 C573.8438,270.9375 573.4531,270.5469 572.9844,270.5469 C572.7656,270.5469 572.5625,270.625 572.375,270.8125 C571.9219,271.2969 571.9219,271.2969 571.7344,271.3906 C571.3125,271.6563 570.625,271.7813 569.8594,271.7813 C567.8125,271.7813 566.5156,270.6875 566.5156,268.9844 L566.5156,267.8906 C566.5156,266.1094 567.7656,264.7969 569.5,264.7969 C570.0781,264.7969 570.6875,264.9531 571.1563,265.2031 C571.6406,265.4844 571.8125,265.7031 571.9063,266.1094 C571.9688,266.5156 572,266.6406 572.1406,266.7656 C572.2813,266.9063 572.5156,267.0156 572.7344,267.0156 C573,267.0156 573.2656,266.875 573.4375,266.6563 C573.5469,266.5 573.5781,266.3125 573.5781,265.8906 L573.5781,264.4688 C573.5781,264.0313 573.5625,263.9063 573.4688,263.75 C573.3125,263.4844 573.0313,263.3438 572.7344,263.3438 C572.4375,263.3438 572.2344,263.4375 572.0156,263.75 L571.8438,263.6719 Z "/><text fill="#000000" font-family="sans-serif" font-size="12" lengthAdjust="spacingAndGlyphs" textLength="107" x="583.5" y="272.1543">ResumeController</text><line style="stroke: #A80036; stroke-width: 1.5;" x1="555.5" x2="692.5" y1="284" y2="284"/><line style="stroke: #A80036; stroke-width: 1.5;" x1="555.5" x2="692.5" y1="292" y2="292"/><!--MD5=[7585fc93400394f776d0e4815b7b655b]
reverse link com.mastermind.Mastermind to com.mastermind.ConsoleMastermind--><path codeLine="5" d="M179.105,194.578 C165.392,210.088 151.746,225.522 140.13,238.66 " fill="none" id="com.mastermind.Mastermind-backto-com.mastermind.ConsoleMastermind" style="stroke: #A80036; stroke-width: 1.0;"/><polygon fill="none" points="174.275,189.473,192.767,179.126,184.763,198.746,174.275,189.473" style="stroke: #A80036; stroke-width: 1.0;"/><!--MD5=[c8cf6ab12fec1fe89466390d24e2f134]
reverse link com.mastermind.Mastermind to com.mastermind.GraphicsMastermind--><path codeLine="10" d="M276.057,198.937 C279.734,212.962 283.35,226.754 286.472,238.66 " fill="none" id="com.mastermind.Mastermind-backto-com.mastermind.GraphicsMastermind" style="stroke: #A80036; stroke-width: 1.0;"/><polygon fill="none" points="269.164,200.247,270.862,179.126,282.706,196.697,269.164,200.247" style="stroke: #A80036; stroke-width: 1.0;"/><!--MD5=[333d3d858488f8e746c6c1c72a6f8d47]
link com.mastermind.Mastermind to com.views.View--><path codeLine="20" d="M351.441,179.098 C364.604,188.874 377.77,199.01 390,209 C405.001,221.254 420.865,235.83 433.783,248.1628 " fill="none" id="com.mastermind.Mastermind-to-com.views.View" style="stroke: #A80036; stroke-width: 1.0;"/><polygon fill="#A80036" points="437.693,251.9133,433.9651,242.7972,434.084,248.4528,428.4283,248.5717,437.693,251.9133" style="stroke: #A80036; stroke-width: 1.0;"/><!--MD5=[67e758caa0ebb0a0b26183bb749bb54e]
link com.mastermind.Mastermind to com.controllers.ProposalController--><path codeLine="21" d="M385.9835,124.2553 C385.9835,124.2553 607.676,162.307 711,209 C730.228,217.689 749.318,231.049 764.858,243.481 " fill="none" id="com.mastermind.Mastermind-com.controllers.ProposalController" style="stroke: #A80036; stroke-width: 1.0;"/><polygon fill="#A80036" points="775.007,251.8718,770.6189,243.0545,771.1533,248.6861,765.5217,249.2204,775.007,251.8718" style="stroke: #A80036; stroke-width: 1.0;"/><line style="stroke: #A80036; stroke-width: 1.0;" x1="771.1533" x2="764.988" y1="248.6861" y2="243.5888"/><polygon fill="#A80036" points="374.091,122.653,379.5032,127.4183,385.9835,124.2553,380.5714,119.49,374.091,122.653" style="stroke: #A80036; stroke-width: 1.0;"/><!--MD5=[0974cf3dee0f75cf7dc3fcc54a8248b9]
link com.mastermind.Mastermind to com.controllers.ResumeController--><path codeLine="22" d="M385.4596,157.5815 C385.4596,157.5815 469.248,190.657 508,209 C530.777,219.782 555.138,233.315 575.626,245.3153 " fill="none" id="com.mastermind.Mastermind-com.controllers.ResumeController" style="stroke: #A80036; stroke-width: 1.0;"/><polygon fill="#A80036" points="586.886,251.9839,581.1805,243.956,582.5839,249.436,577.1039,250.8393,586.886,251.9839" style="stroke: #A80036; stroke-width: 1.0;"/><line style="stroke: #A80036; stroke-width: 1.0;" x1="582.5839" x2="575.7005" y1="249.436" y2="245.3597"/><polygon fill="#A80036" points="374.235,153.338,378.4328,159.2013,385.4596,157.5815,381.2618,151.7182,374.235,153.338" style="stroke: #A80036; stroke-width: 1.0;"/><!--MD5=[8f9a6e4cc048f4c7f341333f27afbb25]
@startuml
class  com.mastermind.ConsoleMastermind{
+ {static} main(String[]): void
# createView(): View
}
com.mastermind.Mastermind <|-down- com.mastermind.ConsoleMastermind
class  com.mastermind.GraphicsMastermind{
+ {static} main(String[]): void
# createView(): View
}
com.mastermind.Mastermind <|-down- com.mastermind.GraphicsMastermind
class  com.mastermind.Mastermind{
- game : Game
- view: View
- proposalController : ProposalController
- resumeController : ResumeController
# Mastermind()
# {abstract} createView(): View
# play(): void
}
com.mastermind.Mastermind - -> com.views.View
com.mastermind.Mastermind *-down-> com.controllers.ProposalController
com.mastermind.Mastermind *-down-> com.controllers.ResumeController
@enduml

PlantUML version 1.2020.20beta2(Unknown compile time)
(GPL source distribution)
Java Runtime: Java(TM) SE Runtime Environment
JVM: Java HotSpot(TM) 64-Bit Server VM
Default Encoding: UTF-8
Language: en
Country: US
--></g></svg>