<?xml version="1.0" encoding="UTF-8" standalone="no"?><svg xmlns="http://www.w3.org/2000/svg" xmlns:xlink="http://www.w3.org/1999/xlink" contentScriptType="application/ecmascript" contentStyleType="text/css" height="401px" preserveAspectRatio="none" style="width:832px;height:401px;" version="1.1" viewBox="0 0 832 401" width="832px" zoomAndPan="magnify"><defs><filter height="300%" id="f1qbkuh3sytt64" width="300%" x="-1" y="-1"><feGaussianBlur result="blurOut" stdDeviation="2.0"/><feColorMatrix in="blurOut" result="blurOut2" type="matrix" values="0 0 0 0 0 0 0 0 0 0 0 0 0 0 0 0 0 0 .4 0"/><feOffset dx="4.0" dy="4.0" in="blurOut2" result="blurOut3"/><feBlend in="SourceGraphic" in2="blurOut3" mode="normal"/></filter></defs><g><!--MD5=[e83acf53252e5e6f992a589437172ba6]
cluster com.views--><polygon fill="#FFFFFF" filter="url(#f1qbkuh3sytt64)" points="180,6,270,6,277,28.2969,815,28.2969,815,271,180,271,180,6" style="stroke: #000000; stroke-width: 1.5;"/><line style="stroke: #000000; stroke-width: 1.5;" x1="180" x2="277" y1="28.2969" y2="28.2969"/><text fill="#000000" font-family="sans-serif" font-size="14" font-weight="bold" lengthAdjust="spacingAndGlyphs" textLength="84" x="184" y="20.9951">com.views</text><!--MD5=[cc15223dad906424482237695d0c4da8]
cluster com.controllers--><polygon fill="#FFFFFF" filter="url(#f1qbkuh3sytt64)" points="16,295,150,295,157,317.2969,492,317.2969,492,394,16,394,16,295" style="stroke: #000000; stroke-width: 1.5;"/><line style="stroke: #000000; stroke-width: 1.5;" x1="16" x2="157" y1="317.2969" y2="317.2969"/><text fill="#000000" font-family="sans-serif" font-size="14" font-weight="bold" lengthAdjust="spacingAndGlyphs" textLength="128" x="20" y="309.9951">com.controllers</text><!--MD5=[b3c4fa56fc4050e12935ef94e0e29ab6]
class com.views.ErrorView--><rect codeLine="1" fill="#FEFECE" filter="url(#f1qbkuh3sytt64)" height="86.4141" id="com.views.ErrorView" style="stroke: #A80036; stroke-width: 1.5;" width="138" x="661" y="105"/><ellipse cx="697.15" cy="121" fill="#ADD1B2" rx="11" ry="11" style="stroke: #A80036; stroke-width: 1.0;"/><path d="M699.4938,116.6719 C698.5563,116.2344 697.9625,116.0938 697.0875,116.0938 C694.4625,116.0938 692.4625,118.1719 692.4625,120.8906 L692.4625,122.0156 C692.4625,124.5938 694.5719,126.4844 697.4625,126.4844 C698.6813,126.4844 699.8375,126.1875 700.5875,125.6406 C701.1656,125.2344 701.4938,124.7813 701.4938,124.3906 C701.4938,123.9375 701.1031,123.5469 700.6344,123.5469 C700.4156,123.5469 700.2125,123.625 700.025,123.8125 C699.5719,124.2969 699.5719,124.2969 699.3844,124.3906 C698.9625,124.6563 698.275,124.7813 697.5094,124.7813 C695.4625,124.7813 694.1656,123.6875 694.1656,121.9844 L694.1656,120.8906 C694.1656,119.1094 695.4156,117.7969 697.15,117.7969 C697.7281,117.7969 698.3375,117.9531 698.8063,118.2031 C699.2906,118.4844 699.4625,118.7031 699.5563,119.1094 C699.6188,119.5156 699.65,119.6406 699.7906,119.7656 C699.9313,119.9063 700.1656,120.0156 700.3844,120.0156 C700.65,120.0156 700.9156,119.875 701.0875,119.6563 C701.1969,119.5 701.2281,119.3125 701.2281,118.8906 L701.2281,117.4688 C701.2281,117.0313 701.2125,116.9063 701.1188,116.75 C700.9625,116.4844 700.6813,116.3438 700.3844,116.3438 C700.0875,116.3438 699.8844,116.4375 699.6656,116.75 L699.4938,116.6719 Z "/><text fill="#000000" font-family="sans-serif" font-size="12" lengthAdjust="spacingAndGlyphs" textLength="59" x="715.85" y="125.1543">ErrorView</text><line style="stroke: #A80036; stroke-width: 1.5;" x1="662" x2="798" y1="137" y2="137"/><ellipse cx="672" cy="148" fill="none" rx="3" ry="3" style="stroke: #038048; stroke-width: 1.0;"/><text fill="#000000" font-family="sans-serif" font-size="11" lengthAdjust="spacingAndGlyphs" text-decoration="underline" textLength="112" x="681" y="151.2104">MESSAGES: String[]</text><polygon fill="none" points="672,155.8047,676,159.8047,672,163.8047,668,159.8047" style="stroke: #B38D22; stroke-width: 1.0;"/><text fill="#000000" font-family="sans-serif" font-size="11" lengthAdjust="spacingAndGlyphs" textLength="60" x="681" y="164.0151">error: Error</text><line style="stroke: #A80036; stroke-width: 1.5;" x1="662" x2="798" y1="170.6094" y2="170.6094"/><ellipse cx="672" cy="181.6094" fill="#84BE84" rx="3" ry="3" style="stroke: #038048; stroke-width: 1.0;"/><text fill="#000000" font-family="sans-serif" font-size="11" lengthAdjust="spacingAndGlyphs" textLength="88" x="681" y="184.8198">ErrorView(Error)</text><!--MD5=[173a4c62e52a3982e8161193ff2a2600]
class com.views.Message--><rect codeLine="6" fill="#FEFECE" filter="url(#f1qbkuh3sytt64)" height="214.4609" id="com.views.Message" style="stroke: #A80036; stroke-width: 1.5;" width="231" x="394.5" y="41"/><ellipse cx="478.25" cy="57" fill="#EB937F" rx="11" ry="11" style="stroke: #A80036; stroke-width: 1.0;"/><path d="M477.0469,57.875 L478.5,57.875 L478.5,57.9844 C478.5,58.3906 478.5313,58.5469 478.6094,58.7031 C478.7656,58.9531 479.0469,59.1094 479.3438,59.1094 C479.5938,59.1094 479.8594,58.9688 480.0156,58.75 C480.1406,58.5938 480.1719,58.4375 480.1719,57.9844 L480.1719,56.0625 C480.1719,55.9063 480.1719,55.8594 480.1563,55.7031 C480.0938,55.2344 479.7813,54.9219 479.3281,54.9219 C479.0781,54.9219 478.8125,55.0625 478.6406,55.2813 C478.5313,55.4531 478.5,55.6094 478.5,56.0625 L478.5,56.1875 L477.0469,56.1875 L477.0469,53.7813 L481.0313,53.7813 L481.0313,54.6406 C481.0313,55.0469 481.0625,55.2188 481.1406,55.375 C481.3125,55.625 481.5938,55.7813 481.875,55.7813 C482.1406,55.7813 482.4063,55.6406 482.5781,55.4219 C482.6875,55.25 482.7188,55.1094 482.7188,54.6406 L482.7188,52.0938 L475.0938,52.0938 C474.6563,52.0938 474.5313,52.1094 474.375,52.2031 C474.125,52.3594 473.9688,52.6563 473.9688,52.9375 C473.9688,53.2188 474.1094,53.4688 474.3281,53.6406 C474.4844,53.75 474.6719,53.7813 475.0938,53.7813 L475.3438,53.7813 L475.3438,60.2969 L475.0938,60.2969 C474.6875,60.2969 474.5313,60.3125 474.375,60.4219 C474.125,60.5938 473.9688,60.8594 473.9688,61.1563 C473.9688,61.4219 474.1094,61.6719 474.3281,61.8281 C474.4688,61.9531 474.7031,62 475.0938,62 L483.0938,62 L483.0938,59.4219 C483.0938,58.9844 483.0625,58.8438 482.9844,58.6875 C482.8125,58.4375 482.5313,58.2813 482.25,58.2813 C481.9844,58.2813 481.7188,58.3906 481.5469,58.6406 C481.4375,58.7969 481.4063,58.9375 481.4063,59.4219 L481.4063,60.2969 L477.0469,60.2969 L477.0469,57.875 Z "/><text fill="#000000" font-family="sans-serif" font-size="12" lengthAdjust="spacingAndGlyphs" textLength="55" x="498.75" y="61.1543">Message</text><line style="stroke: #A80036; stroke-width: 1.5;" x1="395.5" x2="624.5" y1="73" y2="73"/><ellipse cx="405.5" cy="84" fill="none" rx="3" ry="3" style="stroke: #038048; stroke-width: 1.0;"/><text fill="#000000" font-family="sans-serif" font-size="11" lengthAdjust="spacingAndGlyphs" textLength="117" x="414.5" y="87.2104">ATTEMPTS: Message</text><ellipse cx="405.5" cy="96.8047" fill="none" rx="3" ry="3" style="stroke: #038048; stroke-width: 1.0;"/><text fill="#000000" font-family="sans-serif" font-size="11" lengthAdjust="spacingAndGlyphs" textLength="102" x="414.5" y="100.0151">SECRET: Message</text><ellipse cx="405.5" cy="109.6094" fill="none" rx="3" ry="3" style="stroke: #038048; stroke-width: 1.0;"/><text fill="#000000" font-family="sans-serif" font-size="11" lengthAdjust="spacingAndGlyphs" textLength="104" x="414.5" y="112.8198">RESUME: Message</text><ellipse cx="405.5" cy="122.4141" fill="none" rx="3" ry="3" style="stroke: #038048; stroke-width: 1.0;"/><text fill="#000000" font-family="sans-serif" font-size="11" lengthAdjust="spacingAndGlyphs" textLength="101" x="414.5" y="125.6245">RESULT: Message</text><ellipse cx="405.5" cy="135.2188" fill="none" rx="3" ry="3" style="stroke: #038048; stroke-width: 1.0;"/><text fill="#000000" font-family="sans-serif" font-size="11" lengthAdjust="spacingAndGlyphs" textLength="205" x="414.5" y="138.4292">PROPOSED_COMBINATION: Message</text><ellipse cx="405.5" cy="148.0234" fill="none" rx="3" ry="3" style="stroke: #038048; stroke-width: 1.0;"/><text fill="#000000" font-family="sans-serif" font-size="11" lengthAdjust="spacingAndGlyphs" textLength="88" x="414.5" y="151.2339">TITLE: Message</text><ellipse cx="405.5" cy="160.8281" fill="none" rx="3" ry="3" style="stroke: #038048; stroke-width: 1.0;"/><text fill="#000000" font-family="sans-serif" font-size="11" lengthAdjust="spacingAndGlyphs" textLength="102" x="414.5" y="164.0386">WINNER: Message</text><ellipse cx="405.5" cy="173.6328" fill="none" rx="3" ry="3" style="stroke: #038048; stroke-width: 1.0;"/><text fill="#000000" font-family="sans-serif" font-size="11" lengthAdjust="spacingAndGlyphs" textLength="104" x="414.5" y="176.8433">LOOSER: Message</text><line style="stroke: #A80036; stroke-width: 1.5;" x1="395.5" x2="624.5" y1="183.4375" y2="183.4375"/><polygon fill="#4177AF" points="405.5,190.4375,401.5,196.4375,409.5,196.4375" style="stroke: #1963A0; stroke-width: 1.0;"/><text fill="#000000" font-family="sans-serif" font-size="11" lengthAdjust="spacingAndGlyphs" textLength="92" x="414.5" y="197.6479">Message(String)</text><ellipse cx="405.5" cy="207.2422" fill="#84BE84" rx="3" ry="3" style="stroke: #038048; stroke-width: 1.0;"/><text fill="#000000" font-family="sans-serif" font-size="11" lengthAdjust="spacingAndGlyphs" textLength="67" x="414.5" y="210.4526">write(): void</text><ellipse cx="405.5" cy="220.0469" fill="#84BE84" rx="3" ry="3" style="stroke: #038048; stroke-width: 1.0;"/><text fill="#000000" font-family="sans-serif" font-size="11" lengthAdjust="spacingAndGlyphs" textLength="77" x="414.5" y="223.2573">writeln(): void</text><ellipse cx="405.5" cy="232.8516" fill="#84BE84" rx="3" ry="3" style="stroke: #038048; stroke-width: 1.0;"/><text fill="#000000" font-family="sans-serif" font-size="11" lengthAdjust="spacingAndGlyphs" textLength="91" x="414.5" y="236.062">writeln(int): void</text><ellipse cx="405.5" cy="245.6563" fill="#84BE84" rx="3" ry="3" style="stroke: #038048; stroke-width: 1.0;"/><text fill="#000000" font-family="sans-serif" font-size="11" lengthAdjust="spacingAndGlyphs" textLength="102" x="414.5" y="248.8667">write(int, int): void</text><!--MD5=[4e4b69ff03f558308117a21ae810a87e]
class com.views.View--><rect codeLine="21" fill="#FEFECE" filter="url(#f1qbkuh3sytt64)" height="99.2188" id="com.views.View" style="stroke: #A80036; stroke-width: 1.5;" width="163" x="196.5" y="98.5"/><ellipse cx="259.25" cy="114.5" fill="#ADD1B2" rx="11" ry="11" style="stroke: #A80036; stroke-width: 1.0;"/><path d="M261.5938,110.1719 C260.6563,109.7344 260.0625,109.5938 259.1875,109.5938 C256.5625,109.5938 254.5625,111.6719 254.5625,114.3906 L254.5625,115.5156 C254.5625,118.0938 256.6719,119.9844 259.5625,119.9844 C260.7813,119.9844 261.9375,119.6875 262.6875,119.1406 C263.2656,118.7344 263.5938,118.2813 263.5938,117.8906 C263.5938,117.4375 263.2031,117.0469 262.7344,117.0469 C262.5156,117.0469 262.3125,117.125 262.125,117.3125 C261.6719,117.7969 261.6719,117.7969 261.4844,117.8906 C261.0625,118.1563 260.375,118.2813 259.6094,118.2813 C257.5625,118.2813 256.2656,117.1875 256.2656,115.4844 L256.2656,114.3906 C256.2656,112.6094 257.5156,111.2969 259.25,111.2969 C259.8281,111.2969 260.4375,111.4531 260.9063,111.7031 C261.3906,111.9844 261.5625,112.2031 261.6563,112.6094 C261.7188,113.0156 261.75,113.1406 261.8906,113.2656 C262.0313,113.4063 262.2656,113.5156 262.4844,113.5156 C262.75,113.5156 263.0156,113.375 263.1875,113.1563 C263.2969,113 263.3281,112.8125 263.3281,112.3906 L263.3281,110.9688 C263.3281,110.5313 263.3125,110.4063 263.2188,110.25 C263.0625,109.9844 262.7813,109.8438 262.4844,109.8438 C262.1875,109.8438 261.9844,109.9375 261.7656,110.25 L261.5938,110.1719 Z "/><text fill="#000000" font-family="sans-serif" font-size="12" lengthAdjust="spacingAndGlyphs" textLength="29" x="279.75" y="118.6543">View</text><line style="stroke: #A80036; stroke-width: 1.5;" x1="197.5" x2="358.5" y1="130.5" y2="130.5"/><line style="stroke: #A80036; stroke-width: 1.5;" x1="197.5" x2="358.5" y1="138.5" y2="138.5"/><ellipse cx="207.5" cy="149.5" fill="#84BE84" rx="3" ry="3" style="stroke: #038048; stroke-width: 1.0;"/><text fill="#000000" font-family="sans-serif" font-size="11" lengthAdjust="spacingAndGlyphs" textLength="137" x="216.5" y="152.7104">interact(Controller): void</text><polygon fill="#FFFF44" points="207.5,157.3047,211.5,161.3047,207.5,165.3047,203.5,161.3047" style="stroke: #B38D22; stroke-width: 1.0;"/><text fill="#000000" font-family="sans-serif" font-size="11" lengthAdjust="spacingAndGlyphs" textLength="64" x="216.5" y="165.5151">start(): void</text><polygon fill="#FFFF44" points="207.5,170.1094,211.5,174.1094,207.5,178.1094,203.5,174.1094" style="stroke: #B38D22; stroke-width: 1.0;"/><text fill="#000000" font-family="sans-serif" font-size="11" lengthAdjust="spacingAndGlyphs" textLength="63" x="216.5" y="178.3198">play(): void</text><polygon fill="#FFFF44" points="207.5,182.9141,211.5,186.9141,207.5,190.9141,203.5,186.9141" style="stroke: #B38D22; stroke-width: 1.0;"/><text fill="#000000" font-family="sans-serif" font-size="11" lengthAdjust="spacingAndGlyphs" textLength="108" x="216.5" y="191.1245">isNewGame() :void</text><!--MD5=[0930c0e587ad373606b07eda6dbc2ee0]
class com.controllers.Controller--><rect fill="#FEFECE" filter="url(#f1qbkuh3sytt64)" height="48" id="com.controllers.Controller" style="stroke: #A80036; stroke-width: 1.5;" width="91" x="384.5" y="330"/><ellipse cx="399.5" cy="346" fill="#ADD1B2" rx="11" ry="11" style="stroke: #A80036; stroke-width: 1.0;"/><path d="M401.8438,341.6719 C400.9063,341.2344 400.3125,341.0938 399.4375,341.0938 C396.8125,341.0938 394.8125,343.1719 394.8125,345.8906 L394.8125,347.0156 C394.8125,349.5938 396.9219,351.4844 399.8125,351.4844 C401.0313,351.4844 402.1875,351.1875 402.9375,350.6406 C403.5156,350.2344 403.8438,349.7813 403.8438,349.3906 C403.8438,348.9375 403.4531,348.5469 402.9844,348.5469 C402.7656,348.5469 402.5625,348.625 402.375,348.8125 C401.9219,349.2969 401.9219,349.2969 401.7344,349.3906 C401.3125,349.6563 400.625,349.7813 399.8594,349.7813 C397.8125,349.7813 396.5156,348.6875 396.5156,346.9844 L396.5156,345.8906 C396.5156,344.1094 397.7656,342.7969 399.5,342.7969 C400.0781,342.7969 400.6875,342.9531 401.1563,343.2031 C401.6406,343.4844 401.8125,343.7031 401.9063,344.1094 C401.9688,344.5156 402,344.6406 402.1406,344.7656 C402.2813,344.9063 402.5156,345.0156 402.7344,345.0156 C403,345.0156 403.2656,344.875 403.4375,344.6563 C403.5469,344.5 403.5781,344.3125 403.5781,343.8906 L403.5781,342.4688 C403.5781,342.0313 403.5625,341.9063 403.4688,341.75 C403.3125,341.4844 403.0313,341.3438 402.7344,341.3438 C402.4375,341.3438 402.2344,341.4375 402.0156,341.75 L401.8438,341.6719 Z "/><text fill="#000000" font-family="sans-serif" font-size="12" lengthAdjust="spacingAndGlyphs" textLength="59" x="413.5" y="350.1543">Controller</text><line style="stroke: #A80036; stroke-width: 1.5;" x1="385.5" x2="474.5" y1="362" y2="362"/><line style="stroke: #A80036; stroke-width: 1.5;" x1="385.5" x2="474.5" y1="370" y2="370"/><!--MD5=[b40cd2b78683de4e07acd5e4e0e94125]
class com.controllers.ProposalController--><rect fill="#FEFECE" filter="url(#f1qbkuh3sytt64)" height="48" id="com.controllers.ProposalController" style="stroke: #A80036; stroke-width: 1.5;" width="143" x="206.5" y="330"/><ellipse cx="221.5" cy="346" fill="#ADD1B2" rx="11" ry="11" style="stroke: #A80036; stroke-width: 1.0;"/><path d="M223.8438,341.6719 C222.9063,341.2344 222.3125,341.0938 221.4375,341.0938 C218.8125,341.0938 216.8125,343.1719 216.8125,345.8906 L216.8125,347.0156 C216.8125,349.5938 218.9219,351.4844 221.8125,351.4844 C223.0313,351.4844 224.1875,351.1875 224.9375,350.6406 C225.5156,350.2344 225.8438,349.7813 225.8438,349.3906 C225.8438,348.9375 225.4531,348.5469 224.9844,348.5469 C224.7656,348.5469 224.5625,348.625 224.375,348.8125 C223.9219,349.2969 223.9219,349.2969 223.7344,349.3906 C223.3125,349.6563 222.625,349.7813 221.8594,349.7813 C219.8125,349.7813 218.5156,348.6875 218.5156,346.9844 L218.5156,345.8906 C218.5156,344.1094 219.7656,342.7969 221.5,342.7969 C222.0781,342.7969 222.6875,342.9531 223.1563,343.2031 C223.6406,343.4844 223.8125,343.7031 223.9063,344.1094 C223.9688,344.5156 224,344.6406 224.1406,344.7656 C224.2813,344.9063 224.5156,345.0156 224.7344,345.0156 C225,345.0156 225.2656,344.875 225.4375,344.6563 C225.5469,344.5 225.5781,344.3125 225.5781,343.8906 L225.5781,342.4688 C225.5781,342.0313 225.5625,341.9063 225.4688,341.75 C225.3125,341.4844 225.0313,341.3438 224.7344,341.3438 C224.4375,341.3438 224.2344,341.4375 224.0156,341.75 L223.8438,341.6719 Z "/><text fill="#000000" font-family="sans-serif" font-size="12" lengthAdjust="spacingAndGlyphs" textLength="111" x="235.5" y="350.1543">ProposalController</text><line style="stroke: #A80036; stroke-width: 1.5;" x1="207.5" x2="348.5" y1="362" y2="362"/><line style="stroke: #A80036; stroke-width: 1.5;" x1="207.5" x2="348.5" y1="370" y2="370"/><!--MD5=[bde59fc6c19aae4f66c9ab2f75e92cdd]
class com.controllers.ResumeController--><rect fill="#FEFECE" filter="url(#f1qbkuh3sytt64)" height="48" id="com.controllers.ResumeController" style="stroke: #A80036; stroke-width: 1.5;" width="139" x="32.5" y="330"/><ellipse cx="47.5" cy="346" fill="#ADD1B2" rx="11" ry="11" style="stroke: #A80036; stroke-width: 1.0;"/><path d="M49.8438,341.6719 C48.9063,341.2344 48.3125,341.0938 47.4375,341.0938 C44.8125,341.0938 42.8125,343.1719 42.8125,345.8906 L42.8125,347.0156 C42.8125,349.5938 44.9219,351.4844 47.8125,351.4844 C49.0313,351.4844 50.1875,351.1875 50.9375,350.6406 C51.5156,350.2344 51.8438,349.7813 51.8438,349.3906 C51.8438,348.9375 51.4531,348.5469 50.9844,348.5469 C50.7656,348.5469 50.5625,348.625 50.375,348.8125 C49.9219,349.2969 49.9219,349.2969 49.7344,349.3906 C49.3125,349.6563 48.625,349.7813 47.8594,349.7813 C45.8125,349.7813 44.5156,348.6875 44.5156,346.9844 L44.5156,345.8906 C44.5156,344.1094 45.7656,342.7969 47.5,342.7969 C48.0781,342.7969 48.6875,342.9531 49.1563,343.2031 C49.6406,343.4844 49.8125,343.7031 49.9063,344.1094 C49.9688,344.5156 50,344.6406 50.1406,344.7656 C50.2813,344.9063 50.5156,345.0156 50.7344,345.0156 C51,345.0156 51.2656,344.875 51.4375,344.6563 C51.5469,344.5 51.5781,344.3125 51.5781,343.8906 L51.5781,342.4688 C51.5781,342.0313 51.5625,341.9063 51.4688,341.75 C51.3125,341.4844 51.0313,341.3438 50.7344,341.3438 C50.4375,341.3438 50.2344,341.4375 50.0156,341.75 L49.8438,341.6719 Z "/><text fill="#000000" font-family="sans-serif" font-size="12" lengthAdjust="spacingAndGlyphs" textLength="107" x="61.5" y="350.1543">ResumeController</text><line style="stroke: #A80036; stroke-width: 1.5;" x1="33.5" x2="170.5" y1="362" y2="362"/><line style="stroke: #A80036; stroke-width: 1.5;" x1="33.5" x2="170.5" y1="370" y2="370"/><!--MD5=[fe8b21efe412b67fba6612d0d36e0b3e]
reverse link com.controllers.Controller to com.views.View--><path codeLine="27" d="M400.661,313.6241 C375.997,280.523 340.638,233.067 314.215,197.604 " fill="none" id="com.controllers.Controller-backto-com.views.View" style="stroke: #A80036; stroke-width: 1.0;"/><polygon fill="none" points="406.472,309.708,412.809,329.9276,395.246,318.0723,406.472,309.708" style="stroke: #A80036; stroke-width: 1.0;"/><!--MD5=[d3009e2025aa30f2530351cb5acc434b]
link com.views.View to com.controllers.ProposalController--><path codeLine="28" d="M278,197.604 C278,237.316 278,292.067 278,324.8588 " fill="none" id="com.views.View-to-com.controllers.ProposalController" style="stroke: #A80036; stroke-width: 1.0; stroke-dasharray: 7.0,7.0;"/><polygon fill="#A80036" points="278,329.9276,282,320.9276,278,324.9276,274,320.9276,278,329.9276" style="stroke: #A80036; stroke-width: 1.0;"/><!--MD5=[863c9532f3e33916fe795d861d24d745]
link com.views.View to com.controllers.ResumeController--><path codeLine="29" d="M236.067,197.604 C201.383,237.806 153.402,293.421 125.24,326.0632 " fill="none" id="com.views.View-to-com.controllers.ResumeController" style="stroke: #A80036; stroke-width: 1.0; stroke-dasharray: 7.0,7.0;"/><polygon fill="#A80036" points="121.906,329.9276,130.8137,325.7262,125.1722,326.1418,124.7565,320.5003,121.906,329.9276" style="stroke: #A80036; stroke-width: 1.0;"/><!--MD5=[33f1bd96f987ffa7f04acaad1643ac78]
@startuml
class  com.views.ErrorView{
+ {static} MESSAGES: String[]
# error: Error
+ ErrorView(Error)
}
enum  com.views.Message{
+ ATTEMPTS: Message
+ SECRET: Message
+ RESUME: Message
+ RESULT: Message
+ PROPOSED_COMBINATION: Message
+ TITLE: Message
+ WINNER: Message
+ LOOSER: Message
~ Message(String)
+ write(): void
+ writeln(): void
+ writeln(int): void
+ write(int, int): void
}
class  com.views.View{
+ interact(Controller): void
# start(): void
# play(): void
# isNewGame() :void
}
com.controllers.Controller <|-down- com.views.View
com.views.View ..> com.controllers.ProposalController
com.views.View ..> com.controllers.ResumeController
@enduml

PlantUML version 1.2020.20beta2(Unknown compile time)
(GPL source distribution)
Java Runtime: Java(TM) SE Runtime Environment
JVM: Java HotSpot(TM) 64-Bit Server VM
Default Encoding: UTF-8
Language: en
Country: US
--></g></svg>