<?xml version="1.0" encoding="UTF-8" standalone="no"?><svg xmlns="http://www.w3.org/2000/svg" xmlns:xlink="http://www.w3.org/1999/xlink" contentScriptType="application/ecmascript" contentStyleType="text/css" height="794px" preserveAspectRatio="none" style="width:1113px;height:794px;" version="1.1" viewBox="0 0 1113 794" width="1113px" zoomAndPan="magnify"><defs><filter height="300%" id="fp1l9r27rr8ni" width="300%" x="-1" y="-1"><feGaussianBlur result="blurOut" stdDeviation="2.0"/><feColorMatrix in="blurOut" result="blurOut2" type="matrix" values="0 0 0 0 0 0 0 0 0 0 0 0 0 0 0 0 0 0 .4 0"/><feOffset dx="4.0" dy="4.0" in="blurOut2" result="blurOut3"/><feBlend in="SourceGraphic" in2="blurOut3" mode="normal"/></filter></defs><g><!--MD5=[b95032ff59720514854eb7a92b6b0ae3]
cluster com.models--><polygon fill="#FFFFFF" filter="url(#fp1l9r27rr8ni)" points="16,6,119,6,126,28.2969,869,28.2969,869,787,16,787,16,6" style="stroke: #000000; stroke-width: 1.5;"/><line style="stroke: #000000; stroke-width: 1.5;" x1="16" x2="126" y1="28.2969" y2="28.2969"/><text fill="#000000" font-family="sans-serif" font-size="14" font-weight="bold" lengthAdjust="spacingAndGlyphs" textLength="97" x="20" y="20.9951">com.models</text><!--MD5=[7db3c59d38ae5b37b484eb2df9368145]
cluster java.util--><polygon fill="#FFFFFF" filter="url(#fp1l9r27rr8ni)" points="893,419,966,419,973,441.2969,1096,441.2969,1096,518,893,518,893,419" style="stroke: #000000; stroke-width: 1.5;"/><line style="stroke: #000000; stroke-width: 1.5;" x1="893" x2="973" y1="441.2969" y2="441.2969"/><text fill="#000000" font-family="sans-serif" font-size="14" font-weight="bold" lengthAdjust="spacingAndGlyphs" textLength="67" x="897" y="433.9951">java.util</text><!--MD5=[b6dcce5e5ef3c84b0b048d11301373dd]
class Game--><rect codeLine="2" fill="#FEFECE" filter="url(#fp1l9r27rr8ni)" height="240.0703" id="Game" style="stroke: #A80036; stroke-width: 1.5;" width="333" x="142.5" y="41"/><ellipse cx="287.25" cy="57" fill="#ADD1B2" rx="11" ry="11" style="stroke: #A80036; stroke-width: 1.0;"/><path d="M289.5938,52.6719 C288.6563,52.2344 288.0625,52.0938 287.1875,52.0938 C284.5625,52.0938 282.5625,54.1719 282.5625,56.8906 L282.5625,58.0156 C282.5625,60.5938 284.6719,62.4844 287.5625,62.4844 C288.7813,62.4844 289.9375,62.1875 290.6875,61.6406 C291.2656,61.2344 291.5938,60.7813 291.5938,60.3906 C291.5938,59.9375 291.2031,59.5469 290.7344,59.5469 C290.5156,59.5469 290.3125,59.625 290.125,59.8125 C289.6719,60.2969 289.6719,60.2969 289.4844,60.3906 C289.0625,60.6563 288.375,60.7813 287.6094,60.7813 C285.5625,60.7813 284.2656,59.6875 284.2656,57.9844 L284.2656,56.8906 C284.2656,55.1094 285.5156,53.7969 287.25,53.7969 C287.8281,53.7969 288.4375,53.9531 288.9063,54.2031 C289.3906,54.4844 289.5625,54.7031 289.6563,55.1094 C289.7188,55.5156 289.75,55.6406 289.8906,55.7656 C290.0313,55.9063 290.2656,56.0156 290.4844,56.0156 C290.75,56.0156 291.0156,55.875 291.1875,55.6563 C291.2969,55.5 291.3281,55.3125 291.3281,54.8906 L291.3281,53.4688 C291.3281,53.0313 291.3125,52.9063 291.2188,52.75 C291.0625,52.4844 290.7813,52.3438 290.4844,52.3438 C290.1875,52.3438 289.9844,52.4375 289.7656,52.75 L289.5938,52.6719 Z "/><text fill="#000000" font-family="sans-serif" font-size="12" lengthAdjust="spacingAndGlyphs" textLength="35" x="307.75" y="61.1543">Game</text><line style="stroke: #A80036; stroke-width: 1.5;" x1="143.5" x2="474.5" y1="73" y2="73"/><rect fill="none" height="6" style="stroke: #C82930; stroke-width: 1.0;" width="6" x="150.5" y="81"/><text fill="#000000" font-family="sans-serif" font-size="11" lengthAdjust="spacingAndGlyphs" text-decoration="underline" textLength="177" x="162.5" y="87.2104">{final} int MAX_ATTEMPS = 10;</text><rect fill="none" height="6" style="stroke: #C82930; stroke-width: 1.0;" width="6" x="150.5" y="93.8047"/><text fill="#000000" font-family="sans-serif" font-size="11" lengthAdjust="spacingAndGlyphs" textLength="223" x="162.5" y="100.0151">SecretCombination secretCombination;</text><rect fill="none" height="6" style="stroke: #C82930; stroke-width: 1.0;" width="6" x="150.5" y="106.6094"/><text fill="#000000" font-family="sans-serif" font-size="11" lengthAdjust="spacingAndGlyphs" textLength="268" x="162.5" y="112.8198">ProposedCombination[] proposedCombinations;</text><rect fill="none" height="6" style="stroke: #C82930; stroke-width: 1.0;" width="6" x="150.5" y="119.4141"/><text fill="#000000" font-family="sans-serif" font-size="11" lengthAdjust="spacingAndGlyphs" textLength="88" x="162.5" y="125.6245">Result[] results;</text><rect fill="none" height="6" style="stroke: #C82930; stroke-width: 1.0;" width="6" x="150.5" y="132.2188"/><text fill="#000000" font-family="sans-serif" font-size="11" lengthAdjust="spacingAndGlyphs" textLength="72" x="162.5" y="138.4292">int attempts;</text><text fill="#000000" font-family="sans-serif" font-size="11" lengthAdjust="spacingAndGlyphs" textLength="72" x="162.5" y="151.2339">int attempts;</text><line style="stroke: #A80036; stroke-width: 1.5;" x1="143.5" x2="474.5" y1="157.8281" y2="157.8281"/><polygon fill="#4177AF" points="153.5,164.8281,149.5,170.8281,157.5,170.8281" style="stroke: #1963A0; stroke-width: 1.0;"/><text fill="#000000" font-family="sans-serif" font-size="11" lengthAdjust="spacingAndGlyphs" textLength="43" x="162.5" y="172.0386">Game()</text><ellipse cx="153.5" cy="181.6328" fill="#84BE84" rx="3" ry="3" style="stroke: #038048; stroke-width: 1.0;"/><text fill="#000000" font-family="sans-serif" font-size="11" lengthAdjust="spacingAndGlyphs" textLength="183" x="162.5" y="184.8433">add(ProposedCombination): void</text><ellipse cx="153.5" cy="194.4375" fill="#84BE84" rx="3" ry="3" style="stroke: #038048; stroke-width: 1.0;"/><text fill="#000000" font-family="sans-serif" font-size="11" lengthAdjust="spacingAndGlyphs" textLength="121" x="162.5" y="197.6479">isFinished() : boolean</text><ellipse cx="153.5" cy="207.2422" fill="#84BE84" rx="3" ry="3" style="stroke: #038048; stroke-width: 1.0;"/><text fill="#000000" font-family="sans-serif" font-size="11" lengthAdjust="spacingAndGlyphs" textLength="114" x="162.5" y="210.4526">isWinner() : boolean</text><rect fill="#F24D5C" height="6" style="stroke: #C82930; stroke-width: 1.0;" width="6" x="150.5" y="217.0469"/><text fill="#000000" font-family="sans-serif" font-size="11" lengthAdjust="spacingAndGlyphs" textLength="112" x="162.5" y="223.2573">isLooser() : boolean</text><ellipse cx="153.5" cy="232.8516" fill="#84BE84" rx="3" ry="3" style="stroke: #038048; stroke-width: 1.0;"/><text fill="#000000" font-family="sans-serif" font-size="11" lengthAdjust="spacingAndGlyphs" textLength="131" x="162.5" y="236.062">getResults(int i): Result</text><ellipse cx="153.5" cy="245.6563" fill="#84BE84" rx="3" ry="3" style="stroke: #038048; stroke-width: 1.0;"/><text fill="#000000" font-family="sans-serif" font-size="11" lengthAdjust="spacingAndGlyphs" textLength="307" x="162.5" y="248.8667">getProposedCombinations(int i): ProposedCombination</text><ellipse cx="153.5" cy="258.4609" fill="#84BE84" rx="3" ry="3" style="stroke: #038048; stroke-width: 1.0;"/><text fill="#000000" font-family="sans-serif" font-size="11" lengthAdjust="spacingAndGlyphs" textLength="96" x="162.5" y="261.6714">getAttemps(): int</text><ellipse cx="153.5" cy="271.2656" fill="#84BE84" rx="3" ry="3" style="stroke: #038048; stroke-width: 1.0;"/><text fill="#000000" font-family="sans-serif" font-size="11" lengthAdjust="spacingAndGlyphs" textLength="252" x="162.5" y="274.4761">getSecretCombination(): SecretCombination</text><!--MD5=[28491d17d5ee38c9c116625a5ffc259a]
class Combination--><rect codeLine="19" fill="#FEFECE" filter="url(#fp1l9r27rr8ni)" height="99.2188" id="Combination" style="stroke: #A80036; stroke-width: 1.5;" width="161" x="691.5" y="111.5"/><ellipse cx="730.35" cy="127.5" fill="#A9DCDF" rx="11" ry="11" style="stroke: #A80036; stroke-width: 1.0;"/><path d="M732.4281,129.3125 L732.8188,130.2969 L732.4281,130.2969 C731.975,130.2969 731.8656,130.3125 731.7094,130.4219 C731.4594,130.5781 731.3031,130.8594 731.3031,131.1563 C731.3031,131.4219 731.4438,131.6719 731.6625,131.8281 C731.8031,131.9531 732.0063,132 732.4281,132 L734.7875,132 C735.1469,132 735.3656,131.9688 735.5063,131.875 C735.7563,131.7344 735.9125,131.4375 735.9125,131.1563 C735.9125,130.875 735.7719,130.625 735.5531,130.4688 C735.3813,130.3281 735.225,130.2969 734.7563,130.2969 L731.3656,122.0938 L727.6938,122.0938 C727.2406,122.0938 727.1156,122.1094 726.9594,122.2031 C726.7094,122.375 726.5531,122.6563 726.5531,122.9375 C726.5531,123.2188 726.6938,123.4688 726.9125,123.6406 C727.0844,123.75 727.2563,123.7813 727.6938,123.7813 L728.7719,123.7813 L726.1313,130.2969 C725.7094,130.2969 725.5531,130.3125 725.3969,130.4219 C725.1469,130.5781 724.9906,130.8594 724.9906,131.1563 C724.9906,131.7188 725.3656,132 726.1156,132 L728.3813,132 C728.7406,132 728.9594,131.9688 729.0844,131.875 C729.35,131.7344 729.4906,131.4375 729.4906,131.1563 C729.4906,130.875 729.3656,130.625 729.1469,130.4531 C728.975,130.3281 728.8344,130.2969 728.3813,130.2969 L727.9906,130.2969 L728.3813,129.3125 L732.4281,129.3125 Z M731.725,127.6094 L729.0531,127.6094 L730.3969,124.3438 L731.725,127.6094 Z "/><text fill="#000000" font-family="sans-serif" font-size="12" font-style="italic" lengthAdjust="spacingAndGlyphs" textLength="76" x="749.65" y="131.6543">Combination</text><line style="stroke: #A80036; stroke-width: 1.5;" x1="692.5" x2="851.5" y1="143.5" y2="143.5"/><polygon fill="none" points="702.5,149.5,706.5,153.5,702.5,157.5,698.5,153.5" style="stroke: #B38D22; stroke-width: 1.0;"/><text fill="#000000" font-family="sans-serif" font-size="11" lengthAdjust="spacingAndGlyphs" textLength="106" x="711.5" y="157.7104">List&lt;Color&gt; colors:</text><line style="stroke: #A80036; stroke-width: 1.5;" x1="692.5" x2="851.5" y1="164.3047" y2="164.3047"/><polygon fill="#4177AF" points="702.5,171.3047,698.5,177.3047,706.5,177.3047" style="stroke: #1963A0; stroke-width: 1.0;"/><text fill="#000000" font-family="sans-serif" font-size="11" lengthAdjust="spacingAndGlyphs" textLength="83" x="711.5" y="178.5151">Combination ()</text><ellipse cx="702.5" cy="188.1094" fill="#84BE84" rx="3" ry="3" style="stroke: #038048; stroke-width: 1.0;"/><text fill="#000000" font-family="sans-serif" font-size="11" lengthAdjust="spacingAndGlyphs" textLength="135" x="711.5" y="191.3198">getColors(): List&lt;Color&gt;</text><ellipse cx="702.5" cy="200.9141" fill="#84BE84" rx="3" ry="3" style="stroke: #038048; stroke-width: 1.0;"/><text fill="#000000" font-family="sans-serif" font-size="11" lengthAdjust="spacingAndGlyphs" textLength="127" x="711.5" y="204.1245">setColors(List&lt;Color&gt;)</text><!--MD5=[e370ee5c0c15ce04544d5f5a73174d72]
class SecretCombination--><rect codeLine="25" fill="#FEFECE" filter="url(#fp1l9r27rr8ni)" height="73.6094" id="SecretCombination" style="stroke: #A80036; stroke-width: 1.5;" width="253" x="438.5" y="441"/><ellipse cx="503.75" cy="457" fill="#ADD1B2" rx="11" ry="11" style="stroke: #A80036; stroke-width: 1.0;"/><path d="M506.0938,452.6719 C505.1563,452.2344 504.5625,452.0938 503.6875,452.0938 C501.0625,452.0938 499.0625,454.1719 499.0625,456.8906 L499.0625,458.0156 C499.0625,460.5938 501.1719,462.4844 504.0625,462.4844 C505.2813,462.4844 506.4375,462.1875 507.1875,461.6406 C507.7656,461.2344 508.0938,460.7813 508.0938,460.3906 C508.0938,459.9375 507.7031,459.5469 507.2344,459.5469 C507.0156,459.5469 506.8125,459.625 506.625,459.8125 C506.1719,460.2969 506.1719,460.2969 505.9844,460.3906 C505.5625,460.6563 504.875,460.7813 504.1094,460.7813 C502.0625,460.7813 500.7656,459.6875 500.7656,457.9844 L500.7656,456.8906 C500.7656,455.1094 502.0156,453.7969 503.75,453.7969 C504.3281,453.7969 504.9375,453.9531 505.4063,454.2031 C505.8906,454.4844 506.0625,454.7031 506.1563,455.1094 C506.2188,455.5156 506.25,455.6406 506.3906,455.7656 C506.5313,455.9063 506.7656,456.0156 506.9844,456.0156 C507.25,456.0156 507.5156,455.875 507.6875,455.6563 C507.7969,455.5 507.8281,455.3125 507.8281,454.8906 L507.8281,453.4688 C507.8281,453.0313 507.8125,452.9063 507.7188,452.75 C507.5625,452.4844 507.2813,452.3438 506.9844,452.3438 C506.6875,452.3438 506.4844,452.4375 506.2656,452.75 L506.0938,452.6719 Z "/><text fill="#000000" font-family="sans-serif" font-size="12" lengthAdjust="spacingAndGlyphs" textLength="114" x="524.25" y="461.1543">SecretCombination</text><line style="stroke: #A80036; stroke-width: 1.5;" x1="439.5" x2="690.5" y1="473" y2="473"/><line style="stroke: #A80036; stroke-width: 1.5;" x1="439.5" x2="690.5" y1="481" y2="481"/><polygon fill="#4177AF" points="449.5,488,445.5,494,453.5,494" style="stroke: #1963A0; stroke-width: 1.0;"/><text fill="#000000" font-family="sans-serif" font-size="11" lengthAdjust="spacingAndGlyphs" textLength="117" x="458.5" y="495.2104">SecretCombination()</text><text fill="#000000" font-family="sans-serif" font-size="11" lengthAdjust="spacingAndGlyphs" textLength="227" x="458.5" y="508.0151">getResult(ProposedCombination): Result</text><!--MD5=[cf489b19c51ee25e76ddca093e62e620]
class ProposedCombination--><rect codeLine="29" fill="#FEFECE" filter="url(#fp1l9r27rr8ni)" height="86.4141" id="ProposedCombination" style="stroke: #A80036; stroke-width: 1.5;" width="188" x="215" y="435"/><ellipse cx="240.8" cy="451" fill="#ADD1B2" rx="11" ry="11" style="stroke: #A80036; stroke-width: 1.0;"/><path d="M243.1438,446.6719 C242.2063,446.2344 241.6125,446.0938 240.7375,446.0938 C238.1125,446.0938 236.1125,448.1719 236.1125,450.8906 L236.1125,452.0156 C236.1125,454.5938 238.2219,456.4844 241.1125,456.4844 C242.3313,456.4844 243.4875,456.1875 244.2375,455.6406 C244.8156,455.2344 245.1438,454.7813 245.1438,454.3906 C245.1438,453.9375 244.7531,453.5469 244.2844,453.5469 C244.0656,453.5469 243.8625,453.625 243.675,453.8125 C243.2219,454.2969 243.2219,454.2969 243.0344,454.3906 C242.6125,454.6563 241.925,454.7813 241.1594,454.7813 C239.1125,454.7813 237.8156,453.6875 237.8156,451.9844 L237.8156,450.8906 C237.8156,449.1094 239.0656,447.7969 240.8,447.7969 C241.3781,447.7969 241.9875,447.9531 242.4563,448.2031 C242.9406,448.4844 243.1125,448.7031 243.2063,449.1094 C243.2688,449.5156 243.3,449.6406 243.4406,449.7656 C243.5813,449.9063 243.8156,450.0156 244.0344,450.0156 C244.3,450.0156 244.5656,449.875 244.7375,449.6563 C244.8469,449.5 244.8781,449.3125 244.8781,448.8906 L244.8781,447.4688 C244.8781,447.0313 244.8625,446.9063 244.7688,446.75 C244.6125,446.4844 244.3313,446.3438 244.0344,446.3438 C243.7375,446.3438 243.5344,446.4375 243.3156,446.75 L243.1438,446.6719 Z "/><text fill="#000000" font-family="sans-serif" font-size="12" lengthAdjust="spacingAndGlyphs" textLength="132" x="257.2" y="455.1543">ProposedCombination</text><line style="stroke: #A80036; stroke-width: 1.5;" x1="216" x2="402" y1="467" y2="467"/><line style="stroke: #A80036; stroke-width: 1.5;" x1="216" x2="402" y1="475" y2="475"/><rect fill="#F24D5C" height="6" style="stroke: #C82930; stroke-width: 1.0;" width="6" x="223" y="483"/><text fill="#000000" font-family="sans-serif" font-size="11" lengthAdjust="spacingAndGlyphs" textLength="137" x="235" y="489.2104">checkError(String) : Error</text><text fill="#000000" font-family="sans-serif" font-size="11" lengthAdjust="spacingAndGlyphs" textLength="162" x="235" y="502.0151">contains(Color, int) : boolean</text><text fill="#000000" font-family="sans-serif" font-size="11" lengthAdjust="spacingAndGlyphs" textLength="141" x="235" y="514.8198">contains(Color) : boolean</text><!--MD5=[2741598bdf59a7d7e0d5c97658fd3022]
class Result--><rect codeLine="34" fill="#FEFECE" filter="url(#fp1l9r27rr8ni)" height="137.6328" id="Result" style="stroke: #A80036; stroke-width: 1.5;" width="148" x="32" y="409"/><ellipse cx="83.75" cy="425" fill="#ADD1B2" rx="11" ry="11" style="stroke: #A80036; stroke-width: 1.0;"/><path d="M86.0938,420.6719 C85.1563,420.2344 84.5625,420.0938 83.6875,420.0938 C81.0625,420.0938 79.0625,422.1719 79.0625,424.8906 L79.0625,426.0156 C79.0625,428.5938 81.1719,430.4844 84.0625,430.4844 C85.2813,430.4844 86.4375,430.1875 87.1875,429.6406 C87.7656,429.2344 88.0938,428.7813 88.0938,428.3906 C88.0938,427.9375 87.7031,427.5469 87.2344,427.5469 C87.0156,427.5469 86.8125,427.625 86.625,427.8125 C86.1719,428.2969 86.1719,428.2969 85.9844,428.3906 C85.5625,428.6563 84.875,428.7813 84.1094,428.7813 C82.0625,428.7813 80.7656,427.6875 80.7656,425.9844 L80.7656,424.8906 C80.7656,423.1094 82.0156,421.7969 83.75,421.7969 C84.3281,421.7969 84.9375,421.9531 85.4063,422.2031 C85.8906,422.4844 86.0625,422.7031 86.1563,423.1094 C86.2188,423.5156 86.25,423.6406 86.3906,423.7656 C86.5313,423.9063 86.7656,424.0156 86.9844,424.0156 C87.25,424.0156 87.5156,423.875 87.6875,423.6563 C87.7969,423.5 87.8281,423.3125 87.8281,422.8906 L87.8281,421.4688 C87.8281,421.0313 87.8125,420.9063 87.7188,420.75 C87.5625,420.4844 87.2813,420.3438 86.9844,420.3438 C86.6875,420.3438 86.4844,420.4375 86.2656,420.75 L86.0938,420.6719 Z "/><text fill="#000000" font-family="sans-serif" font-size="12" lengthAdjust="spacingAndGlyphs" textLength="36" x="104.25" y="429.1543">Result</text><line style="stroke: #A80036; stroke-width: 1.5;" x1="33" x2="179" y1="441" y2="441"/><ellipse cx="43" cy="452" fill="none" rx="3" ry="3" style="stroke: #038048; stroke-width: 1.0;"/><text fill="#000000" font-family="sans-serif" font-size="11" lengthAdjust="spacingAndGlyphs" text-decoration="underline" textLength="122" x="52" y="455.2104">{fina} int WIDTH = 4;</text><rect fill="none" height="6" style="stroke: #C82930; stroke-width: 1.0;" width="6" x="40" y="461.8047"/><text fill="#000000" font-family="sans-serif" font-size="11" lengthAdjust="spacingAndGlyphs" textLength="53" x="52" y="468.0151">int blacks</text><rect fill="none" height="6" style="stroke: #C82930; stroke-width: 1.0;" width="6" x="40" y="474.6094"/><text fill="#000000" font-family="sans-serif" font-size="11" lengthAdjust="spacingAndGlyphs" textLength="55" x="52" y="480.8198">int whites</text><line style="stroke: #A80036; stroke-width: 1.5;" x1="33" x2="179" y1="487.4141" y2="487.4141"/><polygon fill="#4177AF" points="43,494.4141,39,500.4141,47,500.4141" style="stroke: #1963A0; stroke-width: 1.0;"/><text fill="#000000" font-family="sans-serif" font-size="11" lengthAdjust="spacingAndGlyphs" textLength="78" x="52" y="501.6245">Result(int, int)</text><text fill="#000000" font-family="sans-serif" font-size="11" lengthAdjust="spacingAndGlyphs" textLength="110" x="52" y="514.4292">isWinner(): boolean</text><ellipse cx="43" cy="524.0234" fill="#84BE84" rx="3" ry="3" style="stroke: #038048; stroke-width: 1.0;"/><text fill="#000000" font-family="sans-serif" font-size="11" lengthAdjust="spacingAndGlyphs" textLength="91" x="52" y="527.2339">getWhites() : int</text><ellipse cx="43" cy="536.8281" fill="#84BE84" rx="3" ry="3" style="stroke: #038048; stroke-width: 1.0;"/><text fill="#000000" font-family="sans-serif" font-size="11" lengthAdjust="spacingAndGlyphs" textLength="88" x="52" y="540.0386">getBlacks() : int</text><!--MD5=[18eee71c88ab61f27581b8cbdd3ef5ee]
class Color--><rect codeLine="43" fill="#FEFECE" filter="url(#fp1l9r27rr8ni)" height="240.0703" id="Color" style="stroke: #A80036; stroke-width: 1.5;" width="126" x="727" y="358"/><ellipse cx="769.9" cy="374" fill="#EB937F" rx="11" ry="11" style="stroke: #A80036; stroke-width: 1.0;"/><path d="M768.6969,374.875 L770.15,374.875 L770.15,374.9844 C770.15,375.3906 770.1813,375.5469 770.2594,375.7031 C770.4156,375.9531 770.6969,376.1094 770.9938,376.1094 C771.2438,376.1094 771.5094,375.9688 771.6656,375.75 C771.7906,375.5938 771.8219,375.4375 771.8219,374.9844 L771.8219,373.0625 C771.8219,372.9063 771.8219,372.8594 771.8063,372.7031 C771.7438,372.2344 771.4313,371.9219 770.9781,371.9219 C770.7281,371.9219 770.4625,372.0625 770.2906,372.2813 C770.1813,372.4531 770.15,372.6094 770.15,373.0625 L770.15,373.1875 L768.6969,373.1875 L768.6969,370.7813 L772.6813,370.7813 L772.6813,371.6406 C772.6813,372.0469 772.7125,372.2188 772.7906,372.375 C772.9625,372.625 773.2438,372.7813 773.525,372.7813 C773.7906,372.7813 774.0563,372.6406 774.2281,372.4219 C774.3375,372.25 774.3688,372.1094 774.3688,371.6406 L774.3688,369.0938 L766.7438,369.0938 C766.3063,369.0938 766.1813,369.1094 766.025,369.2031 C765.775,369.3594 765.6188,369.6563 765.6188,369.9375 C765.6188,370.2188 765.7594,370.4688 765.9781,370.6406 C766.1344,370.75 766.3219,370.7813 766.7438,370.7813 L766.9938,370.7813 L766.9938,377.2969 L766.7438,377.2969 C766.3375,377.2969 766.1813,377.3125 766.025,377.4219 C765.775,377.5938 765.6188,377.8594 765.6188,378.1563 C765.6188,378.4219 765.7594,378.6719 765.9781,378.8281 C766.1188,378.9531 766.3531,379 766.7438,379 L774.7438,379 L774.7438,376.4219 C774.7438,375.9844 774.7125,375.8438 774.6344,375.6875 C774.4625,375.4375 774.1813,375.2813 773.9,375.2813 C773.6344,375.2813 773.3688,375.3906 773.1969,375.6406 C773.0875,375.7969 773.0563,375.9375 773.0563,376.4219 L773.0563,377.2969 L768.6969,377.2969 L768.6969,374.875 Z "/><text fill="#000000" font-family="sans-serif" font-size="12" lengthAdjust="spacingAndGlyphs" textLength="32" x="790.1" y="378.1543">Color</text><line style="stroke: #A80036; stroke-width: 1.5;" x1="728" x2="852" y1="390" y2="390"/><text fill="#000000" font-family="sans-serif" font-size="11" lengthAdjust="spacingAndGlyphs" textLength="23" x="747" y="404.2104">RED</text><text fill="#000000" font-family="sans-serif" font-size="11" lengthAdjust="spacingAndGlyphs" textLength="29" x="747" y="417.0151">BLUE</text><text fill="#000000" font-family="sans-serif" font-size="11" lengthAdjust="spacingAndGlyphs" textLength="46" x="747" y="429.8198">YELLOW</text><text fill="#000000" font-family="sans-serif" font-size="11" lengthAdjust="spacingAndGlyphs" textLength="38" x="747" y="442.6245">GREEN</text><text fill="#000000" font-family="sans-serif" font-size="11" lengthAdjust="spacingAndGlyphs" textLength="48" x="747" y="455.4292">ORANGE</text><text fill="#000000" font-family="sans-serif" font-size="11" lengthAdjust="spacingAndGlyphs" textLength="40" x="747" y="468.2339">PURPLE</text><text fill="#000000" font-family="sans-serif" font-size="11" lengthAdjust="spacingAndGlyphs" textLength="73" x="747" y="481.0386">NULL_COLOR</text><rect fill="none" height="6" style="stroke: #C82930; stroke-width: 1.0;" width="6" x="735" y="487.6328"/><text fill="#000000" font-family="sans-serif" font-size="11" lengthAdjust="spacingAndGlyphs" textLength="61" x="747" y="493.8433">char initial;</text><line style="stroke: #A80036; stroke-width: 1.5;" x1="728" x2="852" y1="500.4375" y2="500.4375"/><rect fill="#F24D5C" height="6" style="stroke: #C82930; stroke-width: 1.0;" width="6" x="735" y="508.4375"/><text fill="#000000" font-family="sans-serif" font-size="11" lengthAdjust="spacingAndGlyphs" textLength="37" x="747" y="514.6479">Color()</text><rect fill="#F24D5C" height="6" style="stroke: #C82930; stroke-width: 1.0;" width="6" x="735" y="521.2422"/><text fill="#000000" font-family="sans-serif" font-size="11" lengthAdjust="spacingAndGlyphs" textLength="61" x="747" y="527.4526">Color(char)</text><text fill="#000000" font-family="sans-serif" font-size="11" lengthAdjust="spacingAndGlyphs" text-decoration="underline" textLength="100" x="747" y="540.2573">String getInitials()</text><text fill="#000000" font-family="sans-serif" font-size="11" lengthAdjust="spacingAndGlyphs" text-decoration="underline" textLength="62" x="747" y="553.062">int length()</text><text fill="#000000" font-family="sans-serif" font-size="11" lengthAdjust="spacingAndGlyphs" text-decoration="underline" textLength="74" x="747" y="565.8667">Color get(int)</text><text fill="#000000" font-family="sans-serif" font-size="11" lengthAdjust="spacingAndGlyphs" textLength="88" x="747" y="578.6714">boolean isNull()</text><ellipse cx="738" cy="588.2656" fill="#84BE84" rx="3" ry="3" style="stroke: #038048; stroke-width: 1.0;"/><text fill="#000000" font-family="sans-serif" font-size="11" lengthAdjust="spacingAndGlyphs" textLength="85" x="747" y="591.4761">char getInitial()</text><!--MD5=[b8cfd8c4119a3b0a7a46bfc5fc780f85]
class Error--><rect codeLine="60" fill="#FEFECE" filter="url(#fp1l9r27rr8ni)" height="112.0234" id="Error" style="stroke: #A80036; stroke-width: 1.5;" width="138" x="240" y="659"/><ellipse cx="289.75" cy="675" fill="#EB937F" rx="11" ry="11" style="stroke: #A80036; stroke-width: 1.0;"/><path d="M288.5469,675.875 L290,675.875 L290,675.9844 C290,676.3906 290.0313,676.5469 290.1094,676.7031 C290.2656,676.9531 290.5469,677.1094 290.8438,677.1094 C291.0938,677.1094 291.3594,676.9688 291.5156,676.75 C291.6406,676.5938 291.6719,676.4375 291.6719,675.9844 L291.6719,674.0625 C291.6719,673.9063 291.6719,673.8594 291.6563,673.7031 C291.5938,673.2344 291.2813,672.9219 290.8281,672.9219 C290.5781,672.9219 290.3125,673.0625 290.1406,673.2813 C290.0313,673.4531 290,673.6094 290,674.0625 L290,674.1875 L288.5469,674.1875 L288.5469,671.7813 L292.5313,671.7813 L292.5313,672.6406 C292.5313,673.0469 292.5625,673.2188 292.6406,673.375 C292.8125,673.625 293.0938,673.7813 293.375,673.7813 C293.6406,673.7813 293.9063,673.6406 294.0781,673.4219 C294.1875,673.25 294.2188,673.1094 294.2188,672.6406 L294.2188,670.0938 L286.5938,670.0938 C286.1563,670.0938 286.0313,670.1094 285.875,670.2031 C285.625,670.3594 285.4688,670.6563 285.4688,670.9375 C285.4688,671.2188 285.6094,671.4688 285.8281,671.6406 C285.9844,671.75 286.1719,671.7813 286.5938,671.7813 L286.8438,671.7813 L286.8438,678.2969 L286.5938,678.2969 C286.1875,678.2969 286.0313,678.3125 285.875,678.4219 C285.625,678.5938 285.4688,678.8594 285.4688,679.1563 C285.4688,679.4219 285.6094,679.6719 285.8281,679.8281 C285.9688,679.9531 286.2031,680 286.5938,680 L294.5938,680 L294.5938,677.4219 C294.5938,676.9844 294.5625,676.8438 294.4844,676.6875 C294.3125,676.4375 294.0313,676.2813 293.75,676.2813 C293.4844,676.2813 293.2188,676.3906 293.0469,676.6406 C292.9375,676.7969 292.9063,676.9375 292.9063,677.4219 L292.9063,678.2969 L288.5469,678.2969 L288.5469,675.875 Z "/><text fill="#000000" font-family="sans-serif" font-size="12" lengthAdjust="spacingAndGlyphs" textLength="30" x="310.25" y="679.1543">Error</text><line style="stroke: #A80036; stroke-width: 1.5;" x1="241" x2="377" y1="691" y2="691"/><text fill="#000000" font-family="sans-serif" font-size="11" lengthAdjust="spacingAndGlyphs" textLength="71" x="246" y="705.2104">DUPLICATED</text><text fill="#000000" font-family="sans-serif" font-size="11" lengthAdjust="spacingAndGlyphs" textLength="126" x="246" y="718.0151">WRONG_CHARACTERS</text><text fill="#000000" font-family="sans-serif" font-size="11" lengthAdjust="spacingAndGlyphs" textLength="95" x="246" y="730.8198">WRONG_LENGTH</text><text fill="#000000" font-family="sans-serif" font-size="11" lengthAdjust="spacingAndGlyphs" textLength="71" x="246" y="743.6245">NULL_ERROR</text><line style="stroke: #A80036; stroke-width: 1.5;" x1="241" x2="377" y1="750.2188" y2="750.2188"/><ellipse cx="251" cy="761.2188" fill="#84BE84" rx="3" ry="3" style="stroke: #038048; stroke-width: 1.0;"/><text fill="#000000" font-family="sans-serif" font-size="11" lengthAdjust="spacingAndGlyphs" textLength="88" x="260" y="764.4292">boolean isNull()</text><!--MD5=[8479184e23c2bec09445fccfd361f5d2]
class java.util.ArrayList--><rect codeLine="79" fill="#FEFECE" filter="url(#fp1l9r27rr8ni)" height="48" id="java.util.ArrayList" style="stroke: #A80036; stroke-width: 1.5;" width="84" x="909" y="454"/><ellipse cx="924" cy="470" fill="#ADD1B2" rx="11" ry="11" style="stroke: #A80036; stroke-width: 1.0;"/><path d="M926.3438,465.6719 C925.4063,465.2344 924.8125,465.0938 923.9375,465.0938 C921.3125,465.0938 919.3125,467.1719 919.3125,469.8906 L919.3125,471.0156 C919.3125,473.5938 921.4219,475.4844 924.3125,475.4844 C925.5313,475.4844 926.6875,475.1875 927.4375,474.6406 C928.0156,474.2344 928.3438,473.7813 928.3438,473.3906 C928.3438,472.9375 927.9531,472.5469 927.4844,472.5469 C927.2656,472.5469 927.0625,472.625 926.875,472.8125 C926.4219,473.2969 926.4219,473.2969 926.2344,473.3906 C925.8125,473.6563 925.125,473.7813 924.3594,473.7813 C922.3125,473.7813 921.0156,472.6875 921.0156,470.9844 L921.0156,469.8906 C921.0156,468.1094 922.2656,466.7969 924,466.7969 C924.5781,466.7969 925.1875,466.9531 925.6563,467.2031 C926.1406,467.4844 926.3125,467.7031 926.4063,468.1094 C926.4688,468.5156 926.5,468.6406 926.6406,468.7656 C926.7813,468.9063 927.0156,469.0156 927.2344,469.0156 C927.5,469.0156 927.7656,468.875 927.9375,468.6563 C928.0469,468.5 928.0781,468.3125 928.0781,467.8906 L928.0781,466.4688 C928.0781,466.0313 928.0625,465.9063 927.9688,465.75 C927.8125,465.4844 927.5313,465.3438 927.2344,465.3438 C926.9375,465.3438 926.7344,465.4375 926.5156,465.75 L926.3438,465.6719 Z "/><text fill="#000000" font-family="sans-serif" font-size="12" lengthAdjust="spacingAndGlyphs" textLength="52" x="938" y="474.1543">ArrayList</text><line style="stroke: #A80036; stroke-width: 1.5;" x1="910" x2="992" y1="486" y2="486"/><line style="stroke: #A80036; stroke-width: 1.5;" x1="910" x2="992" y1="494" y2="494"/><!--MD5=[6b7a9fc05e2cf62df8c1411c2048df3f]
class java.util.List--><rect codeLine="78" fill="#FEFECE" filter="url(#fp1l9r27rr8ni)" height="48" id="java.util.List" style="stroke: #A80036; stroke-width: 1.5;" width="52" x="1028" y="454"/><ellipse cx="1043" cy="470" fill="#ADD1B2" rx="11" ry="11" style="stroke: #A80036; stroke-width: 1.0;"/><path d="M1045.3438,465.6719 C1044.4063,465.2344 1043.8125,465.0938 1042.9375,465.0938 C1040.3125,465.0938 1038.3125,467.1719 1038.3125,469.8906 L1038.3125,471.0156 C1038.3125,473.5938 1040.4219,475.4844 1043.3125,475.4844 C1044.5313,475.4844 1045.6875,475.1875 1046.4375,474.6406 C1047.0156,474.2344 1047.3438,473.7813 1047.3438,473.3906 C1047.3438,472.9375 1046.9531,472.5469 1046.4844,472.5469 C1046.2656,472.5469 1046.0625,472.625 1045.875,472.8125 C1045.4219,473.2969 1045.4219,473.2969 1045.2344,473.3906 C1044.8125,473.6563 1044.125,473.7813 1043.3594,473.7813 C1041.3125,473.7813 1040.0156,472.6875 1040.0156,470.9844 L1040.0156,469.8906 C1040.0156,468.1094 1041.2656,466.7969 1043,466.7969 C1043.5781,466.7969 1044.1875,466.9531 1044.6563,467.2031 C1045.1406,467.4844 1045.3125,467.7031 1045.4063,468.1094 C1045.4688,468.5156 1045.5,468.6406 1045.6406,468.7656 C1045.7813,468.9063 1046.0156,469.0156 1046.2344,469.0156 C1046.5,469.0156 1046.7656,468.875 1046.9375,468.6563 C1047.0469,468.5 1047.0781,468.3125 1047.0781,467.8906 L1047.0781,466.4688 C1047.0781,466.0313 1047.0625,465.9063 1046.9688,465.75 C1046.8125,465.4844 1046.5313,465.3438 1046.2344,465.3438 C1045.9375,465.3438 1045.7344,465.4375 1045.5156,465.75 L1045.3438,465.6719 Z "/><text fill="#000000" font-family="sans-serif" font-size="12" lengthAdjust="spacingAndGlyphs" textLength="20" x="1057" y="474.1543">List</text><line style="stroke: #A80036; stroke-width: 1.5;" x1="1029" x2="1079" y1="486" y2="486"/><line style="stroke: #A80036; stroke-width: 1.5;" x1="1029" x2="1079" y1="494" y2="494"/><!--MD5=[946164e5d44554f35a8e38217ba623f1]
link Game to SecretCombination--><path codeLine="67" d="M449.3687,290.1256 C449.3687,290.1256 461.624,304.27 467,311 C496.521,347.957 523.317,394.705 541.398,429.168 " fill="none" id="Game-SecretCombination" style="stroke: #A80036; stroke-width: 1.0;"/><polygon fill="#A80036" points="547.42,440.809,546.8379,430.9774,545.1228,436.3679,539.7322,434.6528,547.42,440.809" style="stroke: #A80036; stroke-width: 1.0;"/><line style="stroke: #A80036; stroke-width: 1.0;" x1="545.1228" x2="541.4465" y1="436.3679" y2="429.2625"/><polygon fill="#A80036" points="441.329,281.217,442.3793,288.3512,449.3687,290.1256,448.3184,282.9914,441.329,281.217" style="stroke: #A80036; stroke-width: 1.0;"/><text fill="#000000" font-family="sans-serif" font-size="13" lengthAdjust="spacingAndGlyphs" textLength="121" x="481" y="324.0669">secretCombination</text><!--MD5=[3f299a0d1a1224c7ca956914287be965]
link Game to ProposedCombination--><path codeLine="68" d="M309,293.088 C309,293.088 309,386.055 309,421.394 " fill="none" id="Game-ProposedCombination" style="stroke: #A80036; stroke-width: 1.0;"/><polygon fill="#A80036" points="309,434.799,313,425.799,309,429.799,305,425.799,309,434.799" style="stroke: #A80036; stroke-width: 1.0;"/><line style="stroke: #A80036; stroke-width: 1.0;" x1="309" x2="309" y1="429.799" y2="421.799"/><polygon fill="#FFFFFF" points="309,281.088,305,287.088,309,293.088,313,287.088,309,281.088" style="stroke: #A80036; stroke-width: 1.0;"/><text fill="#000000" font-family="sans-serif" font-size="13" lengthAdjust="spacingAndGlyphs" textLength="148" x="310" y="324.0669">proposedCombinations</text><text fill="#000000" font-family="sans-serif" font-size="13" lengthAdjust="spacingAndGlyphs" textLength="32" x="274.55" y="424.0808">0..10</text><!--MD5=[0fc51ad3fdfcf6453b1e0f8b19e98430]
link Game to Result--><path codeLine="69" d="M225.7539,291.1751 C225.7539,291.1751 177.668,365.791 157.017,397.836 " fill="none" id="Game-Result" style="stroke: #A80036; stroke-width: 1.0;"/><polygon fill="#A80036" points="149.876,408.916,158.1139,403.5182,152.5848,404.7133,151.3896,399.1841,149.876,408.916" style="stroke: #A80036; stroke-width: 1.0;"/><line style="stroke: #A80036; stroke-width: 1.0;" x1="152.5848" x2="156.9185" y1="404.7133" y2="397.989"/><polygon fill="#FFFFFF" points="232.254,281.088,225.6416,283.9648,225.7539,291.1751,232.3663,288.2982,232.254,281.088" style="stroke: #A80036; stroke-width: 1.0;"/><text fill="#000000" font-family="sans-serif" font-size="13" lengthAdjust="spacingAndGlyphs" textLength="43" x="209" y="324.0669">results</text><text fill="#000000" font-family="sans-serif" font-size="13" lengthAdjust="spacingAndGlyphs" textLength="32" x="120.7507" y="398.111">0..10</text><!--MD5=[6e8433e42d71f9427401b78cd95c6f0c]
link Combination to Color--><path codeLine="70" d="M775.4574,222.5085 C775.4574,222.5085 780.047,302.824 782.456,344.984 " fill="none" id="Combination-Color" style="stroke: #A80036; stroke-width: 1.0;"/><polygon fill="#A80036" points="783.199,357.974,786.6792,348.7605,782.9138,352.9821,778.6922,349.2168,783.199,357.974" style="stroke: #A80036; stroke-width: 1.0;"/><line style="stroke: #A80036; stroke-width: 1.0;" x1="782.9138" x2="782.4565" y1="352.9821" y2="344.9955"/><polygon fill="#A80036" points="774.773,210.528,771.1217,216.7464,775.4574,222.5085,779.1087,216.2901,774.773,210.528" style="stroke: #A80036; stroke-width: 1.0;"/><text fill="#000000" font-family="sans-serif" font-size="13" lengthAdjust="spacingAndGlyphs" textLength="38" x="782" y="324.0669">colors</text><text fill="#000000" font-family="sans-serif" font-size="13" lengthAdjust="spacingAndGlyphs" textLength="8" x="774.5071" y="346.8733">4</text><!--MD5=[ed81d3472c9069d2de3c2f5cd308846f]
reverse link Combination to SecretCombination--><path codeLine="71" d="M742.171,229.224 C727.386,260.191 708.353,296.886 688,328 C661.191,368.984 624.955,411.684 598.764,440.812 " fill="none" id="Combination-backto-SecretCombination" style="stroke: #A80036; stroke-width: 1.0;"/><polygon fill="none" points="735.983,225.93,750.801,210.784,748.663,231.865,735.983,225.93" style="stroke: #A80036; stroke-width: 1.0;"/><!--MD5=[2f10888865b2f559cc24db01ac34cee3]
reverse link Combination to ProposedCombination--><path codeLine="72" d="M726.235,226.601 C697.353,262.327 656.891,304.188 611,328 C535.117,367.375 496.586,318.057 421,358 C386.886,376.028 357.409,408.486 337.27,434.954 " fill="none" id="Combination-backto-ProposedCombination" style="stroke: #A80036; stroke-width: 1.0;"/><polygon fill="none" points="720.832,222.146,738.668,210.705,731.86,230.771,720.832,222.146" style="stroke: #A80036; stroke-width: 1.0;"/><!--MD5=[03e1adeaed11e2ac298b9b43cd912fbb]
link ProposedCombination to Error--><path codeLine="73" d="M309,521.013 C309,557.93 309,612.088 309,653.642 " fill="none" id="ProposedCombination-to-Error" style="stroke: #A80036; stroke-width: 1.0; stroke-dasharray: 7.0,7.0;"/><polygon fill="#A80036" points="309,658.645,313,649.645,309,653.645,305,649.645,309,658.645" style="stroke: #A80036; stroke-width: 1.0;"/><!--MD5=[6615ceb231d486349684fcfc94d5200e]
link Combination to java.util.ArrayList--><path codeLine="74" d="M799.576,210.528 C837.636,277.504 904.998,396.046 935.374,449.501 " fill="none" id="Combination-to-java.util.ArrayList" style="stroke: #A80036; stroke-width: 1.0; stroke-dasharray: 7.0,7.0;"/><polygon fill="#A80036" points="937.846,453.852,936.8753,444.0511,935.3748,449.5053,929.9206,448.0049,937.846,453.852" style="stroke: #A80036; stroke-width: 1.0;"/><!--MD5=[29abaabc9889eea7d3b52382534c77c3]
link Combination to java.util.List--><path codeLine="75" d="M851.126,210.573 C902.861,245.867 968.486,297.859 1011,358 C1030.61,385.748 1042.23,423.411 1048.34,448.876 " fill="none" id="Combination-to-java.util.List" style="stroke: #A80036; stroke-width: 1.0; stroke-dasharray: 7.0,7.0;"/><polygon fill="#A80036" points="1049.49,453.8,1051.3367,444.1258,1048.352,448.9312,1043.5467,445.9466,1049.49,453.8" style="stroke: #A80036; stroke-width: 1.0;"/><!--MD5=[1d9e76e7e20ad2025a2eeb8512fe950a]
@startuml
package com.models {
class Game {
  - {static} {final} int MAX_ATTEMPS = 10;
  - SecretCombination secretCombination;
  - ProposedCombination[] proposedCombinations;
  - Result[] results;
  -  int attempts;
  int attempts;
  ~ Game()
  + add(ProposedCombination): void
  + isFinished() : boolean
  + isWinner() : boolean
  - isLooser() : boolean
  + getResults(int i): Result
  + getProposedCombinations(int i): ProposedCombination
  + getAttemps(): int
  + getSecretCombination(): SecretCombination
}
abstract class Combination {
	~ Combination ()
	# List<Color> colors: 
	+ getColors(): List<Color> 
	+ setColors(List<Color>)
}
class SecretCombination {
	~ SecretCombination()
	getResult(ProposedCombination): Result
}
class ProposedCombination {
	- checkError(String) : Error
	contains(Color, int) : boolean
	contains(Color) : boolean
}
class Result{
	+ {static} {fina} int WIDTH = 4;
	- int blacks
	- int whites
	~ Result(int, int)
	isWinner(): boolean
	+ getWhites() : int
	+ getBlacks() : int
}
enum Color {
	RED
	BLUE
	YELLOW
	GREEN
	ORANGE
	PURPLE
	NULL_COLOR
	- char initial;
	- Color()
	- Color(char)
	{static} String getInitials()
	{static} int length()
	{static} Color get(int)
	boolean isNull()
	+ char getInitial()
}
enum Error {
	DUPLICATED
	WRONG_CHARACTERS
	WRONG_LENGTH
	NULL_ERROR
	+ boolean isNull()
}
Game *-down-> SecretCombination : secretCombination
Game o-down-> "0..10" ProposedCombination : proposedCombinations
Game o-down-> "0..10" Result : results
Combination *-down-> "4" Color : colors
Combination <|-down- SecretCombination
Combination <|-down- ProposedCombination
ProposedCombination .down.> Error
Combination ..> java.util.ArrayList
Combination ..> java.util.List
}
package java.util {
    class List
    class ArrayList
}
@enduml

PlantUML version 1.2020.20beta2(Unknown compile time)
(GPL source distribution)
Java Runtime: Java(TM) SE Runtime Environment
JVM: Java HotSpot(TM) 64-Bit Server VM
Default Encoding: UTF-8
Language: en
Country: US
--></g></svg>