<?xml version="1.0" encoding="UTF-8" standalone="no"?><svg xmlns="http://www.w3.org/2000/svg" xmlns:xlink="http://www.w3.org/1999/xlink" contentScriptType="application/ecmascript" contentStyleType="text/css" height="717px" preserveAspectRatio="none" style="width:774px;height:717px;" version="1.1" viewBox="0 0 774 717" width="774px" zoomAndPan="magnify"><defs><filter height="300%" id="fflvus4nbneys" width="300%" x="-1" y="-1"><feGaussianBlur result="blurOut" stdDeviation="2.0"/><feColorMatrix in="blurOut" result="blurOut2" type="matrix" values="0 0 0 0 0 0 0 0 0 0 0 0 0 0 0 0 0 0 .4 0"/><feOffset dx="4.0" dy="4.0" in="blurOut2" result="blurOut3"/><feBlend in="SourceGraphic" in2="blurOut3" mode="normal"/></filter></defs><g><!--MD5=[9563755d011c5cec7ec66dc53565a59e]
class Board--><rect fill="#FEFECE" filter="url(#fflvus4nbneys)" height="48" id="Board" style="stroke: #A80036; stroke-width: 1.5;" width="68" x="188" y="223"/><ellipse cx="203" cy="239" fill="#ADD1B2" rx="11" ry="11" style="stroke: #A80036; stroke-width: 1.0;"/><path d="M205.3438,234.6719 C204.4063,234.2344 203.8125,234.0938 202.9375,234.0938 C200.3125,234.0938 198.3125,236.1719 198.3125,238.8906 L198.3125,240.0156 C198.3125,242.5938 200.4219,244.4844 203.3125,244.4844 C204.5313,244.4844 205.6875,244.1875 206.4375,243.6406 C207.0156,243.2344 207.3438,242.7813 207.3438,242.3906 C207.3438,241.9375 206.9531,241.5469 206.4844,241.5469 C206.2656,241.5469 206.0625,241.625 205.875,241.8125 C205.4219,242.2969 205.4219,242.2969 205.2344,242.3906 C204.8125,242.6563 204.125,242.7813 203.3594,242.7813 C201.3125,242.7813 200.0156,241.6875 200.0156,239.9844 L200.0156,238.8906 C200.0156,237.1094 201.2656,235.7969 203,235.7969 C203.5781,235.7969 204.1875,235.9531 204.6563,236.2031 C205.1406,236.4844 205.3125,236.7031 205.4063,237.1094 C205.4688,237.5156 205.5,237.6406 205.6406,237.7656 C205.7813,237.9063 206.0156,238.0156 206.2344,238.0156 C206.5,238.0156 206.7656,237.875 206.9375,237.6563 C207.0469,237.5 207.0781,237.3125 207.0781,236.8906 L207.0781,235.4688 C207.0781,235.0313 207.0625,234.9063 206.9688,234.75 C206.8125,234.4844 206.5313,234.3438 206.2344,234.3438 C205.9375,234.3438 205.7344,234.4375 205.5156,234.75 L205.3438,234.6719 Z "/><text fill="#000000" font-family="sans-serif" font-size="12" lengthAdjust="spacingAndGlyphs" textLength="36" x="217" y="243.1543">Board</text><line style="stroke: #A80036; stroke-width: 1.5;" x1="189" x2="255" y1="255" y2="255"/><line style="stroke: #A80036; stroke-width: 1.5;" x1="189" x2="255" y1="263" y2="263"/><!--MD5=[2741598bdf59a7d7e0d5c97658fd3022]
class Result--><rect fill="#FEFECE" filter="url(#fflvus4nbneys)" height="48" id="Result" style="stroke: #A80036; stroke-width: 1.5;" width="68" x="101" y="331"/><ellipse cx="116" cy="347" fill="#ADD1B2" rx="11" ry="11" style="stroke: #A80036; stroke-width: 1.0;"/><path d="M118.3438,342.6719 C117.4063,342.2344 116.8125,342.0938 115.9375,342.0938 C113.3125,342.0938 111.3125,344.1719 111.3125,346.8906 L111.3125,348.0156 C111.3125,350.5938 113.4219,352.4844 116.3125,352.4844 C117.5313,352.4844 118.6875,352.1875 119.4375,351.6406 C120.0156,351.2344 120.3438,350.7813 120.3438,350.3906 C120.3438,349.9375 119.9531,349.5469 119.4844,349.5469 C119.2656,349.5469 119.0625,349.625 118.875,349.8125 C118.4219,350.2969 118.4219,350.2969 118.2344,350.3906 C117.8125,350.6563 117.125,350.7813 116.3594,350.7813 C114.3125,350.7813 113.0156,349.6875 113.0156,347.9844 L113.0156,346.8906 C113.0156,345.1094 114.2656,343.7969 116,343.7969 C116.5781,343.7969 117.1875,343.9531 117.6563,344.2031 C118.1406,344.4844 118.3125,344.7031 118.4063,345.1094 C118.4688,345.5156 118.5,345.6406 118.6406,345.7656 C118.7813,345.9063 119.0156,346.0156 119.2344,346.0156 C119.5,346.0156 119.7656,345.875 119.9375,345.6563 C120.0469,345.5 120.0781,345.3125 120.0781,344.8906 L120.0781,343.4688 C120.0781,343.0313 120.0625,342.9063 119.9688,342.75 C119.8125,342.4844 119.5313,342.3438 119.2344,342.3438 C118.9375,342.3438 118.7344,342.4375 118.5156,342.75 L118.3438,342.6719 Z "/><text fill="#000000" font-family="sans-serif" font-size="12" lengthAdjust="spacingAndGlyphs" textLength="36" x="130" y="351.1543">Result</text><line style="stroke: #A80036; stroke-width: 1.5;" x1="102" x2="168" y1="363" y2="363"/><line style="stroke: #A80036; stroke-width: 1.5;" x1="102" x2="168" y1="371" y2="371"/><!--MD5=[cf489b19c51ee25e76ddca093e62e620]
class ProposedCombination--><rect fill="#FEFECE" filter="url(#fflvus4nbneys)" height="48" id="ProposedCombination" style="stroke: #A80036; stroke-width: 1.5;" width="164" x="215" y="439"/><ellipse cx="230" cy="455" fill="#ADD1B2" rx="11" ry="11" style="stroke: #A80036; stroke-width: 1.0;"/><path d="M232.3438,450.6719 C231.4063,450.2344 230.8125,450.0938 229.9375,450.0938 C227.3125,450.0938 225.3125,452.1719 225.3125,454.8906 L225.3125,456.0156 C225.3125,458.5938 227.4219,460.4844 230.3125,460.4844 C231.5313,460.4844 232.6875,460.1875 233.4375,459.6406 C234.0156,459.2344 234.3438,458.7813 234.3438,458.3906 C234.3438,457.9375 233.9531,457.5469 233.4844,457.5469 C233.2656,457.5469 233.0625,457.625 232.875,457.8125 C232.4219,458.2969 232.4219,458.2969 232.2344,458.3906 C231.8125,458.6563 231.125,458.7813 230.3594,458.7813 C228.3125,458.7813 227.0156,457.6875 227.0156,455.9844 L227.0156,454.8906 C227.0156,453.1094 228.2656,451.7969 230,451.7969 C230.5781,451.7969 231.1875,451.9531 231.6563,452.2031 C232.1406,452.4844 232.3125,452.7031 232.4063,453.1094 C232.4688,453.5156 232.5,453.6406 232.6406,453.7656 C232.7813,453.9063 233.0156,454.0156 233.2344,454.0156 C233.5,454.0156 233.7656,453.875 233.9375,453.6563 C234.0469,453.5 234.0781,453.3125 234.0781,452.8906 L234.0781,451.4688 C234.0781,451.0313 234.0625,450.9063 233.9688,450.75 C233.8125,450.4844 233.5313,450.3438 233.2344,450.3438 C232.9375,450.3438 232.7344,450.4375 232.5156,450.75 L232.3438,450.6719 Z "/><text fill="#000000" font-family="sans-serif" font-size="12" lengthAdjust="spacingAndGlyphs" textLength="132" x="244" y="459.1543">ProposedCombination</text><line style="stroke: #A80036; stroke-width: 1.5;" x1="216" x2="378" y1="471" y2="471"/><line style="stroke: #A80036; stroke-width: 1.5;" x1="216" x2="378" y1="479" y2="479"/><!--MD5=[7283a9eed84464550b6d5ebf39c68b05]
class Mastermind--><rect fill="#FEFECE" filter="url(#fflvus4nbneys)" height="48" id="Mastermind" style="stroke: #A80036; stroke-width: 1.5;" width="102" x="229" y="7"/><ellipse cx="244" cy="23" fill="#ADD1B2" rx="11" ry="11" style="stroke: #A80036; stroke-width: 1.0;"/><path d="M246.3438,18.6719 C245.4063,18.2344 244.8125,18.0938 243.9375,18.0938 C241.3125,18.0938 239.3125,20.1719 239.3125,22.8906 L239.3125,24.0156 C239.3125,26.5938 241.4219,28.4844 244.3125,28.4844 C245.5313,28.4844 246.6875,28.1875 247.4375,27.6406 C248.0156,27.2344 248.3438,26.7813 248.3438,26.3906 C248.3438,25.9375 247.9531,25.5469 247.4844,25.5469 C247.2656,25.5469 247.0625,25.625 246.875,25.8125 C246.4219,26.2969 246.4219,26.2969 246.2344,26.3906 C245.8125,26.6563 245.125,26.7813 244.3594,26.7813 C242.3125,26.7813 241.0156,25.6875 241.0156,23.9844 L241.0156,22.8906 C241.0156,21.1094 242.2656,19.7969 244,19.7969 C244.5781,19.7969 245.1875,19.9531 245.6563,20.2031 C246.1406,20.4844 246.3125,20.7031 246.4063,21.1094 C246.4688,21.5156 246.5,21.6406 246.6406,21.7656 C246.7813,21.9063 247.0156,22.0156 247.2344,22.0156 C247.5,22.0156 247.7656,21.875 247.9375,21.6563 C248.0469,21.5 248.0781,21.3125 248.0781,20.8906 L248.0781,19.4688 C248.0781,19.0313 248.0625,18.9063 247.9688,18.75 C247.8125,18.4844 247.5313,18.3438 247.2344,18.3438 C246.9375,18.3438 246.7344,18.4375 246.5156,18.75 L246.3438,18.6719 Z "/><text fill="#000000" font-family="sans-serif" font-size="12" lengthAdjust="spacingAndGlyphs" textLength="70" x="258" y="27.1543">Mastermind</text><line style="stroke: #A80036; stroke-width: 1.5;" x1="230" x2="330" y1="39" y2="39"/><line style="stroke: #A80036; stroke-width: 1.5;" x1="230" x2="330" y1="47" y2="47"/><!--MD5=[dd91eae41778c45e12552e5329e240e8]
class Turn--><rect fill="#FEFECE" filter="url(#fflvus4nbneys)" height="48" id="Turn" style="stroke: #A80036; stroke-width: 1.5;" width="58" x="296" y="115"/><ellipse cx="311" cy="131" fill="#ADD1B2" rx="11" ry="11" style="stroke: #A80036; stroke-width: 1.0;"/><path d="M313.3438,126.6719 C312.4063,126.2344 311.8125,126.0938 310.9375,126.0938 C308.3125,126.0938 306.3125,128.1719 306.3125,130.8906 L306.3125,132.0156 C306.3125,134.5938 308.4219,136.4844 311.3125,136.4844 C312.5313,136.4844 313.6875,136.1875 314.4375,135.6406 C315.0156,135.2344 315.3438,134.7813 315.3438,134.3906 C315.3438,133.9375 314.9531,133.5469 314.4844,133.5469 C314.2656,133.5469 314.0625,133.625 313.875,133.8125 C313.4219,134.2969 313.4219,134.2969 313.2344,134.3906 C312.8125,134.6563 312.125,134.7813 311.3594,134.7813 C309.3125,134.7813 308.0156,133.6875 308.0156,131.9844 L308.0156,130.8906 C308.0156,129.1094 309.2656,127.7969 311,127.7969 C311.5781,127.7969 312.1875,127.9531 312.6563,128.2031 C313.1406,128.4844 313.3125,128.7031 313.4063,129.1094 C313.4688,129.5156 313.5,129.6406 313.6406,129.7656 C313.7813,129.9063 314.0156,130.0156 314.2344,130.0156 C314.5,130.0156 314.7656,129.875 314.9375,129.6563 C315.0469,129.5 315.0781,129.3125 315.0781,128.8906 L315.0781,127.4688 C315.0781,127.0313 315.0625,126.9063 314.9688,126.75 C314.8125,126.4844 314.5313,126.3438 314.2344,126.3438 C313.9375,126.3438 313.7344,126.4375 313.5156,126.75 L313.3438,126.6719 Z "/><text fill="#000000" font-family="sans-serif" font-size="12" lengthAdjust="spacingAndGlyphs" textLength="26" x="325" y="135.1543">Turn</text><line style="stroke: #A80036; stroke-width: 1.5;" x1="297" x2="353" y1="147" y2="147"/><line style="stroke: #A80036; stroke-width: 1.5;" x1="297" x2="353" y1="155" y2="155"/><!--MD5=[2cb47ba637a0d19583e6199456f6ad0b]
class Player--><rect fill="#FEFECE" filter="url(#fflvus4nbneys)" height="48" id="Player" style="stroke: #A80036; stroke-width: 1.5;" width="68" x="299" y="223"/><ellipse cx="314" cy="239" fill="#ADD1B2" rx="11" ry="11" style="stroke: #A80036; stroke-width: 1.0;"/><path d="M316.3438,234.6719 C315.4063,234.2344 314.8125,234.0938 313.9375,234.0938 C311.3125,234.0938 309.3125,236.1719 309.3125,238.8906 L309.3125,240.0156 C309.3125,242.5938 311.4219,244.4844 314.3125,244.4844 C315.5313,244.4844 316.6875,244.1875 317.4375,243.6406 C318.0156,243.2344 318.3438,242.7813 318.3438,242.3906 C318.3438,241.9375 317.9531,241.5469 317.4844,241.5469 C317.2656,241.5469 317.0625,241.625 316.875,241.8125 C316.4219,242.2969 316.4219,242.2969 316.2344,242.3906 C315.8125,242.6563 315.125,242.7813 314.3594,242.7813 C312.3125,242.7813 311.0156,241.6875 311.0156,239.9844 L311.0156,238.8906 C311.0156,237.1094 312.2656,235.7969 314,235.7969 C314.5781,235.7969 315.1875,235.9531 315.6563,236.2031 C316.1406,236.4844 316.3125,236.7031 316.4063,237.1094 C316.4688,237.5156 316.5,237.6406 316.6406,237.7656 C316.7813,237.9063 317.0156,238.0156 317.2344,238.0156 C317.5,238.0156 317.7656,237.875 317.9375,237.6563 C318.0469,237.5 318.0781,237.3125 318.0781,236.8906 L318.0781,235.4688 C318.0781,235.0313 318.0625,234.9063 317.9688,234.75 C317.8125,234.4844 317.5313,234.3438 317.2344,234.3438 C316.9375,234.3438 316.7344,234.4375 316.5156,234.75 L316.3438,234.6719 Z "/><text fill="#000000" font-family="sans-serif" font-size="12" lengthAdjust="spacingAndGlyphs" textLength="36" x="328" y="243.1543">Player</text><line style="stroke: #A80036; stroke-width: 1.5;" x1="300" x2="366" y1="255" y2="255"/><line style="stroke: #A80036; stroke-width: 1.5;" x1="300" x2="366" y1="263" y2="263"/><!--MD5=[f988dfb2c51f82beb248a68b00ebb2ba]
class MakerPlayer--><rect fill="#FEFECE" filter="url(#fflvus4nbneys)" height="48" id="MakerPlayer" style="stroke: #A80036; stroke-width: 1.5;" width="105" x="567.5" y="331"/><ellipse cx="582.5" cy="347" fill="#ADD1B2" rx="11" ry="11" style="stroke: #A80036; stroke-width: 1.0;"/><path d="M584.8438,342.6719 C583.9063,342.2344 583.3125,342.0938 582.4375,342.0938 C579.8125,342.0938 577.8125,344.1719 577.8125,346.8906 L577.8125,348.0156 C577.8125,350.5938 579.9219,352.4844 582.8125,352.4844 C584.0313,352.4844 585.1875,352.1875 585.9375,351.6406 C586.5156,351.2344 586.8438,350.7813 586.8438,350.3906 C586.8438,349.9375 586.4531,349.5469 585.9844,349.5469 C585.7656,349.5469 585.5625,349.625 585.375,349.8125 C584.9219,350.2969 584.9219,350.2969 584.7344,350.3906 C584.3125,350.6563 583.625,350.7813 582.8594,350.7813 C580.8125,350.7813 579.5156,349.6875 579.5156,347.9844 L579.5156,346.8906 C579.5156,345.1094 580.7656,343.7969 582.5,343.7969 C583.0781,343.7969 583.6875,343.9531 584.1563,344.2031 C584.6406,344.4844 584.8125,344.7031 584.9063,345.1094 C584.9688,345.5156 585,345.6406 585.1406,345.7656 C585.2813,345.9063 585.5156,346.0156 585.7344,346.0156 C586,346.0156 586.2656,345.875 586.4375,345.6563 C586.5469,345.5 586.5781,345.3125 586.5781,344.8906 L586.5781,343.4688 C586.5781,343.0313 586.5625,342.9063 586.4688,342.75 C586.3125,342.4844 586.0313,342.3438 585.7344,342.3438 C585.4375,342.3438 585.2344,342.4375 585.0156,342.75 L584.8438,342.6719 Z "/><text fill="#000000" font-family="sans-serif" font-size="12" lengthAdjust="spacingAndGlyphs" textLength="73" x="596.5" y="351.1543">MakerPlayer</text><line style="stroke: #A80036; stroke-width: 1.5;" x1="568.5" x2="671.5" y1="363" y2="363"/><line style="stroke: #A80036; stroke-width: 1.5;" x1="568.5" x2="671.5" y1="371" y2="371"/><!--MD5=[d35e1b11918d6cec274121250b83576e]
class BreakerPlayer--><rect fill="#FEFECE" filter="url(#fflvus4nbneys)" height="48" id="BreakerPlayer" style="stroke: #A80036; stroke-width: 1.5;" width="116" x="275" y="331"/><ellipse cx="290" cy="347" fill="#ADD1B2" rx="11" ry="11" style="stroke: #A80036; stroke-width: 1.0;"/><path d="M292.3438,342.6719 C291.4063,342.2344 290.8125,342.0938 289.9375,342.0938 C287.3125,342.0938 285.3125,344.1719 285.3125,346.8906 L285.3125,348.0156 C285.3125,350.5938 287.4219,352.4844 290.3125,352.4844 C291.5313,352.4844 292.6875,352.1875 293.4375,351.6406 C294.0156,351.2344 294.3438,350.7813 294.3438,350.3906 C294.3438,349.9375 293.9531,349.5469 293.4844,349.5469 C293.2656,349.5469 293.0625,349.625 292.875,349.8125 C292.4219,350.2969 292.4219,350.2969 292.2344,350.3906 C291.8125,350.6563 291.125,350.7813 290.3594,350.7813 C288.3125,350.7813 287.0156,349.6875 287.0156,347.9844 L287.0156,346.8906 C287.0156,345.1094 288.2656,343.7969 290,343.7969 C290.5781,343.7969 291.1875,343.9531 291.6563,344.2031 C292.1406,344.4844 292.3125,344.7031 292.4063,345.1094 C292.4688,345.5156 292.5,345.6406 292.6406,345.7656 C292.7813,345.9063 293.0156,346.0156 293.2344,346.0156 C293.5,346.0156 293.7656,345.875 293.9375,345.6563 C294.0469,345.5 294.0781,345.3125 294.0781,344.8906 L294.0781,343.4688 C294.0781,343.0313 294.0625,342.9063 293.9688,342.75 C293.8125,342.4844 293.5313,342.3438 293.2344,342.3438 C292.9375,342.3438 292.7344,342.4375 292.5156,342.75 L292.3438,342.6719 Z "/><text fill="#000000" font-family="sans-serif" font-size="12" lengthAdjust="spacingAndGlyphs" textLength="84" x="304" y="351.1543">BreakerPlayer</text><line style="stroke: #A80036; stroke-width: 1.5;" x1="276" x2="390" y1="363" y2="363"/><line style="stroke: #A80036; stroke-width: 1.5;" x1="276" x2="390" y1="371" y2="371"/><!--MD5=[e370ee5c0c15ce04544d5f5a73174d72]
class SecretCombination--><rect fill="#FEFECE" filter="url(#fflvus4nbneys)" height="48" id="SecretCombination" style="stroke: #A80036; stroke-width: 1.5;" width="146" x="531" y="439"/><ellipse cx="546" cy="455" fill="#ADD1B2" rx="11" ry="11" style="stroke: #A80036; stroke-width: 1.0;"/><path d="M548.3438,450.6719 C547.4063,450.2344 546.8125,450.0938 545.9375,450.0938 C543.3125,450.0938 541.3125,452.1719 541.3125,454.8906 L541.3125,456.0156 C541.3125,458.5938 543.4219,460.4844 546.3125,460.4844 C547.5313,460.4844 548.6875,460.1875 549.4375,459.6406 C550.0156,459.2344 550.3438,458.7813 550.3438,458.3906 C550.3438,457.9375 549.9531,457.5469 549.4844,457.5469 C549.2656,457.5469 549.0625,457.625 548.875,457.8125 C548.4219,458.2969 548.4219,458.2969 548.2344,458.3906 C547.8125,458.6563 547.125,458.7813 546.3594,458.7813 C544.3125,458.7813 543.0156,457.6875 543.0156,455.9844 L543.0156,454.8906 C543.0156,453.1094 544.2656,451.7969 546,451.7969 C546.5781,451.7969 547.1875,451.9531 547.6563,452.2031 C548.1406,452.4844 548.3125,452.7031 548.4063,453.1094 C548.4688,453.5156 548.5,453.6406 548.6406,453.7656 C548.7813,453.9063 549.0156,454.0156 549.2344,454.0156 C549.5,454.0156 549.7656,453.875 549.9375,453.6563 C550.0469,453.5 550.0781,453.3125 550.0781,452.8906 L550.0781,451.4688 C550.0781,451.0313 550.0625,450.9063 549.9688,450.75 C549.8125,450.4844 549.5313,450.3438 549.2344,450.3438 C548.9375,450.3438 548.7344,450.4375 548.5156,450.75 L548.3438,450.6719 Z "/><text fill="#000000" font-family="sans-serif" font-size="12" lengthAdjust="spacingAndGlyphs" textLength="114" x="560" y="459.1543">SecretCombination</text><line style="stroke: #A80036; stroke-width: 1.5;" x1="532" x2="676" y1="471" y2="471"/><line style="stroke: #A80036; stroke-width: 1.5;" x1="532" x2="676" y1="479" y2="479"/><!--MD5=[28491d17d5ee38c9c116625a5ffc259a]
class Combination--><rect fill="#FEFECE" filter="url(#fflvus4nbneys)" height="48" id="Combination" style="stroke: #A80036; stroke-width: 1.5;" width="106" x="426" y="331"/><ellipse cx="441" cy="347" fill="#ADD1B2" rx="11" ry="11" style="stroke: #A80036; stroke-width: 1.0;"/><path d="M443.3438,342.6719 C442.4063,342.2344 441.8125,342.0938 440.9375,342.0938 C438.3125,342.0938 436.3125,344.1719 436.3125,346.8906 L436.3125,348.0156 C436.3125,350.5938 438.4219,352.4844 441.3125,352.4844 C442.5313,352.4844 443.6875,352.1875 444.4375,351.6406 C445.0156,351.2344 445.3438,350.7813 445.3438,350.3906 C445.3438,349.9375 444.9531,349.5469 444.4844,349.5469 C444.2656,349.5469 444.0625,349.625 443.875,349.8125 C443.4219,350.2969 443.4219,350.2969 443.2344,350.3906 C442.8125,350.6563 442.125,350.7813 441.3594,350.7813 C439.3125,350.7813 438.0156,349.6875 438.0156,347.9844 L438.0156,346.8906 C438.0156,345.1094 439.2656,343.7969 441,343.7969 C441.5781,343.7969 442.1875,343.9531 442.6563,344.2031 C443.1406,344.4844 443.3125,344.7031 443.4063,345.1094 C443.4688,345.5156 443.5,345.6406 443.6406,345.7656 C443.7813,345.9063 444.0156,346.0156 444.2344,346.0156 C444.5,346.0156 444.7656,345.875 444.9375,345.6563 C445.0469,345.5 445.0781,345.3125 445.0781,344.8906 L445.0781,343.4688 C445.0781,343.0313 445.0625,342.9063 444.9688,342.75 C444.8125,342.4844 444.5313,342.3438 444.2344,342.3438 C443.9375,342.3438 443.7344,342.4375 443.5156,342.75 L443.3438,342.6719 Z "/><text fill="#000000" font-family="sans-serif" font-size="12" lengthAdjust="spacingAndGlyphs" textLength="74" x="455" y="351.1543">Combination</text><line style="stroke: #A80036; stroke-width: 1.5;" x1="427" x2="531" y1="363" y2="363"/><line style="stroke: #A80036; stroke-width: 1.5;" x1="427" x2="531" y1="371" y2="371"/><!--MD5=[a64a835c3d62471a77f615251fdde58a]
class Position--><rect fill="#FEFECE" filter="url(#fflvus4nbneys)" height="48" id="Position" style="stroke: #A80036; stroke-width: 1.5;" width="78" x="418" y="439"/><ellipse cx="433" cy="455" fill="#ADD1B2" rx="11" ry="11" style="stroke: #A80036; stroke-width: 1.0;"/><path d="M435.3438,450.6719 C434.4063,450.2344 433.8125,450.0938 432.9375,450.0938 C430.3125,450.0938 428.3125,452.1719 428.3125,454.8906 L428.3125,456.0156 C428.3125,458.5938 430.4219,460.4844 433.3125,460.4844 C434.5313,460.4844 435.6875,460.1875 436.4375,459.6406 C437.0156,459.2344 437.3438,458.7813 437.3438,458.3906 C437.3438,457.9375 436.9531,457.5469 436.4844,457.5469 C436.2656,457.5469 436.0625,457.625 435.875,457.8125 C435.4219,458.2969 435.4219,458.2969 435.2344,458.3906 C434.8125,458.6563 434.125,458.7813 433.3594,458.7813 C431.3125,458.7813 430.0156,457.6875 430.0156,455.9844 L430.0156,454.8906 C430.0156,453.1094 431.2656,451.7969 433,451.7969 C433.5781,451.7969 434.1875,451.9531 434.6563,452.2031 C435.1406,452.4844 435.3125,452.7031 435.4063,453.1094 C435.4688,453.5156 435.5,453.6406 435.6406,453.7656 C435.7813,453.9063 436.0156,454.0156 436.2344,454.0156 C436.5,454.0156 436.7656,453.875 436.9375,453.6563 C437.0469,453.5 437.0781,453.3125 437.0781,452.8906 L437.0781,451.4688 C437.0781,451.0313 437.0625,450.9063 436.9688,450.75 C436.8125,450.4844 436.5313,450.3438 436.2344,450.3438 C435.9375,450.3438 435.7344,450.4375 435.5156,450.75 L435.3438,450.6719 Z "/><text fill="#000000" font-family="sans-serif" font-size="12" lengthAdjust="spacingAndGlyphs" textLength="46" x="447" y="459.1543">Position</text><line style="stroke: #A80036; stroke-width: 1.5;" x1="419" x2="495" y1="471" y2="471"/><line style="stroke: #A80036; stroke-width: 1.5;" x1="419" x2="495" y1="479" y2="479"/><!--MD5=[365150d8163e865a226452c70cc7ad9f]
class Black--><rect fill="#FEFECE" filter="url(#fflvus4nbneys)" height="48" id="Black" style="stroke: #A80036; stroke-width: 1.5;" width="64" x="7" y="439"/><ellipse cx="22" cy="455" fill="#ADD1B2" rx="11" ry="11" style="stroke: #A80036; stroke-width: 1.0;"/><path d="M24.3438,450.6719 C23.4063,450.2344 22.8125,450.0938 21.9375,450.0938 C19.3125,450.0938 17.3125,452.1719 17.3125,454.8906 L17.3125,456.0156 C17.3125,458.5938 19.4219,460.4844 22.3125,460.4844 C23.5313,460.4844 24.6875,460.1875 25.4375,459.6406 C26.0156,459.2344 26.3438,458.7813 26.3438,458.3906 C26.3438,457.9375 25.9531,457.5469 25.4844,457.5469 C25.2656,457.5469 25.0625,457.625 24.875,457.8125 C24.4219,458.2969 24.4219,458.2969 24.2344,458.3906 C23.8125,458.6563 23.125,458.7813 22.3594,458.7813 C20.3125,458.7813 19.0156,457.6875 19.0156,455.9844 L19.0156,454.8906 C19.0156,453.1094 20.2656,451.7969 22,451.7969 C22.5781,451.7969 23.1875,451.9531 23.6563,452.2031 C24.1406,452.4844 24.3125,452.7031 24.4063,453.1094 C24.4688,453.5156 24.5,453.6406 24.6406,453.7656 C24.7813,453.9063 25.0156,454.0156 25.2344,454.0156 C25.5,454.0156 25.7656,453.875 25.9375,453.6563 C26.0469,453.5 26.0781,453.3125 26.0781,452.8906 L26.0781,451.4688 C26.0781,451.0313 26.0625,450.9063 25.9688,450.75 C25.8125,450.4844 25.5313,450.3438 25.2344,450.3438 C24.9375,450.3438 24.7344,450.4375 24.5156,450.75 L24.3438,450.6719 Z "/><text fill="#000000" font-family="sans-serif" font-size="12" lengthAdjust="spacingAndGlyphs" textLength="32" x="36" y="459.1543">Black</text><line style="stroke: #A80036; stroke-width: 1.5;" x1="8" x2="70" y1="471" y2="471"/><line style="stroke: #A80036; stroke-width: 1.5;" x1="8" x2="70" y1="479" y2="479"/><!--MD5=[602b15352a41052f4d1a7dc34102cb35]
class White--><rect fill="#FEFECE" filter="url(#fflvus4nbneys)" height="48" id="White" style="stroke: #A80036; stroke-width: 1.5;" width="66" x="106" y="439"/><ellipse cx="121" cy="455" fill="#ADD1B2" rx="11" ry="11" style="stroke: #A80036; stroke-width: 1.0;"/><path d="M123.3438,450.6719 C122.4063,450.2344 121.8125,450.0938 120.9375,450.0938 C118.3125,450.0938 116.3125,452.1719 116.3125,454.8906 L116.3125,456.0156 C116.3125,458.5938 118.4219,460.4844 121.3125,460.4844 C122.5313,460.4844 123.6875,460.1875 124.4375,459.6406 C125.0156,459.2344 125.3438,458.7813 125.3438,458.3906 C125.3438,457.9375 124.9531,457.5469 124.4844,457.5469 C124.2656,457.5469 124.0625,457.625 123.875,457.8125 C123.4219,458.2969 123.4219,458.2969 123.2344,458.3906 C122.8125,458.6563 122.125,458.7813 121.3594,458.7813 C119.3125,458.7813 118.0156,457.6875 118.0156,455.9844 L118.0156,454.8906 C118.0156,453.1094 119.2656,451.7969 121,451.7969 C121.5781,451.7969 122.1875,451.9531 122.6563,452.2031 C123.1406,452.4844 123.3125,452.7031 123.4063,453.1094 C123.4688,453.5156 123.5,453.6406 123.6406,453.7656 C123.7813,453.9063 124.0156,454.0156 124.2344,454.0156 C124.5,454.0156 124.7656,453.875 124.9375,453.6563 C125.0469,453.5 125.0781,453.3125 125.0781,452.8906 L125.0781,451.4688 C125.0781,451.0313 125.0625,450.9063 124.9688,450.75 C124.8125,450.4844 124.5313,450.3438 124.2344,450.3438 C123.9375,450.3438 123.7344,450.4375 123.5156,450.75 L123.3438,450.6719 Z "/><text fill="#000000" font-family="sans-serif" font-size="12" lengthAdjust="spacingAndGlyphs" textLength="34" x="135" y="459.1543">White</text><line style="stroke: #A80036; stroke-width: 1.5;" x1="107" x2="171" y1="471" y2="471"/><line style="stroke: #A80036; stroke-width: 1.5;" x1="107" x2="171" y1="479" y2="479"/><!--MD5=[18eee71c88ab61f27581b8cbdd3ef5ee]
class Color--><rect fill="#FEFECE" filter="url(#fflvus4nbneys)" height="48" id="Color" style="stroke: #A80036; stroke-width: 1.5;" width="64" x="425" y="547"/><ellipse cx="440" cy="563" fill="#ADD1B2" rx="11" ry="11" style="stroke: #A80036; stroke-width: 1.0;"/><path d="M442.3438,558.6719 C441.4063,558.2344 440.8125,558.0938 439.9375,558.0938 C437.3125,558.0938 435.3125,560.1719 435.3125,562.8906 L435.3125,564.0156 C435.3125,566.5938 437.4219,568.4844 440.3125,568.4844 C441.5313,568.4844 442.6875,568.1875 443.4375,567.6406 C444.0156,567.2344 444.3438,566.7813 444.3438,566.3906 C444.3438,565.9375 443.9531,565.5469 443.4844,565.5469 C443.2656,565.5469 443.0625,565.625 442.875,565.8125 C442.4219,566.2969 442.4219,566.2969 442.2344,566.3906 C441.8125,566.6563 441.125,566.7813 440.3594,566.7813 C438.3125,566.7813 437.0156,565.6875 437.0156,563.9844 L437.0156,562.8906 C437.0156,561.1094 438.2656,559.7969 440,559.7969 C440.5781,559.7969 441.1875,559.9531 441.6563,560.2031 C442.1406,560.4844 442.3125,560.7031 442.4063,561.1094 C442.4688,561.5156 442.5,561.6406 442.6406,561.7656 C442.7813,561.9063 443.0156,562.0156 443.2344,562.0156 C443.5,562.0156 443.7656,561.875 443.9375,561.6563 C444.0469,561.5 444.0781,561.3125 444.0781,560.8906 L444.0781,559.4688 C444.0781,559.0313 444.0625,558.9063 443.9688,558.75 C443.8125,558.4844 443.5313,558.3438 443.2344,558.3438 C442.9375,558.3438 442.7344,558.4375 442.5156,558.75 L442.3438,558.6719 Z "/><text fill="#000000" font-family="sans-serif" font-size="12" lengthAdjust="spacingAndGlyphs" textLength="32" x="454" y="567.1543">Color</text><line style="stroke: #A80036; stroke-width: 1.5;" x1="426" x2="488" y1="579" y2="579"/><line style="stroke: #A80036; stroke-width: 1.5;" x1="426" x2="488" y1="587" y2="587"/><!--MD5=[08be530975453a47bdc5b5370100f2fc]
class Red--><rect fill="#FEFECE" filter="url(#fflvus4nbneys)" height="48" id="Red" style="stroke: #A80036; stroke-width: 1.5;" width="55" x="185.5" y="655"/><ellipse cx="200.5" cy="671" fill="#ADD1B2" rx="11" ry="11" style="stroke: #A80036; stroke-width: 1.0;"/><path d="M202.8438,666.6719 C201.9063,666.2344 201.3125,666.0938 200.4375,666.0938 C197.8125,666.0938 195.8125,668.1719 195.8125,670.8906 L195.8125,672.0156 C195.8125,674.5938 197.9219,676.4844 200.8125,676.4844 C202.0313,676.4844 203.1875,676.1875 203.9375,675.6406 C204.5156,675.2344 204.8438,674.7813 204.8438,674.3906 C204.8438,673.9375 204.4531,673.5469 203.9844,673.5469 C203.7656,673.5469 203.5625,673.625 203.375,673.8125 C202.9219,674.2969 202.9219,674.2969 202.7344,674.3906 C202.3125,674.6563 201.625,674.7813 200.8594,674.7813 C198.8125,674.7813 197.5156,673.6875 197.5156,671.9844 L197.5156,670.8906 C197.5156,669.1094 198.7656,667.7969 200.5,667.7969 C201.0781,667.7969 201.6875,667.9531 202.1563,668.2031 C202.6406,668.4844 202.8125,668.7031 202.9063,669.1094 C202.9688,669.5156 203,669.6406 203.1406,669.7656 C203.2813,669.9063 203.5156,670.0156 203.7344,670.0156 C204,670.0156 204.2656,669.875 204.4375,669.6563 C204.5469,669.5 204.5781,669.3125 204.5781,668.8906 L204.5781,667.4688 C204.5781,667.0313 204.5625,666.9063 204.4688,666.75 C204.3125,666.4844 204.0313,666.3438 203.7344,666.3438 C203.4375,666.3438 203.2344,666.4375 203.0156,666.75 L202.8438,666.6719 Z "/><text fill="#000000" font-family="sans-serif" font-size="12" lengthAdjust="spacingAndGlyphs" textLength="23" x="214.5" y="675.1543">Red</text><line style="stroke: #A80036; stroke-width: 1.5;" x1="186.5" x2="239.5" y1="687" y2="687"/><line style="stroke: #A80036; stroke-width: 1.5;" x1="186.5" x2="239.5" y1="695" y2="695"/><!--MD5=[e5fcaaf7dd279fcaa419853012f8d36f]
class Blue--><rect fill="#FEFECE" filter="url(#fflvus4nbneys)" height="48" id="Blue" style="stroke: #A80036; stroke-width: 1.5;" width="58" x="276" y="655"/><ellipse cx="291" cy="671" fill="#ADD1B2" rx="11" ry="11" style="stroke: #A80036; stroke-width: 1.0;"/><path d="M293.3438,666.6719 C292.4063,666.2344 291.8125,666.0938 290.9375,666.0938 C288.3125,666.0938 286.3125,668.1719 286.3125,670.8906 L286.3125,672.0156 C286.3125,674.5938 288.4219,676.4844 291.3125,676.4844 C292.5313,676.4844 293.6875,676.1875 294.4375,675.6406 C295.0156,675.2344 295.3438,674.7813 295.3438,674.3906 C295.3438,673.9375 294.9531,673.5469 294.4844,673.5469 C294.2656,673.5469 294.0625,673.625 293.875,673.8125 C293.4219,674.2969 293.4219,674.2969 293.2344,674.3906 C292.8125,674.6563 292.125,674.7813 291.3594,674.7813 C289.3125,674.7813 288.0156,673.6875 288.0156,671.9844 L288.0156,670.8906 C288.0156,669.1094 289.2656,667.7969 291,667.7969 C291.5781,667.7969 292.1875,667.9531 292.6563,668.2031 C293.1406,668.4844 293.3125,668.7031 293.4063,669.1094 C293.4688,669.5156 293.5,669.6406 293.6406,669.7656 C293.7813,669.9063 294.0156,670.0156 294.2344,670.0156 C294.5,670.0156 294.7656,669.875 294.9375,669.6563 C295.0469,669.5 295.0781,669.3125 295.0781,668.8906 L295.0781,667.4688 C295.0781,667.0313 295.0625,666.9063 294.9688,666.75 C294.8125,666.4844 294.5313,666.3438 294.2344,666.3438 C293.9375,666.3438 293.7344,666.4375 293.5156,666.75 L293.3438,666.6719 Z "/><text fill="#000000" font-family="sans-serif" font-size="12" lengthAdjust="spacingAndGlyphs" textLength="26" x="305" y="675.1543">Blue</text><line style="stroke: #A80036; stroke-width: 1.5;" x1="277" x2="333" y1="687" y2="687"/><line style="stroke: #A80036; stroke-width: 1.5;" x1="277" x2="333" y1="695" y2="695"/><!--MD5=[59a197a4e33151d5112197f2c5528c04]
class Yellow--><rect fill="#FEFECE" filter="url(#fflvus4nbneys)" height="48" id="Yellow" style="stroke: #A80036; stroke-width: 1.5;" width="71" x="369.5" y="655"/><ellipse cx="384.5" cy="671" fill="#ADD1B2" rx="11" ry="11" style="stroke: #A80036; stroke-width: 1.0;"/><path d="M386.8438,666.6719 C385.9063,666.2344 385.3125,666.0938 384.4375,666.0938 C381.8125,666.0938 379.8125,668.1719 379.8125,670.8906 L379.8125,672.0156 C379.8125,674.5938 381.9219,676.4844 384.8125,676.4844 C386.0313,676.4844 387.1875,676.1875 387.9375,675.6406 C388.5156,675.2344 388.8438,674.7813 388.8438,674.3906 C388.8438,673.9375 388.4531,673.5469 387.9844,673.5469 C387.7656,673.5469 387.5625,673.625 387.375,673.8125 C386.9219,674.2969 386.9219,674.2969 386.7344,674.3906 C386.3125,674.6563 385.625,674.7813 384.8594,674.7813 C382.8125,674.7813 381.5156,673.6875 381.5156,671.9844 L381.5156,670.8906 C381.5156,669.1094 382.7656,667.7969 384.5,667.7969 C385.0781,667.7969 385.6875,667.9531 386.1563,668.2031 C386.6406,668.4844 386.8125,668.7031 386.9063,669.1094 C386.9688,669.5156 387,669.6406 387.1406,669.7656 C387.2813,669.9063 387.5156,670.0156 387.7344,670.0156 C388,670.0156 388.2656,669.875 388.4375,669.6563 C388.5469,669.5 388.5781,669.3125 388.5781,668.8906 L388.5781,667.4688 C388.5781,667.0313 388.5625,666.9063 388.4688,666.75 C388.3125,666.4844 388.0313,666.3438 387.7344,666.3438 C387.4375,666.3438 387.2344,666.4375 387.0156,666.75 L386.8438,666.6719 Z "/><text fill="#000000" font-family="sans-serif" font-size="12" lengthAdjust="spacingAndGlyphs" textLength="39" x="398.5" y="675.1543">Yellow</text><line style="stroke: #A80036; stroke-width: 1.5;" x1="370.5" x2="439.5" y1="687" y2="687"/><line style="stroke: #A80036; stroke-width: 1.5;" x1="370.5" x2="439.5" y1="695" y2="695"/><!--MD5=[3778656fef14cf416db6e1fe750da04b]
class Green--><rect fill="#FEFECE" filter="url(#fflvus4nbneys)" height="48" id="Green" style="stroke: #A80036; stroke-width: 1.5;" width="69" x="475.5" y="655"/><ellipse cx="490.5" cy="671" fill="#ADD1B2" rx="11" ry="11" style="stroke: #A80036; stroke-width: 1.0;"/><path d="M492.8438,666.6719 C491.9063,666.2344 491.3125,666.0938 490.4375,666.0938 C487.8125,666.0938 485.8125,668.1719 485.8125,670.8906 L485.8125,672.0156 C485.8125,674.5938 487.9219,676.4844 490.8125,676.4844 C492.0313,676.4844 493.1875,676.1875 493.9375,675.6406 C494.5156,675.2344 494.8438,674.7813 494.8438,674.3906 C494.8438,673.9375 494.4531,673.5469 493.9844,673.5469 C493.7656,673.5469 493.5625,673.625 493.375,673.8125 C492.9219,674.2969 492.9219,674.2969 492.7344,674.3906 C492.3125,674.6563 491.625,674.7813 490.8594,674.7813 C488.8125,674.7813 487.5156,673.6875 487.5156,671.9844 L487.5156,670.8906 C487.5156,669.1094 488.7656,667.7969 490.5,667.7969 C491.0781,667.7969 491.6875,667.9531 492.1563,668.2031 C492.6406,668.4844 492.8125,668.7031 492.9063,669.1094 C492.9688,669.5156 493,669.6406 493.1406,669.7656 C493.2813,669.9063 493.5156,670.0156 493.7344,670.0156 C494,670.0156 494.2656,669.875 494.4375,669.6563 C494.5469,669.5 494.5781,669.3125 494.5781,668.8906 L494.5781,667.4688 C494.5781,667.0313 494.5625,666.9063 494.4688,666.75 C494.3125,666.4844 494.0313,666.3438 493.7344,666.3438 C493.4375,666.3438 493.2344,666.4375 493.0156,666.75 L492.8438,666.6719 Z "/><text fill="#000000" font-family="sans-serif" font-size="12" lengthAdjust="spacingAndGlyphs" textLength="37" x="504.5" y="675.1543">Green</text><line style="stroke: #A80036; stroke-width: 1.5;" x1="476.5" x2="543.5" y1="687" y2="687"/><line style="stroke: #A80036; stroke-width: 1.5;" x1="476.5" x2="543.5" y1="695" y2="695"/><!--MD5=[8691ac77a468677548132a10c9750c1a]
class Orange--><rect fill="#FEFECE" filter="url(#fflvus4nbneys)" height="48" id="Orange" style="stroke: #A80036; stroke-width: 1.5;" width="77" x="579.5" y="655"/><ellipse cx="594.5" cy="671" fill="#ADD1B2" rx="11" ry="11" style="stroke: #A80036; stroke-width: 1.0;"/><path d="M596.8438,666.6719 C595.9063,666.2344 595.3125,666.0938 594.4375,666.0938 C591.8125,666.0938 589.8125,668.1719 589.8125,670.8906 L589.8125,672.0156 C589.8125,674.5938 591.9219,676.4844 594.8125,676.4844 C596.0313,676.4844 597.1875,676.1875 597.9375,675.6406 C598.5156,675.2344 598.8438,674.7813 598.8438,674.3906 C598.8438,673.9375 598.4531,673.5469 597.9844,673.5469 C597.7656,673.5469 597.5625,673.625 597.375,673.8125 C596.9219,674.2969 596.9219,674.2969 596.7344,674.3906 C596.3125,674.6563 595.625,674.7813 594.8594,674.7813 C592.8125,674.7813 591.5156,673.6875 591.5156,671.9844 L591.5156,670.8906 C591.5156,669.1094 592.7656,667.7969 594.5,667.7969 C595.0781,667.7969 595.6875,667.9531 596.1563,668.2031 C596.6406,668.4844 596.8125,668.7031 596.9063,669.1094 C596.9688,669.5156 597,669.6406 597.1406,669.7656 C597.2813,669.9063 597.5156,670.0156 597.7344,670.0156 C598,670.0156 598.2656,669.875 598.4375,669.6563 C598.5469,669.5 598.5781,669.3125 598.5781,668.8906 L598.5781,667.4688 C598.5781,667.0313 598.5625,666.9063 598.4688,666.75 C598.3125,666.4844 598.0313,666.3438 597.7344,666.3438 C597.4375,666.3438 597.2344,666.4375 597.0156,666.75 L596.8438,666.6719 Z "/><text fill="#000000" font-family="sans-serif" font-size="12" lengthAdjust="spacingAndGlyphs" textLength="45" x="608.5" y="675.1543">Orange</text><line style="stroke: #A80036; stroke-width: 1.5;" x1="580.5" x2="655.5" y1="687" y2="687"/><line style="stroke: #A80036; stroke-width: 1.5;" x1="580.5" x2="655.5" y1="695" y2="695"/><!--MD5=[c74a9845023ab95f6e4a7adc6caf2156]
class Purple--><rect fill="#FEFECE" filter="url(#fflvus4nbneys)" height="48" id="Purple" style="stroke: #A80036; stroke-width: 1.5;" width="69" x="691.5" y="655"/><ellipse cx="706.5" cy="671" fill="#ADD1B2" rx="11" ry="11" style="stroke: #A80036; stroke-width: 1.0;"/><path d="M708.8438,666.6719 C707.9063,666.2344 707.3125,666.0938 706.4375,666.0938 C703.8125,666.0938 701.8125,668.1719 701.8125,670.8906 L701.8125,672.0156 C701.8125,674.5938 703.9219,676.4844 706.8125,676.4844 C708.0313,676.4844 709.1875,676.1875 709.9375,675.6406 C710.5156,675.2344 710.8438,674.7813 710.8438,674.3906 C710.8438,673.9375 710.4531,673.5469 709.9844,673.5469 C709.7656,673.5469 709.5625,673.625 709.375,673.8125 C708.9219,674.2969 708.9219,674.2969 708.7344,674.3906 C708.3125,674.6563 707.625,674.7813 706.8594,674.7813 C704.8125,674.7813 703.5156,673.6875 703.5156,671.9844 L703.5156,670.8906 C703.5156,669.1094 704.7656,667.7969 706.5,667.7969 C707.0781,667.7969 707.6875,667.9531 708.1563,668.2031 C708.6406,668.4844 708.8125,668.7031 708.9063,669.1094 C708.9688,669.5156 709,669.6406 709.1406,669.7656 C709.2813,669.9063 709.5156,670.0156 709.7344,670.0156 C710,670.0156 710.2656,669.875 710.4375,669.6563 C710.5469,669.5 710.5781,669.3125 710.5781,668.8906 L710.5781,667.4688 C710.5781,667.0313 710.5625,666.9063 710.4688,666.75 C710.3125,666.4844 710.0313,666.3438 709.7344,666.3438 C709.4375,666.3438 709.2344,666.4375 709.0156,666.75 L708.8438,666.6719 Z "/><text fill="#000000" font-family="sans-serif" font-size="12" lengthAdjust="spacingAndGlyphs" textLength="37" x="720.5" y="675.1543">Purple</text><line style="stroke: #A80036; stroke-width: 1.5;" x1="692.5" x2="759.5" y1="687" y2="687"/><line style="stroke: #A80036; stroke-width: 1.5;" x1="692.5" x2="759.5" y1="695" y2="695"/><!--MD5=[8dd95aff79c51151a18c835e3410b3cd]
link Board to Result--><path codeLine="1" d="M195.509,280.2759 C195.509,280.2759 172.777,307.973 162.435,320.574 " fill="none" id="Board-Result" style="stroke: #A80036; stroke-width: 1.0;"/><polygon fill="#A80036" points="154.141,330.678,162.9427,326.2587,157.3131,326.813,156.7588,321.1834,154.141,330.678" style="stroke: #A80036; stroke-width: 1.0;"/><line style="stroke: #A80036; stroke-width: 1.0;" x1="157.3131" x2="162.389" y1="326.813" y2="320.6295"/><polygon fill="#A80036" points="203.122,271,196.2235,273.1003,195.509,280.2759,202.4075,278.1756,203.122,271" style="stroke: #A80036; stroke-width: 1.0;"/><text fill="#000000" font-family="sans-serif" font-size="13" lengthAdjust="spacingAndGlyphs" textLength="32" x="122.9066" y="320.0045">0..10</text><!--MD5=[e0b5d9907fda64872c10fd6493e0c51f]
link Board to ProposedCombination--><path codeLine="3" d="M229.4287,282.8322 C229.4287,282.8322 245.361,347.611 257,379 C262.979,395.124 270.99,412.343 278.273,426.894 " fill="none" id="Board-ProposedCombination" style="stroke: #A80036; stroke-width: 1.0;"/><polygon fill="#A80036" points="284.416,438.9,283.8774,429.0659,282.1385,434.4488,276.7555,432.7099,284.416,438.9" style="stroke: #A80036; stroke-width: 1.0;"/><line style="stroke: #A80036; stroke-width: 1.0;" x1="282.1385" x2="278.4945" y1="434.4488" y2="427.3265"/><polygon fill="#A80036" points="226.794,271.125,224.209,277.8568,229.4287,282.8322,232.0138,276.1004,226.794,271.125" style="stroke: #A80036; stroke-width: 1.0;"/><text fill="#000000" font-family="sans-serif" font-size="13" lengthAdjust="spacingAndGlyphs" textLength="32" x="245.0914" y="427.8864">0..10</text><!--MD5=[f95f66ed9d6e0f523703ae56e87204e4]
link Mastermind to Turn--><path codeLine="4" d="M294.453,66.046 C294.453,66.046 305.144,91.229 309.948,102.543 " fill="none" id="Mastermind-Turn" style="stroke: #A80036; stroke-width: 1.0;"/><polygon fill="#A80036" points="315.099,114.678,315.2638,104.8305,313.1451,110.0756,307.9,107.9568,315.099,114.678" style="stroke: #A80036; stroke-width: 1.0;"/><line style="stroke: #A80036; stroke-width: 1.0;" x1="313.1451" x2="310.019" y1="110.0756" y2="102.712"/><polygon fill="#A80036" points="289.764,55,288.4265,62.086,294.453,66.046,295.7905,58.96,289.764,55" style="stroke: #A80036; stroke-width: 1.0;"/><!--MD5=[ba28573f2062cf9f5d1d4aa517f0cc38]
link Mastermind to Board--><path codeLine="5" d="M270.5432,66.891 C270.5432,66.891 242.448,170.553 231.743,210.052 " fill="none" id="Mastermind-Board" style="stroke: #A80036; stroke-width: 1.0;"/><polygon fill="#A80036" points="228.31,222.72,234.5255,215.0801,229.6182,217.8942,226.8042,212.9869,228.31,222.72" style="stroke: #A80036; stroke-width: 1.0;"/><line style="stroke: #A80036; stroke-width: 1.0;" x1="229.6182" x2="231.7105" y1="217.8942" y2="210.1725"/><polygon fill="#A80036" points="273.683,55.309,268.2525,60.0534,270.5432,66.891,275.9738,62.1466,273.683,55.309" style="stroke: #A80036; stroke-width: 1.0;"/><!--MD5=[b705679762bcdc77b2fe4a6d7b34f9c2]
reverse link Player to MakerPlayer--><path codeLine="7" d="M386.099,267.611 C437.742,286.685 515.738,315.492 567.259,334.521 " fill="none" id="Player-backto-MakerPlayer" style="stroke: #A80036; stroke-width: 1.0;"/><polygon fill="none" points="383.386,274.072,367.05,260.576,388.236,260.939,383.386,274.072" style="stroke: #A80036; stroke-width: 1.0;"/><!--MD5=[38b091ad0e7663b1475f5ae6aa4e536c]
reverse link Player to BreakerPlayer--><path codeLine="8" d="M333,291.024 C333,304.579 333,319.038 333,330.678 " fill="none" id="Player-backto-BreakerPlayer" style="stroke: #A80036; stroke-width: 1.0;"/><polygon fill="none" points="326,291,333,271,340,291,326,291" style="stroke: #A80036; stroke-width: 1.0;"/><!--MD5=[d81713d91ad05be3b975338c4816ee0b]
link Turn to Player--><path codeLine="9" d="M326.736,163 C327.944,179.003 329.562,200.446 330.851,217.528 " fill="none" id="Turn-to-Player" style="stroke: #A80036; stroke-width: 1.0;"/><polygon fill="#A80036" points="331.24,222.678,334.5526,213.4029,330.8644,217.6921,326.5752,214.0039,331.24,222.678" style="stroke: #A80036; stroke-width: 1.0;"/><text fill="#000000" font-family="sans-serif" font-size="13" lengthAdjust="spacingAndGlyphs" textLength="8" x="321.836" y="212.0045">2</text><!--MD5=[18b13c26e1d2c193878da5bba7416a2f]
link MakerPlayer to SecretCombination--><path codeLine="10" d="M616.528,379 C614.113,395.003 610.876,416.446 608.298,433.528 " fill="none" id="MakerPlayer-to-SecretCombination" style="stroke: #A80036; stroke-width: 1.0;"/><polygon fill="#A80036" points="607.52,438.678,612.8198,430.3767,608.2671,433.7341,604.9096,429.1814,607.52,438.678" style="stroke: #A80036; stroke-width: 1.0;"/><text fill="#000000" font-family="sans-serif" font-size="13" lengthAdjust="spacingAndGlyphs" textLength="24" x="581.453" y="428.0045">0..1</text><!--MD5=[b80df01695e05b8bb04c2472d8ebb237]
link BreakerPlayer to ProposedCombination--><path codeLine="11" d="M325.189,379 C319.754,395.003 312.471,416.446 306.67,433.528 " fill="none" id="BreakerPlayer-to-ProposedCombination" style="stroke: #A80036; stroke-width: 1.0;"/><polygon fill="#A80036" points="304.921,438.678,311.6031,431.4427,306.5291,433.9437,304.0281,428.8697,304.921,438.678" style="stroke: #A80036; stroke-width: 1.0;"/><text fill="#000000" font-family="sans-serif" font-size="13" lengthAdjust="spacingAndGlyphs" textLength="32" x="310.7517" y="428.0045">0..10</text><!--MD5=[ed81d3472c9069d2de3c2f5cd308846f]
reverse link Combination to SecretCombination--><path codeLine="13" d="M521.575,392.104 C539.735,407.503 560.402,425.029 576.498,438.678 " fill="none" id="Combination-backto-SecretCombination" style="stroke: #A80036; stroke-width: 1.0;"/><polygon fill="none" points="516.85,397.275,506.123,379,525.904,386.597,516.85,397.275" style="stroke: #A80036; stroke-width: 1.0;"/><!--MD5=[2f10888865b2f559cc24db01ac34cee3]
reverse link Combination to ProposedCombination--><path codeLine="14" d="M422.132,389.121 C394.405,405.27 361.733,424.298 336.728,438.862 " fill="none" id="Combination-backto-ProposedCombination" style="stroke: #A80036; stroke-width: 1.0;"/><polygon fill="none" points="418.703,383.017,439.509,379,425.749,395.115,418.703,383.017" style="stroke: #A80036; stroke-width: 1.0;"/><!--MD5=[28e886d1c90b0b4ab000be4943562f5d]
link Combination to Position--><path codeLine="15" d="M471.7877,390.7497 C471.7877,390.7497 466.766,414.947 464.483,425.947 " fill="none" id="Combination-Position" style="stroke: #A80036; stroke-width: 1.0;"/><polygon fill="#A80036" points="461.84,438.678,467.5853,430.6785,462.856,433.7823,459.7522,429.053,461.84,438.678" style="stroke: #A80036; stroke-width: 1.0;"/><line style="stroke: #A80036; stroke-width: 1.0;" x1="462.856" x2="464.482" y1="433.7823" y2="425.9495"/><polygon fill="#A80036" points="474.226,379,469.0903,384.0621,471.7877,390.7497,476.9234,385.6876,474.226,379" style="stroke: #A80036; stroke-width: 1.0;"/><text fill="#000000" font-family="sans-serif" font-size="13" lengthAdjust="spacingAndGlyphs" textLength="8" x="454.0447" y="428.0045">4</text><!--MD5=[39c8e201c9c48ee4aae23557d5cde0ec]
reverse link Result to Black--><path codeLine="17" d="M100.3793,394.227 C86.9125,409.097 71.9186,425.652 60.1214,438.678 " fill="none" id="Result-backto-Black" style="stroke: #A80036; stroke-width: 1.0;"/><polygon fill="none" points="95.5554,389.126,114.169,379,105.9322,398.524,95.5554,389.126" style="stroke: #A80036; stroke-width: 1.0;"/><!--MD5=[818d809d98475c762701f3e52a7af34a]
reverse link Result to White--><path codeLine="18" d="M136.624,399.024 C137.135,412.579 137.681,427.038 138.12,438.678 " fill="none" id="Result-backto-White" style="stroke: #A80036; stroke-width: 1.0;"/><polygon fill="none" points="129.627,399.25,135.868,379,143.617,398.722,129.627,399.25" style="stroke: #A80036; stroke-width: 1.0;"/><!--MD5=[ca1f03a6b09a7e090560224866d0d466]
link Result to SecretCombination--><path codeLine="19" d="M169.222,363.138 C235.648,377.076 386.633,409.165 513,439 C517.104,439.969 521.307,440.977 525.549,442.006 " fill="none" id="Result-to-SecretCombination" style="stroke: #A80036; stroke-width: 1.0;"/><polygon fill="#A80036" points="530.542,443.223,522.7457,437.2049,525.6843,442.0386,520.8506,444.9772,530.542,443.223" style="stroke: #A80036; stroke-width: 1.0;"/><!--MD5=[9b5cddcdba0f3590f5210c2fb5637c7f]
link Result to ProposedCombination--><path codeLine="20" d="M169.356,378.48 C195.099,395.324 230.378,418.408 257.323,436.039 " fill="none" id="Result-to-ProposedCombination" style="stroke: #A80036; stroke-width: 1.0;"/><polygon fill="#A80036" points="261.574,438.82,256.2353,430.5436,257.3908,436.0812,251.8532,437.2367,261.574,438.82" style="stroke: #A80036; stroke-width: 1.0;"/><!--MD5=[0c541f6546f3f64f79379bb534cfcb25]
reverse link Position to Color--><path codeLine="22" d="M457,500.338 C457,515.681 457,533.098 457,546.678 " fill="none" id="Position-backto-Color" style="stroke: #A80036; stroke-width: 1.0;"/><polygon fill="#FFFFFF" points="457,487,453,493,457,499,461,493,457,487" style="stroke: #A80036; stroke-width: 1.0;"/><!--MD5=[fab54b5999e935266d298ad54749f91a]
reverse link Color to Red--><path codeLine="23" d="M406.331,591.874 C365.832,608.0599 307.8,631.9298 258,655 C252.427,657.5816 246.538,660.4711 240.921,663.307 " fill="none" id="Color-backto-Red" style="stroke: #A80036; stroke-width: 1.0;"/><polygon fill="none" points="403.79,585.351,424.962,584.476,408.957,598.363,403.79,585.351" style="stroke: #A80036; stroke-width: 1.0;"/><!--MD5=[43364a787a1aa71eb994c83faab9e0a3]
reverse link Color to Blue--><path codeLine="24" d="M408.299,605.9623 C383.858,623.0069 355.073,643.081 334.105,657.7032 " fill="none" id="Color-backto-Blue" style="stroke: #A80036; stroke-width: 1.0;"/><polygon fill="none" points="404.356,600.178,424.765,594.48,412.364,611.6619,404.356,600.178" style="stroke: #A80036; stroke-width: 1.0;"/><!--MD5=[6083f140c68c81feb5a8fefe89deab0b]
reverse link Color to Yellow--><path codeLine="25" d="M436.841,613.0936 C429.923,627.1958 422.423,642.4838 416.441,654.6784 " fill="none" id="Color-backto-Yellow" style="stroke: #A80036; stroke-width: 1.0;"/><polygon fill="none" points="430.624,609.8732,445.717,595,443.193,616.0392,430.624,609.8732" style="stroke: #A80036; stroke-width: 1.0;"/><!--MD5=[9b9d24ea93eb20378c733f632b2003b3]
reverse link Color to Green--><path codeLine="26" d="M477.547,613.0936 C484.598,627.1958 492.242,642.4838 498.339,654.6784 " fill="none" id="Color-backto-Green" style="stroke: #A80036; stroke-width: 1.0;"/><polygon fill="none" points="471.184,616.0195,468.5,595,483.706,609.7585,471.184,616.0195" style="stroke: #A80036; stroke-width: 1.0;"/><!--MD5=[fb4153a096dd56f720ff3e3ae4a8e359]
reverse link Color to Orange--><path codeLine="27" d="M506.213,604.401 C530.947,620.6855 560.348,640.0425 582.788,654.8172 " fill="none" id="Color-backto-Orange" style="stroke: #A80036; stroke-width: 1.0;"/><polygon fill="none" points="502.049,610.0406,489.194,593.196,509.748,598.347,502.049,610.0406" style="stroke: #A80036; stroke-width: 1.0;"/><!--MD5=[e23fe5562a5e214831d2b959e7e5f28b]
reverse link Color to Purple--><path codeLine="28" d="M508.165,590.729 C552.323,607.0927 617.694,631.7971 674,655 C679.659,657.3318 685.626,659.8833 691.422,662.4111 " fill="none" id="Color-backto-Purple" style="stroke: #A80036; stroke-width: 1.0;"/><polygon fill="none" points="505.53,597.218,489.19,583.727,510.377,584.084,505.53,597.218" style="stroke: #A80036; stroke-width: 1.0;"/><!--MD5=[d028b3c41fdae189e6fc32d480a58381]
@startuml
Board *- -> "0..10" Result

Board *- -> "0..10" ProposedCombination
Mastermind *- -> Turn
Mastermind *- -> Board

Player <|-down- MakerPlayer
Player <|-down- BreakerPlayer
Turn - -> "2" Player
MakerPlayer - -> "0..1" SecretCombination
BreakerPlayer - -> "0..10" ProposedCombination

Combination <|-down- SecretCombination
Combination <|-down- ProposedCombination
Combination *- -> "4" Position

Result <|-down- Black
Result <|-down-  White
Result - ->  SecretCombination 
Result - ->  ProposedCombination 

Position o- - Color
Color <|-down- Red
Color <|-down- Blue
Color <|-down- Yellow
Color <|-down- Green
Color <|-down- Orange
Color <|-down- Purple
@enduml

PlantUML version 1.2020.19beta4(Unknown compile time)
(GPL source distribution)
Java Runtime: Java(TM) SE Runtime Environment
JVM: Java HotSpot(TM) 64-Bit Server VM
Default Encoding: UTF-8
Language: en
Country: US
--></g></svg>