<?xml version="1.0" encoding="UTF-8" standalone="no"?><svg xmlns="http://www.w3.org/2000/svg" xmlns:xlink="http://www.w3.org/1999/xlink" contentScriptType="application/ecmascript" contentStyleType="text/css" height="517px" preserveAspectRatio="none" style="width:564px;height:517px;" version="1.1" viewBox="0 0 564 517" width="564px" zoomAndPan="magnify"><defs><filter height="300%" id="fktv3qf599mvp" width="300%" x="-1" y="-1"><feGaussianBlur result="blurOut" stdDeviation="2.0"/><feColorMatrix in="blurOut" result="blurOut2" type="matrix" values="0 0 0 0 0 0 0 0 0 0 0 0 0 0 0 0 0 0 .4 0"/><feOffset dx="4.0" dy="4.0" in="blurOut2" result="blurOut3"/><feBlend in="SourceGraphic" in2="blurOut3" mode="normal"/></filter></defs><g><polygon fill="#DDDDDD" filter="url(#fktv3qf599mvp)" points="97.4925,6,201.4925,6,208.4925,28.2969,215.4925,28.2969,215.4925,58.5938,97.4925,58.5938,97.4925,6" style="stroke: #000000; stroke-width: 1.5;"/><line style="stroke: #000000; stroke-width: 1.5;" x1="97.4925" x2="208.4925" y1="28.2969" y2="28.2969"/><text fill="#000000" font-family="sans-serif" font-size="14" font-weight="bold" lengthAdjust="spacingAndGlyphs" textLength="98" x="101.4925" y="20.9951">mastermind</text><polygon fill="#DDDDDD" filter="url(#fktv3qf599mvp)" points="168.4924,232,322.4924,232,329.4924,254.2969,336.4924,254.2969,336.4924,284.5938,168.4924,284.5938,168.4924,232" style="stroke: #000000; stroke-width: 1.5;"/><line style="stroke: #000000; stroke-width: 1.5;" x1="168.4924" x2="329.4924" y1="254.2969" y2="254.2969"/><text fill="#000000" font-family="sans-serif" font-size="14" font-weight="bold" lengthAdjust="spacingAndGlyphs" textLength="148" x="172.4924" y="246.9951">mastermind.views</text><polygon fill="#DDDDDD" filter="url(#fktv3qf599mvp)" points="93.9925,345,260.9925,345,267.9925,367.2969,274.9925,367.2969,274.9925,397.5938,93.9925,397.5938,93.9925,345" style="stroke: #000000; stroke-width: 1.5;"/><line style="stroke: #000000; stroke-width: 1.5;" x1="93.9925" x2="267.9925" y1="367.2969" y2="367.2969"/><text fill="#000000" font-family="sans-serif" font-size="14" font-weight="bold" lengthAdjust="spacingAndGlyphs" textLength="161" x="97.9925" y="359.9951">mastermind.models</text><polygon fill="#FFFFFF" filter="url(#fktv3qf599mvp)" points="140.9924,458,213.9924,458,220.9924,480.2969,227.9924,480.2969,227.9924,510.5938,140.9924,510.5938,140.9924,458" style="stroke: #000000; stroke-width: 1.5;"/><line style="stroke: #000000; stroke-width: 1.5;" x1="140.9924" x2="220.9924" y1="480.2969" y2="480.2969"/><text fill="#000000" font-family="sans-serif" font-size="14" font-weight="bold" lengthAdjust="spacingAndGlyphs" textLength="67" x="144.9924" y="472.9951">java.util</text><polygon fill="#DDDDDD" filter="url(#fktv3qf599mvp)" points="442.9924,232,485.9924,232,492.9924,254.2969,499.9924,254.2969,499.9924,284.5938,442.9924,284.5938,442.9924,232" style="stroke: #000000; stroke-width: 1.5;"/><line style="stroke: #000000; stroke-width: 1.5;" x1="442.9924" x2="492.9924" y1="254.2969" y2="254.2969"/><text fill="#000000" font-family="sans-serif" font-size="14" font-weight="bold" lengthAdjust="spacingAndGlyphs" textLength="37" x="446.9924" y="246.9951">utils</text><polygon fill="#FFFFFF" filter="url(#fktv3qf599mvp)" points="434.4924,345,494.4924,345,501.4924,367.2969,508.4924,367.2969,508.4924,397.5938,434.4924,397.5938,434.4924,345" style="stroke: #000000; stroke-width: 1.5;"/><line style="stroke: #000000; stroke-width: 1.5;" x1="434.4924" x2="501.4924" y1="367.2969" y2="367.2969"/><text fill="#000000" font-family="sans-serif" font-size="14" font-weight="bold" lengthAdjust="spacingAndGlyphs" textLength="54" x="438.4924" y="359.9951">java.io</text><polygon fill="#DDDDDD" filter="url(#fktv3qf599mvp)" points="312.9924,119,533.9924,119,540.9924,141.2969,547.9924,141.2969,547.9924,171.5938,312.9924,171.5938,312.9924,119" style="stroke: #000000; stroke-width: 1.5;"/><line style="stroke: #000000; stroke-width: 1.5;" x1="312.9924" x2="540.9924" y1="141.2969" y2="141.2969"/><text fill="#000000" font-family="sans-serif" font-size="14" font-weight="bold" lengthAdjust="spacingAndGlyphs" textLength="215" x="316.9924" y="133.9951">mastermind.views.console</text><polygon fill="#DDDDDD" filter="url(#fktv3qf599mvp)" points="34.9925,119,263.9925,119,270.9925,141.2969,277.9925,141.2969,277.9925,171.5938,34.9925,171.5938,34.9925,119" style="stroke: #000000; stroke-width: 1.5;"/><line style="stroke: #000000; stroke-width: 1.5;" x1="34.9925" x2="270.9925" y1="141.2969" y2="141.2969"/><text fill="#000000" font-family="sans-serif" font-size="14" font-weight="bold" lengthAdjust="spacingAndGlyphs" textLength="223" x="38.9925" y="133.9951">mastermind.views.graphics</text><!--MD5=[71349e294188949e92ef25974d5f8bc3]
link mastermind to mastermind.views.graphics--><path codeLine="2" d="M156.4924,59.245 C156.4924,75.496 156.4924,96.579 156.4924,113.714 " fill="none" id="mastermind-to-mastermind.views.graphics" style="stroke: #A80036; stroke-width: 1.0; stroke-dasharray: 7.0,7.0;"/><polygon fill="#A80036" points="156.4924,118.895,160.4924,109.895,156.4924,113.895,152.4924,109.895,156.4924,118.895" style="stroke: #A80036; stroke-width: 1.0;"/><!--MD5=[3f67d8a440fed401fe3b5323e86f87b4]
link mastermind to mastermind.models--><path codeLine="3" d="M97.4069,53.794 C67.7804,67.315 34.6328,88.334 17.4925,119 C6,139.562 9.4217,149.87 17.4925,172 C43.4278,243.113 107.295,306.413 148.1054,341.505 " fill="none" id="mastermind-to-mastermind.models" style="stroke: #A80036; stroke-width: 1.0; stroke-dasharray: 7.0,7.0;"/><polygon fill="#A80036" points="151.9814,344.813,147.7325,335.9278,148.1783,341.5671,142.539,342.0128,151.9814,344.813" style="stroke: #A80036; stroke-width: 1.0;"/><!--MD5=[5a7375d6d2c9f55bf8e92f7679cbf013]
link mastermind to mastermind.views.console--><path codeLine="4" d="M215.6094,57.449 C258.7174,74.912 317.2314,98.617 362.3144,116.88 " fill="none" id="mastermind-to-mastermind.views.console" style="stroke: #A80036; stroke-width: 1.0; stroke-dasharray: 7.0,7.0;"/><polygon fill="#A80036" points="367.1874,118.855,360.3475,111.7688,362.5532,116.9779,357.344,119.1836,367.1874,118.855" style="stroke: #A80036; stroke-width: 1.0;"/><!--MD5=[bf16e85c09ac2493f319629dda43fa4f]
link mastermind.models to java.util--><path d="M184.4924,398.245 C184.4924,414.4958 184.4924,435.5795 184.4924,452.7139 " fill="none" id="mastermind.models-to-java.util" style="stroke: #A80036; stroke-width: 1.0; stroke-dasharray: 7.0,7.0;"/><polygon fill="#A80036" points="184.4924,457.895,188.4924,448.895,184.4924,452.895,180.4924,448.895,184.4924,457.895" style="stroke: #A80036; stroke-width: 1.0;"/><!--MD5=[e79504c030c2940e8dd8427e90ad9823]
link utils to java.io--><path d="M471.4924,285.245 C471.4924,301.496 471.4924,322.579 471.4924,339.714 " fill="none" id="utils-to-java.io" style="stroke: #A80036; stroke-width: 1.0; stroke-dasharray: 7.0,7.0;"/><polygon fill="#A80036" points="471.4924,344.895,475.4924,335.895,471.4924,339.895,467.4924,335.895,471.4924,344.895" style="stroke: #A80036; stroke-width: 1.0;"/><!--MD5=[9452f5a6b240960a46d89fd31eee6232]
link mastermind.views to mastermind.models--><path d="M236.7214,285.245 C226.5934,301.776 213.4034,323.308 202.8114,340.597 " fill="none" id="mastermind.views-to-mastermind.models" style="stroke: #A80036; stroke-width: 1.0; stroke-dasharray: 7.0,7.0;"/><polygon fill="#A80036" points="200.1784,344.895,208.292,339.312,202.7913,340.6321,201.4713,335.1314,200.1784,344.895" style="stroke: #A80036; stroke-width: 1.0;"/><!--MD5=[95e5d34310c7b2ccc3e2879af69b26a7]
link mastermind.views.console to mastermind.views--><path d="M389.2084,172.245 C361.9124,189.266 326.1144,211.59 297.9974,229.124 " fill="none" id="mastermind.views.console-to-mastermind.views" style="stroke: #A80036; stroke-width: 1.0; stroke-dasharray: 7.0,7.0;"/><polygon fill="#A80036" points="293.5524,231.895,303.3058,230.527,297.7951,229.2494,299.0728,223.7387,293.5524,231.895" style="stroke: #A80036; stroke-width: 1.0;"/><!--MD5=[5abb14f80e60a305d94565d13c5fda06]
link mastermind.views.console to mastermind.models--><path d="M421.5724,172.181 C409.9624,202.439 387.1034,252.676 353.4924,285 C327.7344,309.772 293.3854,328.921 262.3844,342.756 " fill="none" id="mastermind.views.console-to-mastermind.models" style="stroke: #A80036; stroke-width: 1.0; stroke-dasharray: 7.0,7.0;"/><polygon fill="#A80036" points="257.4394,344.931,267.2882,344.9696,262.0164,342.9182,264.0677,337.6464,257.4394,344.931" style="stroke: #A80036; stroke-width: 1.0;"/><!--MD5=[86c1962777201360fa5ae99939f12e24]
link mastermind.views.console to utils--><path d="M440.0014,172.245 C446.0564,188.636 453.9264,209.943 460.2844,227.156 " fill="none" id="mastermind.views.console-to-utils" style="stroke: #A80036; stroke-width: 1.0; stroke-dasharray: 7.0,7.0;"/><polygon fill="#A80036" points="462.0344,231.895,462.6673,222.0665,460.3015,227.2049,455.1631,224.8391,462.0344,231.895" style="stroke: #A80036; stroke-width: 1.0;"/><!--MD5=[01137dade69ee6b09c2754519904135d]
link mastermind.views.graphics to mastermind.views--><path d="M178.7584,172.245 C193.1764,188.916 211.9934,210.673 227.0094,228.035 " fill="none" id="mastermind.views.graphics-to-mastermind.views" style="stroke: #A80036; stroke-width: 1.0; stroke-dasharray: 7.0,7.0;"/><polygon fill="#A80036" points="230.3474,231.895,227.4841,222.4716,227.0761,228.1137,221.434,227.7057,230.3474,231.895" style="stroke: #A80036; stroke-width: 1.0;"/><!--MD5=[8ec6b66ebbdff0c7efc2e23835bd4b75]
link mastermind.views.graphics to mastermind.models--><path d="M151.8864,172.03 C147.6464,200.016 143.0444,246.115 150.4924,285 C154.1144,303.91 161.8624,323.967 169.0494,339.899 " fill="none" id="mastermind.views.graphics-to-mastermind.models" style="stroke: #A80036; stroke-width: 1.0; stroke-dasharray: 7.0,7.0;"/><polygon fill="#A80036" points="171.2564,344.705,171.1364,334.8569,169.1702,340.161,163.866,338.1948,171.2564,344.705" style="stroke: #A80036; stroke-width: 1.0;"/><!--MD5=[81b43386b5a4644f2c52fd5fb993e137]
@startuml
package mastermind #DDDDDD { }
mastermind .down.> mastermind.views.graphics
mastermind .down.> mastermind.models
mastermind .down.> mastermind.views.console

package mastermind.models #DDDDDD { }
package java.util{ }
mastermind.models .down.> java.util

package utils #DDDDDD { }
package java.io{ }
utils .down.> java.io

package mastermind.views #DDDDDD { }
mastermind.views .down.> mastermind.models

package mastermind.views.console #DDDDDD { }
mastermind.views.console .down.> mastermind.views
mastermind.views.console .down.> mastermind.models
mastermind.views.console .down.> utils

package mastermind.views.graphics #DDDDDD { }

mastermind.views.graphics .down.> mastermind.views
mastermind.views.graphics .down.> mastermind.models
@enduml

PlantUML version 1.2020.20beta2(Unknown compile time)
(GPL source distribution)
Java Runtime: Java(TM) SE Runtime Environment
JVM: Java HotSpot(TM) 64-Bit Server VM
Default Encoding: UTF-8
Language: en
Country: US
--></g></svg>