<?xml version="1.0" encoding="UTF-8" standalone="no"?><svg xmlns="http://www.w3.org/2000/svg" xmlns:xlink="http://www.w3.org/1999/xlink" contentScriptType="application/ecmascript" contentStyleType="text/css" height="955px" preserveAspectRatio="none" style="width:1357px;height:955px;" version="1.1" viewBox="0 0 1357 955" width="1357px" zoomAndPan="magnify"><defs><filter height="300%" id="f153ss0v5m0zvg" width="300%" x="-1" y="-1"><feGaussianBlur result="blurOut" stdDeviation="2.0"/><feColorMatrix in="blurOut" result="blurOut2" type="matrix" values="0 0 0 0 0 0 0 0 0 0 0 0 0 0 0 0 0 0 .4 0"/><feOffset dx="4.0" dy="4.0" in="blurOut2" result="blurOut3"/><feBlend in="SourceGraphic" in2="blurOut3" mode="normal"/></filter></defs><g><!--MD5=[e83acf53252e5e6f992a589437172ba6]
cluster com.views--><polygon fill="#FFFFFF" filter="url(#f153ss0v5m0zvg)" points="525,6,615,6,622,28.2969,1340,28.2969,1340,284,525,284,525,6" style="stroke: #000000; stroke-width: 1.5;"/><line style="stroke: #000000; stroke-width: 1.5;" x1="525" x2="622" y1="28.2969" y2="28.2969"/><text fill="#000000" font-family="sans-serif" font-size="14" font-weight="bold" lengthAdjust="spacingAndGlyphs" textLength="84" x="529" y="20.9951">com.views</text><!--MD5=[fb07557d2c686a50e554965aae2e0b39]
cluster com.views.console--><polygon fill="#FFFFFF" filter="url(#f153ss0v5m0zvg)" points="16,308,173,308,180,330.2969,817,330.2969,817,948,16,948,16,308" style="stroke: #000000; stroke-width: 1.5;"/><line style="stroke: #000000; stroke-width: 1.5;" x1="16" x2="180" y1="330.2969" y2="330.2969"/><text fill="#000000" font-family="sans-serif" font-size="14" font-weight="bold" lengthAdjust="spacingAndGlyphs" textLength="151" x="20" y="322.9951">com.views.console</text><!--MD5=[47f2fb41d70c30a0d48f1e8cc0776cb1]
cluster com.utils--><polygon fill="#FFFFFF" filter="url(#f153ss0v5m0zvg)" points="841,658,923,658,930,680.2969,1269,680.2969,1269,783,841,783,841,658" style="stroke: #000000; stroke-width: 1.5;"/><line style="stroke: #000000; stroke-width: 1.5;" x1="841" x2="930" y1="680.2969" y2="680.2969"/><text fill="#000000" font-family="sans-serif" font-size="14" font-weight="bold" lengthAdjust="spacingAndGlyphs" textLength="76" x="845" y="672.9951">com.utils</text><!--MD5=[8e0b9655f0966c29230933410523611d]
cluster mastermind.models--><polygon fill="#FFFFFF" filter="url(#f153ss0v5m0zvg)" points="863,525,1030,525,1037,547.2969,1040,547.2969,1040,624,863,624,863,525" style="stroke: #000000; stroke-width: 1.5;"/><line style="stroke: #000000; stroke-width: 1.5;" x1="863" x2="1037" y1="547.2969" y2="547.2969"/><text fill="#000000" font-family="sans-serif" font-size="14" font-weight="bold" lengthAdjust="spacingAndGlyphs" textLength="161" x="867" y="539.9951">mastermind.models</text><!--MD5=[b3c4fa56fc4050e12935ef94e0e29ab6]
class com.views.ErrorView--><rect codeLine="1" fill="#FEFECE" filter="url(#f153ss0v5m0zvg)" height="99.2188" id="com.views.ErrorView" style="stroke: #A80036; stroke-width: 1.5;" width="145" x="1178.5" y="105"/><ellipse cx="1217.8" cy="121" fill="#ADD1B2" rx="11" ry="11" style="stroke: #A80036; stroke-width: 1.0;"/><path d="M1220.1438,116.6719 C1219.2063,116.2344 1218.6125,116.0938 1217.7375,116.0938 C1215.1125,116.0938 1213.1125,118.1719 1213.1125,120.8906 L1213.1125,122.0156 C1213.1125,124.5938 1215.2219,126.4844 1218.1125,126.4844 C1219.3313,126.4844 1220.4875,126.1875 1221.2375,125.6406 C1221.8156,125.2344 1222.1438,124.7813 1222.1438,124.3906 C1222.1438,123.9375 1221.7531,123.5469 1221.2844,123.5469 C1221.0656,123.5469 1220.8625,123.625 1220.675,123.8125 C1220.2219,124.2969 1220.2219,124.2969 1220.0344,124.3906 C1219.6125,124.6563 1218.925,124.7813 1218.1594,124.7813 C1216.1125,124.7813 1214.8156,123.6875 1214.8156,121.9844 L1214.8156,120.8906 C1214.8156,119.1094 1216.0656,117.7969 1217.8,117.7969 C1218.3781,117.7969 1218.9875,117.9531 1219.4563,118.2031 C1219.9406,118.4844 1220.1125,118.7031 1220.2063,119.1094 C1220.2688,119.5156 1220.3,119.6406 1220.4406,119.7656 C1220.5813,119.9063 1220.8156,120.0156 1221.0344,120.0156 C1221.3,120.0156 1221.5656,119.875 1221.7375,119.6563 C1221.8469,119.5 1221.8781,119.3125 1221.8781,118.8906 L1221.8781,117.4688 C1221.8781,117.0313 1221.8625,116.9063 1221.7688,116.75 C1221.6125,116.4844 1221.3313,116.3438 1221.0344,116.3438 C1220.7375,116.3438 1220.5344,116.4375 1220.3156,116.75 L1220.1438,116.6719 Z "/><text fill="#000000" font-family="sans-serif" font-size="12" lengthAdjust="spacingAndGlyphs" textLength="59" x="1237.2" y="125.1543">ErrorView</text><line style="stroke: #A80036; stroke-width: 1.5;" x1="1179.5" x2="1322.5" y1="137" y2="137"/><rect fill="none" height="6" style="stroke: #C82930; stroke-width: 1.0;" width="6" x="1186.5" y="145"/><text fill="#000000" font-family="sans-serif" font-size="11" lengthAdjust="spacingAndGlyphs" textLength="60" x="1198.5" y="151.2104">error: Error</text><rect fill="none" height="6" style="stroke: #C82930; stroke-width: 1.0;" width="6" x="1186.5" y="157.8047"/><text fill="#000000" font-family="sans-serif" font-size="11" lengthAdjust="spacingAndGlyphs" text-decoration="underline" textLength="112" x="1198.5" y="164.0151">MESSAGES: String[]</text><line style="stroke: #A80036; stroke-width: 1.5;" x1="1179.5" x2="1322.5" y1="170.6094" y2="170.6094"/><polygon fill="#4177AF" points="1189.5,177.6094,1185.5,183.6094,1193.5,183.6094" style="stroke: #1963A0; stroke-width: 1.0;"/><text fill="#000000" font-family="sans-serif" font-size="11" lengthAdjust="spacingAndGlyphs" textLength="88" x="1198.5" y="184.8198">ErrorView(Error)</text><ellipse cx="1189.5" cy="194.4141" fill="#84BE84" rx="3" ry="3" style="stroke: #038048; stroke-width: 1.0;"/><text fill="#000000" font-family="sans-serif" font-size="11" lengthAdjust="spacingAndGlyphs" text-decoration="underline" textLength="119" x="1198.5" y="197.6245">valueOf(String): Error</text><!--MD5=[173a4c62e52a3982e8161193ff2a2600]
class com.views.Message--><rect codeLine="8" fill="#FEFECE" filter="url(#f153ss0v5m0zvg)" height="227.2656" id="com.views.Message" style="stroke: #A80036; stroke-width: 1.5;" width="231" x="912.5" y="41"/><ellipse cx="996.25" cy="57" fill="#ADD1B2" rx="11" ry="11" style="stroke: #A80036; stroke-width: 1.0;"/><path d="M998.5938,52.6719 C997.6563,52.2344 997.0625,52.0938 996.1875,52.0938 C993.5625,52.0938 991.5625,54.1719 991.5625,56.8906 L991.5625,58.0156 C991.5625,60.5938 993.6719,62.4844 996.5625,62.4844 C997.7813,62.4844 998.9375,62.1875 999.6875,61.6406 C1000.2656,61.2344 1000.5938,60.7813 1000.5938,60.3906 C1000.5938,59.9375 1000.2031,59.5469 999.7344,59.5469 C999.5156,59.5469 999.3125,59.625 999.125,59.8125 C998.6719,60.2969 998.6719,60.2969 998.4844,60.3906 C998.0625,60.6563 997.375,60.7813 996.6094,60.7813 C994.5625,60.7813 993.2656,59.6875 993.2656,57.9844 L993.2656,56.8906 C993.2656,55.1094 994.5156,53.7969 996.25,53.7969 C996.8281,53.7969 997.4375,53.9531 997.9063,54.2031 C998.3906,54.4844 998.5625,54.7031 998.6563,55.1094 C998.7188,55.5156 998.75,55.6406 998.8906,55.7656 C999.0313,55.9063 999.2656,56.0156 999.4844,56.0156 C999.75,56.0156 1000.0156,55.875 1000.1875,55.6563 C1000.2969,55.5 1000.3281,55.3125 1000.3281,54.8906 L1000.3281,53.4688 C1000.3281,53.0313 1000.3125,52.9063 1000.2188,52.75 C1000.0625,52.4844 999.7813,52.3438 999.4844,52.3438 C999.1875,52.3438 998.9844,52.4375 998.7656,52.75 L998.5938,52.6719 Z "/><text fill="#000000" font-family="sans-serif" font-size="12" lengthAdjust="spacingAndGlyphs" textLength="55" x="1016.75" y="61.1543">Message</text><line style="stroke: #A80036; stroke-width: 1.5;" x1="913.5" x2="1142.5" y1="73" y2="73"/><ellipse cx="923.5" cy="84" fill="none" rx="3" ry="3" style="stroke: #038048; stroke-width: 1.0;"/><text fill="#000000" font-family="sans-serif" font-size="11" lengthAdjust="spacingAndGlyphs" text-decoration="underline" textLength="117" x="932.5" y="87.2104">ATTEMPTS: Message</text><ellipse cx="923.5" cy="96.8047" fill="none" rx="3" ry="3" style="stroke: #038048; stroke-width: 1.0;"/><text fill="#000000" font-family="sans-serif" font-size="11" lengthAdjust="spacingAndGlyphs" text-decoration="underline" textLength="102" x="932.5" y="100.0151">SECRET: Message</text><ellipse cx="923.5" cy="109.6094" fill="none" rx="3" ry="3" style="stroke: #038048; stroke-width: 1.0;"/><text fill="#000000" font-family="sans-serif" font-size="11" lengthAdjust="spacingAndGlyphs" text-decoration="underline" textLength="104" x="932.5" y="112.8198">RESUME: Message</text><ellipse cx="923.5" cy="122.4141" fill="none" rx="3" ry="3" style="stroke: #038048; stroke-width: 1.0;"/><text fill="#000000" font-family="sans-serif" font-size="11" lengthAdjust="spacingAndGlyphs" text-decoration="underline" textLength="101" x="932.5" y="125.6245">RESULT: Message</text><ellipse cx="923.5" cy="135.2188" fill="none" rx="3" ry="3" style="stroke: #038048; stroke-width: 1.0;"/><text fill="#000000" font-family="sans-serif" font-size="11" lengthAdjust="spacingAndGlyphs" text-decoration="underline" textLength="205" x="932.5" y="138.4292">PROPOSED_COMBINATION: Message</text><ellipse cx="923.5" cy="148.0234" fill="none" rx="3" ry="3" style="stroke: #038048; stroke-width: 1.0;"/><text fill="#000000" font-family="sans-serif" font-size="11" lengthAdjust="spacingAndGlyphs" text-decoration="underline" textLength="88" x="932.5" y="151.2339">TITLE: Message</text><ellipse cx="923.5" cy="160.8281" fill="none" rx="3" ry="3" style="stroke: #038048; stroke-width: 1.0;"/><text fill="#000000" font-family="sans-serif" font-size="11" lengthAdjust="spacingAndGlyphs" text-decoration="underline" textLength="102" x="932.5" y="164.0386">WINNER: Message</text><ellipse cx="923.5" cy="173.6328" fill="none" rx="3" ry="3" style="stroke: #038048; stroke-width: 1.0;"/><text fill="#000000" font-family="sans-serif" font-size="11" lengthAdjust="spacingAndGlyphs" text-decoration="underline" textLength="104" x="932.5" y="176.8433">LOOSER: Message</text><rect fill="none" height="6" style="stroke: #C82930; stroke-width: 1.0;" width="6" x="920.5" y="183.4375"/><text fill="#000000" font-family="sans-serif" font-size="11" lengthAdjust="spacingAndGlyphs" textLength="91" x="932.5" y="189.6479">Message: String</text><line style="stroke: #A80036; stroke-width: 1.5;" x1="913.5" x2="1142.5" y1="196.2422" y2="196.2422"/><rect fill="#F24D5C" height="6" style="stroke: #C82930; stroke-width: 1.0;" width="6" x="920.5" y="204.2422"/><text fill="#000000" font-family="sans-serif" font-size="11" lengthAdjust="spacingAndGlyphs" textLength="92" x="932.5" y="210.4526">Message(String)</text><ellipse cx="923.5" cy="220.0469" fill="#84BE84" rx="3" ry="3" style="stroke: #038048; stroke-width: 1.0;"/><text fill="#000000" font-family="sans-serif" font-size="11" lengthAdjust="spacingAndGlyphs" textLength="67" x="932.5" y="223.2573">write(): void</text><ellipse cx="923.5" cy="232.8516" fill="#84BE84" rx="3" ry="3" style="stroke: #038048; stroke-width: 1.0;"/><text fill="#000000" font-family="sans-serif" font-size="11" lengthAdjust="spacingAndGlyphs" textLength="77" x="932.5" y="236.062">writeln(): void</text><ellipse cx="923.5" cy="245.6563" fill="#84BE84" rx="3" ry="3" style="stroke: #038048; stroke-width: 1.0;"/><text fill="#000000" font-family="sans-serif" font-size="11" lengthAdjust="spacingAndGlyphs" textLength="91" x="932.5" y="248.8667">writeln(int): void</text><ellipse cx="923.5" cy="258.4609" fill="#84BE84" rx="3" ry="3" style="stroke: #038048; stroke-width: 1.0;"/><text fill="#000000" font-family="sans-serif" font-size="11" lengthAdjust="spacingAndGlyphs" textLength="108" x="932.5" y="261.6714">writeln(int,int): void</text><!--MD5=[4e4b69ff03f558308117a21ae810a87e]
class com.views.View--><rect codeLine="25" fill="#FEFECE" filter="url(#f153ss0v5m0zvg)" height="124.8281" id="com.views.View" style="stroke: #A80036; stroke-width: 1.5;" width="336" x="541" y="92"/><ellipse cx="690.25" cy="108" fill="#ADD1B2" rx="11" ry="11" style="stroke: #A80036; stroke-width: 1.0;"/><path d="M692.5938,103.6719 C691.6563,103.2344 691.0625,103.0938 690.1875,103.0938 C687.5625,103.0938 685.5625,105.1719 685.5625,107.8906 L685.5625,109.0156 C685.5625,111.5938 687.6719,113.4844 690.5625,113.4844 C691.7813,113.4844 692.9375,113.1875 693.6875,112.6406 C694.2656,112.2344 694.5938,111.7813 694.5938,111.3906 C694.5938,110.9375 694.2031,110.5469 693.7344,110.5469 C693.5156,110.5469 693.3125,110.625 693.125,110.8125 C692.6719,111.2969 692.6719,111.2969 692.4844,111.3906 C692.0625,111.6563 691.375,111.7813 690.6094,111.7813 C688.5625,111.7813 687.2656,110.6875 687.2656,108.9844 L687.2656,107.8906 C687.2656,106.1094 688.5156,104.7969 690.25,104.7969 C690.8281,104.7969 691.4375,104.9531 691.9063,105.2031 C692.3906,105.4844 692.5625,105.7031 692.6563,106.1094 C692.7188,106.5156 692.75,106.6406 692.8906,106.7656 C693.0313,106.9063 693.2656,107.0156 693.4844,107.0156 C693.75,107.0156 694.0156,106.875 694.1875,106.6563 C694.2969,106.5 694.3281,106.3125 694.3281,105.8906 L694.3281,104.4688 C694.3281,104.0313 694.3125,103.9063 694.2188,103.75 C694.0625,103.4844 693.7813,103.3438 693.4844,103.3438 C693.1875,103.3438 692.9844,103.4375 692.7656,103.75 L692.5938,103.6719 Z "/><text fill="#000000" font-family="sans-serif" font-size="12" lengthAdjust="spacingAndGlyphs" textLength="29" x="710.75" y="112.1543">View</text><line style="stroke: #A80036; stroke-width: 1.5;" x1="542" x2="876" y1="124" y2="124"/><rect fill="none" height="6" style="stroke: #C82930; stroke-width: 1.0;" width="6" x="549" y="132"/><text fill="#000000" font-family="sans-serif" font-size="11" lengthAdjust="spacingAndGlyphs" textLength="75" x="561" y="138.2104">game: Game</text><rect fill="none" height="6" style="stroke: #C82930; stroke-width: 1.0;" width="6" x="549" y="144.8047"/><text fill="#000000" font-family="sans-serif" font-size="11" lengthAdjust="spacingAndGlyphs" textLength="115" x="561" y="151.0151">startView: StartView</text><rect fill="none" height="6" style="stroke: #C82930; stroke-width: 1.0;" width="6" x="549" y="157.6094"/><text fill="#000000" font-family="sans-serif" font-size="11" lengthAdjust="spacingAndGlyphs" textLength="310" x="561" y="163.8198">proposedCombinationView: ProposedCombinationView</text><rect fill="none" height="6" style="stroke: #C82930; stroke-width: 1.0;" width="6" x="549" y="170.4141"/><text fill="#000000" font-family="sans-serif" font-size="11" lengthAdjust="spacingAndGlyphs" textLength="154" x="561" y="176.6245">resumeView: ResumeView</text><line style="stroke: #A80036; stroke-width: 1.5;" x1="542" x2="876" y1="183.2188" y2="183.2188"/><ellipse cx="552" cy="194.2188" fill="#84BE84" rx="3" ry="3" style="stroke: #038048; stroke-width: 1.0;"/><text fill="#000000" font-family="sans-serif" font-size="11" lengthAdjust="spacingAndGlyphs" textLength="71" x="561" y="197.4292">View(Game)</text><ellipse cx="552" cy="207.0234" fill="#84BE84" rx="3" ry="3" style="stroke: #038048; stroke-width: 1.0;"/><text fill="#000000" font-family="sans-serif" font-size="11" lengthAdjust="spacingAndGlyphs" textLength="82" x="561" y="210.2339">interact(): void</text><!--MD5=[dece28e469183ba50ca58e70f25d20f0]
class com.views.console.SubView--><rect codeLine="35" fill="#FEFECE" filter="url(#f153ss0v5m0zvg)" height="73.6094" id="com.views.console.SubView" style="stroke: #A80036; stroke-width: 1.5;" width="119" x="462.5" y="375"/><ellipse cx="493.25" cy="391" fill="#ADD1B2" rx="11" ry="11" style="stroke: #A80036; stroke-width: 1.0;"/><path d="M495.5938,386.6719 C494.6563,386.2344 494.0625,386.0938 493.1875,386.0938 C490.5625,386.0938 488.5625,388.1719 488.5625,390.8906 L488.5625,392.0156 C488.5625,394.5938 490.6719,396.4844 493.5625,396.4844 C494.7813,396.4844 495.9375,396.1875 496.6875,395.6406 C497.2656,395.2344 497.5938,394.7813 497.5938,394.3906 C497.5938,393.9375 497.2031,393.5469 496.7344,393.5469 C496.5156,393.5469 496.3125,393.625 496.125,393.8125 C495.6719,394.2969 495.6719,394.2969 495.4844,394.3906 C495.0625,394.6563 494.375,394.7813 493.6094,394.7813 C491.5625,394.7813 490.2656,393.6875 490.2656,391.9844 L490.2656,390.8906 C490.2656,389.1094 491.5156,387.7969 493.25,387.7969 C493.8281,387.7969 494.4375,387.9531 494.9063,388.2031 C495.3906,388.4844 495.5625,388.7031 495.6563,389.1094 C495.7188,389.5156 495.75,389.6406 495.8906,389.7656 C496.0313,389.9063 496.2656,390.0156 496.4844,390.0156 C496.75,390.0156 497.0156,389.875 497.1875,389.6563 C497.2969,389.5 497.3281,389.3125 497.3281,388.8906 L497.3281,387.4688 C497.3281,387.0313 497.3125,386.9063 497.2188,386.75 C497.0625,386.4844 496.7813,386.3438 496.4844,386.3438 C496.1875,386.3438 495.9844,386.4375 495.7656,386.75 L495.5938,386.6719 Z "/><text fill="#000000" font-family="sans-serif" font-size="12" lengthAdjust="spacingAndGlyphs" textLength="52" x="510.75" y="395.1543">SubView</text><line style="stroke: #A80036; stroke-width: 1.5;" x1="463.5" x2="580.5" y1="407" y2="407"/><polygon fill="none" points="473.5,413,477.5,417,473.5,421,469.5,417" style="stroke: #B38D22; stroke-width: 1.0;"/><text fill="#000000" font-family="sans-serif" font-size="11" lengthAdjust="spacingAndGlyphs" textLength="75" x="482.5" y="421.2104">game: Game</text><line style="stroke: #A80036; stroke-width: 1.5;" x1="463.5" x2="580.5" y1="427.8047" y2="427.8047"/><polygon fill="#4177AF" points="473.5,434.8047,469.5,440.8047,477.5,440.8047" style="stroke: #1963A0; stroke-width: 1.0;"/><text fill="#000000" font-family="sans-serif" font-size="11" lengthAdjust="spacingAndGlyphs" textLength="93" x="482.5" y="442.0151">SubView(Game)</text><!--MD5=[dc385e317ae906c8a6e1db887894bc4f]
class com.views.console.ColorView--><rect codeLine="40" fill="#FEFECE" filter="url(#f153ss0v5m0zvg)" height="99.2188" id="com.views.console.ColorView" style="stroke: #A80036; stroke-width: 1.5;" width="129" x="641.5" y="833"/><ellipse cx="672.7" cy="849" fill="#ADD1B2" rx="11" ry="11" style="stroke: #A80036; stroke-width: 1.0;"/><path d="M675.0438,844.6719 C674.1063,844.2344 673.5125,844.0938 672.6375,844.0938 C670.0125,844.0938 668.0125,846.1719 668.0125,848.8906 L668.0125,850.0156 C668.0125,852.5938 670.1219,854.4844 673.0125,854.4844 C674.2313,854.4844 675.3875,854.1875 676.1375,853.6406 C676.7156,853.2344 677.0438,852.7813 677.0438,852.3906 C677.0438,851.9375 676.6531,851.5469 676.1844,851.5469 C675.9656,851.5469 675.7625,851.625 675.575,851.8125 C675.1219,852.2969 675.1219,852.2969 674.9344,852.3906 C674.5125,852.6563 673.825,852.7813 673.0594,852.7813 C671.0125,852.7813 669.7156,851.6875 669.7156,849.9844 L669.7156,848.8906 C669.7156,847.1094 670.9656,845.7969 672.7,845.7969 C673.2781,845.7969 673.8875,845.9531 674.3563,846.2031 C674.8406,846.4844 675.0125,846.7031 675.1063,847.1094 C675.1688,847.5156 675.2,847.6406 675.3406,847.7656 C675.4813,847.9063 675.7156,848.0156 675.9344,848.0156 C676.2,848.0156 676.4656,847.875 676.6375,847.6563 C676.7469,847.5 676.7781,847.3125 676.7781,846.8906 L676.7781,845.4688 C676.7781,845.0313 676.7625,844.9063 676.6688,844.75 C676.5125,844.4844 676.2313,844.3438 675.9344,844.3438 C675.6375,844.3438 675.4344,844.4375 675.2156,844.75 L675.0438,844.6719 Z "/><text fill="#000000" font-family="sans-serif" font-size="12" lengthAdjust="spacingAndGlyphs" textLength="61" x="690.3" y="853.1543">ColorView</text><line style="stroke: #A80036; stroke-width: 1.5;" x1="642.5" x2="769.5" y1="865" y2="865"/><rect fill="none" height="6" style="stroke: #C82930; stroke-width: 1.0;" width="6" x="649.5" y="873"/><text fill="#000000" font-family="sans-serif" font-size="11" lengthAdjust="spacingAndGlyphs" textLength="63" x="661.5" y="879.2104">color: Color</text><line style="stroke: #A80036; stroke-width: 1.5;" x1="642.5" x2="769.5" y1="885.8047" y2="885.8047"/><polygon fill="#4177AF" points="652.5,892.8047,648.5,898.8047,656.5,898.8047" style="stroke: #1963A0; stroke-width: 1.0;"/><text fill="#000000" font-family="sans-serif" font-size="11" lengthAdjust="spacingAndGlyphs" textLength="94" x="661.5" y="900.0151">ColorView(Color)</text><ellipse cx="652.5" cy="909.6094" fill="#84BE84" rx="3" ry="3" style="stroke: #038048; stroke-width: 1.0;"/><text fill="#000000" font-family="sans-serif" font-size="11" lengthAdjust="spacingAndGlyphs" textLength="67" x="661.5" y="912.8198">write(): void</text><ellipse cx="652.5" cy="922.4141" fill="#84BE84" rx="3" ry="3" style="stroke: #038048; stroke-width: 1.0;"/><text fill="#000000" font-family="sans-serif" font-size="11" lengthAdjust="spacingAndGlyphs" textLength="103" x="661.5" y="925.6245">writeInitials(): void</text><!--MD5=[3855bc8a697b206343f1e850694ca859]
class com.views.console.ProposedCombinationView--><rect codeLine="48" fill="#FEFECE" filter="url(#f153ss0v5m0zvg)" height="86.4141" id="com.views.console.ProposedCombinationView" style="stroke: #A80036; stroke-width: 1.5;" width="280" x="236" y="687"/><ellipse cx="291.25" cy="703" fill="#ADD1B2" rx="11" ry="11" style="stroke: #A80036; stroke-width: 1.0;"/><path d="M293.5938,698.6719 C292.6563,698.2344 292.0625,698.0938 291.1875,698.0938 C288.5625,698.0938 286.5625,700.1719 286.5625,702.8906 L286.5625,704.0156 C286.5625,706.5938 288.6719,708.4844 291.5625,708.4844 C292.7813,708.4844 293.9375,708.1875 294.6875,707.6406 C295.2656,707.2344 295.5938,706.7813 295.5938,706.3906 C295.5938,705.9375 295.2031,705.5469 294.7344,705.5469 C294.5156,705.5469 294.3125,705.625 294.125,705.8125 C293.6719,706.2969 293.6719,706.2969 293.4844,706.3906 C293.0625,706.6563 292.375,706.7813 291.6094,706.7813 C289.5625,706.7813 288.2656,705.6875 288.2656,703.9844 L288.2656,702.8906 C288.2656,701.1094 289.5156,699.7969 291.25,699.7969 C291.8281,699.7969 292.4375,699.9531 292.9063,700.2031 C293.3906,700.4844 293.5625,700.7031 293.6563,701.1094 C293.7188,701.5156 293.75,701.6406 293.8906,701.7656 C294.0313,701.9063 294.2656,702.0156 294.4844,702.0156 C294.75,702.0156 295.0156,701.875 295.1875,701.6563 C295.2969,701.5 295.3281,701.3125 295.3281,700.8906 L295.3281,699.4688 C295.3281,699.0313 295.3125,698.9063 295.2188,698.75 C295.0625,698.4844 294.7813,698.3438 294.4844,698.3438 C294.1875,698.3438 293.9844,698.4375 293.7656,698.75 L293.5938,698.6719 Z "/><text fill="#000000" font-family="sans-serif" font-size="12" lengthAdjust="spacingAndGlyphs" textLength="161" x="311.75" y="707.1543">ProposedCombinationView</text><line style="stroke: #A80036; stroke-width: 1.5;" x1="237" x2="515" y1="719" y2="719"/><rect fill="none" height="6" style="stroke: #C82930; stroke-width: 1.0;" width="6" x="244" y="727"/><text fill="#000000" font-family="sans-serif" font-size="11" lengthAdjust="spacingAndGlyphs" textLength="254" x="256" y="733.2104">proposedCombination: ProposedCombination</text><line style="stroke: #A80036; stroke-width: 1.5;" x1="237" x2="515" y1="739.8047" y2="739.8047"/><ellipse cx="247" cy="750.8047" fill="#84BE84" rx="3" ry="3" style="stroke: #038048; stroke-width: 1.0;"/><text fill="#000000" font-family="sans-serif" font-size="11" lengthAdjust="spacingAndGlyphs" textLength="190" x="256" y="754.0151">write(ProposedCombination): void</text><ellipse cx="247" cy="763.6094" fill="#84BE84" rx="3" ry="3" style="stroke: #038048; stroke-width: 1.0;"/><text fill="#000000" font-family="sans-serif" font-size="11" lengthAdjust="spacingAndGlyphs" textLength="164" x="256" y="766.8198">read(): ProposedCombination</text><!--MD5=[df8a789533cc1a32125527061336f7b2]
class com.views.console.ResultView--><rect codeLine="55" fill="#FEFECE" filter="url(#f153ss0v5m0zvg)" height="86.4141" id="com.views.console.ResultView" style="stroke: #A80036; stroke-width: 1.5;" width="132" x="69" y="687"/><ellipse cx="99.75" cy="703" fill="#ADD1B2" rx="11" ry="11" style="stroke: #A80036; stroke-width: 1.0;"/><path d="M102.0938,698.6719 C101.1563,698.2344 100.5625,698.0938 99.6875,698.0938 C97.0625,698.0938 95.0625,700.1719 95.0625,702.8906 L95.0625,704.0156 C95.0625,706.5938 97.1719,708.4844 100.0625,708.4844 C101.2813,708.4844 102.4375,708.1875 103.1875,707.6406 C103.7656,707.2344 104.0938,706.7813 104.0938,706.3906 C104.0938,705.9375 103.7031,705.5469 103.2344,705.5469 C103.0156,705.5469 102.8125,705.625 102.625,705.8125 C102.1719,706.2969 102.1719,706.2969 101.9844,706.3906 C101.5625,706.6563 100.875,706.7813 100.1094,706.7813 C98.0625,706.7813 96.7656,705.6875 96.7656,703.9844 L96.7656,702.8906 C96.7656,701.1094 98.0156,699.7969 99.75,699.7969 C100.3281,699.7969 100.9375,699.9531 101.4063,700.2031 C101.8906,700.4844 102.0625,700.7031 102.1563,701.1094 C102.2188,701.5156 102.25,701.6406 102.3906,701.7656 C102.5313,701.9063 102.7656,702.0156 102.9844,702.0156 C103.25,702.0156 103.5156,701.875 103.6875,701.6563 C103.7969,701.5 103.8281,701.3125 103.8281,700.8906 L103.8281,699.4688 C103.8281,699.0313 103.8125,698.9063 103.7188,698.75 C103.5625,698.4844 103.2813,698.3438 102.9844,698.3438 C102.6875,698.3438 102.4844,698.4375 102.2656,698.75 L102.0938,698.6719 Z "/><text fill="#000000" font-family="sans-serif" font-size="12" lengthAdjust="spacingAndGlyphs" textLength="65" x="117.25" y="707.1543">ResultView</text><line style="stroke: #A80036; stroke-width: 1.5;" x1="70" x2="200" y1="719" y2="719"/><rect fill="none" height="6" style="stroke: #C82930; stroke-width: 1.0;" width="6" x="77" y="727"/><text fill="#000000" font-family="sans-serif" font-size="11" lengthAdjust="spacingAndGlyphs" textLength="74" x="89" y="733.2104">result: Result</text><line style="stroke: #A80036; stroke-width: 1.5;" x1="70" x2="200" y1="739.8047" y2="739.8047"/><polygon fill="#4177AF" points="80,746.8047,76,752.8047,84,752.8047" style="stroke: #1963A0; stroke-width: 1.0;"/><text fill="#000000" font-family="sans-serif" font-size="11" lengthAdjust="spacingAndGlyphs" textLength="106" x="89" y="754.0151">ResultView(Result)</text><ellipse cx="80" cy="763.6094" fill="#84BE84" rx="3" ry="3" style="stroke: #038048; stroke-width: 1.0;"/><text fill="#000000" font-family="sans-serif" font-size="11" lengthAdjust="spacingAndGlyphs" textLength="77" x="89" y="766.8198">writeln(): void</text><!--MD5=[391f6d716704d329e54366d22ea15624]
class com.views.console.ResumeView--><rect codeLine="61" fill="#FEFECE" filter="url(#f153ss0v5m0zvg)" height="60.8047" id="com.views.console.ResumeView" style="stroke: #A80036; stroke-width: 1.5;" width="130" x="644" y="553.5"/><ellipse cx="668.45" cy="569.5" fill="#ADD1B2" rx="11" ry="11" style="stroke: #A80036; stroke-width: 1.0;"/><path d="M670.7938,565.1719 C669.8563,564.7344 669.2625,564.5938 668.3875,564.5938 C665.7625,564.5938 663.7625,566.6719 663.7625,569.3906 L663.7625,570.5156 C663.7625,573.0938 665.8719,574.9844 668.7625,574.9844 C669.9813,574.9844 671.1375,574.6875 671.8875,574.1406 C672.4656,573.7344 672.7938,573.2813 672.7938,572.8906 C672.7938,572.4375 672.4031,572.0469 671.9344,572.0469 C671.7156,572.0469 671.5125,572.125 671.325,572.3125 C670.8719,572.7969 670.8719,572.7969 670.6844,572.8906 C670.2625,573.1563 669.575,573.2813 668.8094,573.2813 C666.7625,573.2813 665.4656,572.1875 665.4656,570.4844 L665.4656,569.3906 C665.4656,567.6094 666.7156,566.2969 668.45,566.2969 C669.0281,566.2969 669.6375,566.4531 670.1063,566.7031 C670.5906,566.9844 670.7625,567.2031 670.8563,567.6094 C670.9188,568.0156 670.95,568.1406 671.0906,568.2656 C671.2313,568.4063 671.4656,568.5156 671.6844,568.5156 C671.95,568.5156 672.2156,568.375 672.3875,568.1563 C672.4969,568 672.5281,567.8125 672.5281,567.3906 L672.5281,565.9688 C672.5281,565.5313 672.5125,565.4063 672.4188,565.25 C672.2625,564.9844 671.9813,564.8438 671.6844,564.8438 C671.3875,564.8438 671.1844,564.9375 670.9656,565.25 L670.7938,565.1719 Z "/><text fill="#000000" font-family="sans-serif" font-size="12" lengthAdjust="spacingAndGlyphs" textLength="77" x="684.55" y="573.6543">ResumeView</text><line style="stroke: #A80036; stroke-width: 1.5;" x1="645" x2="773" y1="585.5" y2="585.5"/><line style="stroke: #A80036; stroke-width: 1.5;" x1="645" x2="773" y1="593.5" y2="593.5"/><ellipse cx="655" cy="604.5" fill="#84BE84" rx="3" ry="3" style="stroke: #038048; stroke-width: 1.0;"/><text fill="#000000" font-family="sans-serif" font-size="11" lengthAdjust="spacingAndGlyphs" textLength="104" x="664" y="607.7104">interact(): boolean</text><!--MD5=[f3b49c9f6938875554ffa97ab7003387]
class com.views.console.ProposalView--><rect codeLine="65" fill="#FEFECE" filter="url(#f153ss0v5m0zvg)" height="60.8047" id="com.views.console.ProposalView" style="stroke: #A80036; stroke-width: 1.5;" width="130" x="479" y="553.5"/><ellipse cx="501.65" cy="569.5" fill="#ADD1B2" rx="11" ry="11" style="stroke: #A80036; stroke-width: 1.0;"/><path d="M503.9938,565.1719 C503.0563,564.7344 502.4625,564.5938 501.5875,564.5938 C498.9625,564.5938 496.9625,566.6719 496.9625,569.3906 L496.9625,570.5156 C496.9625,573.0938 499.0719,574.9844 501.9625,574.9844 C503.1813,574.9844 504.3375,574.6875 505.0875,574.1406 C505.6656,573.7344 505.9938,573.2813 505.9938,572.8906 C505.9938,572.4375 505.6031,572.0469 505.1344,572.0469 C504.9156,572.0469 504.7125,572.125 504.525,572.3125 C504.0719,572.7969 504.0719,572.7969 503.8844,572.8906 C503.4625,573.1563 502.775,573.2813 502.0094,573.2813 C499.9625,573.2813 498.6656,572.1875 498.6656,570.4844 L498.6656,569.3906 C498.6656,567.6094 499.9156,566.2969 501.65,566.2969 C502.2281,566.2969 502.8375,566.4531 503.3063,566.7031 C503.7906,566.9844 503.9625,567.2031 504.0563,567.6094 C504.1188,568.0156 504.15,568.1406 504.2906,568.2656 C504.4313,568.4063 504.6656,568.5156 504.8844,568.5156 C505.15,568.5156 505.4156,568.375 505.5875,568.1563 C505.6969,568 505.7281,567.8125 505.7281,567.3906 L505.7281,565.9688 C505.7281,565.5313 505.7125,565.4063 505.6188,565.25 C505.4625,564.9844 505.1813,564.8438 504.8844,564.8438 C504.5875,564.8438 504.3844,564.9375 504.1656,565.25 L503.9938,565.1719 Z "/><text fill="#000000" font-family="sans-serif" font-size="12" lengthAdjust="spacingAndGlyphs" textLength="81" x="517.35" y="573.6543">ProposalView</text><line style="stroke: #A80036; stroke-width: 1.5;" x1="480" x2="608" y1="585.5" y2="585.5"/><line style="stroke: #A80036; stroke-width: 1.5;" x1="480" x2="608" y1="593.5" y2="593.5"/><ellipse cx="490" cy="604.5" fill="#84BE84" rx="3" ry="3" style="stroke: #038048; stroke-width: 1.0;"/><text fill="#000000" font-family="sans-serif" font-size="11" lengthAdjust="spacingAndGlyphs" textLength="104" x="499" y="607.7104">interact(): boolean</text><!--MD5=[b0ce8f1a0b3369ba0a958ee078d136b2]
class com.views.console.SecretCombinationView--><rect codeLine="69" fill="#FEFECE" filter="url(#f153ss0v5m0zvg)" height="86.4141" id="com.views.console.SecretCombinationView" style="stroke: #A80036; stroke-width: 1.5;" width="249" x="551.5" y="687"/><ellipse cx="600.25" cy="703" fill="#ADD1B2" rx="11" ry="11" style="stroke: #A80036; stroke-width: 1.0;"/><path d="M602.5938,698.6719 C601.6563,698.2344 601.0625,698.0938 600.1875,698.0938 C597.5625,698.0938 595.5625,700.1719 595.5625,702.8906 L595.5625,704.0156 C595.5625,706.5938 597.6719,708.4844 600.5625,708.4844 C601.7813,708.4844 602.9375,708.1875 603.6875,707.6406 C604.2656,707.2344 604.5938,706.7813 604.5938,706.3906 C604.5938,705.9375 604.2031,705.5469 603.7344,705.5469 C603.5156,705.5469 603.3125,705.625 603.125,705.8125 C602.6719,706.2969 602.6719,706.2969 602.4844,706.3906 C602.0625,706.6563 601.375,706.7813 600.6094,706.7813 C598.5625,706.7813 597.2656,705.6875 597.2656,703.9844 L597.2656,702.8906 C597.2656,701.1094 598.5156,699.7969 600.25,699.7969 C600.8281,699.7969 601.4375,699.9531 601.9063,700.2031 C602.3906,700.4844 602.5625,700.7031 602.6563,701.1094 C602.7188,701.5156 602.75,701.6406 602.8906,701.7656 C603.0313,701.9063 603.2656,702.0156 603.4844,702.0156 C603.75,702.0156 604.0156,701.875 604.1875,701.6563 C604.2969,701.5 604.3281,701.3125 604.3281,700.8906 L604.3281,699.4688 C604.3281,699.0313 604.3125,698.9063 604.2188,698.75 C604.0625,698.4844 603.7813,698.3438 603.4844,698.3438 C603.1875,698.3438 602.9844,698.4375 602.7656,698.75 L602.5938,698.6719 Z "/><text fill="#000000" font-family="sans-serif" font-size="12" lengthAdjust="spacingAndGlyphs" textLength="143" x="620.75" y="707.1543">SecretCombinationView</text><line style="stroke: #A80036; stroke-width: 1.5;" x1="552.5" x2="799.5" y1="719" y2="719"/><rect fill="none" height="6" style="stroke: #C82930; stroke-width: 1.0;" width="6" x="559.5" y="727"/><text fill="#000000" font-family="sans-serif" font-size="11" lengthAdjust="spacingAndGlyphs" textLength="223" x="571.5" y="733.2104">secretCombination: SecretCombination</text><line style="stroke: #A80036; stroke-width: 1.5;" x1="552.5" x2="799.5" y1="739.8047" y2="739.8047"/><polygon fill="#4177AF" points="562.5,746.8047,558.5,752.8047,566.5,752.8047" style="stroke: #1963A0; stroke-width: 1.0;"/><text fill="#000000" font-family="sans-serif" font-size="11" lengthAdjust="spacingAndGlyphs" textLength="145" x="571.5" y="754.0151">SecretCombinationView()</text><ellipse cx="562.5" cy="763.6094" fill="#84BE84" rx="3" ry="3" style="stroke: #038048; stroke-width: 1.0;"/><text fill="#000000" font-family="sans-serif" font-size="11" lengthAdjust="spacingAndGlyphs" textLength="77" x="571.5" y="766.8198">writeln(): void</text><!--MD5=[aae4e11cd8849136eeec4d1c1be7ec33]
class com.views.console.StartView--><rect codeLine="75" fill="#FEFECE" filter="url(#f153ss0v5m0zvg)" height="86.4141" id="com.views.console.StartView" style="stroke: #A80036; stroke-width: 1.5;" width="143" x="300.5" y="541"/><ellipse cx="339.8" cy="557" fill="#ADD1B2" rx="11" ry="11" style="stroke: #A80036; stroke-width: 1.0;"/><path d="M342.1438,552.6719 C341.2063,552.2344 340.6125,552.0938 339.7375,552.0938 C337.1125,552.0938 335.1125,554.1719 335.1125,556.8906 L335.1125,558.0156 C335.1125,560.5938 337.2219,562.4844 340.1125,562.4844 C341.3313,562.4844 342.4875,562.1875 343.2375,561.6406 C343.8156,561.2344 344.1438,560.7813 344.1438,560.3906 C344.1438,559.9375 343.7531,559.5469 343.2844,559.5469 C343.0656,559.5469 342.8625,559.625 342.675,559.8125 C342.2219,560.2969 342.2219,560.2969 342.0344,560.3906 C341.6125,560.6563 340.925,560.7813 340.1594,560.7813 C338.1125,560.7813 336.8156,559.6875 336.8156,557.9844 L336.8156,556.8906 C336.8156,555.1094 338.0656,553.7969 339.8,553.7969 C340.3781,553.7969 340.9875,553.9531 341.4563,554.2031 C341.9406,554.4844 342.1125,554.7031 342.2063,555.1094 C342.2688,555.5156 342.3,555.6406 342.4406,555.7656 C342.5813,555.9063 342.8156,556.0156 343.0344,556.0156 C343.3,556.0156 343.5656,555.875 343.7375,555.6563 C343.8469,555.5 343.8781,555.3125 343.8781,554.8906 L343.8781,553.4688 C343.8781,553.0313 343.8625,552.9063 343.7688,552.75 C343.6125,552.4844 343.3313,552.3438 343.0344,552.3438 C342.7375,552.3438 342.5344,552.4375 342.3156,552.75 L342.1438,552.6719 Z "/><text fill="#000000" font-family="sans-serif" font-size="12" lengthAdjust="spacingAndGlyphs" textLength="57" x="359.2" y="561.1543">StartView</text><line style="stroke: #A80036; stroke-width: 1.5;" x1="301.5" x2="442.5" y1="573" y2="573"/><rect fill="none" height="6" style="stroke: #C82930; stroke-width: 1.0;" width="6" x="308.5" y="581"/><text fill="#000000" font-family="sans-serif" font-size="11" lengthAdjust="spacingAndGlyphs" textLength="75" x="320.5" y="587.2104">game: Game</text><line style="stroke: #A80036; stroke-width: 1.5;" x1="301.5" x2="442.5" y1="593.8047" y2="593.8047"/><polygon fill="#4177AF" points="311.5,600.8047,307.5,606.8047,315.5,606.8047" style="stroke: #1963A0; stroke-width: 1.0;"/><text fill="#000000" font-family="sans-serif" font-size="11" lengthAdjust="spacingAndGlyphs" textLength="98" x="320.5" y="608.0151">StartView(Game)</text><ellipse cx="311.5" cy="617.6094" fill="#84BE84" rx="3" ry="3" style="stroke: #038048; stroke-width: 1.0;"/><text fill="#000000" font-family="sans-serif" font-size="11" lengthAdjust="spacingAndGlyphs" textLength="117" x="320.5" y="620.8198">interact(Game): void</text><!--MD5=[c6c01aec0b7ccbc7c6e2d1137d7bfafe]
class com.views.console.ConsoleView--><rect codeLine="81" fill="#FEFECE" filter="url(#f153ss0v5m0zvg)" height="137.6328" id="com.views.console.ConsoleView" style="stroke: #A80036; stroke-width: 1.5;" width="184" x="617" y="343"/><ellipse cx="665.75" cy="359" fill="#ADD1B2" rx="11" ry="11" style="stroke: #A80036; stroke-width: 1.0;"/><path d="M668.0938,354.6719 C667.1563,354.2344 666.5625,354.0938 665.6875,354.0938 C663.0625,354.0938 661.0625,356.1719 661.0625,358.8906 L661.0625,360.0156 C661.0625,362.5938 663.1719,364.4844 666.0625,364.4844 C667.2813,364.4844 668.4375,364.1875 669.1875,363.6406 C669.7656,363.2344 670.0938,362.7813 670.0938,362.3906 C670.0938,361.9375 669.7031,361.5469 669.2344,361.5469 C669.0156,361.5469 668.8125,361.625 668.625,361.8125 C668.1719,362.2969 668.1719,362.2969 667.9844,362.3906 C667.5625,362.6563 666.875,362.7813 666.1094,362.7813 C664.0625,362.7813 662.7656,361.6875 662.7656,359.9844 L662.7656,358.8906 C662.7656,357.1094 664.0156,355.7969 665.75,355.7969 C666.3281,355.7969 666.9375,355.9531 667.4063,356.2031 C667.8906,356.4844 668.0625,356.7031 668.1563,357.1094 C668.2188,357.5156 668.25,357.6406 668.3906,357.7656 C668.5313,357.9063 668.7656,358.0156 668.9844,358.0156 C669.25,358.0156 669.5156,357.875 669.6875,357.6563 C669.7969,357.5 669.8281,357.3125 669.8281,356.8906 L669.8281,355.4688 C669.8281,355.0313 669.8125,354.9063 669.7188,354.75 C669.5625,354.4844 669.2813,354.3438 668.9844,354.3438 C668.6875,354.3438 668.4844,354.4375 668.2656,354.75 L668.0938,354.6719 Z "/><text fill="#000000" font-family="sans-serif" font-size="12" lengthAdjust="spacingAndGlyphs" textLength="78" x="686.25" y="363.1543">ConsoleView</text><line style="stroke: #A80036; stroke-width: 1.5;" x1="618" x2="800" y1="375" y2="375"/><rect fill="none" height="6" style="stroke: #C82930; stroke-width: 1.0;" width="6" x="625" y="383"/><text fill="#000000" font-family="sans-serif" font-size="11" lengthAdjust="spacingAndGlyphs" textLength="115" x="637" y="389.2104">startView: StartView</text><rect fill="none" height="6" style="stroke: #C82930; stroke-width: 1.0;" width="6" x="625" y="395.8047"/><text fill="#000000" font-family="sans-serif" font-size="11" lengthAdjust="spacingAndGlyphs" textLength="158" x="637" y="402.0151">proposalView: ProposalView</text><rect fill="none" height="6" style="stroke: #C82930; stroke-width: 1.0;" width="6" x="625" y="408.6094"/><text fill="#000000" font-family="sans-serif" font-size="11" lengthAdjust="spacingAndGlyphs" textLength="154" x="637" y="414.8198">resumeView: ResumeView</text><line style="stroke: #A80036; stroke-width: 1.5;" x1="618" x2="800" y1="421.4141" y2="421.4141"/><ellipse cx="628" cy="432.4141" fill="#84BE84" rx="3" ry="3" style="stroke: #038048; stroke-width: 1.0;"/><text fill="#000000" font-family="sans-serif" font-size="11" lengthAdjust="spacingAndGlyphs" textLength="117" x="637" y="435.6245">ConsoleView(Game)</text><polygon fill="#FFFF44" points="628,440.2188,632,444.2188,628,448.2188,624,444.2188" style="stroke: #B38D22; stroke-width: 1.0;"/><text fill="#000000" font-family="sans-serif" font-size="11" lengthAdjust="spacingAndGlyphs" textLength="64" x="637" y="448.4292">start(): void</text><polygon fill="#FFFF44" points="628,453.0234,632,457.0234,628,461.0234,624,457.0234" style="stroke: #B38D22; stroke-width: 1.0;"/><text fill="#000000" font-family="sans-serif" font-size="11" lengthAdjust="spacingAndGlyphs" textLength="85" x="637" y="461.2339">play(): boolean</text><polygon fill="#FFFF44" points="628,465.8281,632,469.8281,628,473.8281,624,469.8281" style="stroke: #B38D22; stroke-width: 1.0;"/><text fill="#000000" font-family="sans-serif" font-size="11" lengthAdjust="spacingAndGlyphs" textLength="130" x="637" y="474.0386">isNewGame(): boolean</text><!--MD5=[fa5c417039aa357259d94198e3deb065]
class com.views.console.Message--><rect fill="#FEFECE" filter="url(#f153ss0v5m0zvg)" height="48" id="com.views.console.Message" style="stroke: #A80036; stroke-width: 1.5;" width="87" x="91.5" y="858.5"/><ellipse cx="106.5" cy="874.5" fill="#ADD1B2" rx="11" ry="11" style="stroke: #A80036; stroke-width: 1.0;"/><path d="M108.8438,870.1719 C107.9063,869.7344 107.3125,869.5938 106.4375,869.5938 C103.8125,869.5938 101.8125,871.6719 101.8125,874.3906 L101.8125,875.5156 C101.8125,878.0938 103.9219,879.9844 106.8125,879.9844 C108.0313,879.9844 109.1875,879.6875 109.9375,879.1406 C110.5156,878.7344 110.8438,878.2813 110.8438,877.8906 C110.8438,877.4375 110.4531,877.0469 109.9844,877.0469 C109.7656,877.0469 109.5625,877.125 109.375,877.3125 C108.9219,877.7969 108.9219,877.7969 108.7344,877.8906 C108.3125,878.1563 107.625,878.2813 106.8594,878.2813 C104.8125,878.2813 103.5156,877.1875 103.5156,875.4844 L103.5156,874.3906 C103.5156,872.6094 104.7656,871.2969 106.5,871.2969 C107.0781,871.2969 107.6875,871.4531 108.1563,871.7031 C108.6406,871.9844 108.8125,872.2031 108.9063,872.6094 C108.9688,873.0156 109,873.1406 109.1406,873.2656 C109.2813,873.4063 109.5156,873.5156 109.7344,873.5156 C110,873.5156 110.2656,873.375 110.4375,873.1563 C110.5469,873 110.5781,872.8125 110.5781,872.3906 L110.5781,870.9688 C110.5781,870.5313 110.5625,870.4063 110.4688,870.25 C110.3125,869.9844 110.0313,869.8438 109.7344,869.8438 C109.4375,869.8438 109.2344,869.9375 109.0156,870.25 L108.8438,870.1719 Z "/><text fill="#000000" font-family="sans-serif" font-size="12" lengthAdjust="spacingAndGlyphs" textLength="55" x="120.5" y="878.6543">Message</text><line style="stroke: #A80036; stroke-width: 1.5;" x1="92.5" x2="177.5" y1="890.5" y2="890.5"/><line style="stroke: #A80036; stroke-width: 1.5;" x1="92.5" x2="177.5" y1="898.5" y2="898.5"/><!--MD5=[105cc80cb4153fdb197ae73822de8e1f]
class com.views.console.ErrorView--><rect fill="#FEFECE" filter="url(#f153ss0v5m0zvg)" height="48" id="com.views.console.ErrorView" style="stroke: #A80036; stroke-width: 1.5;" width="91" x="422.5" y="858.5"/><ellipse cx="437.5" cy="874.5" fill="#ADD1B2" rx="11" ry="11" style="stroke: #A80036; stroke-width: 1.0;"/><path d="M439.8438,870.1719 C438.9063,869.7344 438.3125,869.5938 437.4375,869.5938 C434.8125,869.5938 432.8125,871.6719 432.8125,874.3906 L432.8125,875.5156 C432.8125,878.0938 434.9219,879.9844 437.8125,879.9844 C439.0313,879.9844 440.1875,879.6875 440.9375,879.1406 C441.5156,878.7344 441.8438,878.2813 441.8438,877.8906 C441.8438,877.4375 441.4531,877.0469 440.9844,877.0469 C440.7656,877.0469 440.5625,877.125 440.375,877.3125 C439.9219,877.7969 439.9219,877.7969 439.7344,877.8906 C439.3125,878.1563 438.625,878.2813 437.8594,878.2813 C435.8125,878.2813 434.5156,877.1875 434.5156,875.4844 L434.5156,874.3906 C434.5156,872.6094 435.7656,871.2969 437.5,871.2969 C438.0781,871.2969 438.6875,871.4531 439.1563,871.7031 C439.6406,871.9844 439.8125,872.2031 439.9063,872.6094 C439.9688,873.0156 440,873.1406 440.1406,873.2656 C440.2813,873.4063 440.5156,873.5156 440.7344,873.5156 C441,873.5156 441.2656,873.375 441.4375,873.1563 C441.5469,873 441.5781,872.8125 441.5781,872.3906 L441.5781,870.9688 C441.5781,870.5313 441.5625,870.4063 441.4688,870.25 C441.3125,869.9844 441.0313,869.8438 440.7344,869.8438 C440.4375,869.8438 440.2344,869.9375 440.0156,870.25 L439.8438,870.1719 Z "/><text fill="#000000" font-family="sans-serif" font-size="12" lengthAdjust="spacingAndGlyphs" textLength="59" x="451.5" y="878.6543">ErrorView</text><line style="stroke: #A80036; stroke-width: 1.5;" x1="423.5" x2="512.5" y1="890.5" y2="890.5"/><line style="stroke: #A80036; stroke-width: 1.5;" x1="423.5" x2="512.5" y1="898.5" y2="898.5"/><!--MD5=[a73f5e6aa95c1c5d816abffe3cd86853]
class com.utils.WithConsoleView--><rect codeLine="91" fill="#FEFECE" filter="url(#f153ss0v5m0zvg)" height="73.6094" id="com.utils.WithConsoleView" style="stroke: #A80036; stroke-width: 1.5;" width="136" x="1117" y="693"/><ellipse cx="1132" cy="709" fill="#ADD1B2" rx="11" ry="11" style="stroke: #A80036; stroke-width: 1.0;"/><path d="M1134.3438,704.6719 C1133.4063,704.2344 1132.8125,704.0938 1131.9375,704.0938 C1129.3125,704.0938 1127.3125,706.1719 1127.3125,708.8906 L1127.3125,710.0156 C1127.3125,712.5938 1129.4219,714.4844 1132.3125,714.4844 C1133.5313,714.4844 1134.6875,714.1875 1135.4375,713.6406 C1136.0156,713.2344 1136.3438,712.7813 1136.3438,712.3906 C1136.3438,711.9375 1135.9531,711.5469 1135.4844,711.5469 C1135.2656,711.5469 1135.0625,711.625 1134.875,711.8125 C1134.4219,712.2969 1134.4219,712.2969 1134.2344,712.3906 C1133.8125,712.6563 1133.125,712.7813 1132.3594,712.7813 C1130.3125,712.7813 1129.0156,711.6875 1129.0156,709.9844 L1129.0156,708.8906 C1129.0156,707.1094 1130.2656,705.7969 1132,705.7969 C1132.5781,705.7969 1133.1875,705.9531 1133.6563,706.2031 C1134.1406,706.4844 1134.3125,706.7031 1134.4063,707.1094 C1134.4688,707.5156 1134.5,707.6406 1134.6406,707.7656 C1134.7813,707.9063 1135.0156,708.0156 1135.2344,708.0156 C1135.5,708.0156 1135.7656,707.875 1135.9375,707.6563 C1136.0469,707.5 1136.0781,707.3125 1136.0781,706.8906 L1136.0781,705.4688 C1136.0781,705.0313 1136.0625,704.9063 1135.9688,704.75 C1135.8125,704.4844 1135.5313,704.3438 1135.2344,704.3438 C1134.9375,704.3438 1134.7344,704.4375 1134.5156,704.75 L1134.3438,704.6719 Z "/><text fill="#000000" font-family="sans-serif" font-size="12" lengthAdjust="spacingAndGlyphs" textLength="104" x="1146" y="713.1543">WithConsoleView</text><line style="stroke: #A80036; stroke-width: 1.5;" x1="1118" x2="1252" y1="725" y2="725"/><polygon fill="none" points="1128,731,1132,735,1128,739,1124,735" style="stroke: #B38D22; stroke-width: 1.0;"/><text fill="#000000" font-family="sans-serif" font-size="11" lengthAdjust="spacingAndGlyphs" textLength="97" x="1137" y="739.2104">console: Console</text><line style="stroke: #A80036; stroke-width: 1.5;" x1="1118" x2="1252" y1="745.8047" y2="745.8047"/><polygon fill="#4177AF" points="1128,752.8047,1124,758.8047,1132,758.8047" style="stroke: #1963A0; stroke-width: 1.0;"/><text fill="#000000" font-family="sans-serif" font-size="11" lengthAdjust="spacingAndGlyphs" textLength="110" x="1137" y="760.0151">WithConsoleView();</text><!--MD5=[ca8154f1b0e69687fd6637bef92cef2f]
class com.utils.YesNoDialog--><rect fill="#FEFECE" filter="url(#f153ss0v5m0zvg)" height="48" id="com.utils.YesNoDialog" style="stroke: #A80036; stroke-width: 1.5;" width="108" x="974" y="706"/><ellipse cx="989" cy="722" fill="#ADD1B2" rx="11" ry="11" style="stroke: #A80036; stroke-width: 1.0;"/><path d="M991.3438,717.6719 C990.4063,717.2344 989.8125,717.0938 988.9375,717.0938 C986.3125,717.0938 984.3125,719.1719 984.3125,721.8906 L984.3125,723.0156 C984.3125,725.5938 986.4219,727.4844 989.3125,727.4844 C990.5313,727.4844 991.6875,727.1875 992.4375,726.6406 C993.0156,726.2344 993.3438,725.7813 993.3438,725.3906 C993.3438,724.9375 992.9531,724.5469 992.4844,724.5469 C992.2656,724.5469 992.0625,724.625 991.875,724.8125 C991.4219,725.2969 991.4219,725.2969 991.2344,725.3906 C990.8125,725.6563 990.125,725.7813 989.3594,725.7813 C987.3125,725.7813 986.0156,724.6875 986.0156,722.9844 L986.0156,721.8906 C986.0156,720.1094 987.2656,718.7969 989,718.7969 C989.5781,718.7969 990.1875,718.9531 990.6563,719.2031 C991.1406,719.4844 991.3125,719.7031 991.4063,720.1094 C991.4688,720.5156 991.5,720.6406 991.6406,720.7656 C991.7813,720.9063 992.0156,721.0156 992.2344,721.0156 C992.5,721.0156 992.7656,720.875 992.9375,720.6563 C993.0469,720.5 993.0781,720.3125 993.0781,719.8906 L993.0781,718.4688 C993.0781,718.0313 993.0625,717.9063 992.9688,717.75 C992.8125,717.4844 992.5313,717.3438 992.2344,717.3438 C991.9375,717.3438 991.7344,717.4375 991.5156,717.75 L991.3438,717.6719 Z "/><text fill="#000000" font-family="sans-serif" font-size="12" lengthAdjust="spacingAndGlyphs" textLength="76" x="1003" y="726.1543">YesNoDialog</text><line style="stroke: #A80036; stroke-width: 1.5;" x1="975" x2="1081" y1="738" y2="738"/><line style="stroke: #A80036; stroke-width: 1.5;" x1="975" x2="1081" y1="746" y2="746"/><!--MD5=[a146112e0988386c11c85e1ba9cb589c]
class com.utils.Console--><rect fill="#FEFECE" filter="url(#f153ss0v5m0zvg)" height="48" id="com.utils.Console" style="stroke: #A80036; stroke-width: 1.5;" width="81" x="857.5" y="706"/><ellipse cx="872.5" cy="722" fill="#ADD1B2" rx="11" ry="11" style="stroke: #A80036; stroke-width: 1.0;"/><path d="M874.8438,717.6719 C873.9063,717.2344 873.3125,717.0938 872.4375,717.0938 C869.8125,717.0938 867.8125,719.1719 867.8125,721.8906 L867.8125,723.0156 C867.8125,725.5938 869.9219,727.4844 872.8125,727.4844 C874.0313,727.4844 875.1875,727.1875 875.9375,726.6406 C876.5156,726.2344 876.8438,725.7813 876.8438,725.3906 C876.8438,724.9375 876.4531,724.5469 875.9844,724.5469 C875.7656,724.5469 875.5625,724.625 875.375,724.8125 C874.9219,725.2969 874.9219,725.2969 874.7344,725.3906 C874.3125,725.6563 873.625,725.7813 872.8594,725.7813 C870.8125,725.7813 869.5156,724.6875 869.5156,722.9844 L869.5156,721.8906 C869.5156,720.1094 870.7656,718.7969 872.5,718.7969 C873.0781,718.7969 873.6875,718.9531 874.1563,719.2031 C874.6406,719.4844 874.8125,719.7031 874.9063,720.1094 C874.9688,720.5156 875,720.6406 875.1406,720.7656 C875.2813,720.9063 875.5156,721.0156 875.7344,721.0156 C876,721.0156 876.2656,720.875 876.4375,720.6563 C876.5469,720.5 876.5781,720.3125 876.5781,719.8906 L876.5781,718.4688 C876.5781,718.0313 876.5625,717.9063 876.4688,717.75 C876.3125,717.4844 876.0313,717.3438 875.7344,717.3438 C875.4375,717.3438 875.2344,717.4375 875.0156,717.75 L874.8438,717.6719 Z "/><text fill="#000000" font-family="sans-serif" font-size="12" lengthAdjust="spacingAndGlyphs" textLength="49" x="886.5" y="726.1543">Console</text><line style="stroke: #A80036; stroke-width: 1.5;" x1="858.5" x2="937.5" y1="738" y2="738"/><line style="stroke: #A80036; stroke-width: 1.5;" x1="858.5" x2="937.5" y1="746" y2="746"/><!--MD5=[5e669b60aaac1a014a32b452096260f0]
class mastermind.models.Game--><rect fill="#FEFECE" filter="url(#f153ss0v5m0zvg)" height="48" id="mastermind.models.Game" style="stroke: #A80036; stroke-width: 1.5;" width="67" x="880.5" y="560"/><ellipse cx="895.5" cy="576" fill="#ADD1B2" rx="11" ry="11" style="stroke: #A80036; stroke-width: 1.0;"/><path d="M897.8438,571.6719 C896.9063,571.2344 896.3125,571.0938 895.4375,571.0938 C892.8125,571.0938 890.8125,573.1719 890.8125,575.8906 L890.8125,577.0156 C890.8125,579.5938 892.9219,581.4844 895.8125,581.4844 C897.0313,581.4844 898.1875,581.1875 898.9375,580.6406 C899.5156,580.2344 899.8438,579.7813 899.8438,579.3906 C899.8438,578.9375 899.4531,578.5469 898.9844,578.5469 C898.7656,578.5469 898.5625,578.625 898.375,578.8125 C897.9219,579.2969 897.9219,579.2969 897.7344,579.3906 C897.3125,579.6563 896.625,579.7813 895.8594,579.7813 C893.8125,579.7813 892.5156,578.6875 892.5156,576.9844 L892.5156,575.8906 C892.5156,574.1094 893.7656,572.7969 895.5,572.7969 C896.0781,572.7969 896.6875,572.9531 897.1563,573.2031 C897.6406,573.4844 897.8125,573.7031 897.9063,574.1094 C897.9688,574.5156 898,574.6406 898.1406,574.7656 C898.2813,574.9063 898.5156,575.0156 898.7344,575.0156 C899,575.0156 899.2656,574.875 899.4375,574.6563 C899.5469,574.5 899.5781,574.3125 899.5781,573.8906 L899.5781,572.4688 C899.5781,572.0313 899.5625,571.9063 899.4688,571.75 C899.3125,571.4844 899.0313,571.3438 898.7344,571.3438 C898.4375,571.3438 898.2344,571.4375 898.0156,571.75 L897.8438,571.6719 Z "/><text fill="#000000" font-family="sans-serif" font-size="12" lengthAdjust="spacingAndGlyphs" textLength="35" x="909.5" y="580.1543">Game</text><line style="stroke: #A80036; stroke-width: 1.5;" x1="881.5" x2="946.5" y1="592" y2="592"/><line style="stroke: #A80036; stroke-width: 1.5;" x1="881.5" x2="946.5" y1="600" y2="600"/><!--MD5=[7aa64f585256ce516095cd2e22591688]
reverse link com.views.View to com.views.console.ConsoleView--><path codeLine="96" d="M709,237.443 C709,271.438 709,310.422 709,342.82 " fill="none" id="com.views.View-backto-com.views.console.ConsoleView" style="stroke: #A80036; stroke-width: 1.0;"/><polygon fill="none" points="702,237.024,709,217.024,716,237.024,702,237.024" style="stroke: #A80036; stroke-width: 1.0;"/><!--MD5=[6b7b8b21d5ce301ae3c43ec4e097c23e]
link com.views.console.ConsoleView to com.views.console.StartView--><path codeLine="97" d="M605.9112,477.9001 C605.9112,477.9001 600.93,480.174 599,481 C540.728,505.942 518.168,489.622 461,517 C451.503,521.548 441.997,527.17 432.922,533.197 " fill="none" id="com.views.console.ConsoleView-com.views.console.StartView" style="stroke: #A80036; stroke-width: 1.0;"/><polygon fill="#A80036" points="422.094,540.705,431.7691,538.8631,426.2027,537.8556,427.2101,532.2892,422.094,540.705" style="stroke: #A80036; stroke-width: 1.0;"/><line style="stroke: #A80036; stroke-width: 1.0;" x1="426.2027" x2="432.777" y1="537.8556" y2="533.297"/><polygon fill="#A80036" points="616.723,472.694,609.5817,471.6931,605.9112,477.9001,613.0525,478.901,616.723,472.694" style="stroke: #A80036; stroke-width: 1.0;"/><!--MD5=[e22baea2f8c5a6b8410929355e0293cc]
link com.views.console.ConsoleView to com.views.console.ProposalView--><path codeLine="98" d="M634.4813,489.7769 C634.4813,489.7769 597.31,528.075 581.899,543.953 " fill="none" id="com.views.console.ConsoleView-com.views.console.ProposalView" style="stroke: #A80036; stroke-width: 1.0;"/><polygon fill="#A80036" points="572.717,553.413,581.8556,549.7407,576.1994,549.8251,576.115,544.1689,572.717,553.413" style="stroke: #A80036; stroke-width: 1.0;"/><line style="stroke: #A80036; stroke-width: 1.0;" x1="576.1994" x2="581.771" y1="549.8251" y2="544.084"/><polygon fill="#A80036" points="642.839,481.166,635.7898,482.6855,634.4813,489.7769,641.5304,488.2574,642.839,481.166" style="stroke: #A80036; stroke-width: 1.0;"/><!--MD5=[d2cae6fbfef1442cc1e4a2e378a50eb8]
link com.views.console.ConsoleView to com.views.console.ResumeView--><path codeLine="99" d="M709,493.166 C709,493.166 709,526.174 709,540.175 " fill="none" id="com.views.console.ConsoleView-com.views.console.ResumeView" style="stroke: #A80036; stroke-width: 1.0;"/><polygon fill="#A80036" points="709,553.413,713,544.413,709,548.413,705,544.413,709,553.413" style="stroke: #A80036; stroke-width: 1.0;"/><line style="stroke: #A80036; stroke-width: 1.0;" x1="709" x2="709" y1="548.413" y2="540.413"/><polygon fill="#A80036" points="709,481.166,705,487.166,709,493.166,713,487.166,709,481.166" style="stroke: #A80036; stroke-width: 1.0;"/><!--MD5=[71f3a91da12756bc4af8fb361c280429]
link com.views.console.ConsoleView to com.utils.YesNoDialog--><path codeLine="100" d="M765.267,481.239 C774.434,492.993 783.653,505.22 792,517 C826.864,566.202 814.309,597.836 864,632 C898.332,655.605 919.688,629.571 956,650 C978.066,662.414 997.063,684.036 1009.99,701.524 " fill="none" id="com.views.console.ConsoleView-to-com.utils.YesNoDialog" style="stroke: #A80036; stroke-width: 1.0; stroke-dasharray: 7.0,7.0;"/><polygon fill="#A80036" points="1013.15,705.873,1011.0985,696.2402,1010.2121,701.8272,1004.6251,700.9408,1013.15,705.873" style="stroke: #A80036; stroke-width: 1.0;"/><!--MD5=[54addae0174bf8ce0e5c259080353776]
link com.views.console.ProposalView to com.views.console.SecretCombinationView--><path codeLine="102" d="M571.35,614.837 C589.411,634.539 613.433,660.745 633.906,683.08 " fill="none" id="com.views.console.ProposalView-to-com.views.console.SecretCombinationView" style="stroke: #A80036; stroke-width: 1.0; stroke-dasharray: 7.0,7.0;"/><polygon fill="#A80036" points="637.422,686.915,634.2891,677.5777,634.0434,683.2292,628.3919,682.9835,637.422,686.915" style="stroke: #A80036; stroke-width: 1.0;"/><!--MD5=[bc9d378066991817bd6561b80559f405]
link com.views.console.ProposalView to com.views.console.ProposedCombinationView--><path codeLine="103" d="M509.19,614.837 C486.014,634.702 455.125,661.179 428.928,683.633 " fill="none" id="com.views.console.ProposalView-to-com.views.console.ProposedCombinationView" style="stroke: #A80036; stroke-width: 1.0; stroke-dasharray: 7.0,7.0;"/><polygon fill="#A80036" points="425.099,686.915,434.5356,684.0955,428.8955,683.6613,429.3297,678.0211,425.099,686.915" style="stroke: #A80036; stroke-width: 1.0;"/><!--MD5=[db5e31afe49d720b69a83fd3f36d0211]
link com.views.console.ProposalView to com.views.console.ResultView--><path codeLine="104" d="M499.971,614.67 C487.823,621.513 474.311,627.961 461,632 C357.369,663.444 317.002,606.106 218,650 C200.878,657.591 185.124,670.284 172.047,683.299 " fill="none" id="com.views.console.ProposalView-to-com.views.console.ResultView" style="stroke: #A80036; stroke-width: 1.0; stroke-dasharray: 7.0,7.0;"/><polygon fill="#A80036" points="168.431,686.974,177.5945,683.3643,171.9378,683.41,171.8921,677.7533,168.431,686.974" style="stroke: #A80036; stroke-width: 1.0;"/><!--MD5=[1cf0367ab8a792c9e190b449c161ce8a]
link com.views.console.StartView to com.views.console.SecretCombinationView--><path codeLine="106" d="M443.694,624.719 C449.474,627.348 455.288,629.815 461,632 C491.807,643.787 502.306,637.923 533,650 C556.878,659.395 581.738,672.016 603.904,684.409 " fill="none" id="com.views.console.StartView-to-com.views.console.SecretCombinationView" style="stroke: #A80036; stroke-width: 1.0; stroke-dasharray: 7.0,7.0;"/><polygon fill="#A80036" points="608.3,686.884,602.4196,678.9833,603.943,684.4312,598.4951,685.9546,608.3,686.884" style="stroke: #A80036; stroke-width: 1.0;"/><!--MD5=[d74e3ceda39633e406e937b880af528c]
reverse link com.views.console.SubView to com.views.console.StartView--><path codeLine="108" d="M476.692,464.349 C455.158,488.754 429.729,517.573 409.326,540.698 " fill="none" id="com.views.console.SubView-backto-com.views.console.StartView" style="stroke: #A80036; stroke-width: 1.0;"/><polygon fill="none" points="471.708,459.418,490.189,449.053,482.205,468.681,471.708,459.418" style="stroke: #A80036; stroke-width: 1.0;"/><!--MD5=[0248bcdb215ea66a2163516b8b5a229b]
reverse link com.views.console.SubView to com.views.console.ResumeView--><path codeLine="109" d="M576.814,462.831 C609.085,492.168 648.821,528.292 676.253,553.23 " fill="none" id="com.views.console.SubView-backto-com.views.console.ResumeView" style="stroke: #A80036; stroke-width: 1.0;"/><polygon fill="none" points="571.748,467.686,561.658,449.053,581.165,457.327,571.748,467.686" style="stroke: #A80036; stroke-width: 1.0;"/><!--MD5=[edd8066373e31fb65ee7bcccfcd31286]
reverse link com.views.console.SubView to com.views.console.ProposalView--><path codeLine="110" d="M529.237,468.921 C532.876,497.042 537.14,529.992 540.147,553.23 " fill="none" id="com.views.console.SubView-backto-com.views.console.ProposalView" style="stroke: #A80036; stroke-width: 1.0;"/><polygon fill="none" points="522.29,469.786,526.666,449.053,536.175,467.989,522.29,469.786" style="stroke: #A80036; stroke-width: 1.0;"/><!--MD5=[726183ef7816c83cd7ffea104b600899]
reverse link com.utils.WithConsoleView to com.views.console.ColorView--><path codeLine="113" d="M1123.75,778.318 C1116.01,783.057 1107.99,787.428 1100,791 C990.106,840.105 850.628,864.0327 770.523,874.4789 " fill="none" id="com.utils.WithConsoleView-backto-com.views.console.ColorView" style="stroke: #A80036; stroke-width: 1.0;"/><polygon fill="none" points="1120.1,772.337,1140.65,767.164,1127.82,784.022,1120.1,772.337" style="stroke: #A80036; stroke-width: 1.0;"/><!--MD5=[feedc1042afae6e2e04d18811f8c7bcd]
reverse link com.utils.WithConsoleView to com.views.console.ProposedCombinationView--><path codeLine="114" d="M1143.5,678.065 C1126.71,661.807 1105.77,646.632 1082.5,641 C1053.83,634.059 580.191,634.141 551.5,641 C513.456,650.095 474.335,668.859 442.712,686.822 " fill="none" id="com.utils.WithConsoleView-backto-com.views.console.ProposedCombinationView" style="stroke: #A80036; stroke-width: 1.0;"/><polygon fill="none" points="1148.74,673.413,1157.43,692.737,1138.59,683.051,1148.74,673.413" style="stroke: #A80036; stroke-width: 1.0;"/><!--MD5=[0dc20a1e41fc7e5f04f5f06aa486d743]
reverse link com.utils.WithConsoleView to com.views.console.ResultView--><path codeLine="115" d="M1143.5,678.065 C1126.71,661.807 1105.77,646.632 1082.5,641 C1036.77,629.929 281.235,629.929 235.5,641 C208.318,647.58 184.536,667.547 166.94,686.905 " fill="none" id="com.utils.WithConsoleView-backto-com.views.console.ResultView" style="stroke: #A80036; stroke-width: 1.0;"/><polygon fill="none" points="1148.74,673.413,1157.43,692.737,1138.59,683.051,1148.74,673.413" style="stroke: #A80036; stroke-width: 1.0;"/><!--MD5=[8b678d481ca4a6b7461ff7c1272e7c21]
reverse link com.utils.WithConsoleView to com.views.console.SecretCombinationView--><path codeLine="116" d="M1143.5,678.065 C1126.71,661.807 1105.77,646.632 1082.5,641 C1034.12,629.288 907.002,629.804 858.5,641 C819.172,650.079 778.516,668.84 745.587,686.807 " fill="none" id="com.utils.WithConsoleView-backto-com.views.console.SecretCombinationView" style="stroke: #A80036; stroke-width: 1.0;"/><polygon fill="none" points="1148.74,673.413,1157.43,692.737,1138.59,683.051,1148.74,673.413" style="stroke: #A80036; stroke-width: 1.0;"/><!--MD5=[dd97fbd9c35ea211593715a64c2cff44]
link com.views.console.ConsoleView to mastermind.models.Game--><path codeLine="119" d="M801.002,475.251 C818.757,488.42 836.844,502.683 853,517 C866.546,529.004 880.34,543.68 891.377,556.143 " fill="none" id="com.views.console.ConsoleView-to-mastermind.models.Game" style="stroke: #A80036; stroke-width: 1.0; stroke-dasharray: 7.0,7.0;"/><polygon fill="#A80036" points="894.71,559.934,891.7705,550.534,891.4082,556.1793,885.7629,555.8169,894.71,559.934" style="stroke: #A80036; stroke-width: 1.0;"/><!--MD5=[2114718b386996653dbe92f2fe941d7f]
link com.views.console.StartView to com.views.console.Message--><path codeLine="120" d="M300.256,589.234 C215.44,595.912 81.8666,612.257 51,650 C11.3281,698.51 28.1004,732.667 51,791 C60.9044,816.23 81.5157,838.614 99.8417,854.809 " fill="none" id="com.views.console.StartView-to-com.views.console.Message" style="stroke: #A80036; stroke-width: 1.0; stroke-dasharray: 7.0,7.0;"/><polygon fill="#A80036" points="103.955,858.375,99.7752,849.4571,100.1772,855.0996,94.5346,855.5016,103.955,858.375" style="stroke: #A80036; stroke-width: 1.0;"/><!--MD5=[603888e2eaaff50926ac19058d7e052e]
link com.views.console.ResumeView to com.utils.YesNoDialog--><path codeLine="122" d="M759.22,614.717 C772.426,621.385 786.924,627.739 801,632 C867.377,652.094 894.284,618.365 956,650 C978.683,661.627 997.753,683.521 1010.56,701.316 " fill="none" id="com.views.console.ResumeView-to-com.utils.YesNoDialog" style="stroke: #A80036; stroke-width: 1.0; stroke-dasharray: 7.0,7.0;"/><polygon fill="#A80036" points="1013.68,705.744,1011.7641,696.0833,1010.7993,701.6573,1005.2253,700.6924,1013.68,705.744" style="stroke: #A80036; stroke-width: 1.0;"/><!--MD5=[bb941783f923331f1f3f715bc099975c]
link com.views.console.ProposedCombinationView to com.views.console.Message--><path codeLine="125" d="M308.548,773.123 C266.129,799.612 212.754,832.944 176.475,855.6 " fill="none" id="com.views.console.ProposedCombinationView-to-com.views.console.Message" style="stroke: #A80036; stroke-width: 1.0; stroke-dasharray: 7.0,7.0;"/><polygon fill="#A80036" points="172.137,858.309,181.8895,856.9348,176.378,855.6607,177.6522,850.1492,172.137,858.309" style="stroke: #A80036; stroke-width: 1.0;"/><!--MD5=[d81739f0e07cdd2aac06dd5608921218]
link com.views.console.ProposedCombinationView to com.views.console.ColorView--><path codeLine="126" d="M468.362,773.123 C521.745,797.469 587.802,827.595 636.711,849.9 " fill="none" id="com.views.console.ProposedCombinationView-to-com.views.console.ColorView" style="stroke: #A80036; stroke-width: 1.0; stroke-dasharray: 7.0,7.0;"/><polygon fill="#A80036" points="641.389,852.034,634.8591,844.661,636.8395,849.9599,631.5406,851.9403,641.389,852.034" style="stroke: #A80036; stroke-width: 1.0;"/><!--MD5=[ff0185f0b3b10021bfb6f06bb73b91d9]
link com.views.console.ProposedCombinationView to com.views.console.ErrorView--><path codeLine="127" d="M401.872,773.323 C417.617,799.08 437.281,831.247 451.057,853.783 " fill="none" id="com.views.console.ProposedCombinationView-to-com.views.console.ErrorView" style="stroke: #A80036; stroke-width: 1.0; stroke-dasharray: 7.0,7.0;"/><polygon fill="#A80036" points="453.731,858.157,452.4482,848.392,451.1225,853.8914,445.6232,852.5657,453.731,858.157" style="stroke: #A80036; stroke-width: 1.0;"/><!--MD5=[4cb906c255cdd9b037b3d07e75d1777b]
link com.views.console.SecretCombinationView to com.utils.Console--><path codeLine="129" d="M800.875,730 C817.952,730 835.028,730 852.105,730 " fill="none" id="com.views.console.SecretCombinationView-to-com.utils.Console" style="stroke: #A80036; stroke-width: 1.0; stroke-dasharray: 7.0,7.0;"/><polygon fill="#A80036" points="857.405,730,848.405,726,852.405,730,848.405,734,857.405,730" style="stroke: #A80036; stroke-width: 1.0;"/><!--MD5=[a530400e35e44f4130d2988e30e4501c]
link com.views.console.SecretCombinationView to com.views.console.ColorView--><path codeLine="130" d="M684.437,773.323 C687.811,790.25 691.737,809.946 695.307,827.858 " fill="none" id="com.views.console.SecretCombinationView-to-com.views.console.ColorView" style="stroke: #A80036; stroke-width: 1.0; stroke-dasharray: 7.0,7.0;"/><polygon fill="#A80036" points="696.304,832.859,698.4683,823.2509,695.327,827.9554,690.6225,824.8141,696.304,832.859" style="stroke: #A80036; stroke-width: 1.0;"/><!--MD5=[049f9d60b17577bc39fc255c13cb9467]
link com.views.console.ColorView to com.utils.Console--><path codeLine="132" d="M768.207,832.738 C800.129,807.717 837.764,778.216 864.266,757.443 " fill="none" id="com.views.console.ColorView-to-com.utils.Console" style="stroke: #A80036; stroke-width: 1.0; stroke-dasharray: 7.0,7.0;"/><polygon fill="#A80036" points="868.421,754.186,858.8698,756.589,864.4855,757.2701,863.8044,762.8858,868.421,754.186" style="stroke: #A80036; stroke-width: 1.0;"/><!--MD5=[6ea0a1a87890fb473433baab9a86dccb]
link com.views.console.ErrorView to com.utils.Console--><path codeLine="133" d="M513.771,866.1154 C544.7,856.005 586.566,842.872 624,833 C708.883,810.615 737.057,827.269 817,791 C835.646,782.541 854.168,769.281 868.784,757.376 " fill="none" id="com.views.console.ErrorView-to-com.utils.Console" style="stroke: #A80036; stroke-width: 1.0; stroke-dasharray: 7.0,7.0;"/><polygon fill="#A80036" points="872.799,754.059,863.3129,756.7075,868.9443,757.2436,868.4083,762.875,872.799,754.059" style="stroke: #A80036; stroke-width: 1.0;"/><!--MD5=[831de021c2e45039d9a288e5a93b274f]
link com.views.console.ResultView to com.views.console.Message--><path codeLine="134" d="M135,773.323 C135,798.758 135,830.444 135,852.934 " fill="none" id="com.views.console.ResultView-to-com.views.console.Message" style="stroke: #A80036; stroke-width: 1.0; stroke-dasharray: 7.0,7.0;"/><polygon fill="#A80036" points="135,858.157,139,849.157,135,853.157,131,849.157,135,858.157" style="stroke: #A80036; stroke-width: 1.0;"/><!--MD5=[ba2377a1b3de619b7c28304be37447f3]
@startuml
class  com.views.ErrorView{
- error: Error
- {static} MESSAGES: String[]
~ ErrorView(Error)
+ {static} valueOf(String): Error
}

class  com.views.Message{
+ {static} ATTEMPTS: Message
+ {static} SECRET: Message
+ {static} RESUME: Message
+ {static} RESULT: Message
+ {static} PROPOSED_COMBINATION: Message
+ {static} TITLE: Message
+ {static} WINNER: Message
+ {static} LOOSER: Message
- Message: String
- Message(String)
+ write(): void
+ writeln(): void
+ writeln(int): void
+ writeln(int,int): void
}

class  com.views.View{
- game: Game
- startView: StartView
- proposedCombinationView: ProposedCombinationView
- resumeView: ResumeView
+ View(Game)
+ interact(): void
}


class  com.views.console.SubView{
# game: Game
~ SubView(Game)
}

class  com.views.console.ColorView{
- color: Color
~ ColorView(Color)
+ write(): void
+ writeInitials(): void
}


class  com.views.console.ProposedCombinationView{
-proposedCombination: ProposedCombination
+ write(ProposedCombination): void
+ read(): ProposedCombination
}


class  com.views.console.ResultView{
- result: Result
~ ResultView(Result)
+ writeln(): void
}

class  com.views.console.ResumeView{
+ interact(): boolean
}

class  com.views.console.ProposalView{
+ interact(): boolean
}

class  com.views.console.SecretCombinationView{
- secretCombination: SecretCombination
~ SecretCombinationView()
+ writeln(): void
}

class  com.views.console.StartView{
- game: Game 
~ StartView(Game)
+ interact(Game): void
}

class  com.views.console.ConsoleView{
- startView: StartView
- proposalView: ProposalView
- resumeView: ResumeView
+ ConsoleView(Game)
# start(): void
# play(): boolean
# isNewGame(): boolean
}

class com.utils.WithConsoleView {
  # console: Console
  ~ WithConsoleView();
}

com.views.View <|-down- com.views.console.ConsoleView
com.views.console.ConsoleView *-down-> com.views.console.StartView
com.views.console.ConsoleView *-down-> com.views.console.ProposalView
com.views.console.ConsoleView *-down-> com.views.console.ResumeView
com.views.console.ConsoleView ..> com.utils.YesNoDialog

com.views.console.ProposalView..> com.views.console.SecretCombinationView
com.views.console.ProposalView..> com.views.console.ProposedCombinationView
com.views.console.ProposalView..> com.views.console.ResultView

com.views.console.StartView..> com.views.console.SecretCombinationView

com.views.console.SubView <|- - com.views.console.StartView
com.views.console.SubView <|- - com.views.console.ResumeView
com.views.console.SubView <|- - com.views.console.ProposalView


com.utils.WithConsoleView <|-down- com.views.console.ColorView
com.utils.WithConsoleView <|-down- com.views.console.ProposedCombinationView
com.utils.WithConsoleView <|-down- com.views.console.ResultView
com.utils.WithConsoleView <|-down- com.views.console.SecretCombinationView


com.views.console.ConsoleView ..> mastermind.models.Game
com.views.console.StartView ..> com.views.console.Message

com.views.console.ResumeView ..> com.utils.YesNoDialog


com.views.console.ProposedCombinationView..> com.views.console.Message
com.views.console.ProposedCombinationView..> com.views.console.ColorView
com.views.console.ProposedCombinationView..> com.views.console.ErrorView

com.views.console.SecretCombinationView..> com.utils.Console
com.views.console.SecretCombinationView..> com.views.console.ColorView

com.views.console.ColorView..> com.utils.Console
com.views.console.ErrorView ..> com.utils.Console
com.views.console.ResultView..> com.views.console.Message
@enduml

PlantUML version 1.2020.20beta2(Unknown compile time)
(GPL source distribution)
Java Runtime: Java(TM) SE Runtime Environment
JVM: Java HotSpot(TM) 64-Bit Server VM
Default Encoding: UTF-8
Language: en
Country: US
--></g></svg>