<?xml version="1.0" encoding="UTF-8" standalone="no"?><svg xmlns="http://www.w3.org/2000/svg" xmlns:xlink="http://www.w3.org/1999/xlink" contentScriptType="application/ecmascript" contentStyleType="text/css" height="401px" preserveAspectRatio="none" style="width:659px;height:401px;" version="1.1" viewBox="0 0 659 401" width="659px" zoomAndPan="magnify"><defs><filter height="300%" id="f20ubo4mvoaul" width="300%" x="-1" y="-1"><feGaussianBlur result="blurOut" stdDeviation="2.0"/><feColorMatrix in="blurOut" result="blurOut2" type="matrix" values="0 0 0 0 0 0 0 0 0 0 0 0 0 0 0 0 0 0 .4 0"/><feOffset dx="4.0" dy="4.0" in="blurOut2" result="blurOut3"/><feBlend in="SourceGraphic" in2="blurOut3" mode="normal"/></filter></defs><g><!--MD5=[e83acf53252e5e6f992a589437172ba6]
cluster com.views--><polygon fill="#FFFFFF" filter="url(#f20ubo4mvoaul)" points="16,6,106,6,113,28.2969,642,28.2969,642,271,16,271,16,6" style="stroke: #000000; stroke-width: 1.5;"/><line style="stroke: #000000; stroke-width: 1.5;" x1="16" x2="113" y1="28.2969" y2="28.2969"/><text fill="#000000" font-family="sans-serif" font-size="14" font-weight="bold" lengthAdjust="spacingAndGlyphs" textLength="84" x="20" y="20.9951">com.views</text><!--MD5=[b95032ff59720514854eb7a92b6b0ae3]
cluster com.models--><polygon fill="#FFFFFF" filter="url(#f20ubo4mvoaul)" points="53,295,156,295,163,317.2969,166,317.2969,166,394,53,394,53,295" style="stroke: #000000; stroke-width: 1.5;"/><line style="stroke: #000000; stroke-width: 1.5;" x1="53" x2="163" y1="317.2969" y2="317.2969"/><text fill="#000000" font-family="sans-serif" font-size="14" font-weight="bold" lengthAdjust="spacingAndGlyphs" textLength="97" x="57" y="309.9951">com.models</text><!--MD5=[b3c4fa56fc4050e12935ef94e0e29ab6]
class com.views.ErrorView--><rect codeLine="1" fill="#FEFECE" filter="url(#f20ubo4mvoaul)" height="86.4141" id="com.views.ErrorView" style="stroke: #A80036; stroke-width: 1.5;" width="138" x="488" y="105"/><ellipse cx="524.15" cy="121" fill="#ADD1B2" rx="11" ry="11" style="stroke: #A80036; stroke-width: 1.0;"/><path d="M526.4938,116.6719 C525.5563,116.2344 524.9625,116.0938 524.0875,116.0938 C521.4625,116.0938 519.4625,118.1719 519.4625,120.8906 L519.4625,122.0156 C519.4625,124.5938 521.5719,126.4844 524.4625,126.4844 C525.6813,126.4844 526.8375,126.1875 527.5875,125.6406 C528.1656,125.2344 528.4938,124.7813 528.4938,124.3906 C528.4938,123.9375 528.1031,123.5469 527.6344,123.5469 C527.4156,123.5469 527.2125,123.625 527.025,123.8125 C526.5719,124.2969 526.5719,124.2969 526.3844,124.3906 C525.9625,124.6563 525.275,124.7813 524.5094,124.7813 C522.4625,124.7813 521.1656,123.6875 521.1656,121.9844 L521.1656,120.8906 C521.1656,119.1094 522.4156,117.7969 524.15,117.7969 C524.7281,117.7969 525.3375,117.9531 525.8063,118.2031 C526.2906,118.4844 526.4625,118.7031 526.5563,119.1094 C526.6188,119.5156 526.65,119.6406 526.7906,119.7656 C526.9313,119.9063 527.1656,120.0156 527.3844,120.0156 C527.65,120.0156 527.9156,119.875 528.0875,119.6563 C528.1969,119.5 528.2281,119.3125 528.2281,118.8906 L528.2281,117.4688 C528.2281,117.0313 528.2125,116.9063 528.1188,116.75 C527.9625,116.4844 527.6813,116.3438 527.3844,116.3438 C527.0875,116.3438 526.8844,116.4375 526.6656,116.75 L526.4938,116.6719 Z "/><text fill="#000000" font-family="sans-serif" font-size="12" lengthAdjust="spacingAndGlyphs" textLength="59" x="542.85" y="125.1543">ErrorView</text><line style="stroke: #A80036; stroke-width: 1.5;" x1="489" x2="625" y1="137" y2="137"/><ellipse cx="499" cy="148" fill="none" rx="3" ry="3" style="stroke: #038048; stroke-width: 1.0;"/><text fill="#000000" font-family="sans-serif" font-size="11" lengthAdjust="spacingAndGlyphs" text-decoration="underline" textLength="112" x="508" y="151.2104">MESSAGES: String[]</text><polygon fill="none" points="499,155.8047,503,159.8047,499,163.8047,495,159.8047" style="stroke: #B38D22; stroke-width: 1.0;"/><text fill="#000000" font-family="sans-serif" font-size="11" lengthAdjust="spacingAndGlyphs" textLength="60" x="508" y="164.0151">error: Error</text><line style="stroke: #A80036; stroke-width: 1.5;" x1="489" x2="625" y1="170.6094" y2="170.6094"/><ellipse cx="499" cy="181.6094" fill="#84BE84" rx="3" ry="3" style="stroke: #038048; stroke-width: 1.0;"/><text fill="#000000" font-family="sans-serif" font-size="11" lengthAdjust="spacingAndGlyphs" textLength="88" x="508" y="184.8198">ErrorView(Error)</text><!--MD5=[173a4c62e52a3982e8161193ff2a2600]
class com.views.Message--><rect codeLine="7" fill="#FEFECE" filter="url(#f20ubo4mvoaul)" height="214.4609" id="com.views.Message" style="stroke: #A80036; stroke-width: 1.5;" width="231" x="221.5" y="41"/><ellipse cx="305.25" cy="57" fill="#EB937F" rx="11" ry="11" style="stroke: #A80036; stroke-width: 1.0;"/><path d="M304.0469,57.875 L305.5,57.875 L305.5,57.9844 C305.5,58.3906 305.5313,58.5469 305.6094,58.7031 C305.7656,58.9531 306.0469,59.1094 306.3438,59.1094 C306.5938,59.1094 306.8594,58.9688 307.0156,58.75 C307.1406,58.5938 307.1719,58.4375 307.1719,57.9844 L307.1719,56.0625 C307.1719,55.9063 307.1719,55.8594 307.1563,55.7031 C307.0938,55.2344 306.7813,54.9219 306.3281,54.9219 C306.0781,54.9219 305.8125,55.0625 305.6406,55.2813 C305.5313,55.4531 305.5,55.6094 305.5,56.0625 L305.5,56.1875 L304.0469,56.1875 L304.0469,53.7813 L308.0313,53.7813 L308.0313,54.6406 C308.0313,55.0469 308.0625,55.2188 308.1406,55.375 C308.3125,55.625 308.5938,55.7813 308.875,55.7813 C309.1406,55.7813 309.4063,55.6406 309.5781,55.4219 C309.6875,55.25 309.7188,55.1094 309.7188,54.6406 L309.7188,52.0938 L302.0938,52.0938 C301.6563,52.0938 301.5313,52.1094 301.375,52.2031 C301.125,52.3594 300.9688,52.6563 300.9688,52.9375 C300.9688,53.2188 301.1094,53.4688 301.3281,53.6406 C301.4844,53.75 301.6719,53.7813 302.0938,53.7813 L302.3438,53.7813 L302.3438,60.2969 L302.0938,60.2969 C301.6875,60.2969 301.5313,60.3125 301.375,60.4219 C301.125,60.5938 300.9688,60.8594 300.9688,61.1563 C300.9688,61.4219 301.1094,61.6719 301.3281,61.8281 C301.4688,61.9531 301.7031,62 302.0938,62 L310.0938,62 L310.0938,59.4219 C310.0938,58.9844 310.0625,58.8438 309.9844,58.6875 C309.8125,58.4375 309.5313,58.2813 309.25,58.2813 C308.9844,58.2813 308.7188,58.3906 308.5469,58.6406 C308.4375,58.7969 308.4063,58.9375 308.4063,59.4219 L308.4063,60.2969 L304.0469,60.2969 L304.0469,57.875 Z "/><text fill="#000000" font-family="sans-serif" font-size="12" lengthAdjust="spacingAndGlyphs" textLength="55" x="325.75" y="61.1543">Message</text><line style="stroke: #A80036; stroke-width: 1.5;" x1="222.5" x2="451.5" y1="73" y2="73"/><ellipse cx="232.5" cy="84" fill="none" rx="3" ry="3" style="stroke: #038048; stroke-width: 1.0;"/><text fill="#000000" font-family="sans-serif" font-size="11" lengthAdjust="spacingAndGlyphs" textLength="117" x="241.5" y="87.2104">ATTEMPTS: Message</text><ellipse cx="232.5" cy="96.8047" fill="none" rx="3" ry="3" style="stroke: #038048; stroke-width: 1.0;"/><text fill="#000000" font-family="sans-serif" font-size="11" lengthAdjust="spacingAndGlyphs" textLength="102" x="241.5" y="100.0151">SECRET: Message</text><ellipse cx="232.5" cy="109.6094" fill="none" rx="3" ry="3" style="stroke: #038048; stroke-width: 1.0;"/><text fill="#000000" font-family="sans-serif" font-size="11" lengthAdjust="spacingAndGlyphs" textLength="104" x="241.5" y="112.8198">RESUME: Message</text><ellipse cx="232.5" cy="122.4141" fill="none" rx="3" ry="3" style="stroke: #038048; stroke-width: 1.0;"/><text fill="#000000" font-family="sans-serif" font-size="11" lengthAdjust="spacingAndGlyphs" textLength="101" x="241.5" y="125.6245">RESULT: Message</text><ellipse cx="232.5" cy="135.2188" fill="none" rx="3" ry="3" style="stroke: #038048; stroke-width: 1.0;"/><text fill="#000000" font-family="sans-serif" font-size="11" lengthAdjust="spacingAndGlyphs" textLength="205" x="241.5" y="138.4292">PROPOSED_COMBINATION: Message</text><ellipse cx="232.5" cy="148.0234" fill="none" rx="3" ry="3" style="stroke: #038048; stroke-width: 1.0;"/><text fill="#000000" font-family="sans-serif" font-size="11" lengthAdjust="spacingAndGlyphs" textLength="88" x="241.5" y="151.2339">TITLE: Message</text><ellipse cx="232.5" cy="160.8281" fill="none" rx="3" ry="3" style="stroke: #038048; stroke-width: 1.0;"/><text fill="#000000" font-family="sans-serif" font-size="11" lengthAdjust="spacingAndGlyphs" textLength="102" x="241.5" y="164.0386">WINNER: Message</text><ellipse cx="232.5" cy="173.6328" fill="none" rx="3" ry="3" style="stroke: #038048; stroke-width: 1.0;"/><text fill="#000000" font-family="sans-serif" font-size="11" lengthAdjust="spacingAndGlyphs" textLength="104" x="241.5" y="176.8433">LOOSER: Message</text><line style="stroke: #A80036; stroke-width: 1.5;" x1="222.5" x2="451.5" y1="183.4375" y2="183.4375"/><polygon fill="#4177AF" points="232.5,190.4375,228.5,196.4375,236.5,196.4375" style="stroke: #1963A0; stroke-width: 1.0;"/><text fill="#000000" font-family="sans-serif" font-size="11" lengthAdjust="spacingAndGlyphs" textLength="92" x="241.5" y="197.6479">Message(String)</text><ellipse cx="232.5" cy="207.2422" fill="#84BE84" rx="3" ry="3" style="stroke: #038048; stroke-width: 1.0;"/><text fill="#000000" font-family="sans-serif" font-size="11" lengthAdjust="spacingAndGlyphs" textLength="67" x="241.5" y="210.4526">write(): void</text><ellipse cx="232.5" cy="220.0469" fill="#84BE84" rx="3" ry="3" style="stroke: #038048; stroke-width: 1.0;"/><text fill="#000000" font-family="sans-serif" font-size="11" lengthAdjust="spacingAndGlyphs" textLength="77" x="241.5" y="223.2573">writeln(): void</text><ellipse cx="232.5" cy="232.8516" fill="#84BE84" rx="3" ry="3" style="stroke: #038048; stroke-width: 1.0;"/><text fill="#000000" font-family="sans-serif" font-size="11" lengthAdjust="spacingAndGlyphs" textLength="91" x="241.5" y="236.062">writeln(int): void</text><ellipse cx="232.5" cy="245.6563" fill="#84BE84" rx="3" ry="3" style="stroke: #038048; stroke-width: 1.0;"/><text fill="#000000" font-family="sans-serif" font-size="11" lengthAdjust="spacingAndGlyphs" textLength="102" x="241.5" y="248.8667">write(int, int): void</text><!--MD5=[4e4b69ff03f558308117a21ae810a87e]
class com.views.View--><rect codeLine="24" fill="#FEFECE" filter="url(#f20ubo4mvoaul)" height="124.8281" id="com.views.View" style="stroke: #A80036; stroke-width: 1.5;" width="154" x="32" y="85.5"/><ellipse cx="90.25" cy="101.5" fill="#ADD1B2" rx="11" ry="11" style="stroke: #A80036; stroke-width: 1.0;"/><path d="M92.5938,97.1719 C91.6563,96.7344 91.0625,96.5938 90.1875,96.5938 C87.5625,96.5938 85.5625,98.6719 85.5625,101.3906 L85.5625,102.5156 C85.5625,105.0938 87.6719,106.9844 90.5625,106.9844 C91.7813,106.9844 92.9375,106.6875 93.6875,106.1406 C94.2656,105.7344 94.5938,105.2813 94.5938,104.8906 C94.5938,104.4375 94.2031,104.0469 93.7344,104.0469 C93.5156,104.0469 93.3125,104.125 93.125,104.3125 C92.6719,104.7969 92.6719,104.7969 92.4844,104.8906 C92.0625,105.1563 91.375,105.2813 90.6094,105.2813 C88.5625,105.2813 87.2656,104.1875 87.2656,102.4844 L87.2656,101.3906 C87.2656,99.6094 88.5156,98.2969 90.25,98.2969 C90.8281,98.2969 91.4375,98.4531 91.9063,98.7031 C92.3906,98.9844 92.5625,99.2031 92.6563,99.6094 C92.7188,100.0156 92.75,100.1406 92.8906,100.2656 C93.0313,100.4063 93.2656,100.5156 93.4844,100.5156 C93.75,100.5156 94.0156,100.375 94.1875,100.1563 C94.2969,100 94.3281,99.8125 94.3281,99.3906 L94.3281,97.9688 C94.3281,97.5313 94.3125,97.4063 94.2188,97.25 C94.0625,96.9844 93.7813,96.8438 93.4844,96.8438 C93.1875,96.8438 92.9844,96.9375 92.7656,97.25 L92.5938,97.1719 Z "/><text fill="#000000" font-family="sans-serif" font-size="12" lengthAdjust="spacingAndGlyphs" textLength="29" x="110.75" y="105.6543">View</text><line style="stroke: #A80036; stroke-width: 1.5;" x1="33" x2="185" y1="117.5" y2="117.5"/><polygon fill="none" points="43,123.5,47,127.5,43,131.5,39,127.5" style="stroke: #B38D22; stroke-width: 1.0;"/><text fill="#000000" font-family="sans-serif" font-size="11" lengthAdjust="spacingAndGlyphs" textLength="75" x="52" y="131.7104">game: Game</text><line style="stroke: #A80036; stroke-width: 1.5;" x1="33" x2="185" y1="138.3047" y2="138.3047"/><ellipse cx="43" cy="149.3047" fill="#84BE84" rx="3" ry="3" style="stroke: #038048; stroke-width: 1.0;"/><text fill="#000000" font-family="sans-serif" font-size="11" lengthAdjust="spacingAndGlyphs" textLength="71" x="52" y="152.5151">View(Game)</text><ellipse cx="43" cy="162.1094" fill="#84BE84" rx="3" ry="3" style="stroke: #038048; stroke-width: 1.0;"/><text fill="#000000" font-family="sans-serif" font-size="11" lengthAdjust="spacingAndGlyphs" textLength="82" x="52" y="165.3198">interact(): void</text><polygon fill="#FFFF44" points="43,169.9141,47,173.9141,43,177.9141,39,173.9141" style="stroke: #B38D22; stroke-width: 1.0;"/><text fill="#000000" font-family="sans-serif" font-size="11" font-style="italic" lengthAdjust="spacingAndGlyphs" textLength="66" x="52" y="178.1245">start(): void</text><polygon fill="#FFFF44" points="43,182.7188,47,186.7188,43,190.7188,39,186.7188" style="stroke: #B38D22; stroke-width: 1.0;"/><text fill="#000000" font-family="sans-serif" font-size="11" font-style="italic" lengthAdjust="spacingAndGlyphs" textLength="85" x="52" y="190.9292">play(): boolean</text><polygon fill="#FFFF44" points="43,195.5234,47,199.5234,43,203.5234,39,199.5234" style="stroke: #B38D22; stroke-width: 1.0;"/><text fill="#000000" font-family="sans-serif" font-size="11" font-style="italic" lengthAdjust="spacingAndGlyphs" textLength="128" x="52" y="203.7339">isNewGame(): boolean</text><!--MD5=[774d1cec19cc617bb34cfe9176e0920d]
class com.models.Game--><rect fill="#FEFECE" filter="url(#f20ubo4mvoaul)" height="48" id="com.models.Game" style="stroke: #A80036; stroke-width: 1.5;" width="67" x="75.5" y="330"/><ellipse cx="90.5" cy="346" fill="#ADD1B2" rx="11" ry="11" style="stroke: #A80036; stroke-width: 1.0;"/><path d="M92.8438,341.6719 C91.9063,341.2344 91.3125,341.0938 90.4375,341.0938 C87.8125,341.0938 85.8125,343.1719 85.8125,345.8906 L85.8125,347.0156 C85.8125,349.5938 87.9219,351.4844 90.8125,351.4844 C92.0313,351.4844 93.1875,351.1875 93.9375,350.6406 C94.5156,350.2344 94.8438,349.7813 94.8438,349.3906 C94.8438,348.9375 94.4531,348.5469 93.9844,348.5469 C93.7656,348.5469 93.5625,348.625 93.375,348.8125 C92.9219,349.2969 92.9219,349.2969 92.7344,349.3906 C92.3125,349.6563 91.625,349.7813 90.8594,349.7813 C88.8125,349.7813 87.5156,348.6875 87.5156,346.9844 L87.5156,345.8906 C87.5156,344.1094 88.7656,342.7969 90.5,342.7969 C91.0781,342.7969 91.6875,342.9531 92.1563,343.2031 C92.6406,343.4844 92.8125,343.7031 92.9063,344.1094 C92.9688,344.5156 93,344.6406 93.1406,344.7656 C93.2813,344.9063 93.5156,345.0156 93.7344,345.0156 C94,345.0156 94.2656,344.875 94.4375,344.6563 C94.5469,344.5 94.5781,344.3125 94.5781,343.8906 L94.5781,342.4688 C94.5781,342.0313 94.5625,341.9063 94.4688,341.75 C94.3125,341.4844 94.0313,341.3438 93.7344,341.3438 C93.4375,341.3438 93.2344,341.4375 93.0156,341.75 L92.8438,341.6719 Z "/><text fill="#000000" font-family="sans-serif" font-size="12" lengthAdjust="spacingAndGlyphs" textLength="35" x="104.5" y="350.1543">Game</text><line style="stroke: #A80036; stroke-width: 1.5;" x1="76.5" x2="141.5" y1="362" y2="362"/><line style="stroke: #A80036; stroke-width: 1.5;" x1="76.5" x2="141.5" y1="370" y2="370"/><!--MD5=[b35009f643fc9bfbd553f11073bad333]
link com.views.View to com.models.Game--><path codeLine="32" d="M109,222.76 C109,222.76 109,290.919 109,316.6668 " fill="none" id="com.views.View-com.models.Game" style="stroke: #A80036; stroke-width: 1.0;"/><polygon fill="#A80036" points="109,329.8862,113,320.8862,109,324.8862,105,320.8862,109,329.8862" style="stroke: #A80036; stroke-width: 1.0;"/><line style="stroke: #A80036; stroke-width: 1.0;" x1="109" x2="109" y1="324.8862" y2="316.8863"/><polygon fill="#A80036" points="109,210.76,105,216.76,109,222.76,113,216.76,109,210.76" style="stroke: #A80036; stroke-width: 1.0;"/><!--MD5=[c3086768744cf310c73ba89d8a39c92c]
@startuml
class  com.views.ErrorView{
+ {static} MESSAGES: String[]
# error: Error
+ ErrorView(Error)
}

enum  com.views.Message{
+ ATTEMPTS: Message
+ SECRET: Message
+ RESUME: Message
+ RESULT: Message
+ PROPOSED_COMBINATION: Message
+ TITLE: Message
+ WINNER: Message
+ LOOSER: Message
~ Message(String)
+ write(): void
+ writeln(): void
+ writeln(int): void
+ write(int, int): void
}


class  com.views.View{
# game: Game
+ View(Game)
+ interact(): void
# {abstract} start(): void
# {abstract} play(): boolean
# {abstract} isNewGame(): boolean
}
com.views.View *-down-> com.models.Game
@enduml

PlantUML version 1.2020.20beta2(Unknown compile time)
(GPL source distribution)
Java Runtime: Java(TM) SE Runtime Environment
JVM: Java HotSpot(TM) 64-Bit Server VM
Default Encoding: UTF-8
Language: en
Country: US
--></g></svg>